<svg width="1236" height="113" fill="none" xmlns="http://www.w3.org/2000/svg"><path d="M.365 0H33L0 32.894V.364L.365 0zM0 68.145L68.365 0H101L0 100.675v-32.53zM138.365 0H171L57.635 113H25L138.365 0zm67 0H238L124.635 113H92L205.365 0zm70 0H308L194.635 113H162L275.365 0zm68 0H376L262.635 113H230L343.365 0zm70 0H446L332.635 113H300L413.365 0zm67 0H513L399.635 113H367L480.365 0zm70 0H583L469.635 113H437L550.365 0zm68 0H651L537.635 113H505L618.365 0zm68 0H719L605.635 113H573L686.365 0zm68 0H787L673.635 113H641L754.365 0zm70 0H857L743.635 113H711L824.365 0zm67 0H924L810.635 113H778L891.365 0zm70 0H994L880.635 113H848L961.365 0zm67.995 0H1062L948.635 113H916L1029.36 0zm70 0H1132l-113.36 113H986L1099.36 0zm67 0H1199l-113.36 113H1053L1166.36 0zm69.64.364L1123 113h32.64L1236 32.894V.364zm0 67.781v32.53L1223.64 113H1191l45-44.855z" opacity=".4" fill="#FF8B11"/></svg>