<svg width="1020" height="113" fill="none" xmlns="http://www.w3.org/2000/svg"><path fill-rule="evenodd" clip-rule="evenodd" d="M27.365 0H60L-53.365 113H-86L27.365 0zm68 0H128L14.635 113H-18L95.365 0zm70 0H198L84.635 113H52L165.365 0zm67 0H265L151.635 113H119L232.365 0zm70 0H335L221.635 113H189L302.365 0zm68 0H403L289.635 113H257L370.365 0zm70 0H473L359.635 113H327L440.365 0zm67 0H540L426.635 113H394L507.365 0zm70 0H610L496.635 113H464L577.365 0zm68 0H678L564.635 113H532L645.365 0zm68 0H746L632.635 113H600L713.365 0zm68 0H814L700.635 113H668L781.365 0zm70 0H884L770.635 113H738L851.365 0zm67 0H951L837.635 113H805L918.365 0zm70 0H1021L907.635 113H875L988.365 0zm67.995 0H1089L975.635 113H943L1056.36 0zm70 0H1159l-113.36 113H1013L1126.36 0zm67 0H1226l-113.36 113H1080L1193.36 0zm70 0H1296l-113.36 113H1150L1263.36 0zm68 0H1364l-113.36 113H1218L1331.36 0z" fill="#F8F8F8"/></svg>