<svg width="175" height="243" xmlns="http://www.w3.org/2000/svg" xmlns:xlink="http://www.w3.org/1999/xlink"><defs><path id="a" d="M0 0h175v243H0z"/><linearGradient x1="0%" y1="50%" x2="100%" y2="50%" id="c"><stop stop-color="#FF9729" stop-opacity=".211" offset="0%"/><stop stop-color="#67412E" stop-opacity=".582" offset="100%"/></linearGradient></defs><g fill="none" fill-rule="evenodd"><mask id="b" fill="#fff"><use xlink:href="#a"/></mask><use fill="#000" filter="url(#filter-3)" xlink:href="#a"/><use fill="#FF9729" xlink:href="#a"/><path d="M-7.012 0H14l-72.988 73H-80L-7.012 0zm44 0H58l-72.988 73H-36L36.988 0zm44 0H102L29.012 73H8L80.988 0zm44 0H146L73.012 73H52l72.988-73zm44 0H190l-72.988 73H96l72.988-73zm44 0H234l-72.988 73H140l72.988-73zm44 0H278l-72.988 73H184l72.988-73zm44 0H322l-72.988 73H228l72.988-73zm44 0H366l-72.988 73H272l72.988-73zm44 0H410l-72.988 73H316l72.988-73z" fill="#FF8B11" mask="url(#b)"/><path fill="#FFF" d="M0 186h154v17H0z"/><path fill="url(#c)" opacity=".51" d="M0 0h5v243H0z"/><path d="M33.444 54.176h-1.62V59h-3.546V46.4h3.546v4.896h1.71L36.54 46.4h3.744l-3.942 6.084L40.32 59h-4.014l-2.862-4.824zm17.1 2.376h-5.328L44.226 59H40.59l5.562-12.6h3.51l5.58 12.6h-3.708l-.99-2.448zM49.5 53.924l-1.62-4.032-1.62 4.032h3.24zm17.334-4.698h-3.852V59h-3.51v-9.774h-3.87V46.4h11.232v2.826zm10.332 7.326h-5.328L70.848 59h-3.636l5.562-12.6h3.51l5.58 12.6h-3.708l-.99-2.448zm-1.044-2.628l-1.62-4.032-1.62 4.032h3.24zM95.058 46.4V59h-3.51v-9.774H87.93l-.072 2.052c-.06 1.8-.207 3.264-.441 4.392-.234 1.128-.633 2.001-1.197 2.619-.564.618-1.362.927-2.394.927-.48 0-1.02-.072-1.62-.216l.198-2.916c.156.036.318.054.486.054.468 0 .828-.186 1.08-.558.252-.372.432-.891.54-1.557.108-.666.18-1.533.216-2.601l.18-5.022h10.152zm8.892 12.852c-1.332 0-2.529-.282-3.591-.846a6.356 6.356 0 0 1-2.502-2.34c-.606-.996-.909-2.118-.909-3.366 0-1.248.303-2.37.909-3.366a6.356 6.356 0 0 1 2.502-2.34c1.062-.564 2.259-.846 3.591-.846 1.332 0 2.529.282 3.591.846a6.356 6.356 0 0 1 2.502 2.34c.606.996.909 2.118.909 3.366 0 1.248-.303 2.37-.909 3.366a6.356 6.356 0 0 1-2.502 2.34c-1.062.564-2.259.846-3.591.846zm0-2.952c.636 0 1.212-.15 1.728-.45.516-.3.924-.723 1.224-1.269.3-.546.45-1.173.45-1.881s-.15-1.335-.45-1.881a3.237 3.237 0 0 0-1.224-1.269 3.375 3.375 0 0 0-1.728-.45c-.636 0-1.212.15-1.728.45-.516.3-.924.723-1.224 1.269-.3.546-.45 1.173-.45 1.881s.15 1.335.45 1.881c.3.546.708.969 1.224 1.269.516.3 1.092.45 1.728.45zm18.126-7.074h-5.706V59h-3.51V46.4h9.234l-.018 2.826zM36.144 72.448c.696.264 1.242.66 1.638 1.188a2.95 2.95 0 0 1 .594 1.818c0 .78-.264 1.458-.792 2.034-.528.576-1.242 1.017-2.142 1.323-.9.306-1.89.459-2.97.459-.852 0-1.719-.102-2.601-.306a11.09 11.09 0 0 1-2.529-.918l1.062-2.484a7.926 7.926 0 0 0 1.809.657 8.18 8.18 0 0 0 1.863.225c.792 0 1.44-.129 1.944-.387s.756-.621.756-1.089c0-.372-.156-.648-.468-.828-.312-.18-.732-.27-1.26-.27h-3.222v-2.61h2.934c.48 0 .852-.096 1.116-.288a.909.909 0 0 0 .396-.774c0-.408-.204-.723-.612-.945-.408-.222-.936-.333-1.584-.333-.528 0-1.086.075-1.674.225a7.719 7.719 0 0 0-1.674.639l-1.044-2.7c1.344-.648 2.82-.972 4.428-.972 1.032 0 1.989.147 2.871.441.882.294 1.584.717 2.106 1.269a2.76 2.76 0 0 1 .783 1.962c0 .588-.153 1.113-.459 1.575a3.135 3.135 0 0 1-1.269 1.089zm12.852 4.104h-5.328L42.678 79h-3.636l5.562-12.6h3.51l5.58 12.6h-3.708l-.99-2.448zm-1.044-2.628l-1.62-4.032-1.62 4.032h3.24zM66.96 66.4V79h-3.528v-9.774h-4.788V79h-3.51V66.4H66.96zm13.626 0V79h-3.51v-4.284c-.972.324-1.866.486-2.682.486-1.764 0-3.111-.423-4.041-1.269-.93-.846-1.395-2.067-1.395-3.663V66.4h3.51v3.474c0 1.62.792 2.43 2.376 2.43.864 0 1.608-.144 2.232-.432V66.4h3.51zM91.98 76.552h-5.328L85.662 79h-3.636l5.562-12.6h3.51l5.58 12.6H92.97l-.99-2.448zm-1.044-2.628l-1.62-4.032-1.62 4.032h3.24zm13.374 5.328c-1.32 0-2.505-.279-3.555-.837a6.259 6.259 0 0 1-2.475-2.331c-.6-.996-.9-2.124-.9-3.384 0-1.26.3-2.388.9-3.384a6.259 6.259 0 0 1 2.475-2.331c1.05-.558 2.235-.837 3.555-.837 1.152 0 2.19.204 3.114.612a5.991 5.991 0 0 1 2.304 1.764l-2.268 2.052c-.816-.984-1.806-1.476-2.97-1.476-.684 0-1.293.15-1.827.45-.534.3-.948.723-1.242 1.269-.294.546-.441 1.173-.441 1.881s.147 1.335.441 1.881c.294.546.708.969 1.242 1.269.534.3 1.143.45 1.827.45 1.164 0 2.154-.492 2.97-1.476l2.268 2.052a5.991 5.991 0 0 1-2.304 1.764c-.924.408-1.962.612-3.114.612zm17.244-10.026h-3.852V79h-3.51v-9.774h-3.87V66.4h11.232v2.826zm11.754 7.02V79h-10.116V66.4h9.882v2.754h-6.354v2.124h5.598v2.664h-5.598v2.304h6.588zm2.034-9.846h3.51v7.398l5.202-7.398h3.348V79h-3.51v-7.38L138.708 79h-3.366V66.4zm6.012-.756c-1.272 0-2.205-.246-2.799-.738-.594-.492-.891-1.224-.891-2.196h2.394c.012.42.12.732.324.936.204.204.528.306.972.306.444 0 .774-.102.99-.306.216-.204.33-.516.342-.936h2.394c0 .972-.3 1.704-.9 2.196-.6.492-1.542.738-2.826.738zM34.02 86.4c1.14 0 2.13.189 2.97.567.84.378 1.488.918 1.944 1.62.456.702.684 1.527.684 2.475 0 .948-.228 1.77-.684 2.466-.456.696-1.104 1.233-1.944 1.611-.84.378-1.83.567-2.97.567h-2.196V99H28.26V86.4h5.76zm-.216 6.498c.732 0 1.284-.159 1.656-.477.372-.318.558-.771.558-1.359s-.186-1.044-.558-1.368c-.372-.324-.924-.486-1.656-.486h-1.98v3.69h1.98zm13.23 2.754H45.09V99h-3.564V86.4h5.76c1.14 0 2.13.189 2.97.567.84.378 1.488.918 1.944 1.62.456.702.684 1.527.684 2.475 0 .912-.213 1.707-.639 2.385-.426.678-1.035 1.209-1.827 1.593L53.136 99H49.32l-2.286-3.348zm2.25-4.59c0-.588-.186-1.044-.558-1.368-.372-.324-.924-.486-1.656-.486h-1.98v3.69h1.98c.732 0 1.284-.159 1.656-.477.372-.318.558-.771.558-1.359zm11.916 8.19c-1.332 0-2.529-.282-3.591-.846a6.356 6.356 0 0 1-2.502-2.34c-.606-.996-.909-2.118-.909-3.366 0-1.248.303-2.37.909-3.366a6.356 6.356 0 0 1 2.502-2.34c1.062-.564 2.259-.846 3.591-.846 1.332 0 2.529.282 3.591.846a6.356 6.356 0 0 1 2.502 2.34c.606.996.909 2.118.909 3.366 0 1.248-.303 2.37-.909 3.366a6.356 6.356 0 0 1-2.502 2.34c-1.062.564-2.259.846-3.591.846zm0-2.952c.636 0 1.212-.15 1.728-.45.516-.3.924-.723 1.224-1.269.3-.546.45-1.173.45-1.881s-.15-1.335-.45-1.881a3.237 3.237 0 0 0-1.224-1.269 3.375 3.375 0 0 0-1.728-.45c-.636 0-1.212.15-1.728.45-.516.3-.924.723-1.224 1.269-.3.546-.45 1.173-.45 1.881s.15 1.335.45 1.881c.3.546.708.969 1.224 1.269.516.3 1.092.45 1.728.45zM81.45 99l-.036-6.678-3.24 5.436H76.59l-3.222-5.256V99h-3.294V86.4h2.934l4.428 7.272 4.32-7.272h2.934l.036 12.6H81.45zm5.796-12.6h3.564V99h-3.564V86.4zm10.53 12.852c-1.02 0-2.01-.126-2.97-.378-.96-.252-1.74-.588-2.34-1.008l1.17-2.628a7.57 7.57 0 0 0 1.962.9 7.469 7.469 0 0 0 2.196.342c1.368 0 2.052-.342 2.052-1.026 0-.36-.195-.627-.585-.801-.39-.174-1.017-.357-1.881-.549-.948-.204-1.74-.423-2.376-.657a4 4 0 0 1-1.638-1.125c-.456-.516-.684-1.212-.684-2.088 0-.768.21-1.461.63-2.079.42-.618 1.047-1.107 1.881-1.467.834-.36 1.857-.54 3.069-.54.828 0 1.644.093 2.448.279.804.186 1.512.459 2.124.819l-1.098 2.646c-1.2-.648-2.364-.972-3.492-.972-.708 0-1.224.105-1.548.315-.324.21-.486.483-.486.819 0 .336.192.588.576.756.384.168 1.002.342 1.854.522.96.204 1.755.423 2.385.657.63.234 1.176.606 1.638 1.116.462.51.693 1.203.693 2.079 0 .756-.21 1.44-.63 2.052-.42.612-1.05 1.101-1.89 1.467-.84.366-1.86.549-3.06.549z" fill="#FFF"/><path d="M35.05 196.802V199h-7.63v-1.736l3.668-3.43c.355-.336.593-.623.714-.861s.182-.478.182-.721c0-.317-.107-.565-.322-.742-.215-.177-.527-.266-.938-.266a2.01 2.01 0 0 0-1.75.952l-2.058-1.148a4.027 4.027 0 0 1 1.61-1.498c.69-.364 1.507-.546 2.45-.546.747 0 1.407.121 1.981.364.574.243 1.022.59 1.344 1.043.322.453.483.978.483 1.575 0 .532-.114 1.034-.343 1.505-.229.471-.67 1.006-1.323 1.603l-1.848 1.708h3.78zm5.138 2.394c-.84 0-1.587-.2-2.24-.602-.653-.401-1.164-.987-1.533-1.757-.369-.77-.553-1.682-.553-2.737 0-1.055.184-1.967.553-2.737.369-.77.88-1.356 1.533-1.757.653-.401 1.4-.602 2.24-.602.83 0 1.573.2 2.226.602.653.401 1.164.987 1.533 1.757.369.77.553 1.682.553 2.737 0 1.055-.184 1.967-.553 2.737-.369.77-.88 1.356-1.533 1.757-.653.401-1.395.602-2.226.602zm0-2.268c.467 0 .838-.226 1.113-.679.275-.453.413-1.169.413-2.149s-.138-1.696-.413-2.149c-.275-.453-.646-.679-1.113-.679-.476 0-.852.226-1.127.679-.275.453-.413 1.169-.413 2.149s.138 1.696.413 2.149c.275.453.651.679 1.127.679zm9.464-7.728v9.8H46.88v-7.658h-1.82V189.2h4.592zm5.054-.196c1.41 0 2.52.415 3.332 1.246.812.83 1.218 2.025 1.218 3.584 0 1.12-.217 2.084-.651 2.891a4.389 4.389 0 0 1-1.834 1.841c-.789.42-1.701.63-2.737.63a6.5 6.5 0 0 1-1.582-.189 4.398 4.398 0 0 1-1.288-.525l1.008-1.988c.476.336 1.078.504 1.806.504.7 0 1.267-.194 1.701-.581.434-.387.688-.95.763-1.687-.56.476-1.293.714-2.198.714-.616 0-1.18-.128-1.694-.385a3.049 3.049 0 0 1-1.225-1.092 2.922 2.922 0 0 1-.455-1.617c0-.663.17-1.248.511-1.757.34-.509.803-.9 1.386-1.176a4.486 4.486 0 0 1 1.939-.413zm.196 4.452c.401 0 .728-.114.98-.343.252-.229.378-.53.378-.903 0-.364-.124-.66-.371-.889-.247-.229-.581-.343-1.001-.343-.392 0-.712.112-.959.336-.247.224-.371.527-.371.91 0 .373.124.672.371.896.247.224.572.336.973.336z" fill="#FF9729"/></g></svg>