<svg width="75" height="80" fill="none" xmlns="http://www.w3.org/2000/svg"><g filter="url(#filter0_d)"><path fill="#fff" d="M10 0h55v55H10z"/></g><path fill-rule="evenodd" clip-rule="evenodd" d="M27.797 25.2l-3.458-6.753 13.16-7.998-9.702 14.75z" fill="#FF9729"/><path fill-rule="evenodd" clip-rule="evenodd" d="M47.203 29.63l3.458 6.752-13.16 7.999 9.702-14.751zM34.42 17.526l3.83-6.527 13.165 7.99-16.995-1.463z" fill="#928777"/><path fill-rule="evenodd" clip-rule="evenodd" d="M40.575 37.404l-3.83 6.526-13.165-7.99 16.995 1.464zm3.548-17.936l7.288.226.005 15.99-7.293-16.216z" fill="#FF9729"/><path fill-rule="evenodd" clip-rule="evenodd" d="M30.873 35.195l-7.288-.225-.005-15.99 7.293 16.215z" fill="#928777"/><path fill-rule="evenodd" clip-rule="evenodd" d="M33 55h8.78l-4.39 6.678L33 55z" fill="#FF9729"/><path fill="#FF9729" d="M10 52h55v3H10z"/><defs><filter id="filter0_d" x="0" y="0" width="75" height="80" filterUnits="userSpaceOnUse" color-interpolation-filters="sRGB"><feFlood flood-opacity="0" result="BackgroundImageFix"/><feColorMatrix in="SourceAlpha" values="0 0 0 0 0 0 0 0 0 0 0 0 0 0 0 0 0 0 127 0"/><feOffset dy="15"/><feGaussianBlur stdDeviation="5"/><feColorMatrix values="0 0 0 0 0.572549 0 0 0 0 0.529412 0 0 0 0 0.466667 0 0 0 0.146003 0"/><feBlend in2="BackgroundImageFix" result="effect1_dropShadow"/><feBlend in="SourceGraphic" in2="effect1_dropShadow" result="shape"/></filter></defs></svg>