<svg width="31" height="20" fill="none" xmlns="http://www.w3.org/2000/svg"><path fill="#F0F0F0" d="M.961.033h29.977V20H.961z"/><path fill-rule="evenodd" clip-rule="evenodd" d="M17.823 0h-3.747v8.111H.961v3.744h13.115v8.112h3.747v-8.112h13.115V8.111H17.823V0z" fill="#D80027"/><path fill-rule="evenodd" clip-rule="evenodd" d="M24.021 13.51l6.917 3.818V13.51h-6.917zm-4.806 0l11.723 6.47v-1.83l-8.408-4.64h-3.315zm8.601 6.47l-8.6-4.747v4.747h8.6z" fill="#0052B4"/><path fill-rule="evenodd" clip-rule="evenodd" d="M19.208 13.49l11.73 6.477v-1.832l-8.413-4.646h-3.317z" fill="#F0F0F0"/><path fill-rule="evenodd" clip-rule="evenodd" d="M19.208 13.49l11.73 6.477v-1.832l-8.413-4.646h-3.317z" fill="#D80027"/><path fill-rule="evenodd" clip-rule="evenodd" d="M6.248 13.51L.96 16.427V13.51h5.287zm6.436.823v5.647H2.454l10.23-5.647z" fill="#0052B4"/><path fill-rule="evenodd" clip-rule="evenodd" d="M9.374 13.49L.961 18.134v1.832l11.73-6.478H9.374z" fill="#D80027"/><path fill-rule="evenodd" clip-rule="evenodd" d="M7.878 6.49L.961 2.672V6.49h6.917zm4.806 0L.961.02v1.829l8.408 4.64h3.315zM4.084.02l8.6 4.747V.019h-8.6z" fill="#0052B4"/><path fill-rule="evenodd" clip-rule="evenodd" d="M12.691 6.51L.961.034v1.832l8.413 4.646h3.317z" fill="#F0F0F0"/><path fill-rule="evenodd" clip-rule="evenodd" d="M12.691 6.51L.961.034v1.832l8.413 4.646h3.317z" fill="#D80027"/><path fill-rule="evenodd" clip-rule="evenodd" d="M25.652 6.49l5.286-2.918V6.49h-5.286zm-6.437-.823V.019h10.232L19.215 5.667z" fill="#0052B4"/><path fill-rule="evenodd" clip-rule="evenodd" d="M22.525 6.51l8.413-4.645V.033l-11.73 6.478h3.317z" fill="#D80027"/></svg>