<svg width="170" height="52" fill="none" xmlns="http://www.w3.org/2000/svg"><path fill-rule="evenodd" clip-rule="evenodd" d="M154.249 39.125c-1.504-.254-2.798-.623-3.882-1.105v-5.504c1.22.536 2.547.958 3.984 1.266 1.435.308 2.804.462 4.105.462 1.761 0 3.008-.154 3.74-.462.731-.308 1.097-.944 1.097-1.908 0-.67-.19-1.199-.569-1.587-.38-.388-.955-.724-1.727-1.005-.773-.28-2.04-.676-3.801-1.185-1.816-.535-3.246-1.13-4.288-1.788-1.044-.655-1.796-1.446-2.256-2.37-.461-.924-.691-2.082-.691-3.475 0-2.49.9-4.385 2.703-5.684 1.801-1.299 4.437-1.949 7.906-1.949 1.436 0 2.879.108 4.329.322 1.449.215 2.648.482 3.597.803V19.5a18.845 18.845 0 0 0-6.951-1.326c-1.653 0-2.886.155-3.699.462-.812.309-1.219.904-1.219 1.788 0 .563.163 1.011.488 1.346.325.335.846.63 1.565.884.717.255 1.849.582 3.394.984 2.086.563 3.705 1.232 4.857 2.008 1.152.778 1.951 1.668 2.398 2.672.448 1.005.671 2.19.671 3.556 0 2.356-.922 4.218-2.764 5.584-1.843 1.366-4.552 2.049-8.13 2.049a29.19 29.19 0 0 1-4.857-.382zM0 13.169h12.869c3.004 0 5.284.855 6.84 2.564s2.334 3.95 2.334 6.721c0 1.777-.38 3.351-1.136 4.724-.759 1.373-1.848 2.443-3.268 3.21-1.421.767-3.065 1.15-4.933 1.15h-6.17v7.63H0v-26zm11.245 13.363c1.353 0 2.381-.37 3.085-1.11.703-.74 1.056-1.742 1.056-3.008 0-1.373-.325-2.422-.974-3.149-.65-.727-1.638-1.09-2.964-1.09H6.536v8.357h4.709zm31.488-1.575c-.703.646-1.701.97-2.998.97h-4.822v-7.752h5.106c2.512 0 3.768 1.306 3.768 3.916 0 1.266-.352 2.22-1.054 2.866zM28.39 13.17h13.048c2.998 0 5.247.787 6.746 2.362 1.5 1.574 2.25 3.761 2.25 6.56 0 1.75-.44 3.284-1.318 4.602-.878 1.32-2.1 2.302-3.667 2.948.35.296.642.62.871.969.23.35.493.862.79 1.534l3.08 7.025h-6.807l-2.918-6.622c-.243-.591-.554-1.009-.932-1.25-.378-.243-.918-.364-1.62-.364h-3v8.236H28.39v-26zm78.934 0h-6.459v26h6.54V24.23l5.2 10.497h3.615l5.159-10.497v14.938h6.539v-26H121.5l-7.067 14.413-7.109-14.413zm28.944 0v26h6.346v-26h-6.346z" fill="#928777"/><path fill-rule="evenodd" clip-rule="evenodd" d="M62.677 23.082l-4.563-8.563L75.48 4.374 62.677 23.082z" fill="#FF9729"/><path fill-rule="evenodd" clip-rule="evenodd" d="M88.286 28.701l4.563 8.564L75.481 47.41 88.286 28.7zM71.417 13.35l5.054-8.277 17.374 10.133-22.428-1.856z" fill="#928777"/><path fill-rule="evenodd" clip-rule="evenodd" d="M79.54 38.562l-5.054 8.277-17.374-10.134 22.428 1.857zm4.682-22.749l9.617.287.006 20.279-9.623-20.566z" fill="#FF9729"/><path fill-rule="evenodd" clip-rule="evenodd" d="M66.736 35.76l-9.618-.286-.006-20.28 9.623 20.566z" fill="#928777"/></svg>