<svg width="123" height="43" fill="none" xmlns="http://www.w3.org/2000/svg"><path fill-rule="evenodd" clip-rule="evenodd" d="M13.385 7.682A15.534 15.534 0 0 1 26.572.437L107.449.33c8.554 0 15.491 6.826 15.491 15.248 0 5.708-3.188 10.683-7.905 13.297.519-.267 1.02-.562 1.502-.883l-8.211 8.81a15.291 15.291 0 0 1-12.169 5.975l-80.879-.013C6.868 42.765.05 36.055.05 27.777c0-4.184 1.742-7.966 4.55-10.685l8.786-9.41zm-1.783 8.003c0 8.133 6.702 14.728 14.97 14.728l80.877-.106c8.269 0 14.971-6.596 14.971-14.728 0-8.134-6.702-14.729-14.97-14.729L26.572.956c-8.268 0-14.97 6.596-14.97 14.729z" fill="#ED1C24"/><path fill-rule="evenodd" clip-rule="evenodd" d="M116.305 13.322h.004a8.29 8.29 0 0 1 .438 2.682c0 4.855-3.326 7.587-7.621 7.587-4.554 0-7.598-2.772-7.598-7.626 0-.953.139-1.835.403-2.633h.769-.77c.975-2.951 3.644-4.755 7.196-4.755 3.914 0 6.264 2.09 7.179 4.745zm-4.949.013h-.002c-.46-.779-1.196-1.302-2.267-1.272-1.066 0-1.762.522-2.195 1.269h-.001c-.442.764-.606 1.762-.606 2.672 0 1.823.563 4.102 2.841 4.102 2.056 0 2.863-1.743 2.863-4.102 0-.946-.192-1.924-.633-2.67zm-36.21-.002c.146.3.24.649.277 1.042h4.512a8.159 8.159 0 0 0-.175-1.045l-4.614.002h-.001c-.403-.834-1.206-1.294-2.302-1.294-.927 0-1.651.434-2.112 1.294h-.001c-.367.686-.567 1.643-.567 2.864 0 1.999.444 3.88 2.862 3.88 1.53 0 2.256-1.05 2.438-2.415h4.573c-.422 3.683-3.102 5.899-6.931 5.899-4.795 0-7.696-2.89-7.696-7.523 0-.982.144-1.885.41-2.705h.003c.986-3.002 3.635-4.777 6.82-4.777 3.993 0 6.4 1.75 7.118 4.777h-4.614zm-23.38.007h-.002l-.003-.183c0-3.073 2.7-4.62 6.378-4.62 4.09 0 5.95 2.048 6.297 4.581h-4.579c-.082-.502-.347-.805-.695-.985-.347-.181-.776-.261-1.247-.261-1.063 0-1.534.3-1.534.824 0 .255.117.461.324.636h-.192.193c1.549 1.308 8.14.805 8.14 5.45 0 3.355-2.842 4.982-6.89 4.982-3.884 0-6.419-2.23-6.521-4.842h4.62c.101.523.389.905.797 1.146.389.24.9.362 1.37.362 1.206 0 2.003-.382 2.003-1.065 0-2.165-8.268-.718-8.46-6.025zm-6.248 5.198l-1.557-5.195-1.496 5.195h3.053zm50.05 4.932V13.332h4.835V23.47h-4.835zM80.89 13.332h4.571v.489h4.32v-.489h4.572V23.4h-4.571v-5.603h-4.32V23.4H80.89V13.332zm-40.936 0h8.096l3.697 10.138h-4.814l-.574-1.912h-4.816l-.553 1.912h-4.733l3.697-10.138zm-21.333 0h7.103l1.34 4.649 1.338-4.649h7.103v10.104h-4.343v-4.429l.06-2.254.247-2.618h-.041l-2.685 9.301h-3.36l-2.685-9.3h-.04l.205 2.133.102 2.255v4.912h-4.344V13.332zm81.783-4.358v4.358h-4.835V8.974h4.835zm-6.052-.033v4.39h-4.57v-4.39h4.57zm-8.89 0v4.39H80.89v-4.39h4.57zM48.05 13.33h-8.096l1.59-4.357h4.916l1.59 4.358zm-12.545 0H28.4l1.264-4.39h5.84v4.39zm-9.78 0H18.62V8.94h5.84l1.264 4.39z" fill="#ED1C24"/></svg>