<svg width="26" height="26" xmlns="http://www.w3.org/2000/svg"><path d="M5.98 23.943l-4.386 1.754 1.645-4.11A12.95 12.95 0 0 1 0 13C0 5.82 5.82 0 13 0s13 5.82 13 13-5.82 13-13 13a12.94 12.94 0 0 1-7.02-2.057zm13.879-5.373c.205-.494.308-.965.308-1.412a.656.656 0 0 0-.027-.225c-.028-.074-.208-.212-.54-.412-.33-.201-.744-.432-1.238-.693l-.742-.406a5.234 5.234 0 0 1-.266-.182 2.152 2.152 0 0 0-.35-.21.713.713 0 0 0-.294-.07c-.168 0-.387.152-.658.455-.27.303-.536.608-.798.917-.261.308-.467.461-.615.461a.688.688 0 0 1-.232-.049 2.13 2.13 0 0 1-.455-.223c-.103-.06-.168-.1-.196-.12a10.683 10.683 0 0 1-2.387-1.77 10.692 10.692 0 0 1-1.77-2.387 5.879 5.879 0 0 1-.252-.434 2.165 2.165 0 0 1-.091-.217.683.683 0 0 1-.05-.23c0-.122.096-.278.288-.47.19-.19.4-.37.63-.538a4.84 4.84 0 0 0 .63-.554c.19-.2.286-.37.286-.51a.712.712 0 0 0-.07-.294 2.146 2.146 0 0 0-.21-.35 4.96 4.96 0 0 1-.181-.266 29.477 29.477 0 0 0-.56-1.036 69.172 69.172 0 0 1-.371-.665 5.684 5.684 0 0 0-.35-.567c-.108-.15-.185-.233-.231-.252a.65.65 0 0 0-.224-.028c-.448 0-.92.103-1.414.308-.43.196-.802.637-1.12 1.323-.317.686-.476 1.295-.476 1.827 0 .149.012.308.035.476.024.168.047.31.07.426a7.982 7.982 0 0 0 .266.875 46.694 46.694 0 0 1 .329.882c.56 1.53 1.57 3.025 3.03 4.486 1.46 1.46 2.956 2.47 4.487 3.03a56.795 56.795 0 0 1 .882.329c.083.033.22.08.412.14.191.06.346.103.462.126.117.023.259.047.427.07.168.023.327.035.476.035.532 0 1.141-.159 1.827-.476.686-.318 1.127-.691 1.323-1.12z" fill="#FF9729" fill-rule="evenodd"/></svg>