<svg width="146" height="51" fill="none" xmlns="http://www.w3.org/2000/svg"><path fill="#F7F4EF" d="M0 0h146v51H0z"/><path fill-rule="evenodd" clip-rule="evenodd" d="M110.032 32.562c-.761-.127-1.416-.311-1.964-.552v-2.752a10.49 10.49 0 0 0 2.015.633c.727.154 1.419.23 2.077.23.891 0 1.522-.076 1.892-.23.37-.154.555-.472.555-.954 0-.335-.096-.6-.288-.794-.192-.194-.483-.361-.874-.502-.39-.14-1.031-.338-1.922-.592-.919-.268-1.642-.566-2.17-.894-.528-.328-.908-.723-1.141-1.185-.233-.462-.35-1.041-.35-1.738 0-1.245.456-2.192 1.368-2.842.911-.65 2.244-.974 3.999-.974.727 0 1.457.053 2.19.16.733.108 1.34.241 1.82.402v2.772a9.633 9.633 0 0 0-3.516-.663c-.836 0-1.46.077-1.871.231-.412.154-.617.452-.617.894 0 .281.082.506.247.673.164.168.428.315.791.442a23.2 23.2 0 0 0 1.717.492c1.056.281 1.875.616 2.458 1.004.582.389.987.834 1.213 1.336.226.502.339 1.095.339 1.778 0 1.178-.466 2.109-1.398 2.792-.933.683-2.303 1.024-4.113 1.024a14.94 14.94 0 0 1-2.457-.19zM32 19.584h6.51c1.52 0 2.673.428 3.46 1.282.788.855 1.181 1.975 1.181 3.361 0 .888-.192 1.676-.575 2.362a4.01 4.01 0 0 1-1.653 1.605c-.719.383-1.55.575-2.495.575h-3.122v3.815H32v-13zm5.689 6.682c.684 0 1.204-.185 1.56-.555.356-.37.534-.871.534-1.504 0-.686-.164-1.211-.492-1.575-.33-.363-.83-.545-1.5-.545h-2.485v4.179h2.383zm15.929-.787c-.356.323-.86.484-1.517.484h-2.44v-3.876h2.584c1.27 0 1.906.653 1.906 1.958 0 .633-.178 1.11-.533 1.434zm-7.257-5.895h6.601c1.517 0 2.655.394 3.413 1.181.759.787 1.138 1.881 1.138 3.28 0 .875-.222 1.643-.666 2.302-.445.66-1.063 1.15-1.855 1.473.177.148.324.31.44.485.116.175.25.43.4.767l1.558 3.512h-3.444l-1.476-3.31c-.123-.296-.28-.505-.471-.626-.192-.121-.465-.182-.82-.182h-1.517v4.118h-3.3v-13zm39.932 0h-3.268v13h3.309v-7.469l2.63 5.249h1.83l2.609-5.249v7.47h3.308v-13h-3.247L89.89 26.79l-3.596-7.207zm14.642 0v13h3.21v-13h-3.21z" fill="#928777"/><path fill-rule="evenodd" clip-rule="evenodd" d="M63.707 24.541L61.4 20.26l8.786-5.072-6.478 9.354z" fill="#FF9729"/><path fill-rule="evenodd" clip-rule="evenodd" d="M76.662 27.35l2.309 4.282-8.786 5.073 6.477-9.354zm-8.533-7.675l2.556-4.139 8.79 5.067-11.346-.928z" fill="#928777"/><path fill-rule="evenodd" clip-rule="evenodd" d="M72.238 32.28l-2.557 4.14-8.789-5.068 11.346.929zm2.368-11.373l4.865.143.004 10.14-4.869-10.283z" fill="#FF9729"/><path fill-rule="evenodd" clip-rule="evenodd" d="M65.76 30.88l-4.865-.143-.003-10.14L65.76 30.88z" fill="#928777"/></svg>