<svg width="70" height="76" fill="none" xmlns="http://www.w3.org/2000/svg"><g filter="url(#filter0_d)"><path fill-rule="evenodd" clip-rule="evenodd" d="M10 0h50v39L48 51H10V0z" fill="#fff"/></g><mask id="a" maskUnits="userSpaceOnUse" x="10" y="0" width="50" height="51"><path fill-rule="evenodd" clip-rule="evenodd" d="M10 0h50v39L48 51H10V0z" fill="#fff"/></mask><g mask="url(#a)"><path d="M46.604 35.456V41H24.386v-4.41l11.34-10.71c1.204-1.148 2.016-2.128 2.436-2.94.42-.84.63-1.666.63-2.478 0-1.176-.406-2.072-1.218-2.688-.784-.644-1.946-.966-3.486-.966-1.288 0-2.45.252-3.486.756-1.036.476-1.904 1.204-2.604 2.184l-4.956-3.192c1.148-1.708 2.73-3.038 4.746-3.99 2.016-.98 4.326-1.47 6.93-1.47 2.184 0 4.088.364 5.712 1.092 1.652.7 2.926 1.708 3.822 3.024.924 1.288 1.386 2.814 1.386 4.578 0 1.596-.336 3.094-1.008 4.494-.672 1.4-1.974 2.996-3.906 4.788l-6.762 6.384h12.642z" fill="#E9E5DE"/></g><defs><filter id="filter0_d" x="0" y="0" width="70" height="76" filterUnits="userSpaceOnUse" color-interpolation-filters="sRGB"><feFlood flood-opacity="0" result="BackgroundImageFix"/><feColorMatrix in="SourceAlpha" values="0 0 0 0 0 0 0 0 0 0 0 0 0 0 0 0 0 0 127 0"/><feOffset dy="15"/><feGaussianBlur stdDeviation="5"/><feColorMatrix values="0 0 0 0 0.572549 0 0 0 0 0.529412 0 0 0 0 0.466667 0 0 0 0.146003 0"/><feBlend in2="BackgroundImageFix" result="effect1_dropShadow"/><feBlend in="SourceGraphic" in2="effect1_dropShadow" result="shape"/></filter></defs></svg>