<svg width="70" height="76" fill="none" xmlns="http://www.w3.org/2000/svg"><g filter="url(#filter0_d)"><path fill-rule="evenodd" clip-rule="evenodd" d="M10 0h50v39L48 51H10V0z" fill="#fff"/></g><mask id="a" maskUnits="userSpaceOnUse" x="10" y="0" width="50" height="51"><path fill-rule="evenodd" clip-rule="evenodd" d="M10 0h50v39L48 51H10V0z" fill="#fff"/></mask><g mask="url(#a)"><path d="M38.372 23.57c2.576.42 4.55 1.386 5.922 2.898 1.372 1.484 2.058 3.332 2.058 5.544 0 1.708-.448 3.29-1.344 4.746-.896 1.428-2.268 2.576-4.116 3.444-1.82.868-4.06 1.302-6.72 1.302-2.072 0-4.116-.266-6.132-.798-1.988-.56-3.682-1.344-5.082-2.352l2.646-5.208c1.12.84 2.408 1.498 3.864 1.974 1.484.448 2.996.672 4.536.672 1.708 0 3.052-.322 4.032-.966.98-.672 1.47-1.61 1.47-2.814 0-2.408-1.834-3.612-5.502-3.612h-3.108v-4.494l6.048-6.846H24.428V11.6h20.58v4.41l-6.636 7.56z" fill="#E9E5DE"/></g><defs><filter id="filter0_d" x="0" y="0" width="70" height="76" filterUnits="userSpaceOnUse" color-interpolation-filters="sRGB"><feFlood flood-opacity="0" result="BackgroundImageFix"/><feColorMatrix in="SourceAlpha" values="0 0 0 0 0 0 0 0 0 0 0 0 0 0 0 0 0 0 127 0"/><feOffset dy="15"/><feGaussianBlur stdDeviation="5"/><feColorMatrix values="0 0 0 0 0.572549 0 0 0 0 0.529412 0 0 0 0 0.466667 0 0 0 0.146003 0"/><feBlend in2="BackgroundImageFix" result="effect1_dropShadow"/><feBlend in="SourceGraphic" in2="effect1_dropShadow" result="shape"/></filter></defs></svg>