<svg width="16" height="12" fill="none" xmlns="http://www.w3.org/2000/svg"><path fill="#D8D8D8" stroke="#979797" d="M.5.5h15v11H.5z"/><mask id="a" maskUnits="userSpaceOnUse" x="0" y="0" width="16" height="12"><path fill="#fff" stroke="#fff" d="M.5.5h15v11H.5z"/></mask><g mask="url(#a)"><path fill="#F0F0F0" d="M-1 0h18v12H-1z"/><path fill-rule="evenodd" clip-rule="evenodd" d="M9.125 0h-2.25v4.875H-1v2.25h7.875V12h2.25V7.125H17v-2.25H9.125V0z" fill="#D80027"/><path fill-rule="evenodd" clip-rule="evenodd" d="M12.857 8.013l4.107 2.345V8.013h-4.107zm-2.853 0l6.96 3.975v-1.124l-4.992-2.851h-1.968zm5.106 3.975l-5.106-2.917v2.917h5.106z" fill="#0052B4"/><path fill-rule="evenodd" clip-rule="evenodd" d="M10 8l7 4v-1.131L11.98 8H10z" fill="#F0F0F0"/><path fill-rule="evenodd" clip-rule="evenodd" d="M10 8l7 4v-1.131L11.98 8H10z" fill="#D80027"/><path fill-rule="evenodd" clip-rule="evenodd" d="M2.155 8.013L-1 9.805V8.013h3.155zm3.841.505v3.47H-.11l6.106-3.47z" fill="#0052B4"/><path fill-rule="evenodd" clip-rule="evenodd" d="M4.02 8L-1 10.869V12l7-4H4.02z" fill="#D80027"/><path fill-rule="evenodd" clip-rule="evenodd" d="M3.128 3.987L-1 1.64v2.346h4.128zm2.868 0L-1 .012v1.124l5.017 2.851h1.979zM.863.012l5.133 2.916V.012H.863z" fill="#0052B4"/><path fill-rule="evenodd" clip-rule="evenodd" d="M6 4l-7-4v1.131L4.02 4H6z" fill="#F0F0F0"/><path fill-rule="evenodd" clip-rule="evenodd" d="M6 4l-7-4v1.131L4.02 4H6z" fill="#D80027"/><path fill-rule="evenodd" clip-rule="evenodd" d="M13.825 3.987l3.138-1.792v1.792h-3.138zm-3.821-.505V.012h6.074l-6.074 3.47z" fill="#0052B4"/><path fill-rule="evenodd" clip-rule="evenodd" d="M11.98 4L17 1.131V0l-7 4h1.98z" fill="#D80027"/></g></svg>