<?xml version="1.0" standalone="no"?>
<!DOCTYPE svg PUBLIC "-//W3C//DTD SVG 1.1//EN" "http://www.w3.org/Graphics/SVG/1.1/DTD/svg11.dtd" >
<svg xmlns="http://www.w3.org/2000/svg" xmlns:xlink="http://www.w3.org/1999/xlink" version="1.1">
<metadata>
Created by FontForge 20160405 at Tue Jul 31 08:51:27 2018
 By www-data
(c) 2011 Sergiy S. Tkachenko / 4th february
(c) 2011 Azoft.com
http://creativecommons.org/licenses/by-nc-nd/3.0
http://creativecommons.org/licenses/by-nc-nd/3.0/deed.ru
</metadata>
<defs>
<font id="AzoftSans" horiz-adv-x="758" >
  <font-face 
    font-family="Azoft Sans"
    font-weight="700"
    font-stretch="normal"
    units-per-em="1000"
    panose-1="2 0 0 0 0 0 0 0 0 0"
    ascent="750"
    descent="-250"
    x-height="642"
    cap-height="642"
    bbox="-51 -331 1282.04 1014"
    underline-thickness="50"
    underline-position="-150"
    unicode-range="U+0009-25FF"
  />
<missing-glyph horiz-adv-x="500" 
 />
    <glyph glyph-name=".notdef" horiz-adv-x="500" 
 />
    <glyph glyph-name=".null" horiz-adv-x="0" 
 />
    <glyph glyph-name="nonmarkingreturn" horiz-adv-x="333" 
 />
    <glyph glyph-name="space" unicode="&#x9;" horiz-adv-x="500" 
 />
    <glyph glyph-name="space" unicode=" " horiz-adv-x="500" 
 />
    <glyph glyph-name="space" unicode="&#xd;" horiz-adv-x="500" 
 />
    <glyph glyph-name="exclam" unicode="!" horiz-adv-x="170" 
d="M125 177q10 37 21 83q5 20 10 42q5 19 10 42q4 18 10 43q2 7 5 21t5 21q6 24 10 42q5 22 10 41l20 138h-105l-20 -138l-12 -335h36zM142 0l17 123h-118l-17 -123h118z" />
    <glyph glyph-name="quotedbl" unicode="&#x22;" horiz-adv-x="376" 
d="M186 433l37 119l14 98h-77l-14 -97q0 -15 1 -31q0 -13 1 -29q0 -6 1 -15q1 -10 1 -15q1 -17 2 -30h34zM343 433l39 120l14 97h-77l-14 -97l5 -120h33z" />
    <glyph glyph-name="numbersign" unicode="#" horiz-adv-x="549" 
d="M338 -11l68 194h144l7 48h-133l65 187h94l7 48h-85l69 195h-50q-4 -11 -9 -24q-4 -11 -8 -25q-2 -5 -5 -12q-1 -4 -4 -12q-3 -9 -5 -13q-2 -7 -4 -12q-5 -14 -9 -25q-4 -14 -9 -25q-9 -27 -16 -47h-173l70 195h-50q-4 -11 -9 -24q-4 -11 -8 -25q-2 -5 -5 -12
q-1 -4 -4 -12q-3 -9 -5 -13q-2 -7 -4 -12q-5 -14 -9 -25q-4 -14 -9 -25q-9 -27 -16 -47h-144l-7 -48h134l-66 -187h-94l-7 -48h84l-69 -194h52l68 194h171l-69 -194h52zM372 231h-172l67 187h172z" />
    <glyph glyph-name="dollar" unicode="$" horiz-adv-x="624" 
d="M641 615q-33 15 -92 26q-55 9 -119 12l14 98h-55l-14 -98q-96 -4 -162 -47q-34 -22 -55 -54q-22 -33 -27 -73q-15 -103 29 -146q22 -22 63 -38q19 -7 44 -14q22 -6 54 -13l-24 -170q-35 2 -68 7q-30 5 -57 12q-24 6 -45 13q-18 6 -30 13q-12 -24 -24 -51q-5 -12 -11 -26
q-5 -12 -11 -28q33 -19 101 -32q63 -12 130 -16l-14 -97h55l14 96q57 2 99 10q47 9 80 29q36 21 57 57q23 37 31 92q6 53 -9 90q-14 34 -46 57q-15 10 -33 19q-17 8 -39 15q-18 6 -41 12q-10 3 -22 5q-9 3 -22 6l23 165q25 -2 54 -5q25 -4 50 -9q22 -5 42 -11q19 -5 32 -9z
M406 249q13 -4 20 -5q10 -3 16 -5q16 -5 24 -12q15 -14 10 -54q-7 -50 -40 -65q-14 -7 -37 -10q-9 -1 -22 -1h-25l22 159q13 -4 32 -7v0zM315 399q-47 14 -54 24q-8 11 -1 55q8 60 100 68l-21 -153z" />
    <glyph glyph-name="percent" unicode="%" horiz-adv-x="814" 
d="M276 -24l467 685h-116l-469 -685h118zM226 328q29 0 50 5q26 7 45 24q21 19 34 51q15 34 23 87q7 52 1 86q-5 32 -20 51q-14 16 -38 23q-20 6 -49 6q-30 0 -51 -6q-26 -7 -45 -23q-21 -19 -34 -51q-15 -34 -22 -86q-8 -53 -2 -87q5 -32 20 -51q14 -17 38 -24q20 -5 50 -5
v0zM232 376q-14 0 -21 2q-9 3 -14 13q-6 12 -6 35q-1 26 6 69q6 42 13 68q7 23 17 35q7 10 18 13q6 2 21 2q14 0 20 -2q9 -3 14 -13q6 -12 6 -35q1 -26 -5 -68q-7 -43 -14 -69q-7 -23 -16 -35q-8 -10 -19 -13q-7 -2 -20 -2v0zM628 -24q29 0 50 6q26 7 45 23q21 19 35 51
q15 34 23 87q7 52 1 86q-5 32 -20 51q-14 16 -38 23q-20 6 -49 6q-30 0 -51 -6q-26 -7 -45 -23q-21 -19 -34 -51q-15 -34 -22 -86q-8 -53 -3 -87q5 -32 21 -51q13 -16 37 -23q20 -6 50 -6v0zM635 24q-14 0 -21 2q-9 3 -14 13q-6 12 -6 35q-1 26 6 69q5 42 13 68q7 23 16 35
q7 10 18 13q6 2 21 2q14 0 20 -2q9 -3 14 -13q6 -12 7 -35q0 -26 -5 -68q-7 -43 -14 -69q-7 -23 -16 -35q-8 -10 -19 -13q-7 -2 -20 -2v0z" />
    <glyph glyph-name="ampersand" unicode="&#x26;" horiz-adv-x="688" 
d="M499 65q20 -26 37 -45q21 -22 36 -32q12 7 24 12q10 6 22 13q5 2 11 6q1 0 6 3q3 2 6 3q14 9 25 15q-52 40 -92 103q22 28 43.5 64.5t37.5 73.5q-11 4 -22 11q-5 2 -11 5q-2 2 -5 3q-5 4 -5 3q-12 8 -20 12l-22 11q-19 -51 -52 -100l-94 124q21 12 34 19q18 10 31 19
q32 20 52 39q45 42 54 104q3 28 -1 49q-5 24 -21 40q-18 17 -49 25q-34 10 -83 10q-58 0 -99 -10q-39 -9 -64 -27q-23 -17 -36 -42q-11 -22 -15 -52q-4 -27 13 -61q9 -16 24 -39q13 -19 36 -49q-12 -6 -21 -10q-10 -6 -19 -10q-21 -11 -37 -20q-39 -22 -64 -42
q-29 -24 -46 -51q-18 -30 -23 -65q-9 -65 5 -106q14 -37 47 -56q28 -16 74 -22q19 -2 44 -3h23q9 -1 23 -1q95 0 184 68zM352 456q-17 17 -19 35q-1 7 0 16q0 3 1 8t2 8q3 23 20 32q19 12 67 12q40 0 54 -13q12 -11 8 -36q-6 -39 -26 -60q-10 -10 -28 -22q-8 -5 -20 -13
q-4 -2 -11 -7q-1 0 -3 -1.5t-3 -2.5l-6 -3zM437 147q-53 -54 -115 -54q-5 0 -12 -1h-5h-6h-21q-22 1 -34 7q-14 8 -20 26q-6 20 0 57q6 45 33 70q10 9 32 24q2 1 10 6q6 4 10 7q13 9 24 17z" />
    <glyph glyph-name="quotesingle" unicode="'" horiz-adv-x="192" 
d="M174 433q4 13 9 29q2 6 4 14l5 15q0 1 1 3q0 3 1 4q1 4 2 7q2 8 4 15q5 16 10 30l14 100h-77l-14 -100l3 -117h38z" />
    <glyph glyph-name="parenleft" unicode="(" horiz-adv-x="236" 
d="M184 -177q-3 12 -7 26q-1 4 -4 11q-2 8 -3 11q-3 13 -5 21q-3 11 -5 19q-10 40 -12 74q-3 38 1.5 94t18.5 153q24 176 49 247q7 19 15 37q8 17 18 37q5 8 11 19q4 8 11 21q2 3 6 11q4 7 7 11q7 14 14 26l-24 20q-4 -4 -11 -10q-7 -8 -9 -10q-12 -11 -20 -19
q-21 -21 -36 -38q-19 -20 -34 -40q-17 -21 -30 -44q-31 -49 -51 -110q-22 -68 -34 -158q-13 -91 -10 -159q3 -61 19 -109q8 -23 18 -44q10 -20 23 -40q10 -17 26 -38q6 -8 14 -19q2 -3 7 -10q5 -6 8 -10z" />
    <glyph glyph-name="parenright" unicode=")" horiz-adv-x="236" 
d="M25 -197q3 4 10 10q6 7 10 10l19 19q21 21 37 38q18 20 33 40q17 21 31 44q30 48 50 109q22 68 35 159q12 90 9 158q-3 61 -19 110q-7 23 -18 44q-9 20 -22 40q-11 17 -27 38q-5 8 -14 19q-3 4 -7 10q-6 8 -7 10l-28 -20q2 -11 6 -26q1 -2 4 -11q1 -7 3 -11q6 -25 10 -40
q9 -40 12 -74q4 -70 -20 -247q-25 -178 -50 -247q-6 -19 -15 -37q-7 -17 -17 -37q-5 -8 -11 -19q-4 -8 -11 -21q-2 -4 -6 -11q-5 -8 -7 -11q-8 -15 -13 -26z" />
    <glyph glyph-name="asterisk" unicode="*" horiz-adv-x="347" 
d="M346 419q-11 14 -18 24q-9 12 -17 21q-16 21 -32 37q16 2 29 4q16 3 30 6q31 6 61 16l-13 62l-16 -5q-15 -5 -24 -9q-13 -4 -24 -9q-27 -10 -51 -20q18 57 27 109h-66l-2 -18q-1 -12 -2 -25q-2 -16 -2 -31q-1 -19 -1 -36q-29 15 -100 43l-30 -61q11 -4 26 -8q13 -3 29 -7
q12 -2 28 -6q5 -1 13.5 -3t12.5 -2q-20 -16 -42 -37q-25 -22 -47 -46l48 -35q37 39 75 93q8 -17 15 -33q7 -13 14 -25q5 -10 10 -21q3 -4 5 -9q1 -1 2 -4q3 -4 3 -3z" />
    <glyph glyph-name="plus" unicode="+" horiz-adv-x="443" 
d="M480 273l13 96h-171l23 162h-101l-23 -162h-169l-13 -96h169l-23 -165h101l23 165h171z" />
    <glyph glyph-name="comma" unicode="," horiz-adv-x="185" 
d="M56 -131q91 35 103 121l19 133h-117l-17 -123h50q-18 -75 -66 -94z" />
    <glyph glyph-name="hyphen" unicode="-" horiz-adv-x="405" 
d="M348 181l14 103h-244l-14 -103h244z" />
    <glyph glyph-name="period" unicode="." horiz-adv-x="245" 
d="M176 0l17 123h-117l-17 -123h117z" />
    <glyph glyph-name="slash" unicode="/" horiz-adv-x="270" 
d="M72 -11l290 672h-72l-291 -672h73z" />
    <glyph glyph-name="zero" unicode="0" horiz-adv-x="629" 
d="M327 95h-26q-13 1 -22 3q-24 6 -36 25q-14 23 -16 68q-3 49 9 131q11 81 28 130q15 45 35 68q18 19 43 25q10 2 23 3q9 1 26 1q16 0 24 -1q13 -1 23 -3q24 -6 36 -25q15 -23 17 -68q3 -49 -8 -130q-12 -82 -29 -131q-15 -45 -36 -68q-18 -19 -43 -25q-10 -2 -24 -3h-24v0
zM312 -11q28 0 52 3q27 3 50 8q51 14 88 47q42 37 70 101q30 69 45 174q14 104 4 173q-10 64 -41 101q-28 33 -76 47q-21 6 -47 9q-23 3 -51 3q-29 0 -53 -3q-26 -3 -49 -9q-52 -14 -89 -47q-42 -37 -69 -101q-30 -69 -44 -173q-15 -105 -5 -174q10 -64 41 -101
q28 -33 75 -47q21 -5 47 -8q23 -3 52 -3v0z" />
    <glyph glyph-name="one" unicode="1" horiz-adv-x="420" 
d="M46 107l-15 -107h381l15 107h-126l78 555l-259 -66l12 -94l95 24l-58 -419h-123z" />
    <glyph glyph-name="two" unicode="2" horiz-adv-x="540" 
d="M505 0l15 108h-317l7 55q6 40 25 56q8 7 22 13q6 3 14 5q6 2 17 6q3 0 8 2q2 0 4 1q4 1 5 1q10 3 16 4q18 5 31 8q33 9 55 16q53 17 83 38q34 23 53 60.5t28 100.5q7 56 -5 94q-12 34 -40 54q-25 18 -63 25q-17 4 -37 5q-18 2 -38 2q-62 0 -125 -10q-33 -5 -59 -12
q-28 -8 -45 -17l11 -103q27 11 83 22q29 6 55 9q30 4 53 4q43 0 62 -17q19 -18 14 -57q-7 -44 -22 -60q-7 -8 -21 -14q-5 -3 -14 -6q-3 -1 -8 -3q-1 -1 -4 -2t-4 -1q-11 -4 -24 -7q-10 -3 -23 -6q-5 -2 -12 -3q-9 -3 -12 -3q-14 -4 -23 -7q-27 -7 -46 -13q-23 -9 -42 -18
q-43 -23 -68 -59q-30 -41 -38 -104l-23 -167h452z" />
    <glyph glyph-name="three" unicode="3" horiz-adv-x="546" 
d="M36 28q14 -10 41 -18q24 -7 56 -11q61 -10 123 -10q59 0 100 8q44 8 73 27q61 38 75 137q9 69 -12 107q-9 17 -25 31q-13 11 -34 23q24 11 40 23q20 13 34 31q31 38 42 108q13 98 -36 135q-24 18 -66 26q-39 8 -98 8q-62 0 -126 -10q-33 -5 -59 -12q-29 -8 -45 -17
l12 -103q27 11 82 22q29 6 55 9q29 4 53 4q26 0 42 -3q19 -3 30 -9q24 -15 19 -53q-10 -68 -37 -89q-12 -10 -30 -13q-14 -3 -39 -3h-133l-15 -107h133q13 -1 20 -1q11 -1 18 -2q18 -3 28 -12q22 -22 12 -93q-7 -43 -35 -56q-13 -6 -33 -8q-9 -1 -20 -1h-23q-24 0 -52 3
q-25 3 -52 9q-52 11 -76 23z" />
    <glyph glyph-name="four" unicode="4" horiz-adv-x="526" 
d="M491 642h-140l-319 -443l-9 -67h308l-18 -132h132l18 132h64l15 108h-64l17 121h-132l-17 -121h-144z" />
    <glyph glyph-name="five" unicode="5" horiz-adv-x="525" 
d="M289 534h248l15 108h-383l-50 -355l73 -10q15 13 47 19q14 2 32 3q16 1 39 1q47 0 63 -19q20 -22 11 -82q-9 -62 -37 -84q-13 -11 -33 -15q-17 -4 -41.5 -4t-52.5 3q-25 3 -52 9q-52 11 -76 23l-42 -103q14 -10 41 -18q24 -7 56 -11q61 -10 123 -10q114 0 173 48
q60 50 76 162q30 208 -194 208q-30 0 -55 -3z" />
    <glyph glyph-name="six" unicode="6" horiz-adv-x="574" 
d="M596 616q-29 18 -91 29q-56 10 -115 10q-29 0 -52 -3q-26 -3 -48 -9q-48 -14 -83 -47q-38 -37 -63 -101q-27 -69 -41 -173q-15 -105 -8 -174q7 -64 35 -101q25 -33 69 -47q20 -5 45 -8q23 -3 52 -3q58 0 101.5 9.5t74.5 32.5q63 45 79 155q9 68 0 113q-9 42 -35 67
q-25 23 -67 33q-20 4 -44 7q-23 2 -50 2q-38 0 -62 -8q-28 -9 -49 -29q10 64 23 102q13 35 29 52q15 15 36 20q8 2 20 2q7 1 23 1q23 0 51 -4q25 -3 52 -9q51 -11 77 -22zM225 202q6 30 17 49q11 18 26 27q14 8 33 11q8 1 18 1q7 1 19 1q22 0 35 -3q17 -3 27 -12
q12 -11 15 -32q5 -23 0 -58q-9 -62 -36 -79q-11 -7 -30 -10q-7 -1 -18 -1h-10h-10q-13 -1 -20 -1q-10 1 -18 2q-17 2 -27 11q-24 21 -21 94v0z" />
    <glyph glyph-name="seven" unicode="7" horiz-adv-x="455" 
d="M231 0l287 534l15 108h-434l-15 -108h307l-288 -534h128z" />
    <glyph glyph-name="eight" unicode="8" horiz-adv-x="579" 
d="M291 -11q59 0 99 8q44 8 73 27q60 38 74 137q9 69 -5 107q-7 17 -18 31q-10 11 -26 23q19 11 32 23q15 13 27 31q24 38 35 108q13 95 -33 133q-23 18 -62 27q-36 8 -92 9h-17q-60 0 -100 -8q-44 -8 -72 -26q-59 -37 -72 -135q-11 -70 3 -108q7 -18 18 -31q10 -12 27 -23
q-20 -12 -33 -23q-16 -14 -27 -31q-26 -38 -35 -107q-14 -97 32 -136q22 -19 62 -26q36 -9 93 -10h17zM313 96h-20q-23 0 -35 2q-15 2 -23 9q-19 13 -13 54q9 69 32 90q10 10 26 14q11 3 34 4h26q21 -1 32 -4q15 -4 22 -14q17 -22 8 -90q-3 -19 -7 -28q-4 -13 -12 -21
q-19 -16 -70 -16v0zM329 376q-21 0 -32 4q-14 4 -21 14q-17 22 -7 87q5 38 31 52q12 7 30 10q16 2 41 3q22 -1 35 -4q16 -3 25 -9q19 -14 14 -52q-10 -65 -32 -87q-10 -10 -25 -14q-13 -4 -33 -4h-26z" />
    <glyph glyph-name="nine" unicode="9" horiz-adv-x="573" 
d="M76 28q29 -19 91 -29q56 -10 116 -10q28 0 51 3q26 3 48 8q48 14 82 47q38 37 63 101q28 69 43 174q14 104 6 173q-7 64 -34 101q-25 33 -69 47q-20 6 -46 9q-22 3 -50 3q-59 0 -102 -10q-44 -10 -75 -33q-63 -45 -78 -154q-19 -133 31 -181q23 -23 66 -33q37 -8 99 -8
q37 0 61 6q28 8 48 28q-11 -64 -24 -101q-12 -35 -28 -52q-14 -14 -35 -19q-8 -2 -20 -2h-22q-24 0 -52 3q-25 3 -52 9q-52 11 -76 23zM446 441q-7 -35 -17.5 -55t-25.5 -30q-13 -8 -32 -11q-8 -2 -19 -2h-19h-21q-10 0 -18 2q-18 3 -27 14q-21 23 -9 99q8 61 34 78
q12 7 30 10q8 1 19 1h10q1 0 11 1h19q10 -1 17 -2q18 -2 28 -11q11 -11 16 -32q5 -24 4 -62v0z" />
    <glyph glyph-name="colon" unicode=":" horiz-adv-x="235" 
d="M221 342l17 124h-117l-17 -124h117zM173 0l17 123h-117l-17 -123h117z" />
    <glyph glyph-name="semicolon" unicode=";" horiz-adv-x="185" 
d="M209 342l17 124h-117l-17 -124h117zM56 -131q91 35 103 121l19 133h-117l-17 -123h50q-18 -75 -66 -94z" />
    <glyph glyph-name="less" unicode="&#x3c;" horiz-adv-x="522" 
d="M458 108l8 61q-21 8 -44 18q-21 9 -46 19q-21 9 -46 20q-11 4 -23 10q-11 4 -24 9q-5 3 -12 5q-4 2 -11 5q-8 3 -12 5q-7 3 -12 5q-13 5 -23 10q-12 5 -23 9q-25 11 -45 19q-23 10 -43 19l407 151l8 58l-468 -178l-9 -63z" />
    <glyph glyph-name="equal" unicode="=" horiz-adv-x="599" 
d="M572 375l14 96h-441l-14 -96h441zM544 172l13 95h-441l-13 -95h441z" />
    <glyph glyph-name="greater" unicode="&#x3e;" horiz-adv-x="522" 
d="M562 290l9 62l-418 179l-8 -58l363 -151l-406 -153l-8 -61z" />
    <glyph glyph-name="question" unicode="?" horiz-adv-x="511" 
d="M273 186l1 10q6 45 26 61q9 8 26 14q7 3 18 6q4 2 10 3l6 2q1 0 3 1q1 0 3 1q52 11 86 24q37 14 61 35q47 42 61 136q5 42 -9 76q-13 32 -43 55q-58 44 -159 44q-74 0 -144 -10q-36 -5 -65 -12q-31 -8 -52 -17l18 -103q16 5 38 10q26 7 53 12q31 6 60 9q33 4 62 4
q121 0 112 -69q-7 -44 -18 -55q-7 -7 -22 -13q-6 -2 -16 -5q-4 -1 -10 -3q-2 -1 -6 -2q-6 -2 -5 -1q-23 -6 -42 -11q-21 -6 -39 -12q-41 -15 -69 -35q-33 -24 -52 -57q-22 -36 -28 -84l-2 -14h137zM247 0l17 123h-137l-17 -123h137z" />
    <glyph glyph-name="at" unicode="@" horiz-adv-x="994" 
d="M850 -13q-28 -29 -63 -53q-37 -25 -82 -44q-47 -19 -100 -29q-57 -11 -119 -11q-184 0 -267 92q-87 93 -60 279q25 180 130 286q53 53 122 81q72 29 158 29q149 0 240 -77q47 -40 69 -94q22 -58 15 -128q-2 -13 -3 -23q-1 -12 -3 -22q-3 -25 -7 -46q-4 -24 -9 -44
q-6 -23 -12 -41q-15 -42 -37 -64q-25 -24 -58 -24q-29 0 -37 22q-10 26 0 94q5 37 9 64q3 21 5 36q1 9 2 17q1 6 2 8q20 145 -25 196q-22 25 -64 35q-36 10 -96 10q-119 0 -196 -34l20 -42q32 10 60 16q24 6 45 9q18 3 35 4q11 1 26 1q23 0 39 -1q19 -2 33 -4q30 -6 46 -22
q31 -33 21 -142h-174q-49 0 -85 -8q-41 -8 -69 -25q-31 -19 -50 -49q-20 -32 -26 -76q-7 -45 4 -77q10 -30 34 -49q23 -17 59 -26q32 -7 77 -7q142 0 211 85q0 -42 17 -60q16 -18 56 -18q47 0 84 24q33 22 57 62q10 18 19 40q8 19 15 42q5 20 10 42q4 20 7 41q15 108 -7 189
q-19 74 -70 123q-46 45 -118 67q-65 21 -148 21q-204 0 -330 -119q-124 -116 -153 -324q-14 -97 -1 -171q14 -77 57.5 -131.5t118.5 -83.5q78 -30 188 -30q65 0 125 11q58 10 109 29q98 36 165 99zM683 274q-5 -32 -9 -55q-6 -26 -12 -46q-13 -44 -35 -70q-46 -53 -163 -53
q-33 0 -54 3q-26 5 -42 16q-18 13 -25 35q-8 23 -3 59q5 35 19 59q14 21 36 33q21 11 51 15q13 2 29 3q14 1 33 1h175z" />
    <glyph glyph-name="A" unicode="A" horiz-adv-x="657" 
d="M345 642l-317 -642h144l80 181h201l31 -181h144l-137 642h-146zM368 441l33 101h6l3 -101l28 -167h-144z" />
    <glyph glyph-name="B" unicode="B" horiz-adv-x="675" 
d="M358 0q74 0 120 6q50 8 80 26q59 33 73 134q9 69 -9 105q-9 16 -24 29q-12 10 -33 22q23 11 38 22q18 13 30 29q26 35 36 106q13 99 -35 132q-25 17 -73 24q-22 4 -53 5q-27 2 -64 2h-275l-90 -642h279zM206 107l22 162h181q2 -1 6.5 -1h6.5h12q14 0 22 -1q21 -3 31 -11
q21 -18 11 -90q-7 -42 -34 -52q-13 -5 -36 -7h-24h-14q-3 -1 -8 -1q-1 0 -3.5 0.5t-3.5 0.5h-169zM243 376l23 159h165q17 0 28 -1q14 0 24 -1q23 -2 34 -7q23 -11 18 -50q-10 -68 -33 -86q-12 -9 -32 -12q-9 -1 -21 -2h-25h-181z" />
    <glyph glyph-name="C" unicode="C" horiz-adv-x="650" 
d="M599 134q-10 -4 -17 -6q-11 -3 -21 -6q-25 -8 -49 -13q-30 -7 -58 -11q-32 -4 -60 -4q-24 0 -40 1q-20 1 -36 4q-36 8 -56 29q-24 24 -31 68q-7 48 4 125q10 75 31 123q20 44 50 68q26 21 65 29q16 4 37 5q17 2 40 2q28 0 57 -4q25 -4 51 -10q21 -5 43 -12q8 -2 18 -6
q3 -1 7 -2q6 -2 8 -2l48 103q-79 40 -219 40q-39 0 -71 -3q-35 -3 -65 -10q-64 -14 -108 -48q-49 -38 -80 -102q-32 -68 -46 -171q-15 -104 -2 -172q13 -64 51 -102q35 -34 95 -47q27 -7 62 -10q31 -3 70 -3q68 0 133 13q62 10 108 31z" />
    <glyph glyph-name="D" unicode="D" horiz-adv-x="689" 
d="M319 0q40 0 71 2q36 2 64 8q63 13 104 45q46 35 74 98q30 66 45 172q14 103 1 168q-13 62 -52 96q-35 31 -96 43q-27 5 -62 7q-30 3 -69 3h-230l-90 -642h240zM226 108l60 427h96q12 0 20 -1h19q20 -1 36 -3q36 -6 57 -24q24 -22 31 -63q8 -45 -2 -118q-20 -141 -67 -183
q-24 -21 -62 -29q-18 -4 -41 -5q-21 -1 -49 -1h-98z" />
    <glyph glyph-name="E" unicode="E" horiz-adv-x="566" 
d="M549 0l25 108h-348l24 171h263l15 107h-263l21 149h338l25 107h-480l-90 -642h470z" />
    <glyph glyph-name="F" unicode="F" horiz-adv-x="526" 
d="M514 278l15 108h-275l21 149h316l25 107h-447l-90 -642h121l39 278h275z" />
    <glyph glyph-name="G" unicode="G" horiz-adv-x="672" 
d="M516 115q-23 -8 -55 -13q-35 -5 -64 -5q-59 0 -91 8q-37 9 -55 33q-36 46 -16 188q10 75 32 122q19 44 49 67q27 20 65 27q16 3 37 5q16 1 40 1q28 0 58 -4q26 -4 53 -10q22 -6 44 -13q17 -5 34 -11l48 103q-84 42 -224 42q-40 0 -71 -3q-35 -3 -64 -9q-65 -14 -109 -47
q-49 -37 -79 -101q-33 -67 -47 -170q-15 -106 -4 -173q10 -66 46 -102q32 -34 91 -48q27 -6 61 -9q31 -3 72 -3q71 0 147 15.5t120 39.5l48 341h-263l-25 -107h145z" />
    <glyph glyph-name="H" unicode="H" horiz-adv-x="681" 
d="M601 0l90 642h-131l-35 -246h-260l35 246h-131l-90 -642h131l40 287h260l-40 -287h131z" />
    <glyph glyph-name="I" unicode="I" horiz-adv-x="290" 
d="M211 0l90 642h-132l-90 -642h132z" />
    <glyph glyph-name="J" unicode="J" horiz-adv-x="322" 
d="M0 -5q37 0 65 2q30 2 54 5q50 8 81 30q59 40 78 169l62 441h-131l-63 -445q-10 -68 -38 -86q-13 -9 -36 -12q-11 -1 -25 -1h-28z" />
    <glyph glyph-name="K" unicode="K" horiz-adv-x="675" 
d="M466 0h154q-13 18 -26 39q-11 19 -25 40q-11 18 -25 40l-12 20q-6 9 -13 21q-3 4 -6 10q-2 2 -7 10q-8 13 -12 20q-15 23 -25 40q-14 22 -25 41q-14 21 -25 40q33 36 72 79q18 19 37 41q17 18 36 40q16 17 37 40q7 8 18 20q1 1 1 2q1 0 1 1q1 0 3 2q1 2 2 3.5t2 1.5
q5 6 9 11q11 11 18 20q10 10 18 20q20 21 37 40h-154l-235 -268h-59l38 268h-131l-90 -642h131l37 267h59z" />
    <glyph glyph-name="L" unicode="L" horiz-adv-x="532" 
d="M522 0l25 108h-322l75 534h-131l-90 -642h443z" />
    <glyph glyph-name="M" unicode="M" horiz-adv-x="855" 
d="M775 0l90 642h-148l-212 -382l-66 -171l-18 171l-104 382h-148l-90 -642h128l55 392h3l93 -392h138l203 392h3l-55 -392h128z" />
    <glyph glyph-name="N" unicode="N" horiz-adv-x="685" 
d="M605 0l90 642h-127l-60 -422l-199 422h-140l-90 -642h128l59 424l200 -424h139z" />
    <glyph glyph-name="O" unicode="O" 
d="M456 549q11 0 18 -1h17q20 -1 34 -3q36 -6 57 -25q24 -23 32 -68q9 -50 -2 -130q-12 -82 -34 -131q-21 -45 -51 -68q-26 -19 -64 -25q-15 -2 -35 -3h-18h-18h-19h-19q-19 1 -34 3q-36 6 -56 25q-24 23 -32 68q-8 49 4 131q11 81 33 130q20 45 51 68q25 19 63 25
q15 2 35 3h19q6 1 19 1v0zM102 322q-15 -105 0 -174q14 -64 55 -101q36 -33 96 -47q26 -5 59 -8q29 -3 65 -3q35 0 65 3q33 3 61 8q64 14 109 47q51 37 84 101q35 69 50 174q14 104 -2 173q-14 64 -54 101q-36 33 -96 47q-26 6 -59 9q-29 3 -64 3q-36 0 -66 -3
q-33 -3 -62 -9q-31 -7 -57 -18q-28 -12 -52 -29q-51 -37 -83 -101q-35 -69 -49 -173v0z" />
    <glyph glyph-name="P" unicode="P" horiz-adv-x="595" 
d="M211 0l32 231h127q37 0 65 1q31 2 55 6q50 8 81 29q59 41 78 169q18 128 -30 169q-25 21 -73 29q-23 4 -53 6q-28 2 -65 2h-259l-90 -642h132zM513 433q-9 -64 -36 -82q-14 -8 -37 -11q-10 -2 -24 -2h-29h-129l28 197h129q17 0 28 -1q14 0 24 -2q22 -3 33 -11
q23 -18 14 -82z" />
    <glyph glyph-name="Q" unicode="Q" horiz-adv-x="766" 
d="M710 -13q-29 -21 -60 -35q-33 -14 -59 -14q-18 0 -39 6q-17 5 -41 15q-4 1 -10 4q-3 1 -11 4q-14 6 -22 9q-25 10 -44 15q29 3 55 7q28 5 52 13q53 18 92 53q42 39 69 99q29 66 43 159q14 104 -2 173q-14 64 -54 101q-36 33 -96 47q-26 6 -59 9q-29 3 -64 3q-36 0 -66 -3
q-33 -3 -62 -9q-31 -7 -57 -18q-28 -12 -52 -29q-51 -37 -83 -101q-35 -69 -49 -173q-14 -93 -3 -158q10 -61 41 -99q28 -36 75 -54q22 -8 48 -13q25 -4 54 -7q-42 -12 -70 -40l-15 -106q37 29 66 40q25 9 57 9q25 0 56 -9q12 -4 26 -10q6 -2 14 -5q3 -2 13 -6q9 -4 14 -6
q7 -3 13 -5q15 -6 28 -10q31 -10 59 -10q69 0 127 46zM381 95h-19h-19q-19 1 -34 3q-36 6 -56 25q-24 23 -32 68q-8 49 4 131q11 81 33 130q20 45 51 68q25 19 63 25q15 2 35 3h19q6 1 19 1q11 0 18 -1h17q20 -1 34 -3q36 -6 57 -25q24 -23 32 -68q9 -50 -2 -130
q-12 -82 -34 -131q-21 -45 -51 -68q-26 -19 -64 -25q-15 -2 -35 -3h-18h-18v0z" />
    <glyph glyph-name="R" unicode="R" horiz-adv-x="669" 
d="M618 0l-145 235q84 10 123 53t54 148q18 128 -30 169q-25 21 -73 29q-23 4 -53 6q-28 2 -65 2h-260l-90 -642h132l32 231h86l138 -231h151zM258 338l28 197h130q18 0 28 -1q14 0 24 -1q22 -3 33 -12q23 -18 14 -85q-10 -66 -38 -84q-13 -9 -36 -12q-11 -2 -25 -2h-28
h-130z" />
    <glyph glyph-name="S" unicode="S" horiz-adv-x="624" 
d="M641 615q-19 9 -48 17q-27 7 -62 12q-67 10 -141 10q-102 0 -172 -44q-36 -23 -58 -55q-24 -34 -29 -76q-9 -63 2 -101q11 -36 44 -59q30 -21 90 -38q25 -7 63 -16q15 -3 36 -8q8 -2 19 -4q2 0 5.5 -1t4.5 -1q6 -2 11 -2q13 -4 20 -5q10 -3 16 -5q16 -5 24 -12
q15 -14 10 -54q-8 -52 -42 -67q-15 -6 -39 -8q-11 -1 -24 -1h-27q-42 0 -84 4q-36 4 -71 12q-29 7 -55 15q-22 7 -37 15q-12 -24 -24 -51q-5 -12 -11 -26q-5 -12 -11 -28q40 -21 120 -35q78 -14 149 -14q30 0 55 2q27 2 50 6q51 8 86 27q38 22 61 58q24 38 32 95
q8 63 -16 105q-20 36 -67 59q-20 10 -46 18q-22 7 -52 14q-11 3 -27 6q-5 1 -13 3q-10 3 -14 3q-16 4 -27 7q-15 3 -27 7q-47 14 -54 24q-8 11 -1 55q5 37 38 54q30 15 92 15q28 0 60 -4q29 -3 58 -9q26 -5 49 -11q21 -6 36 -11z" />
    <glyph glyph-name="T" unicode="T" horiz-adv-x="543" 
d="M336 0l75 535h200l25 107h-529l-25 -107h197l-75 -535h132z" />
    <glyph glyph-name="U" unicode="U" horiz-adv-x="686" 
d="M521 271q-4 -26 -8 -44q-4 -21 -8 -37q-10 -34 -27 -54q-33 -39 -121 -39q-89 0 -112 39q-12 20 -12 54q-1 16 1 37q2 18 6 44l52 371h-131l-53 -372q-6 -40 -8 -70q-2 -33 0 -59q4 -55 28 -87q48 -65 214 -65q165 0 230 65q32 32 51 87q9 26 16 59q6 30 12 70l53 372
h-131z" />
    <glyph glyph-name="V" unicode="V" horiz-adv-x="655" 
d="M394 0l317 642h-144l-197 -441l-32 -101h-6l-4 101l-73 441h-144l137 -642h146z" />
    <glyph glyph-name="W" unicode="W" horiz-adv-x="908" 
d="M725 0l229 642h-146l-147 -532h-6l-28 532h-169l-167 -532h-6l-8 532h-144l57 -642h165l165 482l40 -482h165z" />
    <glyph glyph-name="X" unicode="X" horiz-adv-x="696" 
d="M390 289l3.5 -21t4.5 -23q3 -14 5 -25q3 -14 7 -25l96 -195h163q-50 81 -103 168q-27 45 -51 86q-27 44 -48 82q28 33 62 73q33 38 68 79q67 79 132 154h-163l-116 -165q-7 -12 -14 -26q-6 -11 -13 -24q-4 -10 -11 -24q0 1 -2 -5l-3 -6q-3 -5 -4 -9q-2 11 -4 20
q-2 13 -4 24q-6 28 -11 50l-70 165h-163q19 -34 43 -75q21 -36 45 -79q11 -19 23 -40q11 -18 22 -39q11 -18 22 -38q10 -16 21 -35q-16 -19 -35 -40q-17 -19 -37 -42q-9 -9 -19 -21q-8 -10 -19 -21q-7 -9 -19 -22q-2 -2 -4.5 -5.5t-4.5 -5.5q-6 -6 -10 -11q-11 -12 -19 -22
q-11 -12 -20 -22q-20 -23 -38 -43q-19 -22 -36 -42q-19 -21 -35 -39h163l150 195q12 21 26 50q5 10 10 23q4 8 10 21v0z" />
    <glyph glyph-name="Y" unicode="Y" horiz-adv-x="618" 
d="M371 0l38 274l287 368h-139q-20 -23 -42 -49q-18 -21 -39 -49q-9 -11 -19 -24q-4 -6 -10 -13q-2 -3 -8.5 -11.5t-9.5 -12.5q-6 -7 -10 -12q-10 -14 -18 -24q-14 -35 -27 -67q-15 -36 -24 -60q-4 60 -12 127q-10 21 -23 48q-5 11 -11 25q-2 5 -5 12q-1 1 -3 6l-3 6
q-7 15 -11 25q-6 13 -11 24q-12 27 -22 49h-146q10 -22 22 -46q10 -22 21 -46q10 -21 22 -46q5 -11 11 -24q5 -9 11 -23q2 -3 5.5 -11t5.5 -12q6 -14 11 -23q12 -26 21 -46q12 -25 22 -46q11 -24 22 -45l-38 -274h132z" />
    <glyph glyph-name="Z" unicode="Z" horiz-adv-x="585" 
d="M545 0l25 108h-396l443 421l16 113h-485l-25 -107h359l-438 -418l-16 -117h517z" />
    <glyph glyph-name="bracketleft" unicode="[" horiz-adv-x="248" 
d="M211 -186l17 47h-104l118 842h94l17 47h-169l-132 -936h159z" />
    <glyph glyph-name="backslash" unicode="\" horiz-adv-x="270" 
d="M268 -11l-104 672h-72l102 -672h74z" />
    <glyph glyph-name="bracketright" unicode="]" horiz-adv-x="253" 
d="M172 -186l132 936h-189l-24 -97h74l-104 -742h-63l-24 -97h198z" />
    <glyph glyph-name="asciicircum" unicode="^" horiz-adv-x="499" 
d="M548 500l-164 251h-58l-235 -251h69l187 194l135 -194h66z" />
    <glyph glyph-name="underscore" unicode="_" horiz-adv-x="708" 
d="M601 -186l6 38h-549l-6 -38h549z" />
    <glyph glyph-name="grave" unicode="`" horiz-adv-x="170" 
d="M218 547l-38 107h-86l79 -107h45z" />
    <glyph glyph-name="a" unicode="a" horiz-adv-x="703" 
d="M673 103q-33 4 -43 24q-11 22 -4 70l16 112l2 16q29 206 -22 271q-27 33 -81 47q-25 6 -60 9q-31 3 -73 3q-143 0 -236 -42l18 -103q9 3 16 5q11 3 20 6q25 7 49 12q29 7 56 10q31 5 60 5q23 0 37 -1q18 -1 30 -3q28 -4 42 -17q28 -24 21 -116h-158q-61 0 -107 -11
q-50 -11 -86 -35q-39 -27 -62 -69q-25 -45 -34 -108q-9 -57 5 -97q12 -37 44 -61q29 -21 77 -30q43 -10 104 -10q143 0 221 109q3 -49 31 -71q28 -23 91 -29zM507 301q-4 -27 -8 -47q-5 -23 -11 -41q-12 -39 -31 -63q-42 -52 -137 -52q-33 0 -53 2q-24 4 -39 13
q-34 19 -26 75q5 37 18 61q12 22 31 35q18 11 44 15q20 4 53 4h159v-2z" />
    <glyph glyph-name="b" unicode="b" horiz-adv-x="675" 
d="M358 0q74 0 120 6q50 8 80 26q59 33 73 134q9 69 -9 105q-9 16 -24 29q-12 10 -33 22q23 11 38 22q18 13 30 29q26 35 36 106q13 99 -35 132q-25 17 -73 24q-22 4 -53 5q-27 2 -64 2h-275l-90 -642h279zM206 107l22 162h181q2 -1 6.5 -1h6.5h12q14 0 22 -1q21 -3 31 -11
q21 -18 11 -90q-7 -42 -34 -52q-13 -5 -36 -7h-24h-14q-3 -1 -8 -1q-1 0 -3.5 0.5t-3.5 0.5h-169zM243 376l23 159h165q17 0 28 -1q14 0 24 -1q23 -2 34 -7q23 -11 18 -50q-10 -68 -33 -86q-12 -9 -32 -12q-9 -1 -21 -2h-25h-181z" />
    <glyph glyph-name="c" unicode="c" horiz-adv-x="650" 
d="M599 134q-10 -4 -17 -6q-11 -3 -21 -6q-25 -8 -49 -13q-30 -7 -58 -11q-32 -4 -60 -4q-24 0 -40 1q-20 1 -36 4q-36 8 -56 29q-24 24 -31 68q-7 48 4 125q10 75 31 123q20 44 50 68q26 21 65 29q16 4 37 5q17 2 40 2q28 0 57 -4q25 -4 51 -10q21 -5 43 -12q8 -2 18 -6
q3 -1 7 -2q6 -2 8 -2l48 103q-79 40 -219 40q-39 0 -71 -3q-35 -3 -65 -10q-64 -14 -108 -48q-49 -38 -80 -102q-32 -68 -46 -171q-15 -104 -2 -172q13 -64 51 -102q35 -34 95 -47q27 -7 62 -10q31 -3 70 -3q68 0 133 13q62 10 108 31z" />
    <glyph glyph-name="d" unicode="d" horiz-adv-x="689" 
d="M319 0q40 0 71 2q36 2 64 8q63 13 104 45q46 35 74 98q30 66 45 172q14 103 1 168q-13 62 -52 96q-35 31 -96 43q-27 5 -62 7q-30 3 -69 3h-230l-90 -642h240zM226 108l60 427h96q12 0 20 -1h19q20 -1 36 -3q36 -6 57 -24q24 -22 31 -63q8 -45 -2 -118q-20 -141 -67 -183
q-24 -21 -62 -29q-18 -4 -41 -5q-21 -1 -49 -1h-98z" />
    <glyph glyph-name="e" unicode="e" horiz-adv-x="704" 
d="M700 278l7 51q13 96 2 161q-10 63 -43 100q-32 35 -87 51q-26 7 -58 10q-30 4 -66.5 4t-65.5 -3q-32 -4 -60 -10q-60 -16 -103 -50q-48 -39 -78 -105q-33 -70 -47 -174q-14 -102 -3 -168q12 -63 48 -99q33 -33 91 -46q27 -7 61 -10q31 -3 71 -3q33 0 72 5q36 4 73 10
q74 15 121 36l-19 103l-9 -3q-8 -3 -9 -3q-12 -4 -22 -7q-13 -5 -25 -8q-15 -4 -29 -8q-32 -8 -61 -13q-34 -5 -62 -5q-54 0 -86 6q-35 8 -54 27q-38 38 -27 151h468zM247 386q10 56 29 90q17 32 43 49q22 15 54 20q14 2 32 3q13 1 34 1q42 0 68 -6q29 -7 45 -24
q34 -34 27 -133h-332z" />
    <glyph glyph-name="f" unicode="f" horiz-adv-x="526" 
d="M514 278l15 108h-275l21 149h316l25 107h-447l-90 -642h121l39 278h275z" />
    <glyph glyph-name="g" unicode="g" horiz-adv-x="672" 
d="M516 115q-23 -8 -55 -13q-35 -5 -64 -5q-59 0 -91 8q-37 9 -55 33q-36 46 -16 188q10 75 32 122q19 44 49 67q27 20 65 27q16 3 37 5q16 1 40 1q28 0 58 -4q26 -4 53 -10q22 -6 44 -13q17 -5 34 -11l48 103q-84 42 -224 42q-40 0 -71 -3q-35 -3 -64 -9q-65 -14 -109 -47
q-49 -37 -79 -101q-33 -67 -47 -170q-15 -106 -4 -173q10 -66 46 -102q32 -34 91 -48q27 -6 61 -9q31 -3 72 -3q71 0 147 15.5t120 39.5l48 341h-263l-25 -107h145z" />
    <glyph glyph-name="h" unicode="h" horiz-adv-x="681" 
d="M601 0l90 642h-131l-35 -246h-260l35 246h-131l-90 -642h131l40 287h260l-40 -287h131z" />
    <glyph glyph-name="i" unicode="i" horiz-adv-x="290" 
d="M211 0l90 642h-132l-90 -642h132z" />
    <glyph glyph-name="j" unicode="j" horiz-adv-x="322" 
d="M0 -5q37 0 65 2q30 2 54 5q50 8 81 30q59 40 78 169l62 441h-131l-63 -445q-10 -68 -38 -86q-13 -9 -36 -12q-11 -1 -25 -1h-28z" />
    <glyph glyph-name="k" unicode="k" horiz-adv-x="680" 
d="M417 93q22 -38 47 -59q23 -21 49 -30q24 -7 54 -7q13 0 29 1q12 1 31 2l24 93q-3 -1 -6 -1h-6h-12q-14 -1 -24 0q-28 2 -39 13l-151 216q33 36 72 79q18 19 37 41q17 18 36 40q16 17 37 40q7 8 18 20q1 1 1 2q1 0 1 1q1 0 3 2q1 2 2 3.5t2 1.5q5 6 9 11q11 11 18 20
q10 10 18 20q20 21 37 40h-149l-242 -268h-57l38 268h-131l-90 -642h131l37 267h57z" />
    <glyph glyph-name="l" unicode="l" horiz-adv-x="532" 
d="M522 0l25 108h-322l75 534h-131l-90 -642h443z" />
    <glyph glyph-name="m" unicode="m" horiz-adv-x="855" 
d="M775 0l90 642h-148l-212 -382l-66 -171l-18 171l-104 382h-148l-90 -642h128l55 392h3l93 -392h138l203 392h3l-55 -392h128z" />
    <glyph glyph-name="n" unicode="n" horiz-adv-x="685" 
d="M605 0l90 642h-127l-60 -422l-199 422h-140l-90 -642h128l59 424l200 -424h139z" />
    <glyph glyph-name="o" unicode="o" 
d="M456 549q11 0 18 -1h17q20 -1 34 -3q36 -6 57 -25q24 -23 32 -68q9 -50 -2 -130q-12 -82 -34 -131q-21 -45 -51 -68q-26 -19 -64 -25q-15 -2 -35 -3h-18h-18h-19h-19q-19 1 -34 3q-36 6 -56 25q-24 23 -32 68q-8 49 4 131q11 81 33 130q20 45 51 68q25 19 63 25
q15 2 35 3h19q6 1 19 1v0zM102 322q-15 -105 0 -174q14 -64 55 -101q36 -33 96 -47q26 -5 59 -8q29 -3 65 -3q35 0 65 3q33 3 61 8q64 14 109 47q51 37 84 101q35 69 50 174q14 104 -2 173q-14 64 -54 101q-36 33 -96 47q-26 6 -59 9q-29 3 -64 3q-36 0 -66 -3
q-33 -3 -62 -9q-31 -7 -57 -18q-28 -12 -52 -29q-51 -37 -83 -101q-35 -69 -49 -173v0z" />
    <glyph glyph-name="p" unicode="p" horiz-adv-x="595" 
d="M211 0l32 231h127q37 0 65 1q31 2 55 6q50 8 81 29q59 41 78 169q18 128 -30 169q-25 21 -73 29q-23 4 -53 6q-28 2 -65 2h-259l-90 -642h132zM513 433q-9 -64 -36 -82q-14 -8 -37 -11q-10 -2 -24 -2h-29h-129l28 197h129q17 0 28 -1q14 0 24 -2q22 -3 33 -11
q23 -18 14 -82z" />
    <glyph glyph-name="q" unicode="q" horiz-adv-x="753" 
d="M710 -13q-29 -21 -60 -35q-33 -14 -59 -14q-18 0 -39 6q-17 5 -41 15q-4 1 -10 4q-3 1 -11 4q-14 6 -22 9q-25 10 -44 15q29 3 55 7q28 5 52 13q53 18 92 53q42 39 69 99q29 66 43 159q14 104 -2 173q-14 64 -54 101q-36 33 -96 47q-26 6 -59 9q-29 3 -64 3q-36 0 -66 -3
q-33 -3 -62 -9q-31 -7 -57 -18q-28 -12 -52 -29q-51 -37 -83 -101q-35 -69 -49 -173q-14 -93 -3 -158q10 -61 41 -99q28 -36 75 -54q22 -8 48 -13q25 -4 54 -7q-42 -12 -70 -40l-15 -106q37 29 66 40q25 9 57 9q25 0 56 -9q12 -4 26 -10q6 -2 14 -5q3 -2 13 -6q9 -4 14 -6
q7 -3 13 -5q15 -6 28 -10q31 -10 59 -10q69 0 127 46zM381 95h-19h-19q-19 1 -34 3q-36 6 -56 25q-24 23 -32 68q-8 49 4 131q11 81 33 130q20 45 51 68q25 19 63 25q15 2 35 3h19q6 1 19 1q11 0 18 -1h17q20 -1 34 -3q36 -6 57 -25q24 -23 32 -68q9 -50 -2 -130
q-12 -82 -34 -131q-21 -45 -51 -68q-26 -19 -64 -25q-15 -2 -35 -3h-18h-18v0z" />
    <glyph glyph-name="r" unicode="r" horiz-adv-x="681" 
d="M211 0l32 231h79l95 -138q24 -37 49 -58q23 -20 49 -29q23 -8 52 -9q13 0 29 1q13 1 31 2l24 93q-5 -1 -12 -1q-10 -1 -12 -1h-26q-29 1 -37 14l-91 131q84 9 122.5 52t53.5 148q18 128 -30 169q-25 21 -73 29q-23 4 -53 6q-28 2 -65 2h-259l-90 -642h132zM513 433
q-9 -64 -36 -82q-14 -8 -37 -11q-10 -2 -24 -2h-29h-129l28 197h129q17 0 28 -1q14 0 24 -2q22 -3 33 -11q23 -18 14 -82z" />
    <glyph glyph-name="s" unicode="s" horiz-adv-x="624" 
d="M641 615q-19 9 -48 17q-27 7 -62 12q-67 10 -141 10q-102 0 -172 -44q-36 -23 -58 -55q-24 -34 -29 -76q-9 -63 2 -101q11 -36 44 -59q30 -21 90 -38q25 -7 63 -16q15 -3 36 -8q8 -2 19 -4q2 0 5.5 -1t4.5 -1q6 -2 11 -2q13 -4 20 -5q10 -3 16 -5q16 -5 24 -12
q15 -14 10 -54q-8 -52 -42 -67q-15 -6 -39 -8q-11 -1 -24 -1h-27q-42 0 -84 4q-36 4 -71 12q-29 7 -55 15q-22 7 -37 15q-12 -24 -24 -51q-5 -12 -11 -26q-5 -12 -11 -28q40 -21 120 -35q78 -14 149 -14q30 0 55 2q27 2 50 6q51 8 86 27q38 22 61 58q24 38 32 95
q8 63 -16 105q-20 36 -67 59q-20 10 -46 18q-22 7 -52 14q-11 3 -27 6q-5 1 -13 3q-10 3 -14 3q-16 4 -27 7q-15 3 -27 7q-47 14 -54 24q-8 11 -1 55q5 37 38 54q30 15 92 15q28 0 60 -4q29 -3 58 -9q26 -5 49 -11q21 -6 36 -11z" />
    <glyph glyph-name="t" unicode="t" horiz-adv-x="543" 
d="M336 0l75 535h200l25 107h-529l-25 -107h197l-75 -535h132z" />
    <glyph glyph-name="u" unicode="u" horiz-adv-x="668" 
d="M521 271q-4 -26 -8 -44q-4 -21 -8 -37q-10 -34 -27 -54q-33 -39 -121 -39q-89 0 -112 39q-12 20 -12 54q-1 16 1 37q2 18 6 44l52 371h-131l-53 -372q-6 -40 -8 -70q-2 -33 0 -59q4 -55 28 -87q48 -65 214 -65q165 0 230 65q32 32 51 87q9 26 16 59q6 30 12 70l53 372
h-131z" />
    <glyph glyph-name="v" unicode="v" horiz-adv-x="655" 
d="M394 0l317 642h-144l-197 -441l-32 -101h-6l-4 101l-73 441h-144l137 -642h146z" />
    <glyph glyph-name="w" unicode="w" horiz-adv-x="908" 
d="M725 0l229 642h-146l-147 -532h-6l-28 532h-169l-167 -532h-6l-8 532h-144l57 -642h165l165 482l40 -482h165z" />
    <glyph glyph-name="x" unicode="x" horiz-adv-x="696" 
d="M390 289l3.5 -21t4.5 -23q3 -14 5 -25q3 -14 7 -25l96 -195h163q-50 81 -103 168q-27 45 -51 86q-27 44 -48 82q28 33 62 73q33 38 68 79q67 79 132 154h-163l-116 -165q-7 -12 -14 -26q-6 -11 -13 -24q-4 -10 -11 -24q0 1 -2 -5l-3 -6q-3 -5 -4 -9q-2 11 -4 20
q-2 13 -4 24q-6 28 -11 50l-70 165h-163q19 -34 43 -75q21 -36 45 -79q11 -19 23 -40q11 -18 22 -39q11 -18 22 -38q10 -16 21 -35q-16 -19 -35 -40q-17 -19 -37 -42q-9 -9 -19 -21q-8 -10 -19 -21q-7 -9 -19 -22q-2 -2 -4.5 -5.5t-4.5 -5.5q-6 -6 -10 -11q-11 -12 -19 -22
q-11 -12 -20 -22q-20 -23 -38 -43q-19 -22 -36 -42q-19 -21 -35 -39h163l150 195q12 21 26 50q5 10 10 23q4 8 10 21v0z" />
    <glyph glyph-name="y" unicode="y" horiz-adv-x="618" 
d="M371 0l38 274l287 368h-139q-20 -23 -42 -49q-18 -21 -39 -49q-9 -11 -19 -24q-4 -6 -10 -13q-2 -3 -8.5 -11.5t-9.5 -12.5q-6 -7 -10 -12q-10 -14 -18 -24q-14 -35 -27 -67q-15 -36 -24 -60q-4 60 -12 127q-10 21 -23 48q-5 11 -11 25q-2 5 -5 12q-1 1 -3 6l-3 6
q-7 15 -11 25q-6 13 -11 24q-12 27 -22 49h-146q10 -22 22 -46q10 -22 21 -46q10 -21 22 -46q5 -11 11 -24q5 -9 11 -23q2 -3 5.5 -11t5.5 -12q6 -14 11 -23q12 -26 21 -46q12 -25 22 -46q11 -24 22 -45l-38 -274h132z" />
    <glyph glyph-name="z" unicode="z" horiz-adv-x="585" 
d="M545 0l25 108h-396l443 421l16 113h-485l-25 -107h359l-438 -418l-16 -117h517z" />
    <glyph glyph-name="braceleft" unicode="{" horiz-adv-x="282" 
d="M230 -197l14 100h-5q-25 0 -26 23q-1 11 2 37q1 11 3 28q1 6 3 16q0 1 1 9q1 6 2 10q13 98 -4 138q-17 42 -83 67q70 30 94 55q13 13 21 31q6 13 14 40q4 18 10 52q4 20 8 43q4 25 8 54q4 33 12 44q8 10 27 10h5l14 101h-16q-42 0 -56 -4q-54 -13 -76 -52
q-23 -41 -40 -159q-8 -51 -16 -82q-9 -35 -22 -56q-27 -43 -86 -49l-8 -54q75 -7 80 -78q0 -9 -2 -41q-2 -13 -4 -33q0 -7 -2 -18q0 -2 -0.5 -8.5t-0.5 -9.5q-2 -11 -2 -18q-2 -10 -2 -18q-2 -20 -4 -35q-3 -36 -1 -50q2 -38 18 -60q13 -19 40 -28q16 -5 64 -5h16z" />
    <glyph glyph-name="bar" unicode="|" horiz-adv-x="227" 
d="M106 -197l120 858h-55l-120 -858h55z" />
    <glyph glyph-name="braceright" unicode="}" horiz-adv-x="283" 
d="M13 -197q47 0 66 5q27 9 46 28q21 22 36 60q5 14 12 50q3 15 6 35q3 15 7 36q1 6 3 18.5t3 17.5q3 20 6 33q6 32 9 41q27 71 102 78l8 54q-59 6 -74 49q-7 22 -6 56q0 31 8 82q17 118 5 159q-11 39 -61 52q-15 4 -56 4h-16l-14 -101h5q18 0 23 -10q6 -11 2 -44
q-5 -32 -8 -54q-3 -25 -5 -43q-4 -38 -3 -52q0 -27 2 -40q3 -18 11 -31q17 -25 80 -55q-74 -25 -103 -67q-29 -40 -42 -138q-2 -8 -3 -19q-2 -11 -3 -16q-2 -18 -4 -28q-4 -26 -8 -37q-8 -23 -31 -23h-5l-13 -100h15z" />
    <glyph glyph-name="asciitilde" unicode="~" horiz-adv-x="589" 
d="M579 370q-29 -22 -60 -35q-33 -14 -59 -14q-12 0 -34 6l-21 7q-10 4 -23 9q-5 2 -12 5q-1 0 -6 2q-4 1 -6 2q-15 6 -24 9q-26 10 -41 14q-32 8 -59 8q-74 0 -130 -49l-9 -66q38 28 67 39q25 10 56 10q14 0 40 -8q20 -6 49 -17q11 -4 25 -9q4 -2 11 -5q1 0 3 -1l3 -1
q3 -1 5 -2q25 -10 34 -12q12 -4 26 -5q11 -1 27 -1q69 0 128 46z" />
    <glyph glyph-name="Adieresis" horiz-adv-x="657" 
d="M345 642l-317 -642h144l80 181h201l31 -181h144l-137 642h-146zM368 441l33 101h6l3 -101l28 -167h-144zM394 723l17 123h-110l-17 -123h110zM572 723l17 123h-110l-17 -123h110z" />
    <glyph glyph-name="Adieresis" unicode="&#xc4;" horiz-adv-x="657" 
d="M345 642l-317 -642h144l80 181h201l31 -181h144l-137 642h-146zM368 441l33 101h6l3 -101l28 -167h-144zM394 723l17 123h-110l-17 -123h110zM572 723l17 123h-110l-17 -123h110z" />
    <glyph glyph-name="Aring" horiz-adv-x="657" 
d="M345 642l-317 -642h144l80 181h201l31 -181h144l-137 642h-146zM368 441l33 101h6l3 -101l28 -167h-144zM429 725q-16 0 -22 5q-8 7 -4 32q3 23 14 30q6 5 23 5q16 0 21 -5q9 -7 6 -30q-4 -25 -15 -32q-7 -5 -23 -5v0zM425 695q31 0 47 11q20 16 27 56q5 39 -11 54
q-13 12 -44 12q-32 0 -47 -12q-21 -15 -26 -54q-7 -40 10 -56q12 -11 44 -11v0z" />
    <glyph glyph-name="Aring" unicode="&#xc5;" horiz-adv-x="657" 
d="M345 642l-317 -642h144l80 181h201l31 -181h144l-137 642h-146zM368 441l33 101h6l3 -101l28 -167h-144zM429 725q-16 0 -22 5q-8 7 -4 32q3 23 14 30q6 5 23 5q16 0 21 -5q9 -7 6 -30q-4 -25 -15 -32q-7 -5 -23 -5v0zM425 695q31 0 47 11q20 16 27 56q5 39 -11 54
q-13 12 -44 12q-32 0 -47 -12q-21 -15 -26 -54q-7 -40 10 -56q12 -11 44 -11v0z" />
    <glyph glyph-name="Ccedilla" horiz-adv-x="650" 
d="M599 134q-10 -4 -17 -6q-11 -3 -21 -6q-25 -8 -49 -13q-30 -7 -58 -11q-32 -4 -60 -4q-24 0 -40 1q-20 1 -36 4q-36 8 -56 29q-24 24 -31 68q-7 48 4 125q10 75 31 123q20 44 50 68q26 21 65 29q16 4 37 5q17 2 40 2q28 0 57 -4q25 -4 51 -10q21 -5 43 -12q8 -2 18 -6
q3 -1 7 -2q6 -2 8 -2l48 103q-79 40 -219 40q-39 0 -71 -3q-35 -3 -65 -10q-64 -14 -108 -48q-49 -38 -80 -102q-32 -68 -46 -171q-15 -104 -2 -172q13 -64 51 -102q35 -34 95 -47q27 -7 62 -10q31 -3 70 -3q68 0 133 13q62 10 108 31zM205 -190q25 -3 58 -3q59 0 98 24
q36 21 40 52q6 49 -78 59l22 48h-41l-26 -61q43 -2 56 -13q10 -8 8 -27q-3 -17 -22 -32q-25 -14 -71 -14q-9 0 -14 1h-16h-4z" />
    <glyph glyph-name="Ccedilla" unicode="&#xc7;" horiz-adv-x="650" 
d="M599 134q-10 -4 -17 -6q-11 -3 -21 -6q-25 -8 -49 -13q-30 -7 -58 -11q-32 -4 -60 -4q-24 0 -40 1q-20 1 -36 4q-36 8 -56 29q-24 24 -31 68q-7 48 4 125q10 75 31 123q20 44 50 68q26 21 65 29q16 4 37 5q17 2 40 2q28 0 57 -4q25 -4 51 -10q21 -5 43 -12q8 -2 18 -6
q3 -1 7 -2q6 -2 8 -2l48 103q-79 40 -219 40q-39 0 -71 -3q-35 -3 -65 -10q-64 -14 -108 -48q-49 -38 -80 -102q-32 -68 -46 -171q-15 -104 -2 -172q13 -64 51 -102q35 -34 95 -47q27 -7 62 -10q31 -3 70 -3q68 0 133 13q62 10 108 31zM205 -190q25 -3 58 -3q59 0 98 24
q36 21 40 52q6 49 -78 59l22 48h-41l-26 -61q43 -2 56 -13q10 -8 8 -27q-3 -17 -22 -32q-25 -14 -71 -14q-9 0 -14 1h-16h-4z" />
    <glyph glyph-name="Eacute" horiz-adv-x="566" 
d="M549 0l25 108h-348l24 171h263l15 107h-263l21 149h338l25 107h-480l-90 -642h470zM415 689q11 12 26 27q5 5 12 13l3 3l3 3q4 4 6 7q15 15 25 26l28 28h-85l-68 -107h50z" />
    <glyph glyph-name="Eacute" unicode="&#xc9;" horiz-adv-x="566" 
d="M549 0l25 108h-348l24 171h263l15 107h-263l21 149h338l25 107h-480l-90 -642h470zM415 689q11 12 26 27q5 5 12 13l3 3l3 3q4 4 6 7q15 15 25 26l28 28h-85l-68 -107h50z" />
    <glyph glyph-name="Ntilde" horiz-adv-x="685" 
d="M605 0l90 642h-127l-60 -422l-199 422h-140l-90 -642h128l59 424l200 -424h139zM563 803q-8 -24 -19.5 -32t-30.5 -8q-20 0 -47 15q-48 24 -73 24q-38 0 -67 -26q-27 -24 -33 -59h43q2 9 6 17q4 6 10 13q18 15 38 15q18 0 48 -18q46 -25 72 -25q74 0 94 84h-41z" />
    <glyph glyph-name="Ntilde" unicode="&#xd1;" horiz-adv-x="685" 
d="M605 0l90 642h-127l-60 -422l-199 422h-140l-90 -642h128l59 424l200 -424h139zM563 803q-8 -24 -19.5 -32t-30.5 -8q-20 0 -47 15q-48 24 -73 24q-38 0 -67 -26q-27 -24 -33 -59h43q2 9 6 17q4 6 10 13q18 15 38 15q18 0 48 -18q46 -25 72 -25q74 0 94 84h-41z" />
    <glyph glyph-name="Odieresis" unicode="&#x85;" 
d="M456 549q11 0 18 -1h17q20 -1 34 -3q36 -6 57 -25q24 -23 32 -68q9 -50 -2 -130q-12 -82 -34 -131q-21 -45 -51 -68q-26 -19 -64 -25q-15 -2 -35 -3h-18h-18h-19h-19q-19 1 -34 3q-36 6 -56 25q-24 23 -32 68q-8 49 4 131q11 81 33 130q20 45 51 68q25 19 63 25
q15 2 35 3h19q6 1 19 1v0zM102 322q-15 -105 0 -174q14 -64 55 -101q36 -33 96 -47q26 -5 59 -8q29 -3 65 -3q35 0 65 3q33 3 61 8q64 14 109 47q51 37 84 101q35 69 50 174q14 104 -2 173q-14 64 -54 101q-36 33 -96 47q-26 6 -59 9q-29 3 -64 3q-36 0 -66 -3
q-33 -3 -62 -9q-31 -7 -57 -18q-28 -12 -52 -29q-51 -37 -83 -101q-35 -69 -49 -173v0zM445 723l17 123h-110l-17 -123h110zM623 723l17 123h-110l-17 -123h110z" />
    <glyph glyph-name="Odieresis" unicode="&#xd6;" 
d="M456 549q11 0 18 -1h17q20 -1 34 -3q36 -6 57 -25q24 -23 32 -68q9 -50 -2 -130q-12 -82 -34 -131q-21 -45 -51 -68q-26 -19 -64 -25q-15 -2 -35 -3h-18h-18h-19h-19q-19 1 -34 3q-36 6 -56 25q-24 23 -32 68q-8 49 4 131q11 81 33 130q20 45 51 68q25 19 63 25
q15 2 35 3h19q6 1 19 1v0zM102 322q-15 -105 0 -174q14 -64 55 -101q36 -33 96 -47q26 -5 59 -8q29 -3 65 -3q35 0 65 3q33 3 61 8q64 14 109 47q51 37 84 101q35 69 50 174q14 104 -2 173q-14 64 -54 101q-36 33 -96 47q-26 6 -59 9q-29 3 -64 3q-36 0 -66 -3
q-33 -3 -62 -9q-31 -7 -57 -18q-28 -12 -52 -29q-51 -37 -83 -101q-35 -69 -49 -173v0zM445 723l17 123h-110l-17 -123h110zM623 723l17 123h-110l-17 -123h110z" />
    <glyph glyph-name="Udieresis" horiz-adv-x="686" 
d="M521 271q-4 -26 -8 -44q-4 -21 -8 -37q-10 -34 -27 -54q-33 -39 -121 -39q-89 0 -112 39q-12 20 -12 54q-1 16 1 37q2 18 6 44l52 371h-131l-53 -372q-6 -40 -8 -70q-2 -33 0 -59q4 -55 28 -87q48 -65 214 -65q165 0 230 65q32 32 51 87q9 26 16 59q6 30 12 70l53 372
h-131zM409 723l17 123h-110l-17 -123h110zM587 723l17 123h-110l-17 -123h110z" />
    <glyph glyph-name="Udieresis" unicode="&#xdc;" horiz-adv-x="686" 
d="M521 271q-4 -26 -8 -44q-4 -21 -8 -37q-10 -34 -27 -54q-33 -39 -121 -39q-89 0 -112 39q-12 20 -12 54q-1 16 1 37q2 18 6 44l52 371h-131l-53 -372q-6 -40 -8 -70q-2 -33 0 -59q4 -55 28 -87q48 -65 214 -65q165 0 230 65q32 32 51 87q9 26 16 59q6 30 12 70l53 372
h-131zM409 723l17 123h-110l-17 -123h110zM587 723l17 123h-110l-17 -123h110z" />
    <glyph glyph-name="aacute" horiz-adv-x="657" 
d="M345 642l-317 -642h144l80 181h201l31 -181h144l-137 642h-146zM368 441l33 101h6l3 -101l28 -167h-144zM437 689q11 12 26 27q5 5 12 13l3 3l3 3q4 4 6 7q15 15 25 26l28 28h-85l-68 -107h50z" />
    <glyph glyph-name="aacute" unicode="&#xe1;" horiz-adv-x="657" 
d="M345 642l-317 -642h144l80 181h201l31 -181h144l-137 642h-146zM368 441l33 101h6l3 -101l28 -167h-144zM437 689q11 12 26 27q5 5 12 13l3 3l3 3q4 4 6 7q15 15 25 26l28 28h-85l-68 -107h50z" />
    <glyph glyph-name="agrave" horiz-adv-x="703" 
d="M673 103q-33 4 -43 24q-11 22 -4 70l16 112l2 16q29 206 -22 271q-27 33 -81 47q-25 6 -60 9q-31 3 -73 3q-143 0 -236 -42l18 -103q9 3 16 5q11 3 20 6q25 7 49 12q29 7 56 10q31 5 60 5q23 0 37 -1q18 -1 30 -3q28 -4 42 -17q28 -24 21 -116h-158q-61 0 -107 -11
q-50 -11 -86 -35q-39 -27 -62 -69q-25 -45 -34 -108q-9 -57 5 -97q12 -37 44 -61q29 -21 77 -30q43 -10 104 -10q143 0 221 109q3 -49 31 -71q28 -23 91 -29zM507 301q-4 -27 -8 -47q-5 -23 -11 -41q-12 -39 -31 -63q-42 -52 -137 -52q-33 0 -53 2q-24 4 -39 13
q-34 19 -26 75q5 37 18 61q12 22 31 35q18 11 44 15q20 4 53 4h159v-2zM520 707l-38 107h-86l79 -107h45z" />
    <glyph glyph-name="agrave" unicode="&#xe0;" horiz-adv-x="703" 
d="M673 103q-33 4 -43 24q-11 22 -4 70l16 112l2 16q29 206 -22 271q-27 33 -81 47q-25 6 -60 9q-31 3 -73 3q-143 0 -236 -42l18 -103q9 3 16 5q11 3 20 6q25 7 49 12q29 7 56 10q31 5 60 5q23 0 37 -1q18 -1 30 -3q28 -4 42 -17q28 -24 21 -116h-158q-61 0 -107 -11
q-50 -11 -86 -35q-39 -27 -62 -69q-25 -45 -34 -108q-9 -57 5 -97q12 -37 44 -61q29 -21 77 -30q43 -10 104 -10q143 0 221 109q3 -49 31 -71q28 -23 91 -29zM507 301q-4 -27 -8 -47q-5 -23 -11 -41q-12 -39 -31 -63q-42 -52 -137 -52q-33 0 -53 2q-24 4 -39 13
q-34 19 -26 75q5 37 18 61q12 22 31 35q18 11 44 15q20 4 53 4h159v-2zM520 707l-38 107h-86l79 -107h45z" />
    <glyph glyph-name="acircumflex" horiz-adv-x="657" 
d="M345 642l-317 -642h144l80 181h201l31 -181h144l-137 642h-146zM368 441l33 101h6l3 -101l28 -167h-144zM553 689l-76 107h-80q-13 -14 -27 -28q-5 -6 -12 -13q-5 -4 -13 -12.5t-12 -12.5q-7 -8 -13 -13q-14 -15 -26 -28h72l71 84l47 -84h69z" />
    <glyph glyph-name="acircumflex" unicode="&#xe2;" horiz-adv-x="657" 
d="M345 642l-317 -642h144l80 181h201l31 -181h144l-137 642h-146zM368 441l33 101h6l3 -101l28 -167h-144zM553 689l-76 107h-80q-13 -14 -27 -28q-5 -6 -12 -13q-5 -4 -13 -12.5t-12 -12.5q-7 -8 -13 -13q-14 -15 -26 -28h72l71 84l47 -84h69z" />
    <glyph glyph-name="adieresis" horiz-adv-x="657" 
d="M345 642l-317 -642h144l80 181h201l31 -181h144l-137 642h-146zM368 441l33 101h6l3 -101l28 -167h-144zM394 723l17 123h-110l-17 -123h110zM572 723l17 123h-110l-17 -123h110z" />
    <glyph glyph-name="adieresis" unicode="&#xe4;" horiz-adv-x="657" 
d="M345 642l-317 -642h144l80 181h201l31 -181h144l-137 642h-146zM368 441l33 101h6l3 -101l28 -167h-144zM394 723l17 123h-110l-17 -123h110zM572 723l17 123h-110l-17 -123h110z" />
    <glyph glyph-name="atilde" horiz-adv-x="703" 
d="M673 103q-33 4 -43 24q-11 22 -4 70l16 112l2 16q29 206 -22 271q-27 33 -81 47q-25 6 -60 9q-31 3 -73 3q-143 0 -236 -42l18 -103q9 3 16 5q11 3 20 6q25 7 49 12q29 7 56 10q31 5 60 5q23 0 37 -1q18 -1 30 -3q28 -4 42 -17q28 -24 21 -116h-158q-61 0 -107 -11
q-50 -11 -86 -35q-39 -27 -62 -69q-25 -45 -34 -108q-9 -57 5 -97q12 -37 44 -61q29 -21 77 -30q43 -10 104 -10q143 0 221 109q3 -49 31 -71q28 -23 91 -29zM507 301q-4 -27 -8 -47q-5 -23 -11 -41q-12 -39 -31 -63q-42 -52 -137 -52q-33 0 -53 2q-24 4 -39 13
q-34 19 -26 75q5 37 18 61q12 22 31 35q18 11 44 15q20 4 53 4h159v-2zM572 803q-8 -24 -19.5 -32t-30.5 -8q-20 0 -47 15q-48 24 -73 24q-38 0 -67 -26q-27 -24 -33 -59h43q2 9 6 17q4 6 10 13q18 15 38 15q18 0 48 -18q46 -25 72 -25q74 0 94 84h-41z" />
    <glyph glyph-name="atilde" unicode="&#xe3;" horiz-adv-x="703" 
d="M673 103q-33 4 -43 24q-11 22 -4 70l16 112l2 16q29 206 -22 271q-27 33 -81 47q-25 6 -60 9q-31 3 -73 3q-143 0 -236 -42l18 -103q9 3 16 5q11 3 20 6q25 7 49 12q29 7 56 10q31 5 60 5q23 0 37 -1q18 -1 30 -3q28 -4 42 -17q28 -24 21 -116h-158q-61 0 -107 -11
q-50 -11 -86 -35q-39 -27 -62 -69q-25 -45 -34 -108q-9 -57 5 -97q12 -37 44 -61q29 -21 77 -30q43 -10 104 -10q143 0 221 109q3 -49 31 -71q28 -23 91 -29zM507 301q-4 -27 -8 -47q-5 -23 -11 -41q-12 -39 -31 -63q-42 -52 -137 -52q-33 0 -53 2q-24 4 -39 13
q-34 19 -26 75q5 37 18 61q12 22 31 35q18 11 44 15q20 4 53 4h159v-2zM572 803q-8 -24 -19.5 -32t-30.5 -8q-20 0 -47 15q-48 24 -73 24q-38 0 -67 -26q-27 -24 -33 -59h43q2 9 6 17q4 6 10 13q18 15 38 15q18 0 48 -18q46 -25 72 -25q74 0 94 84h-41z" />
    <glyph glyph-name="aring" horiz-adv-x="703" 
d="M673 103q-33 4 -43 24q-11 22 -4 70l16 112l2 16q29 206 -22 271q-27 33 -81 47q-25 6 -60 9q-31 3 -73 3q-143 0 -236 -42l18 -103q9 3 16 5q11 3 20 6q25 7 49 12q29 7 56 10q31 5 60 5q23 0 37 -1q18 -1 30 -3q28 -4 42 -17q28 -24 21 -116h-158q-61 0 -107 -11
q-50 -11 -86 -35q-39 -27 -62 -69q-25 -45 -34 -108q-9 -57 5 -97q12 -37 44 -61q29 -21 77 -30q43 -10 104 -10q143 0 221 109q3 -49 31 -71q28 -23 91 -29zM507 301q-4 -27 -8 -47q-5 -23 -11 -41q-12 -39 -31 -63q-42 -52 -137 -52q-33 0 -53 2q-24 4 -39 13
q-34 19 -26 75q5 37 18 61q12 22 31 35q18 11 44 15q20 4 53 4h159v-2zM452 725q-16 0 -22 5q-8 7 -4 32q3 23 14 30q6 5 23 5q16 0 21 -5q9 -7 6 -30q-4 -25 -15 -32q-7 -5 -23 -5v0zM448 695q31 0 47 11q20 16 27 56q5 39 -11 54q-13 12 -44 12q-32 0 -47 -12
q-21 -15 -26 -54q-7 -40 10 -56q12 -11 44 -11v0z" />
    <glyph glyph-name="aring" unicode="&#xe5;" horiz-adv-x="703" 
d="M673 103q-33 4 -43 24q-11 22 -4 70l16 112l2 16q29 206 -22 271q-27 33 -81 47q-25 6 -60 9q-31 3 -73 3q-143 0 -236 -42l18 -103q9 3 16 5q11 3 20 6q25 7 49 12q29 7 56 10q31 5 60 5q23 0 37 -1q18 -1 30 -3q28 -4 42 -17q28 -24 21 -116h-158q-61 0 -107 -11
q-50 -11 -86 -35q-39 -27 -62 -69q-25 -45 -34 -108q-9 -57 5 -97q12 -37 44 -61q29 -21 77 -30q43 -10 104 -10q143 0 221 109q3 -49 31 -71q28 -23 91 -29zM507 301q-4 -27 -8 -47q-5 -23 -11 -41q-12 -39 -31 -63q-42 -52 -137 -52q-33 0 -53 2q-24 4 -39 13
q-34 19 -26 75q5 37 18 61q12 22 31 35q18 11 44 15q20 4 53 4h159v-2zM452 725q-16 0 -22 5q-8 7 -4 32q3 23 14 30q6 5 23 5q16 0 21 -5q9 -7 6 -30q-4 -25 -15 -32q-7 -5 -23 -5v0zM448 695q31 0 47 11q20 16 27 56q5 39 -11 54q-13 12 -44 12q-32 0 -47 -12
q-21 -15 -26 -54q-7 -40 10 -56q12 -11 44 -11v0z" />
    <glyph glyph-name="ccedilla" horiz-adv-x="650" 
d="M599 134q-10 -4 -17 -6q-11 -3 -21 -6q-25 -8 -49 -13q-30 -7 -58 -11q-32 -4 -60 -4q-24 0 -40 1q-20 1 -36 4q-36 8 -56 29q-24 24 -31 68q-7 48 4 125q10 75 31 123q20 44 50 68q26 21 65 29q16 4 37 5q17 2 40 2q28 0 57 -4q25 -4 51 -10q21 -5 43 -12q8 -2 18 -6
q3 -1 7 -2q6 -2 8 -2l48 103q-79 40 -219 40q-39 0 -71 -3q-35 -3 -65 -10q-64 -14 -108 -48q-49 -38 -80 -102q-32 -68 -46 -171q-15 -104 -2 -172q13 -64 51 -102q35 -34 95 -47q27 -7 62 -10q31 -3 70 -3q68 0 133 13q62 10 108 31zM205 -190q25 -3 58 -3q59 0 98 24
q36 21 40 52q6 49 -78 59l22 48h-41l-26 -61q43 -2 56 -13q10 -8 8 -27q-3 -17 -22 -32q-25 -14 -71 -14q-9 0 -14 1h-16h-4z" />
    <glyph glyph-name="ccedilla" unicode="&#xe7;" horiz-adv-x="650" 
d="M599 134q-10 -4 -17 -6q-11 -3 -21 -6q-25 -8 -49 -13q-30 -7 -58 -11q-32 -4 -60 -4q-24 0 -40 1q-20 1 -36 4q-36 8 -56 29q-24 24 -31 68q-7 48 4 125q10 75 31 123q20 44 50 68q26 21 65 29q16 4 37 5q17 2 40 2q28 0 57 -4q25 -4 51 -10q21 -5 43 -12q8 -2 18 -6
q3 -1 7 -2q6 -2 8 -2l48 103q-79 40 -219 40q-39 0 -71 -3q-35 -3 -65 -10q-64 -14 -108 -48q-49 -38 -80 -102q-32 -68 -46 -171q-15 -104 -2 -172q13 -64 51 -102q35 -34 95 -47q27 -7 62 -10q31 -3 70 -3q68 0 133 13q62 10 108 31zM205 -190q25 -3 58 -3q59 0 98 24
q36 21 40 52q6 49 -78 59l22 48h-41l-26 -61q43 -2 56 -13q10 -8 8 -27q-3 -17 -22 -32q-25 -14 -71 -14q-9 0 -14 1h-16h-4z" />
    <glyph glyph-name="eacute" horiz-adv-x="566" 
d="M549 0l25 108h-348l24 171h263l15 107h-263l21 149h338l25 107h-480l-90 -642h470zM415 689q11 12 26 27q5 5 12 13l3 3l3 3q4 4 6 7q15 15 25 26l28 28h-85l-68 -107h50z" />
    <glyph glyph-name="eacute" unicode="&#xe9;" horiz-adv-x="566" 
d="M549 0l25 108h-348l24 171h263l15 107h-263l21 149h338l25 107h-480l-90 -642h470zM415 689q11 12 26 27q5 5 12 13l3 3l3 3q4 4 6 7q15 15 25 26l28 28h-85l-68 -107h50z" />
    <glyph glyph-name="egrave" horiz-adv-x="704" 
d="M700 278l7 51q13 96 2 161q-10 63 -43 100q-32 35 -87 51q-26 7 -58 10q-30 4 -66.5 4t-65.5 -3q-32 -4 -60 -10q-60 -16 -103 -50q-48 -39 -78 -105q-33 -70 -47 -174q-14 -102 -3 -168q12 -63 48 -99q33 -33 91 -46q27 -7 61 -10q31 -3 71 -3q33 0 72 5q36 4 73 10
q74 15 121 36l-19 103l-9 -3q-8 -3 -9 -3q-12 -4 -22 -7q-13 -5 -25 -8q-15 -4 -29 -8q-32 -8 -61 -13q-34 -5 -62 -5q-54 0 -86 6q-35 8 -54 27q-38 38 -27 151h468zM247 386q10 56 29 90q17 32 43 49q22 15 54 20q14 2 32 3q13 1 34 1q42 0 68 -6q29 -7 45 -24
q34 -34 27 -133h-332zM520 707l-38 107h-86l79 -107h45z" />
    <glyph glyph-name="egrave" unicode="&#xe8;" horiz-adv-x="704" 
d="M700 278l7 51q13 96 2 161q-10 63 -43 100q-32 35 -87 51q-26 7 -58 10q-30 4 -66.5 4t-65.5 -3q-32 -4 -60 -10q-60 -16 -103 -50q-48 -39 -78 -105q-33 -70 -47 -174q-14 -102 -3 -168q12 -63 48 -99q33 -33 91 -46q27 -7 61 -10q31 -3 71 -3q33 0 72 5q36 4 73 10
q74 15 121 36l-19 103l-9 -3q-8 -3 -9 -3q-12 -4 -22 -7q-13 -5 -25 -8q-15 -4 -29 -8q-32 -8 -61 -13q-34 -5 -62 -5q-54 0 -86 6q-35 8 -54 27q-38 38 -27 151h468zM247 386q10 56 29 90q17 32 43 49q22 15 54 20q14 2 32 3q13 1 34 1q42 0 68 -6q29 -7 45 -24
q34 -34 27 -133h-332zM520 707l-38 107h-86l79 -107h45z" />
    <glyph glyph-name="ecircumflex" horiz-adv-x="704" 
d="M700 278l7 51q13 96 2 161q-10 63 -43 100q-32 35 -87 51q-26 7 -58 10q-30 4 -66.5 4t-65.5 -3q-32 -4 -60 -10q-60 -16 -103 -50q-48 -39 -78 -105q-33 -70 -47 -174q-14 -102 -3 -168q12 -63 48 -99q33 -33 91 -46q27 -7 61 -10q31 -3 71 -3q33 0 72 5q36 4 73 10
q74 15 121 36l-19 103l-9 -3q-8 -3 -9 -3q-12 -4 -22 -7q-13 -5 -25 -8q-15 -4 -29 -8q-32 -8 -61 -13q-34 -5 -62 -5q-54 0 -86 6q-35 8 -54 27q-38 38 -27 151h468zM247 386q10 56 29 90q17 32 43 49q22 15 54 20q14 2 32 3q13 1 34 1q42 0 68 -6q29 -7 45 -24
q34 -34 27 -133h-332zM580 707l-76 107h-80q-7 -7 -14 -15q-3 -3 -7 -6q-1 -2 -3 -4q-3 -2 -3 -3l-13 -13q-7 -7 -12 -13q-14 -13 -25 -25l-26 -28h72l71 84l47 -84h69z" />
    <glyph glyph-name="ecircumflex" unicode="&#xea;" horiz-adv-x="704" 
d="M700 278l7 51q13 96 2 161q-10 63 -43 100q-32 35 -87 51q-26 7 -58 10q-30 4 -66.5 4t-65.5 -3q-32 -4 -60 -10q-60 -16 -103 -50q-48 -39 -78 -105q-33 -70 -47 -174q-14 -102 -3 -168q12 -63 48 -99q33 -33 91 -46q27 -7 61 -10q31 -3 71 -3q33 0 72 5q36 4 73 10
q74 15 121 36l-19 103l-9 -3q-8 -3 -9 -3q-12 -4 -22 -7q-13 -5 -25 -8q-15 -4 -29 -8q-32 -8 -61 -13q-34 -5 -62 -5q-54 0 -86 6q-35 8 -54 27q-38 38 -27 151h468zM247 386q10 56 29 90q17 32 43 49q22 15 54 20q14 2 32 3q13 1 34 1q42 0 68 -6q29 -7 45 -24
q34 -34 27 -133h-332zM580 707l-76 107h-80q-7 -7 -14 -15q-3 -3 -7 -6q-1 -2 -3 -4q-3 -2 -3 -3l-13 -13q-7 -7 -12 -13q-14 -13 -25 -25l-26 -28h72l71 84l47 -84h69z" />
    <glyph glyph-name="edieresis" horiz-adv-x="704" 
d="M700 278l7 51q13 96 2 161q-10 63 -43 100q-32 35 -87 51q-26 7 -58 10q-30 4 -66.5 4t-65.5 -3q-32 -4 -60 -10q-60 -16 -103 -50q-48 -39 -78 -105q-33 -70 -47 -174q-14 -102 -3 -168q12 -63 48 -99q33 -33 91 -46q27 -7 61 -10q31 -3 71 -3q33 0 72 5q36 4 73 10
q74 15 121 36l-19 103l-9 -3q-8 -3 -9 -3q-12 -4 -22 -7q-13 -5 -25 -8q-15 -4 -29 -8q-32 -8 -61 -13q-34 -5 -62 -5q-54 0 -86 6q-35 8 -54 27q-38 38 -27 151h468zM247 386q10 56 29 90q17 32 43 49q22 15 54 20q14 2 32 3q13 1 34 1q42 0 68 -6q29 -7 45 -24
q34 -34 27 -133h-332zM418 723l17 123h-110l-17 -123h110zM596 723l17 123h-110l-17 -123h110z" />
    <glyph glyph-name="edieresis" unicode="&#xeb;" horiz-adv-x="704" 
d="M700 278l7 51q13 96 2 161q-10 63 -43 100q-32 35 -87 51q-26 7 -58 10q-30 4 -66.5 4t-65.5 -3q-32 -4 -60 -10q-60 -16 -103 -50q-48 -39 -78 -105q-33 -70 -47 -174q-14 -102 -3 -168q12 -63 48 -99q33 -33 91 -46q27 -7 61 -10q31 -3 71 -3q33 0 72 5q36 4 73 10
q74 15 121 36l-19 103l-9 -3q-8 -3 -9 -3q-12 -4 -22 -7q-13 -5 -25 -8q-15 -4 -29 -8q-32 -8 -61 -13q-34 -5 -62 -5q-54 0 -86 6q-35 8 -54 27q-38 38 -27 151h468zM247 386q10 56 29 90q17 32 43 49q22 15 54 20q14 2 32 3q13 1 34 1q42 0 68 -6q29 -7 45 -24
q34 -34 27 -133h-332zM418 723l17 123h-110l-17 -123h110zM596 723l17 123h-110l-17 -123h110z" />
    <glyph glyph-name="iacute" horiz-adv-x="290" 
d="M211 0l90 642h-132l-90 -642h132zM257 689q11 12 26 27q5 5 12 13l3 3l3 3q4 4 6 7q15 15 25 26l28 28h-85l-68 -107h50z" />
    <glyph glyph-name="iacute" unicode="&#xed;" horiz-adv-x="290" 
d="M211 0l90 642h-132l-90 -642h132zM257 689q11 12 26 27q5 5 12 13l3 3l3 3q4 4 6 7q15 15 25 26l28 28h-85l-68 -107h50z" />
    <glyph glyph-name="igrave" horiz-adv-x="241" 
d="M181 0l90 642h-132l-90 -642h132zM289 707l-38 107h-86l79 -107h45z" />
    <glyph glyph-name="igrave" unicode="&#xec;" horiz-adv-x="241" 
d="M181 0l90 642h-132l-90 -642h132zM289 707l-38 107h-86l79 -107h45z" />
    <glyph glyph-name="icircumflex" horiz-adv-x="290" 
d="M211 0l90 642h-132l-90 -642h132zM375 689l-76 107h-80q-13 -14 -27 -28q-5 -6 -12 -13q-5 -4 -13 -12.5t-12 -12.5q-7 -8 -13 -13q-14 -15 -26 -28h72l71 84l47 -84h69z" />
    <glyph glyph-name="icircumflex" unicode="&#xee;" horiz-adv-x="290" 
d="M211 0l90 642h-132l-90 -642h132zM375 689l-76 107h-80q-13 -14 -27 -28q-5 -6 -12 -13q-5 -4 -13 -12.5t-12 -12.5q-7 -8 -13 -13q-14 -15 -26 -28h72l71 84l47 -84h69z" />
    <glyph glyph-name="idieresis" horiz-adv-x="241" 
d="M181 0l90 642h-132l-90 -642h132zM191 741l17 123h-110l-17 -123h110zM369 741l17 123h-110l-17 -123h110z" />
    <glyph glyph-name="idieresis" unicode="&#xef;" horiz-adv-x="241" 
d="M181 0l90 642h-132l-90 -642h132zM191 741l17 123h-110l-17 -123h110zM369 741l17 123h-110l-17 -123h110z" />
    <glyph glyph-name="ntilde" horiz-adv-x="685" 
d="M605 0l90 642h-127l-60 -422l-199 422h-140l-90 -642h128l59 424l200 -424h139zM563 803q-8 -24 -19.5 -32t-30.5 -8q-20 0 -47 15q-48 24 -73 24q-38 0 -67 -26q-27 -24 -33 -59h43q2 9 6 17q4 6 10 13q18 15 38 15q18 0 48 -18q46 -25 72 -25q74 0 94 84h-41z" />
    <glyph glyph-name="ntilde" unicode="&#xf1;" horiz-adv-x="685" 
d="M605 0l90 642h-127l-60 -422l-199 422h-140l-90 -642h128l59 424l200 -424h139zM563 803q-8 -24 -19.5 -32t-30.5 -8q-20 0 -47 15q-48 24 -73 24q-38 0 -67 -26q-27 -24 -33 -59h43q2 9 6 17q4 6 10 13q18 15 38 15q18 0 48 -18q46 -25 72 -25q74 0 94 84h-41z" />
    <glyph glyph-name="oacute" 
d="M456 549q11 0 18 -1h17q20 -1 34 -3q36 -6 57 -25q24 -23 32 -68q9 -50 -2 -130q-12 -82 -34 -131q-21 -45 -51 -68q-26 -19 -64 -25q-15 -2 -35 -3h-18h-18h-19h-19q-19 1 -34 3q-36 6 -56 25q-24 23 -32 68q-8 49 4 131q11 81 33 130q20 45 51 68q25 19 63 25
q15 2 35 3h19q6 1 19 1v0zM102 322q-15 -105 0 -174q14 -64 55 -101q36 -33 96 -47q26 -5 59 -8q29 -3 65 -3q35 0 65 3q33 3 61 8q64 14 109 47q51 37 84 101q35 69 50 174q14 104 -2 173q-14 64 -54 101q-36 33 -96 47q-26 6 -59 9q-29 3 -64 3q-36 0 -66 -3
q-33 -3 -62 -9q-31 -7 -57 -18q-28 -12 -52 -29q-51 -37 -83 -101q-35 -69 -49 -173v0zM455 689q11 12 26 27q5 5 12 13l3 3l3 3q4 4 6 7q15 15 25 26l28 28h-85l-68 -107h50z" />
    <glyph glyph-name="oacute" unicode="&#xf3;" 
d="M456 549q11 0 18 -1h17q20 -1 34 -3q36 -6 57 -25q24 -23 32 -68q9 -50 -2 -130q-12 -82 -34 -131q-21 -45 -51 -68q-26 -19 -64 -25q-15 -2 -35 -3h-18h-18h-19h-19q-19 1 -34 3q-36 6 -56 25q-24 23 -32 68q-8 49 4 131q11 81 33 130q20 45 51 68q25 19 63 25
q15 2 35 3h19q6 1 19 1v0zM102 322q-15 -105 0 -174q14 -64 55 -101q36 -33 96 -47q26 -5 59 -8q29 -3 65 -3q35 0 65 3q33 3 61 8q64 14 109 47q51 37 84 101q35 69 50 174q14 104 -2 173q-14 64 -54 101q-36 33 -96 47q-26 6 -59 9q-29 3 -64 3q-36 0 -66 -3
q-33 -3 -62 -9q-31 -7 -57 -18q-28 -12 -52 -29q-51 -37 -83 -101q-35 -69 -49 -173v0zM455 689q11 12 26 27q5 5 12 13l3 3l3 3q4 4 6 7q15 15 25 26l28 28h-85l-68 -107h50z" />
    <glyph glyph-name="ograve" 
d="M456 549q11 0 18 -1h17q20 -1 34 -3q36 -6 57 -25q24 -23 32 -68q9 -50 -2 -130q-12 -82 -34 -131q-21 -45 -51 -68q-26 -19 -64 -25q-15 -2 -35 -3h-18h-18h-19h-19q-19 1 -34 3q-36 6 -56 25q-24 23 -32 68q-8 49 4 131q11 81 33 130q20 45 51 68q25 19 63 25
q15 2 35 3h19q6 1 19 1v0zM102 322q-15 -105 0 -174q14 -64 55 -101q36 -33 96 -47q26 -5 59 -8q29 -3 65 -3q35 0 65 3q33 3 61 8q64 14 109 47q51 37 84 101q35 69 50 174q14 104 -2 173q-14 64 -54 101q-36 33 -96 47q-26 6 -59 9q-29 3 -64 3q-36 0 -66 -3
q-33 -3 -62 -9q-31 -7 -57 -18q-28 -12 -52 -29q-51 -37 -83 -101q-35 -69 -49 -173v0zM547 707l-38 107h-86l79 -107h45z" />
    <glyph glyph-name="ograve" unicode="&#xf2;" 
d="M456 549q11 0 18 -1h17q20 -1 34 -3q36 -6 57 -25q24 -23 32 -68q9 -50 -2 -130q-12 -82 -34 -131q-21 -45 -51 -68q-26 -19 -64 -25q-15 -2 -35 -3h-18h-18h-19h-19q-19 1 -34 3q-36 6 -56 25q-24 23 -32 68q-8 49 4 131q11 81 33 130q20 45 51 68q25 19 63 25
q15 2 35 3h19q6 1 19 1v0zM102 322q-15 -105 0 -174q14 -64 55 -101q36 -33 96 -47q26 -5 59 -8q29 -3 65 -3q35 0 65 3q33 3 61 8q64 14 109 47q51 37 84 101q35 69 50 174q14 104 -2 173q-14 64 -54 101q-36 33 -96 47q-26 6 -59 9q-29 3 -64 3q-36 0 -66 -3
q-33 -3 -62 -9q-31 -7 -57 -18q-28 -12 -52 -29q-51 -37 -83 -101q-35 -69 -49 -173v0zM547 707l-38 107h-86l79 -107h45z" />
    <glyph glyph-name="ocircumflex" 
d="M456 549q11 0 18 -1h17q20 -1 34 -3q36 -6 57 -25q24 -23 32 -68q9 -50 -2 -130q-12 -82 -34 -131q-21 -45 -51 -68q-26 -19 -64 -25q-15 -2 -35 -3h-18h-18h-19h-19q-19 1 -34 3q-36 6 -56 25q-24 23 -32 68q-8 49 4 131q11 81 33 130q20 45 51 68q25 19 63 25
q15 2 35 3h19q6 1 19 1v0zM102 322q-15 -105 0 -174q14 -64 55 -101q36 -33 96 -47q26 -5 59 -8q29 -3 65 -3q35 0 65 3q33 3 61 8q64 14 109 47q51 37 84 101q35 69 50 174q14 104 -2 173q-14 64 -54 101q-36 33 -96 47q-26 6 -59 9q-29 3 -64 3q-36 0 -66 -3
q-33 -3 -62 -9q-31 -7 -57 -18q-28 -12 -52 -29q-51 -37 -83 -101q-35 -69 -49 -173v0zM603 689l-76 107h-80q-13 -14 -27 -28q-5 -6 -12 -13q-5 -4 -13 -12.5t-12 -12.5q-7 -8 -13 -13q-14 -15 -26 -28h72l71 84l47 -84h69z" />
    <glyph glyph-name="ocircumflex" unicode="&#xf4;" 
d="M456 549q11 0 18 -1h17q20 -1 34 -3q36 -6 57 -25q24 -23 32 -68q9 -50 -2 -130q-12 -82 -34 -131q-21 -45 -51 -68q-26 -19 -64 -25q-15 -2 -35 -3h-18h-18h-19h-19q-19 1 -34 3q-36 6 -56 25q-24 23 -32 68q-8 49 4 131q11 81 33 130q20 45 51 68q25 19 63 25
q15 2 35 3h19q6 1 19 1v0zM102 322q-15 -105 0 -174q14 -64 55 -101q36 -33 96 -47q26 -5 59 -8q29 -3 65 -3q35 0 65 3q33 3 61 8q64 14 109 47q51 37 84 101q35 69 50 174q14 104 -2 173q-14 64 -54 101q-36 33 -96 47q-26 6 -59 9q-29 3 -64 3q-36 0 -66 -3
q-33 -3 -62 -9q-31 -7 -57 -18q-28 -12 -52 -29q-51 -37 -83 -101q-35 -69 -49 -173v0zM603 689l-76 107h-80q-13 -14 -27 -28q-5 -6 -12 -13q-5 -4 -13 -12.5t-12 -12.5q-7 -8 -13 -13q-14 -15 -26 -28h72l71 84l47 -84h69z" />
    <glyph glyph-name="odieresis" 
d="M456 549q11 0 18 -1h17q20 -1 34 -3q36 -6 57 -25q24 -23 32 -68q9 -50 -2 -130q-12 -82 -34 -131q-21 -45 -51 -68q-26 -19 -64 -25q-15 -2 -35 -3h-18h-18h-19h-19q-19 1 -34 3q-36 6 -56 25q-24 23 -32 68q-8 49 4 131q11 81 33 130q20 45 51 68q25 19 63 25
q15 2 35 3h19q6 1 19 1v0zM102 322q-15 -105 0 -174q14 -64 55 -101q36 -33 96 -47q26 -5 59 -8q29 -3 65 -3q35 0 65 3q33 3 61 8q64 14 109 47q51 37 84 101q35 69 50 174q14 104 -2 173q-14 64 -54 101q-36 33 -96 47q-26 6 -59 9q-29 3 -64 3q-36 0 -66 -3
q-33 -3 -62 -9q-31 -7 -57 -18q-28 -12 -52 -29q-51 -37 -83 -101q-35 -69 -49 -173v0zM445 723l17 123h-110l-17 -123h110zM623 723l17 123h-110l-17 -123h110z" />
    <glyph glyph-name="odieresis" unicode="&#xf6;" 
d="M456 549q11 0 18 -1h17q20 -1 34 -3q36 -6 57 -25q24 -23 32 -68q9 -50 -2 -130q-12 -82 -34 -131q-21 -45 -51 -68q-26 -19 -64 -25q-15 -2 -35 -3h-18h-18h-19h-19q-19 1 -34 3q-36 6 -56 25q-24 23 -32 68q-8 49 4 131q11 81 33 130q20 45 51 68q25 19 63 25
q15 2 35 3h19q6 1 19 1v0zM102 322q-15 -105 0 -174q14 -64 55 -101q36 -33 96 -47q26 -5 59 -8q29 -3 65 -3q35 0 65 3q33 3 61 8q64 14 109 47q51 37 84 101q35 69 50 174q14 104 -2 173q-14 64 -54 101q-36 33 -96 47q-26 6 -59 9q-29 3 -64 3q-36 0 -66 -3
q-33 -3 -62 -9q-31 -7 -57 -18q-28 -12 -52 -29q-51 -37 -83 -101q-35 -69 -49 -173v0zM445 723l17 123h-110l-17 -123h110zM623 723l17 123h-110l-17 -123h110z" />
    <glyph glyph-name="otilde" 
d="M456 549q11 0 18 -1h17q20 -1 34 -3q36 -6 57 -25q24 -23 32 -68q9 -50 -2 -130q-12 -82 -34 -131q-21 -45 -51 -68q-26 -19 -64 -25q-15 -2 -35 -3h-18h-18h-19h-19q-19 1 -34 3q-36 6 -56 25q-24 23 -32 68q-8 49 4 131q11 81 33 130q20 45 51 68q25 19 63 25
q15 2 35 3h19q6 1 19 1v0zM102 322q-15 -105 0 -174q14 -64 55 -101q36 -33 96 -47q26 -5 59 -8q29 -3 65 -3q35 0 65 3q33 3 61 8q64 14 109 47q51 37 84 101q35 69 50 174q14 104 -2 173q-14 64 -54 101q-36 33 -96 47q-26 6 -59 9q-29 3 -64 3q-36 0 -66 -3
q-33 -3 -62 -9q-31 -7 -57 -18q-28 -12 -52 -29q-51 -37 -83 -101q-35 -69 -49 -173v0zM599 803q-8 -24 -19.5 -32t-30.5 -8q-20 0 -47 15q-48 24 -73 24q-38 0 -67 -26q-27 -24 -33 -59h43q2 9 6 17q4 6 10 13q18 15 38 15q18 0 48 -18q46 -25 72 -25q74 0 94 84h-41z" />
    <glyph glyph-name="otilde" unicode="&#xf5;" 
d="M456 549q11 0 18 -1h17q20 -1 34 -3q36 -6 57 -25q24 -23 32 -68q9 -50 -2 -130q-12 -82 -34 -131q-21 -45 -51 -68q-26 -19 -64 -25q-15 -2 -35 -3h-18h-18h-19h-19q-19 1 -34 3q-36 6 -56 25q-24 23 -32 68q-8 49 4 131q11 81 33 130q20 45 51 68q25 19 63 25
q15 2 35 3h19q6 1 19 1v0zM102 322q-15 -105 0 -174q14 -64 55 -101q36 -33 96 -47q26 -5 59 -8q29 -3 65 -3q35 0 65 3q33 3 61 8q64 14 109 47q51 37 84 101q35 69 50 174q14 104 -2 173q-14 64 -54 101q-36 33 -96 47q-26 6 -59 9q-29 3 -64 3q-36 0 -66 -3
q-33 -3 -62 -9q-31 -7 -57 -18q-28 -12 -52 -29q-51 -37 -83 -101q-35 -69 -49 -173v0zM599 803q-8 -24 -19.5 -32t-30.5 -8q-20 0 -47 15q-48 24 -73 24q-38 0 -67 -26q-27 -24 -33 -59h43q2 9 6 17q4 6 10 13q18 15 38 15q18 0 48 -18q46 -25 72 -25q74 0 94 84h-41z" />
    <glyph glyph-name="uacute" horiz-adv-x="668" 
d="M521 271q-4 -26 -8 -44q-4 -21 -8 -37q-10 -34 -27 -54q-33 -39 -121 -39q-89 0 -112 39q-12 20 -12 54q-1 16 1 37q2 18 6 44l52 371h-131l-53 -372q-6 -40 -8 -70q-2 -33 0 -59q4 -55 28 -87q48 -65 214 -65q165 0 230 65q32 32 51 87q9 26 16 59q6 30 12 70l53 372
h-131zM410 689q11 12 26 27q5 5 12 13l3 3l3 3q4 4 6 7q15 15 25 26l28 28h-85l-68 -107h50z" />
    <glyph glyph-name="uacute" unicode="&#xfa;" horiz-adv-x="668" 
d="M521 271q-4 -26 -8 -44q-4 -21 -8 -37q-10 -34 -27 -54q-33 -39 -121 -39q-89 0 -112 39q-12 20 -12 54q-1 16 1 37q2 18 6 44l52 371h-131l-53 -372q-6 -40 -8 -70q-2 -33 0 -59q4 -55 28 -87q48 -65 214 -65q165 0 230 65q32 32 51 87q9 26 16 59q6 30 12 70l53 372
h-131zM410 689q11 12 26 27q5 5 12 13l3 3l3 3q4 4 6 7q15 15 25 26l28 28h-85l-68 -107h50z" />
    <glyph glyph-name="ugrave" horiz-adv-x="668" 
d="M521 271q-4 -26 -8 -44q-4 -21 -8 -37q-10 -34 -27 -54q-33 -39 -121 -39q-89 0 -112 39q-12 20 -12 54q-1 16 1 37q2 18 6 44l52 371h-131l-53 -372q-6 -40 -8 -70q-2 -33 0 -59q4 -55 28 -87q48 -65 214 -65q165 0 230 65q32 32 51 87q9 26 16 59q6 30 12 70l53 372
h-131zM502 707l-38 107h-86l79 -107h45z" />
    <glyph glyph-name="ugrave" unicode="&#xf9;" horiz-adv-x="668" 
d="M521 271q-4 -26 -8 -44q-4 -21 -8 -37q-10 -34 -27 -54q-33 -39 -121 -39q-89 0 -112 39q-12 20 -12 54q-1 16 1 37q2 18 6 44l52 371h-131l-53 -372q-6 -40 -8 -70q-2 -33 0 -59q4 -55 28 -87q48 -65 214 -65q165 0 230 65q32 32 51 87q9 26 16 59q6 30 12 70l53 372
h-131zM502 707l-38 107h-86l79 -107h45z" />
    <glyph glyph-name="ucircumflex" horiz-adv-x="668" 
d="M521 271q-4 -26 -8 -44q-4 -21 -8 -37q-10 -34 -27 -54q-33 -39 -121 -39q-89 0 -112 39q-12 20 -12 54q-1 16 1 37q2 18 6 44l52 371h-131l-53 -372q-6 -40 -8 -70q-2 -33 0 -59q4 -55 28 -87q48 -65 214 -65q165 0 230 65q32 32 51 87q9 26 16 59q6 30 12 70l53 372
h-131zM562 707l-76 107h-80q-7 -7 -14 -15q-3 -3 -7 -6q-1 -2 -3 -4q-3 -2 -3 -3l-13 -13q-7 -7 -12 -13q-14 -13 -25 -25l-26 -28h72l71 84l47 -84h69z" />
    <glyph glyph-name="ucircumflex" unicode="&#xfb;" horiz-adv-x="668" 
d="M521 271q-4 -26 -8 -44q-4 -21 -8 -37q-10 -34 -27 -54q-33 -39 -121 -39q-89 0 -112 39q-12 20 -12 54q-1 16 1 37q2 18 6 44l52 371h-131l-53 -372q-6 -40 -8 -70q-2 -33 0 -59q4 -55 28 -87q48 -65 214 -65q165 0 230 65q32 32 51 87q9 26 16 59q6 30 12 70l53 372
h-131zM562 707l-76 107h-80q-7 -7 -14 -15q-3 -3 -7 -6q-1 -2 -3 -4q-3 -2 -3 -3l-13 -13q-7 -7 -12 -13q-14 -13 -25 -25l-26 -28h72l71 84l47 -84h69z" />
    <glyph glyph-name="udieresis" horiz-adv-x="668" 
d="M521 271q-4 -26 -8 -44q-4 -21 -8 -37q-10 -34 -27 -54q-33 -39 -121 -39q-89 0 -112 39q-12 20 -12 54q-1 16 1 37q2 18 6 44l52 371h-131l-53 -372q-6 -40 -8 -70q-2 -33 0 -59q4 -55 28 -87q48 -65 214 -65q165 0 230 65q32 32 51 87q9 26 16 59q6 30 12 70l53 372
h-131zM400 723l17 123h-110l-17 -123h110zM578 723l17 123h-110l-17 -123h110z" />
    <glyph glyph-name="udieresis" unicode="&#xfc;" horiz-adv-x="668" 
d="M521 271q-4 -26 -8 -44q-4 -21 -8 -37q-10 -34 -27 -54q-33 -39 -121 -39q-89 0 -112 39q-12 20 -12 54q-1 16 1 37q2 18 6 44l52 371h-131l-53 -372q-6 -40 -8 -70q-2 -33 0 -59q4 -55 28 -87q48 -65 214 -65q165 0 230 65q32 32 51 87q9 26 16 59q6 30 12 70l53 372
h-131zM400 723l17 123h-110l-17 -123h110zM578 723l17 123h-110l-17 -123h110z" />
    <glyph glyph-name="dagger" unicode="&#xa0;" horiz-adv-x="448" 
d="M233 -158l78 555h192l8 52h-192l26 185h-66l-26 -185h-190l-8 -52h190l-78 -555h66z" />
    <glyph glyph-name="dagger" unicode="&#x2020;" horiz-adv-x="448" 
d="M233 -158l78 555h192l8 52h-192l26 185h-66l-26 -185h-190l-8 -52h190l-78 -555h66z" />
    <glyph glyph-name="exclamdown" unicode="&#xa1;" horiz-adv-x="170" 
d="M105 289l-82 -335l-19 -138h105l19 138q0 19 1 41q1 18 2 41q0 9 1 21v11q0 1 1 5v5q0 13 1 21q0 12 1 22q1 23 2 42q0 23 1 42q2 46 3 84h-36zM89 466l-17 -123h118l17 123h-118z" />
    <glyph glyph-name="cent" unicode="&#xa2;" horiz-adv-x="650" 
d="M599 134q-9 -3 -16 -5q-9 -4 -18 -6q-23 -7 -45 -12q-27 -7 -51 -11q-30 -5 -55 -6l63 453q25 -2 51 -6q22 -3 46 -9q18 -5 38 -11q7 -2 16 -5q3 -1 7 -2q6 -2 7 -2l48 103q-74 37 -197 40l12 85h-55l-13 -86q-35 -2 -64 -6q-32 -4 -58 -12q-58 -16 -99 -51
q-44 -38 -72 -101q-30 -66 -43 -163q-14 -98 -3 -164q10 -63 44 -101q31 -35 84 -51q25 -7 55 -11q28 -4 63 -6l-15 -106h55l15 106q61 2 120 13q56 11 99 30zM235 321q9 67 27 113q17 42 42 67q22 23 54 34q26 9 64 12l-63 -453q-38 2 -62 11q-29 10 -45 33q-18 26 -22 68
q-5 46 5 115v0z" />
    <glyph glyph-name="sterling" unicode="&#xa3;" horiz-adv-x="516" 
d="M299 252q2 16 -8 51h141l7 46h-149q-17 89 -8 144q3 29 28 51q24 21 55 21q27 0 46 -18q19 -19 22 -48l125 8q-4 73 -51.5 113.5t-127.5 40.5q-92 0 -155.5 -50.5t-74.5 -129.5q-4 -23 -3 -40q1 -19 8 -66l4 -26h-77l-7 -46h92q4 -36 1 -68q-10 -63 -47 -113
q-35 -44 -86 -71l16 -59q26 19 55 29q27 8 57 9q25 0 57 -4q13 -3 28 -6q12 -2 29 -6l14 -3.5t15 -3.5q16 -4 28 -6q33 -6 58 -8q31 -2 57 2q30 5 58 19q-2 6 -3 21v14v16q-1 11 -1 16v14q-1 16 -2 24q-31 -18 -66 -21q-28 -3 -65 2q-14 2 -32 6q-7 2 -17 4q-1 0 -4 1t-4 1
q-5 1 -8 2q-20 4 -34 7q-19 3 -34 5q54 69 63 126v0z" />
    <glyph glyph-name="currency" unicode="&#xa4;" horiz-adv-x="571" 
d="M480 110l46 42q-7 6 -15 14q-6 7 -15 17q-2 2 -7 8q-5 5 -7 8q-8 8 -12 14q45 54 53 109q7 55 -22 108l73 61q-5 4 -9 10q-3 3 -8.5 10t-8.5 11q-5 5 -9 11l-73 -63q-49 35 -111 35q-60 0 -119 -35l-57 62l-44 -40l56 -62q-44 -52 -52 -108q-8 -58 21 -109l-72 -62
l32 -40l75 64q51 -38 109 -38q60 0 120 38zM249 414q44 37 98 37q56 0 91 -37q34 -41 27 -92q-8 -53 -53 -92q-45 -37 -101 -37q-54 0 -88 37q-35 37 -27 92q7 52 53 92v0z" />
    <glyph glyph-name="yen" unicode="&#xa5;" horiz-adv-x="618" 
d="M371 0l20 149h169l6 43h-169l12 82l2 3h167l7 48h-137l248 317h-139q-20 -23 -42 -49q-18 -21 -39 -49q-9 -11 -19 -24q-4 -6 -10 -13q-2 -3 -8.5 -11.5t-9.5 -12.5q-6 -7 -10 -12q-10 -14 -18 -24l-51 -127q-4 60 -12 127q-10 21 -23 48q-5 11 -11 25q-2 5 -5 12
q-1 1 -3 6l-3 6q-7 15 -11 25q-6 13 -11 24q-12 27 -22 49h-146q8 -19 18 -40q9 -18 19 -39q8 -18 18 -40q5 -9 10 -20q3 -7 9 -20t9 -20q5 -11 10 -20q10 -22 18 -40q10 -21 19 -39q10 -21 19 -39h-129l-7 -48h159q0 -1 2 -3l-12 -82h-161l-6 -43h161l-20 -149h132z" />
    <glyph glyph-name="brokenbar" unicode="&#xa6;" horiz-adv-x="188" 
d="M179 321l47 340h-55l-47 -340h55zM106 -197l48 341h-55l-48 -341h55z" />
    <glyph glyph-name="section" unicode="&#xa7;" horiz-adv-x="515" 
d="M336 -8q17 -26 14 -50q-4 -25 -30 -42q-29 -18 -72 -18t-64 17q-22 17 -27 58l-97 -8q6 -146 185 -146q69 0 126 40q56 40 64 94q9 71 -68 136q78 29 107 59q13 14 20 32q6 15 10 38q6 48 -21 81q-14 18 -43 41q-14 11 -32 25q-17 12 -40 29q-40 27 -66 51q-24 21 -37 40
q-11 17 -15 34q-3 13 0 28q3 21 27.5 37.5t58.5 16.5t51 -15q17 -16 21 -54l99 7q-7 138 -168 138q-38 0 -71 -12q-31 -10 -56 -29q-49 -38 -56 -92q-8 -53 55 -119q-57 -17 -92.5 -51t-41.5 -74q-8 -55 22 -91q14 -18 43 -40q12 -9 30 -22q7 -5 17 -12q6 -5 19 -13
q24 -18 47 -36q20 -16 38 -32q32 -29 43 -46v0zM342 93q-9 7 -24 20q-5 4 -14 11l-3 3q-3 3 -4 3q-5 4 -8 7q-8 7 -15 13q-9 7 -16 13q-18 16 -32 29q-17 15 -29 28q-14 15 -24 27q-21 29 -18 47q6 52 75 101q6 -6 16 -14q8 -7 23 -18q3 -2 6 -5q2 -1 3 -2q2 -2 4 -3
q8 -6 13 -10q16 -13 28 -22q15 -12 27 -22q13 -11 24 -20q23 -21 30 -31q21 -31 18 -62q-4 -26 -22 -50q-18 -26 -48 -44z" />
    <glyph glyph-name="dieresis" unicode="&#xa8;" horiz-adv-x="409" 
d="M250 581l17 123h-110l-17 -123h110zM428 581l17 123h-110l-17 -123h110z" />
    <glyph glyph-name="copyright" unicode="&#xa9;" 
d="M377 -11q35 0 65 3q33 3 61 8q64 14 109 47q51 37 84 101q35 69 50 174q14 104 -2 173q-14 64 -54 101q-36 33 -96 47q-26 6 -59 9q-29 3 -64 3q-36 0 -66 -3q-33 -3 -62 -9q-31 -7 -57 -18q-28 -12 -52 -29q-51 -37 -83 -101q-35 -69 -49 -173q-15 -105 0 -174
q14 -64 55 -101q36 -33 96 -47q26 -5 59 -8q29 -3 65 -3v0zM539 193l-18 -6q-12 -4 -20 -7q-13 -4 -25 -7q-14 -3 -27 -5q-16 -2 -29 -2q-42 0 -65 5q-26 6 -39 22q-26 30 -12 125q7 49 22 81q13 28 34 44q19 13 46 18q12 2 26 3q12 1 29 1q15 0 33 -3q15 -2 32 -6
q13 -3 27 -8q11 -4 21 -7l34 46q-57 30 -142 30q-24 0 -43 -2q-21 -2 -39 -6q-39 -8 -65 -28q-30 -22 -48 -61q-20 -41 -28 -103q-9 -65 -3 -106q7 -39 28 -61q20 -21 56 -29q30 -7 80 -7q38 0 84 10q40 9 73 23zM382 25h-27h-26q-30 1 -51 4q-27 4 -47 11q-23 9 -40 22
q-39 30 -53 88q-8 32 -8 74.5t8 97.5q7 54 19 97q12 42 29 74q30 58 77 88q21 13 46 22q23 7 50 11q23 3 52 4h27h13q5 1 14 1q16 0 25 -1h26q29 -1 50 -4q26 -4 47 -11q23 -9 41 -22q39 -30 54 -88q8 -32 8 -74q1 -43 -6 -97q-8 -55 -20.5 -97.5t-29.5 -74.5
q-16 -30 -36 -53q-19 -20 -42 -35q-21 -13 -47 -22q-22 -7 -50 -11q-22 -3 -51 -4h-26h-26v0z" />
    <glyph glyph-name="trademark" unicode="&#xaa;" horiz-adv-x="730" 
d="M224 321l38 273h105l12 48h-264l-12 -48h103l-38 -273h56zM720 321l45 321h-74l-109 -211l-29 -60l-13 60l-49 211h-74l-45 -321h54l33 241h2l56 -241h59l122 241h1l-33 -241h54z" />
    <glyph glyph-name="trademark" unicode="&#x2122;" horiz-adv-x="730" 
d="M224 321l38 273h105l12 48h-264l-12 -48h103l-38 -273h56zM720 321l45 321h-74l-109 -211l-29 -60l-13 60l-49 211h-74l-45 -321h54l33 241h2l56 -241h59l122 241h1l-33 -241h54z" />
    <glyph glyph-name="guillemotleft" unicode="&#xab;" horiz-adv-x="465" 
d="M257 32l-88 199l145 198h-85l-173 -198q13 -22 29 -49q7 -12 14 -25q7 -11 15 -25q3 -6 7 -13q3 -4 8 -12q5 -9 7 -13q4 -7 7 -13q8 -14 15 -25q8 -13 15 -24h84zM446 32l-92 199l148 198h-89l-170 -198l114 -199h89z" />
    <glyph glyph-name="logicalnot" unicode="&#xac;" horiz-adv-x="522" 
d="M468 194l36 257h-441l-8 -56h380l-28 -201h61z" />
    <glyph glyph-name="registered" unicode="&#xae;" horiz-adv-x="636" 
d="M525 354q-30 -12 -54 32q-12 19 -23 36q65 12 78 101q8 63 -16 84q-21 19 -94 19h-130l-44 -315h50l15 108h83l35 -57q33 -57 64 -57q14 0 41 15zM313 461l18 123h81q23 0 33 -2q14 -1 21 -6q15 -12 10 -53q-6 -42 -25 -54q-9 -5 -24 -7q-11 -1 -33 -1h-81zM346 202
q28 0 52 2q27 2 50 7q52 11 89 38q41 30 67 82q29 56 41 141q11 84 -1 140q-12 52 -45 82q-29 27 -77 38q-22 5 -48 7q-24 3 -52 3q-29 0 -53 -3q-27 -2 -50 -7q-52 -11 -89 -38q-41 -30 -67 -82q-29 -56 -40 -140q-12 -85 0 -141q12 -52 45 -82q29 -27 77 -38q22 -5 48 -7
q24 -2 53 -2v0zM352 242h-21h-21q-22 1 -39 3q-42 6 -67 26q-30 23 -41 68q-12 51 0 133q11 81 37 132q23 45 60 68q16 11 36 17q17 6 38 9q18 2 40 3h21q7 1 21 1q12 0 19 -1h20q22 -1 39 -3q20 -3 36 -9q18 -6 32 -17q30 -23 41 -68q13 -51 2 -132q-12 -82 -38 -133
q-24 -45 -61 -68q-16 -11 -36 -17q-17 -6 -38 -9q-18 -2 -40 -3h-20h-20v0z" />
    <glyph glyph-name="macron" unicode="&#xaf;" horiz-adv-x="433" 
d="M458 745l6 38h-275l-6 -38h275z" />
    <glyph glyph-name="degree" unicode="&#xb0;" horiz-adv-x="340" 
d="M148 461q36 -33 83.5 -33t89.5 35q41 34 48 83q7 48 -25 81q-30 34 -81 34q-52 0 -91 -34q-41 -32 -48 -81t24 -85v0zM338 546q-6 -37 -36 -63q-31 -26 -67 -26q-37 0 -61 26.5t-18 62.5q5 35 35.5 60.5t67.5 25.5q36 0 60 -25.5t19 -60.5v0z" />
    <glyph glyph-name="plusminus" unicode="&#xb1;" horiz-adv-x="451" 
d="M485 284l14 94h-170l23 164h-101l-23 -164h-170l-14 -94h170l-23 -165h101l23 165h170zM446 0l10 76h-441l-10 -76h441z" />
    <glyph glyph-name="acute" unicode="&#xb4;" horiz-adv-x="174" 
d="M157 547q11 12 26 27q5 5 12 13l3 3l3 3q4 4 6 7q15 15 25 26l28 28h-85l-68 -107h50z" />
    <glyph glyph-name="paragraph" unicode="&#xb6;" horiz-adv-x="575" 
d="M434 -186l110 778h69l8 58h-293q-104 0 -168 -50q-62 -48 -74 -132q-11 -76 34 -124q46 -49 136 -51l-68 -479h57l110 778h128l-110 -778h61z" />
    <glyph glyph-name="periodcentered" unicode="&#xb7;" horiz-adv-x="245" 
d="M197 292l10 73h-77l-10 -73h77z" />
    <glyph glyph-name="cedilla" unicode="&#xb8;" horiz-adv-x="239" 
d="M0 -190q25 -3 58 -3q59 0 98 24q36 21 40 52q6 49 -78 59l22 48h-41l-26 -61q43 -2 56 -13q10 -8 8 -27q-3 -17 -22 -32q-25 -14 -71 -14q-9 0 -14 1h-16h-4z" />
    <glyph glyph-name="ordmasculine" unicode="&#xba;" horiz-adv-x="393" 
d="M245 339q63 0 109.5 43.5t57.5 117.5q10 74 -24 118q-34 43 -99 43q-67 0 -112 -43q-46 -44 -57 -120q-11 -74 24 -117q34 -42 101 -42v0zM250 378q-45 0 -66 29q-23 32 -14 93q8 61 39 92q29 30 75 30q44 0 65 -30q22 -31 14 -90q-9 -63 -40 -95q-29 -29 -73 -29v0z" />
    <glyph glyph-name="ordmasculine" unicode="&#xbc;" horiz-adv-x="393" 
d="M245 339q63 0 109.5 43.5t57.5 117.5q10 74 -24 118q-34 43 -99 43q-67 0 -112 -43q-46 -44 -57 -120q-11 -74 24 -117q34 -42 101 -42v0zM250 378q-45 0 -66 29q-23 32 -14 93q8 61 39 92q29 30 75 30q44 0 65 -30q22 -31 14 -90q-9 -63 -40 -95q-29 -29 -73 -29v0z" />
    <glyph glyph-name="guillemotright" unicode="&#xbb;" horiz-adv-x="465" 
d="M300 32l173 199q-13 21 -30 49q-6 10 -14 25q-3 4 -8 12.5t-7 12.5l-15 25q-8 13 -14 25q-16 27 -29 49h-87q45 -98 91 -198l-147 -199h87zM115 32l170 199q-7 11 -15 24q-6 11 -14 25q-3 5 -7 13l-3 6q-3 4 -4 6q-8 15 -14 25q-8 13 -14 25q-8 13 -15 24q-15 27 -28 50
h-88l92 -198l-148 -199h88z" />
    <glyph glyph-name="ae" unicode="&#xbe;" horiz-adv-x="1193" 
d="M1083 141l-9 -3q-8 -3 -9 -3q-12 -4 -22 -7q-13 -5 -25 -8q-15 -4 -29 -8q-32 -8 -61 -13q-34 -5 -62 -5q-33 0 -57 1q-26 2 -46 6q-42 8 -64 29q-44 40 -29 163h499l5 36q13 96 2 161q-10 63 -43 100q-32 35 -87 51q-26 7 -58 10q-30 4 -67 4q-46 0 -82 -5
q-41 -6 -74 -18q-36 -13 -65 -34q-30 -23 -53 -56q-18 66 -76 91q-28 12 -70 17q-37 5 -93 5q-143 0 -236 -42l18 -103q9 3 16 5q11 3 20 6q25 7 49 12q29 7 56 10q31 5 60 5q27 0 44 -1q22 -1 37 -3q34 -4 51 -17q35 -26 28 -121h-188q-61 0 -107 -11q-50 -11 -86 -34
q-39 -26 -63 -67q-25 -44 -33 -106q-9 -57 5 -97q12 -37 44 -61q29 -21 77 -30q43 -10 104 -10q163 0 251 109q1 1 4 6q2 4 4 6q4 7 8 11q21 -78 91 -109q32 -14 77 -20q40 -6 97 -6q33 0 72 5q36 4 73 10q74 15 121 36zM537 299q-5 -26 -10 -47q-5 -22 -12 -40
q-14 -39 -37 -63q-48 -51 -158 -51q-33 0 -53 2q-24 4 -39 13q-34 19 -26 75q9 67 49 91q17 11 43 15q20 4 53 4h189zM684 391q11 54 33 87q19 31 49 48q26 14 64 19q16 2 36 3q16 1 40 1q42 0 68 -6q29 -7 45 -23q34 -34 27 -129h-362z" />
    <glyph glyph-name="ae" unicode="&#xe6;" horiz-adv-x="1193" 
d="M1083 141l-9 -3q-8 -3 -9 -3q-12 -4 -22 -7q-13 -5 -25 -8q-15 -4 -29 -8q-32 -8 -61 -13q-34 -5 -62 -5q-33 0 -57 1q-26 2 -46 6q-42 8 -64 29q-44 40 -29 163h499l5 36q13 96 2 161q-10 63 -43 100q-32 35 -87 51q-26 7 -58 10q-30 4 -67 4q-46 0 -82 -5
q-41 -6 -74 -18q-36 -13 -65 -34q-30 -23 -53 -56q-18 66 -76 91q-28 12 -70 17q-37 5 -93 5q-143 0 -236 -42l18 -103q9 3 16 5q11 3 20 6q25 7 49 12q29 7 56 10q31 5 60 5q27 0 44 -1q22 -1 37 -3q34 -4 51 -17q35 -26 28 -121h-188q-61 0 -107 -11q-50 -11 -86 -34
q-39 -26 -63 -67q-25 -44 -33 -106q-9 -57 5 -97q12 -37 44 -61q29 -21 77 -30q43 -10 104 -10q163 0 251 109q1 1 4 6q2 4 4 6q4 7 8 11q21 -78 91 -109q32 -14 77 -20q40 -6 97 -6q33 0 72 5q36 4 73 10q74 15 121 36zM537 299q-5 -26 -10 -47q-5 -22 -12 -40
q-14 -39 -37 -63q-48 -51 -158 -51q-33 0 -53 2q-24 4 -39 13q-34 19 -26 75q9 67 49 91q17 11 43 15q20 4 53 4h189zM684 391q11 54 33 87q19 31 49 48q26 14 64 19q16 2 36 3q16 1 40 1q42 0 68 -6q29 -7 45 -23q34 -34 27 -129h-362z" />
    <glyph glyph-name="questiondown" unicode="&#xbf;" horiz-adv-x="511" 
d="M319 316l-1 -10q-7 -46 -27 -62q-10 -8 -27 -14q-7 -3 -18 -6q-4 -2 -10 -3q-3 -1 -11 -3q-53 -12 -86 -25q-38 -14 -61 -35q-47 -42 -60 -135q-7 -42 7 -76q13 -32 43 -55q58 -44 160 -44q74 0 143 10q36 5 66 12q31 8 53 17l-19 103q-17 -5 -39 -10q-26 -7 -53 -12
q-31 -6 -60 -9q-33 -4 -61 -4q-121 0 -111 69q5 43 17 54q7 7 21 13q7 2 17 5q4 1 10 3q2 1 6 2l2 1q2 0 4 1q22 5 40 10q22 6 40 12q40 15 69 35q33 24 52 57q22 36 29 85l2 14h-137zM345 502l-17 -123h137l17 123h-137z" />
    <glyph glyph-name="Agrave" unicode="&#xc0;" horiz-adv-x="657" 
d="M345 642l-317 -642h144l80 181h201l31 -181h144l-137 642h-146zM368 441l33 101h6l3 -101l28 -167h-144zM497 707l-38 107h-86l79 -107h45z" />
    <glyph glyph-name="Aacute" unicode="&#xc1;" horiz-adv-x="657" 
d="M345 642l-317 -642h144l80 181h201l31 -181h144l-137 642h-146zM368 441l33 101h6l3 -101l28 -167h-144zM437 689q11 12 26 27q5 5 12 13l3 3l3 3q4 4 6 7q15 15 25 26l28 28h-85l-68 -107h50z" />
    <glyph glyph-name="Acircumflex" unicode="&#xc2;" horiz-adv-x="657" 
d="M345 642l-317 -642h144l80 181h201l31 -181h144l-137 642h-146zM368 441l33 101h6l3 -101l28 -167h-144zM553 689l-76 107h-80q-13 -14 -27 -28q-5 -6 -12 -13q-5 -4 -13 -12.5t-12 -12.5q-7 -8 -13 -13q-14 -15 -26 -28h72l71 84l47 -84h69z" />
    <glyph glyph-name="Atilde" unicode="&#xc3;" horiz-adv-x="657" 
d="M345 642l-317 -642h144l80 181h201l31 -181h144l-137 642h-146zM368 441l33 101h6l3 -101l28 -167h-144zM549 803q-8 -24 -19.5 -32t-30.5 -8q-20 0 -47 15q-48 24 -73 24q-38 0 -67 -26q-27 -24 -33 -59h43q2 9 6 17q4 6 10 13q18 15 38 15q18 0 48 -18q46 -25 72 -25
q74 0 94 84h-41z" />
    <glyph glyph-name="AE" unicode="&#xc6;" horiz-adv-x="819" 
d="M802 0l25 108h-288l24 176h203l14 97h-203l22 154h278l25 107h-527l-347 -642h134l95 181h160l-25 -181h410zM430 272h-119l97 169l51 91h6l1 -3z" />
    <glyph glyph-name="Egrave" unicode="&#xc8;" horiz-adv-x="566" 
d="M549 0l25 108h-348l24 171h263l15 107h-263l21 149h338l25 107h-480l-90 -642h470zM451 707l-38 107h-86l79 -107h45z" />
    <glyph glyph-name="Ecircumflex" unicode="&#xca;" horiz-adv-x="566" 
d="M549 0l25 108h-348l24 171h263l15 107h-263l21 149h338l25 107h-480l-90 -642h470zM511 707l-76 107h-80q-7 -7 -14 -15q-3 -3 -7 -6q-1 -2 -3 -4q-3 -2 -3 -3l-13 -13q-7 -7 -12 -13q-14 -13 -25 -25l-26 -28h72l71 84l47 -84h69z" />
    <glyph glyph-name="Edieresis" unicode="&#xcb;" horiz-adv-x="566" 
d="M549 0l25 108h-348l24 171h263l15 107h-263l21 149h338l25 107h-480l-90 -642h470zM400 723l17 123h-110l-17 -123h110zM578 723l17 123h-110l-17 -123h110z" />
    <glyph glyph-name="Igrave" unicode="&#xcc;" horiz-adv-x="241" 
d="M181 0l90 642h-132l-90 -642h132zM289 707l-38 107h-86l79 -107h45z" />
    <glyph glyph-name="Iacute" unicode="&#xcd;" horiz-adv-x="290" 
d="M211 0l90 642h-132l-90 -642h132zM257 689q11 12 26 27q5 5 12 13l3 3l3 3q4 4 6 7q15 15 25 26l28 28h-85l-68 -107h50z" />
    <glyph glyph-name="Icircumflex" unicode="&#xce;" horiz-adv-x="290" 
d="M211 0l90 642h-132l-90 -642h132zM375 689l-76 107h-80q-13 -14 -27 -28q-5 -6 -12 -13q-5 -4 -13 -12.5t-12 -12.5q-7 -8 -13 -13q-14 -15 -26 -28h72l71 84l47 -84h69z" />
    <glyph glyph-name="Idieresis" unicode="&#xcf;" horiz-adv-x="241" 
d="M181 0l90 642h-132l-90 -642h132zM191 741l17 123h-110l-17 -123h110zM369 741l17 123h-110l-17 -123h110z" />
    <glyph glyph-name="Eth" unicode="&#xd0;" horiz-adv-x="689" 
d="M319 0q40 0 71 2q36 2 64 8q63 13 104 45q46 35 74 98q30 66 45 172q14 103 1 168q-13 62 -52 96q-35 31 -96 43q-27 5 -62 7q-30 3 -69 3h-230l-38 -271h-77l-15 -103h77l-37 -268h240zM226 108l22 160h95l15 103h-95l23 164h96q12 0 20 -1h19q20 -1 36 -3q36 -6 57 -24
q24 -22 31 -63q8 -45 -2 -118q-20 -141 -67 -183q-24 -21 -62 -29q-18 -4 -41 -5q-21 -1 -49 -1h-98z" />
    <glyph glyph-name="Ograve" unicode="&#xd2;" 
d="M456 549q11 0 18 -1h17q20 -1 34 -3q36 -6 57 -25q24 -23 32 -68q9 -50 -2 -130q-12 -82 -34 -131q-21 -45 -51 -68q-26 -19 -64 -25q-15 -2 -35 -3h-18h-18h-19h-19q-19 1 -34 3q-36 6 -56 25q-24 23 -32 68q-8 49 4 131q11 81 33 130q20 45 51 68q25 19 63 25
q15 2 35 3h19q6 1 19 1v0zM102 322q-15 -105 0 -174q14 -64 55 -101q36 -33 96 -47q26 -5 59 -8q29 -3 65 -3q35 0 65 3q33 3 61 8q64 14 109 47q51 37 84 101q35 69 50 174q14 104 -2 173q-14 64 -54 101q-36 33 -96 47q-26 6 -59 9q-29 3 -64 3q-36 0 -66 -3
q-33 -3 -62 -9q-31 -7 -57 -18q-28 -12 -52 -29q-51 -37 -83 -101q-35 -69 -49 -173v0zM547 707l-38 107h-86l79 -107h45z" />
    <glyph glyph-name="Oacute" unicode="&#xd3;" 
d="M456 549q11 0 18 -1h17q20 -1 34 -3q36 -6 57 -25q24 -23 32 -68q9 -50 -2 -130q-12 -82 -34 -131q-21 -45 -51 -68q-26 -19 -64 -25q-15 -2 -35 -3h-18h-18h-19h-19q-19 1 -34 3q-36 6 -56 25q-24 23 -32 68q-8 49 4 131q11 81 33 130q20 45 51 68q25 19 63 25
q15 2 35 3h19q6 1 19 1v0zM102 322q-15 -105 0 -174q14 -64 55 -101q36 -33 96 -47q26 -5 59 -8q29 -3 65 -3q35 0 65 3q33 3 61 8q64 14 109 47q51 37 84 101q35 69 50 174q14 104 -2 173q-14 64 -54 101q-36 33 -96 47q-26 6 -59 9q-29 3 -64 3q-36 0 -66 -3
q-33 -3 -62 -9q-31 -7 -57 -18q-28 -12 -52 -29q-51 -37 -83 -101q-35 -69 -49 -173v0zM455 689q11 12 26 27q5 5 12 13l3 3l3 3q4 4 6 7q15 15 25 26l28 28h-85l-68 -107h50z" />
    <glyph glyph-name="Ocircumflex" unicode="&#xd4;" 
d="M456 549q11 0 18 -1h17q20 -1 34 -3q36 -6 57 -25q24 -23 32 -68q9 -50 -2 -130q-12 -82 -34 -131q-21 -45 -51 -68q-26 -19 -64 -25q-15 -2 -35 -3h-18h-18h-19h-19q-19 1 -34 3q-36 6 -56 25q-24 23 -32 68q-8 49 4 131q11 81 33 130q20 45 51 68q25 19 63 25
q15 2 35 3h19q6 1 19 1v0zM102 322q-15 -105 0 -174q14 -64 55 -101q36 -33 96 -47q26 -5 59 -8q29 -3 65 -3q35 0 65 3q33 3 61 8q64 14 109 47q51 37 84 101q35 69 50 174q14 104 -2 173q-14 64 -54 101q-36 33 -96 47q-26 6 -59 9q-29 3 -64 3q-36 0 -66 -3
q-33 -3 -62 -9q-31 -7 -57 -18q-28 -12 -52 -29q-51 -37 -83 -101q-35 -69 -49 -173v0zM603 689l-76 107h-80q-13 -14 -27 -28q-5 -6 -12 -13q-5 -4 -13 -12.5t-12 -12.5q-7 -8 -13 -13q-14 -15 -26 -28h72l71 84l47 -84h69z" />
    <glyph glyph-name="Otilde" unicode="&#xd5;" 
d="M456 549q11 0 18 -1h17q20 -1 34 -3q36 -6 57 -25q24 -23 32 -68q9 -50 -2 -130q-12 -82 -34 -131q-21 -45 -51 -68q-26 -19 -64 -25q-15 -2 -35 -3h-18h-18h-19h-19q-19 1 -34 3q-36 6 -56 25q-24 23 -32 68q-8 49 4 131q11 81 33 130q20 45 51 68q25 19 63 25
q15 2 35 3h19q6 1 19 1v0zM102 322q-15 -105 0 -174q14 -64 55 -101q36 -33 96 -47q26 -5 59 -8q29 -3 65 -3q35 0 65 3q33 3 61 8q64 14 109 47q51 37 84 101q35 69 50 174q14 104 -2 173q-14 64 -54 101q-36 33 -96 47q-26 6 -59 9q-29 3 -64 3q-36 0 -66 -3
q-33 -3 -62 -9q-31 -7 -57 -18q-28 -12 -52 -29q-51 -37 -83 -101q-35 -69 -49 -173v0zM599 803q-8 -24 -19.5 -32t-30.5 -8q-20 0 -47 15q-48 24 -73 24q-38 0 -67 -26q-27 -24 -33 -59h43q2 9 6 17q4 6 10 13q18 15 38 15q18 0 48 -18q46 -25 72 -25q74 0 94 84h-41z" />
    <glyph glyph-name="multiply" unicode="&#xd7;" horiz-adv-x="443" 
d="M369 148l49 43l-112 131l154 135l-34 39l-155 -135l-110 129l-49 -43l110 -129l-152 -134l34 -39l153 133z" />
    <glyph glyph-name="Oslash" unicode="&#xd8;" 
d="M809 606l-57 36l-58 -49q-37 34 -97 49q-27 7 -61 10q-29 3 -65 3t-66 -3q-33 -3 -62 -9q-31 -7 -57 -18q-28 -12 -52 -29q-51 -37 -83 -101q-35 -69 -49 -173q-11 -70 -7 -125q4 -51 21 -89l-85 -71l59 -37l62 53q35 -37 97 -52q27 -6 61 -9q29 -3 67 -3q35 0 65 3
q33 3 61 8q64 14 109 47q51 37 84 101q35 69 50 174q10 71 5 127q-4 51 -21 91zM612 322q-12 -82 -34 -131q-21 -45 -51 -68q-26 -19 -64 -25q-15 -2 -35 -3h-18h-18h-22h-21q-22 1 -38 5q-40 8 -59 37l364 306q6 -47 -4 -121v0zM456 549q12 0 20 -1h19q22 -1 38 -5
q39 -9 60 -35l-363 -304q-5 44 6 118q11 81 33 130q20 45 51 68q25 19 63 25q15 2 35 3h19q6 1 19 1v0z" />
    <glyph glyph-name="Ugrave" unicode="&#xd9;" horiz-adv-x="686" 
d="M521 271q-4 -26 -8 -44q-4 -21 -8 -37q-10 -34 -27 -54q-33 -39 -121 -39q-89 0 -112 39q-12 20 -12 54q-1 16 1 37q2 18 6 44l52 371h-131l-53 -372q-6 -40 -8 -70q-2 -33 0 -59q4 -55 28 -87q48 -65 214 -65q165 0 230 65q32 32 51 87q9 26 16 59q6 30 12 70l53 372
h-131zM511 707l-38 107h-86l79 -107h45z" />
    <glyph glyph-name="Uacute" unicode="&#xda;" horiz-adv-x="686" 
d="M521 271q-4 -26 -8 -44q-4 -21 -8 -37q-10 -34 -27 -54q-33 -39 -121 -39q-89 0 -112 39q-12 20 -12 54q-1 16 1 37q2 18 6 44l52 371h-131l-53 -372q-6 -40 -8 -70q-2 -33 0 -59q4 -55 28 -87q48 -65 214 -65q165 0 230 65q32 32 51 87q9 26 16 59q6 30 12 70l53 372
h-131zM419 689q11 12 26 27q5 5 12 13l3 3l3 3q4 4 6 7q15 15 25 26l28 28h-85l-68 -107h50z" />
    <glyph glyph-name="Ucircumflex" unicode="&#xdb;" horiz-adv-x="686" 
d="M521 271q-4 -26 -8 -44q-4 -21 -8 -37q-10 -34 -27 -54q-33 -39 -121 -39q-89 0 -112 39q-12 20 -12 54q-1 16 1 37q2 18 6 44l52 371h-131l-53 -372q-6 -40 -8 -70q-2 -33 0 -59q4 -55 28 -87q48 -65 214 -65q165 0 230 65q32 32 51 87q9 26 16 59q6 30 12 70l53 372
h-131zM571 707l-76 107h-80q-7 -7 -14 -15q-3 -3 -7 -6q-1 -2 -3 -4q-3 -2 -3 -3l-13 -13q-7 -7 -12 -13q-14 -13 -25 -25l-26 -28h72l71 84l47 -84h69z" />
    <glyph glyph-name="Yacute" unicode="&#xdd;" horiz-adv-x="618" 
d="M371 0l38 274l287 368h-139q-20 -23 -42 -49q-18 -21 -39 -49q-9 -11 -19 -24q-4 -6 -10 -13q-2 -3 -8.5 -11.5t-9.5 -12.5q-6 -7 -10 -12q-10 -14 -18 -24q-14 -35 -27 -67q-15 -36 -24 -60q-4 60 -12 127q-10 21 -23 48q-5 11 -11 25q-2 5 -5 12q-1 1 -3 6l-3 6
q-7 15 -11 25q-6 13 -11 24q-12 27 -22 49h-146q10 -22 22 -46q10 -22 21 -46q10 -21 22 -46q5 -11 11 -24q5 -9 11 -23q2 -3 5.5 -11t5.5 -12q6 -14 11 -23q12 -26 21 -46q12 -25 22 -46q11 -24 22 -45l-38 -274h132zM385 689q11 12 26 27q5 5 12 13l3 3l3 3q4 4 6 7
q15 15 25 26l28 28h-85l-68 -107h50z" />
    <glyph glyph-name="Thorn" unicode="&#xde;" horiz-adv-x="527" 
d="M195 -57l9 57h18h4h5h10q32 0 57 2q29 2 53 8q52 13 89 44q40 35 66 97q28 66 43 170q14 103 4 169q-8 62 -39 97q-27 32 -76 44q-22 6 -51 8q-24 3 -56 3q-13 0 -19 -1h-18l8 58h-132l-107 -756h132zM279 534h16q6 1 19 1q16 0 26 -1q14 -1 24 -4q25 -7 38 -26
q15 -22 19 -64q4 -46 -6 -119q-11 -75 -28 -121q-15 -42 -37 -64q-19 -19 -45 -26q-12 -3 -26 -4h-26h-18q-10 0 -16 1z" />
    <glyph glyph-name="germandbls" unicode="&#xdf;" horiz-adv-x="675" 
d="M358 0q74 0 120 6q50 8 80 26q59 33 73 134q9 69 -9 105q-9 16 -24 29q-12 10 -33 22q23 11 38 22q18 13 30 29q26 35 36 106q14 99 -33 133q-25 18 -71 25q-43 6 -114 5q-32 -1 -60 -5q-29 -4 -55 -12q-56 -17 -97 -52q-45 -38 -73 -101q-31 -67 -44 -163l-43 -309h132
l43 309q11 80 32 130q18 44 44 67q21 19 50 25q12 2 26 3h12q4 1 13 1q17 0 28 -1q14 0 24 -1q23 -2 34 -7q23 -11 18 -50q-9 -64 -33 -81q-11 -9 -31 -12q-9 -1 -21 -2h-25l-15 -107q2 -1 6.5 -1h6.5h12q14 0 22 -1q21 -3 30 -12q21 -18 11 -94q-7 -42 -34 -52
q-13 -5 -36 -7h-24h-14q-3 -1 -8 -1q-1 0 -3.5 0.5t-3.5 0.5h-94l-15 -107h92z" />
    <glyph glyph-name="eth" unicode="&#xf0;" horiz-adv-x="689" 
d="M319 0q40 0 71 2q36 2 64 8q63 13 104 45q46 35 74 98q30 66 45 172q14 103 1 168q-13 62 -52 96q-35 31 -96 43q-27 5 -62 7q-30 3 -69 3h-230l-38 -271h-77l-15 -103h77l-37 -268h240zM226 108l22 160h95l15 103h-95l23 164h96q12 0 20 -1h19q20 -1 36 -3q36 -6 57 -24
q24 -22 31 -63q8 -45 -2 -118q-20 -141 -67 -183q-24 -21 -62 -29q-18 -4 -41 -5q-21 -1 -49 -1h-98z" />
    <glyph glyph-name="divide" unicode="&#xf7;" horiz-adv-x="447" 
d="M321 422l10 73h-77l-10 -73h77zM485 293l8 56h-441l-8 -56h441zM282 146l10 73h-77l-10 -73h77z" />
    <glyph glyph-name="oslash" unicode="&#xf8;" 
d="M809 606l-57 36l-58 -49q-37 34 -97 49q-27 7 -61 10q-29 3 -65 3t-66 -3q-33 -3 -62 -9q-31 -7 -57 -18q-28 -12 -52 -29q-51 -37 -83 -101q-35 -69 -49 -173q-11 -70 -7 -125q4 -51 21 -89l-85 -71l59 -37l62 53q35 -37 97 -52q27 -6 61 -9q29 -3 67 -3q35 0 65 3
q33 3 61 8q64 14 109 47q51 37 84 101q35 69 50 174q10 71 5 127q-4 51 -21 91zM612 322q-12 -82 -34 -131q-21 -45 -51 -68q-26 -19 -64 -25q-15 -2 -35 -3h-18h-18h-22h-21q-22 1 -38 5q-40 8 -59 37l364 306q6 -47 -4 -121v0zM456 549q12 0 20 -1h19q22 -1 38 -5
q39 -9 60 -35l-363 -304q-5 44 6 118q11 81 33 130q20 45 51 68q25 19 63 25q15 2 35 3h19q6 1 19 1v0z" />
    <glyph glyph-name="yacute" unicode="&#xfd;" horiz-adv-x="618" 
d="M371 0l38 274l287 368h-139q-20 -23 -42 -49q-18 -21 -39 -49q-9 -11 -19 -24q-4 -6 -10 -13q-2 -3 -8.5 -11.5t-9.5 -12.5q-6 -7 -10 -12q-10 -14 -18 -24q-14 -35 -27 -67q-15 -36 -24 -60q-4 60 -12 127q-10 21 -23 48q-5 11 -11 25q-2 5 -5 12q-1 1 -3 6l-3 6
q-7 15 -11 25q-6 13 -11 24q-12 27 -22 49h-146q10 -22 22 -46q10 -22 21 -46q10 -21 22 -46q5 -11 11 -24q5 -9 11 -23q2 -3 5.5 -11t5.5 -12q6 -14 11 -23q12 -26 21 -46q12 -25 22 -46q11 -24 22 -45l-38 -274h132zM385 689q11 12 26 27q5 5 12 13l3 3l3 3q4 4 6 7
q15 15 25 26l28 28h-85l-68 -107h50z" />
    <glyph glyph-name="thorn" unicode="&#xfe;" horiz-adv-x="527" 
d="M195 -57l9 57h18h4h5h10q32 0 57 2q29 2 53 8q52 13 89 44q40 35 66 97q28 66 43 170q14 103 4 169q-8 62 -39 97q-27 32 -76 44q-22 6 -51 8q-24 3 -56 3q-13 0 -19 -1h-18l8 58h-132l-107 -756h132zM279 534h16q6 1 19 1q16 0 26 -1q14 -1 24 -4q25 -7 38 -26
q15 -22 19 -64q4 -46 -6 -119q-11 -75 -28 -121q-15 -42 -37 -64q-19 -19 -45 -26q-12 -3 -26 -4h-26h-18q-10 0 -16 1z" />
    <glyph glyph-name="ydieresis" unicode="&#xff;" horiz-adv-x="618" 
d="M371 0l38 274l287 368h-139q-20 -23 -42 -49q-18 -21 -39 -49q-9 -11 -19 -24q-4 -6 -10 -13q-2 -3 -8.5 -11.5t-9.5 -12.5q-6 -7 -10 -12q-10 -14 -18 -24q-14 -35 -27 -67q-15 -36 -24 -60q-4 60 -12 127q-10 21 -23 48q-5 11 -11 25q-2 5 -5 12q-1 1 -3 6l-3 6
q-7 15 -11 25q-6 13 -11 24q-12 27 -22 49h-146q10 -22 22 -46q10 -22 21 -46q10 -21 22 -46q5 -11 11 -24q5 -9 11 -23q2 -3 5.5 -11t5.5 -12q6 -14 11 -23q12 -26 21 -46q12 -25 22 -46q11 -24 22 -45l-38 -274h132zM379 741l17 123h-110l-17 -123h110zM557 741l17 123
h-110l-17 -123h110z" />
    <glyph glyph-name="Amacron" unicode="&#x100;" horiz-adv-x="657" 
d="M345 642l-317 -642h144l80 181h201l31 -181h144l-137 642h-146zM368 441l33 101h6l3 -101l28 -167h-144zM570 745l6 38h-275l-6 -38h275z" />
    <glyph glyph-name="amacron" unicode="&#x101;" horiz-adv-x="703" 
d="M673 103q-33 4 -43 24q-11 22 -4 70l16 112l2 16q29 206 -22 271q-27 33 -81 47q-25 6 -60 9q-31 3 -73 3q-143 0 -236 -42l18 -103q9 3 16 5q11 3 20 6q25 7 49 12q29 7 56 10q31 5 60 5q23 0 37 -1q18 -1 30 -3q28 -4 42 -17q28 -24 21 -116h-158q-61 0 -107 -11
q-50 -11 -86 -35q-39 -27 -62 -69q-25 -45 -34 -108q-9 -57 5 -97q12 -37 44 -61q29 -21 77 -30q43 -10 104 -10q143 0 221 109q3 -49 31 -71q28 -23 91 -29zM507 301q-4 -27 -8 -47q-5 -23 -11 -41q-12 -39 -31 -63q-42 -52 -137 -52q-33 0 -53 2q-24 4 -39 13
q-34 19 -26 75q5 37 18 61q12 22 31 35q18 11 44 15q20 4 53 4h159v-2zM593 745l6 38h-275l-6 -38h275z" />
    <glyph glyph-name="Abreve" unicode="&#x102;" horiz-adv-x="657" 
d="M345 642l-317 -642h144l80 181h201l31 -181h144l-137 642h-146zM368 441l33 101h6l3 -101l28 -167h-144zM535 795q-27 -69 -108 -69q-76 0 -83 69h-43q2 -112 122 -112q117 0 154 112h-42z" />
    <glyph glyph-name="abreve" unicode="&#x103;" horiz-adv-x="657" 
d="M345 642l-317 -642h144l80 181h201l31 -181h144l-137 642h-146zM368 441l33 101h6l3 -101l28 -167h-144zM535 795q-27 -69 -108 -69q-76 0 -83 69h-43q2 -112 122 -112q117 0 154 112h-42z" />
    <glyph glyph-name="Aogonek" unicode="&#x104;" horiz-adv-x="657" 
d="M345 642l-317 -642h144l80 181h201l31 -181h111q-17 -11 -32 -32q-8 -13 -15 -34q-7 -23 -11 -51l-9 -64h72l11 75h-44q13 83 61 106l-137 642h-146zM368 441l33 101h6l3 -101l28 -167h-144z" />
    <glyph glyph-name="aogonek" unicode="&#x105;" horiz-adv-x="703" 
d="M673 103q-33 4 -43 24q-11 22 -4 70l18 128q29 206 -22 271q-27 33 -81 47q-25 6 -60 9q-31 3 -73 3q-143 0 -236 -42l18 -103q9 3 16 5q11 3 20 6q25 7 49 12q29 7 56 10q31 5 60 5q23 0 37 -1q18 -1 30 -3q28 -4 42 -17q28 -24 21 -116h-158q-61 0 -107 -11
q-50 -11 -86 -35q-39 -27 -62 -69q-25 -45 -34 -108q-9 -57 5 -97q12 -37 44 -61q29 -21 77 -30q43 -10 104 -10q143 0 221 109q5 -80 93 -96q-23 -15 -36 -35q-17 -24 -26 -85l-2 -14q-8 -50 43 -50h22l11 75h-44q11 82 61 105zM507 301q-4 -27 -8 -47q-5 -23 -11 -41
q-12 -39 -31 -63q-42 -52 -137 -52q-33 0 -53 2q-24 4 -39 13q-34 19 -26 75q5 37 18 61q12 22 31 35q18 11 44 15q20 4 53 4z" />
    <glyph glyph-name="Cacute" unicode="&#x106;" horiz-adv-x="650" 
d="M599 134q-10 -4 -17 -6q-11 -3 -21 -6q-25 -8 -49 -13q-30 -7 -58 -11q-32 -4 -60 -4q-24 0 -40 1q-20 1 -36 4q-36 8 -56 29q-24 24 -31 68q-7 48 4 125q10 75 31 123q20 44 50 68q26 21 65 29q16 4 37 5q17 2 40 2q28 0 57 -4q25 -4 51 -10q21 -5 43 -12q8 -2 18 -6
q3 -1 7 -2q6 -2 8 -2l48 103q-79 40 -219 40q-39 0 -71 -3q-35 -3 -65 -10q-64 -14 -108 -48q-49 -38 -80 -102q-32 -68 -46 -171q-15 -104 -2 -172q13 -64 51 -102q35 -34 95 -47q27 -7 62 -10q31 -3 70 -3q68 0 133 13q62 10 108 31zM465 707q5 6 13 13q4 5 12 14
q8 8 12 13l13 13q13 14 25 26q13 14 28 28h-85l-68 -107h50z" />
    <glyph glyph-name="cacute" unicode="&#x107;" horiz-adv-x="650" 
d="M599 134q-10 -4 -17 -6q-11 -3 -21 -6q-25 -8 -49 -13q-30 -7 -58 -11q-32 -4 -60 -4q-24 0 -40 1q-20 1 -36 4q-36 8 -56 29q-24 24 -31 68q-7 48 4 125q10 75 31 123q20 44 50 68q26 21 65 29q16 4 37 5q17 2 40 2q28 0 57 -4q25 -4 51 -10q21 -5 43 -12q8 -2 18 -6
q3 -1 7 -2q6 -2 8 -2l48 103q-79 40 -219 40q-39 0 -71 -3q-35 -3 -65 -10q-64 -14 -108 -48q-49 -38 -80 -102q-32 -68 -46 -171q-15 -104 -2 -172q13 -64 51 -102q35 -34 95 -47q27 -7 62 -10q31 -3 70 -3q68 0 133 13q62 10 108 31zM465 707q5 6 13 13q4 5 12 14
q8 8 12 13l13 13q13 14 25 26q13 14 28 28h-85l-68 -107h50z" />
    <glyph glyph-name="Ccircumflex" unicode="&#x108;" horiz-adv-x="650" 
d="M599 134q-10 -4 -17 -6q-11 -3 -21 -6q-25 -8 -49 -13q-30 -7 -58 -11q-32 -4 -60 -4q-24 0 -40 1q-20 1 -36 4q-36 8 -56 29q-24 24 -31 68q-7 48 4 125q10 75 31 123q20 44 50 68q26 21 65 29q16 4 37 5q17 2 40 2q28 0 57 -4q25 -4 51 -10q21 -5 43 -12q8 -2 18 -6
q3 -1 7 -2q6 -2 8 -2l48 103q-79 40 -219 40q-39 0 -71 -3q-35 -3 -65 -10q-64 -14 -108 -48q-49 -38 -80 -102q-32 -68 -46 -171q-15 -104 -2 -172q13 -64 51 -102q35 -34 95 -47q27 -7 62 -10q31 -3 70 -3q68 0 133 13q62 10 108 31zM602 707l-76 107h-80q-7 -7 -14 -15
q-3 -3 -7 -6q-1 -2 -3 -4q-3 -2 -3 -3l-13 -13q-7 -7 -12 -13q-14 -13 -25 -25l-26 -28h72l71 84l47 -84h69z" />
    <glyph glyph-name="ccircumflex" unicode="&#x109;" horiz-adv-x="650" 
d="M599 134q-10 -4 -17 -6q-11 -3 -21 -6q-25 -8 -49 -13q-30 -7 -58 -11q-32 -4 -60 -4q-24 0 -40 1q-20 1 -36 4q-36 8 -56 29q-24 24 -31 68q-7 48 4 125q10 75 31 123q20 44 50 68q26 21 65 29q16 4 37 5q17 2 40 2q28 0 57 -4q25 -4 51 -10q21 -5 43 -12q8 -2 18 -6
q3 -1 7 -2q6 -2 8 -2l48 103q-79 40 -219 40q-39 0 -71 -3q-35 -3 -65 -10q-64 -14 -108 -48q-49 -38 -80 -102q-32 -68 -46 -171q-15 -104 -2 -172q13 -64 51 -102q35 -34 95 -47q27 -7 62 -10q31 -3 70 -3q68 0 133 13q62 10 108 31zM596 707l-76 107h-80q-7 -7 -14 -15
q-3 -3 -7 -6q-1 -2 -3 -4q-3 -2 -3 -3l-13 -13q-7 -7 -12 -13q-14 -13 -25 -25l-26 -28h72l71 84l47 -84h69z" />
    <glyph glyph-name="Cdotaccent" unicode="&#x10a;" horiz-adv-x="650" 
d="M599 134q-10 -4 -17 -6q-11 -3 -21 -6q-25 -8 -49 -13q-30 -7 -58 -11q-32 -4 -60 -4q-24 0 -40 1q-20 1 -36 4q-36 8 -56 29q-24 24 -31 68q-7 48 4 125q10 75 31 123q20 44 50 68q26 21 65 29q16 4 37 5q17 2 40 2q28 0 57 -4q25 -4 51 -10q21 -5 43 -12q8 -2 18 -6
q3 -1 7 -2q6 -2 8 -2l48 103q-79 40 -219 40q-39 0 -71 -3q-35 -3 -65 -10q-64 -14 -108 -48q-49 -38 -80 -102q-32 -68 -46 -171q-15 -104 -2 -172q13 -64 51 -102q35 -34 95 -47q27 -7 62 -10q31 -3 70 -3q68 0 133 13q62 10 108 31zM504 860h-118l-17 -123h118z" />
    <glyph glyph-name="cdotaccent" unicode="&#x10b;" horiz-adv-x="650" 
d="M599 134q-10 -4 -17 -6q-11 -3 -21 -6q-25 -8 -49 -13q-30 -7 -58 -11q-32 -4 -60 -4q-24 0 -40 1q-20 1 -36 4q-36 8 -56 29q-24 24 -31 68q-7 48 4 125q10 75 31 123q20 44 50 68q26 21 65 29q16 4 37 5q17 2 40 2q28 0 57 -4q25 -4 51 -10q21 -5 43 -12q8 -2 18 -6
q3 -1 7 -2q6 -2 8 -2l48 103q-79 40 -219 40q-39 0 -71 -3q-35 -3 -65 -10q-64 -14 -108 -48q-49 -38 -80 -102q-32 -68 -46 -171q-15 -104 -2 -172q13 -64 51 -102q35 -34 95 -47q27 -7 62 -10q31 -3 70 -3q68 0 133 13q62 10 108 31zM504 860h-118l-17 -123h118z" />
    <glyph glyph-name="Ccaron" unicode="&#x10c;" horiz-adv-x="650" 
d="M599 134q-10 -4 -17 -6q-11 -3 -21 -6q-25 -8 -49 -13q-30 -7 -58 -11q-32 -4 -60 -4q-24 0 -40 1q-20 1 -36 4q-36 8 -56 29q-24 24 -31 68q-7 48 4 125q10 75 31 123q20 44 50 68q26 21 65 29q16 4 37 5q17 2 40 2q28 0 57 -4q25 -4 51 -10q21 -5 43 -12q8 -2 18 -6
q3 -1 7 -2q6 -2 8 -2l48 103q-79 40 -219 40q-39 0 -71 -3q-35 -3 -65 -10q-64 -14 -108 -48q-49 -38 -80 -102q-32 -68 -46 -171q-15 -104 -2 -172q13 -64 51 -102q35 -34 95 -47q27 -7 62 -10q31 -3 70 -3q68 0 133 13q62 10 108 31zM626 795h-77l-73 -75l-53 75h-77
l78 -102h96z" />
    <glyph glyph-name="ccaron" unicode="&#x10d;" horiz-adv-x="650" 
d="M599 134q-10 -4 -17 -6q-11 -3 -21 -6q-25 -8 -49 -13q-30 -7 -58 -11q-32 -4 -60 -4q-24 0 -40 1q-20 1 -36 4q-36 8 -56 29q-24 24 -31 68q-7 48 4 125q10 75 31 123q20 44 50 68q26 21 65 29q16 4 37 5q17 2 40 2q28 0 57 -4q25 -4 51 -10q21 -5 43 -12q8 -2 18 -6
q3 -1 7 -2q6 -2 8 -2l48 103q-79 40 -219 40q-39 0 -71 -3q-35 -3 -65 -10q-64 -14 -108 -48q-49 -38 -80 -102q-32 -68 -46 -171q-15 -104 -2 -172q13 -64 51 -102q35 -34 95 -47q27 -7 62 -10q31 -3 70 -3q68 0 133 13q62 10 108 31zM626 795h-77l-73 -75l-53 75h-77
l78 -102h96z" />
    <glyph glyph-name="Dcaron" unicode="&#x10e;" horiz-adv-x="689" 
d="M319 0q40 0 71 2q36 2 64 8q63 13 104 45q46 35 74 98q30 66 45 172q14 103 1 168q-13 62 -52 96q-35 31 -96 43q-27 5 -62 7q-30 3 -69 3h-230l-90 -642h240zM226 108l60 427h96q12 0 20 -1h19q20 -1 36 -3q36 -6 57 -24q24 -22 31 -63q8 -45 -2 -118q-20 -141 -67 -183
q-24 -21 -62 -29q-18 -4 -41 -5q-21 -1 -49 -1h-98zM595 795h-77l-73 -75l-53 75h-77l78 -102h96z" />
    <glyph glyph-name="dcaron" unicode="&#x10f;" horiz-adv-x="689" 
d="M319 0q40 0 71 2q36 2 64 8q63 13 104 45q46 35 74 98q30 66 45 172q14 103 1 168q-13 62 -52 96q-35 31 -96 43q-27 5 -62 7q-30 3 -69 3h-230l-90 -642h240zM226 108l60 427h96q12 0 20 -1h19q20 -1 36 -3q36 -6 57 -24q24 -22 31 -63q8 -45 -2 -118q-20 -141 -67 -183
q-24 -21 -62 -29q-18 -4 -41 -5q-21 -1 -49 -1h-98zM595 795h-77l-73 -75l-53 75h-77l78 -102h96z" />
    <glyph glyph-name="Dcroat" unicode="&#x110;" horiz-adv-x="689" 
d="M319 0q40 0 71 2q36 2 64 8q63 13 104 45q46 35 74 98q30 66 45 172q14 103 1 168q-13 62 -52 96q-35 31 -96 43q-27 5 -62 7q-30 3 -69 3h-230l-38 -271h-77l-15 -103h77l-37 -268h240zM226 108l22 160h95l15 103h-95l23 164h96q12 0 20 -1h19q20 -1 36 -3q36 -6 57 -24
q24 -22 31 -63q8 -45 -2 -118q-20 -141 -67 -183q-24 -21 -62 -29q-18 -4 -41 -5q-21 -1 -49 -1h-98z" />
    <glyph glyph-name="dcroat" unicode="&#x111;" horiz-adv-x="689" 
d="M319 0q40 0 71 2q36 2 64 8q63 13 104 45q46 35 74 98q30 66 45 172q14 103 1 168q-13 62 -52 96q-35 31 -96 43q-27 5 -62 7q-30 3 -69 3h-230l-38 -271h-77l-15 -103h77l-37 -268h240zM226 108l22 160h95l15 103h-95l23 164h96q12 0 20 -1h19q20 -1 36 -3q36 -6 57 -24
q24 -22 31 -63q8 -45 -2 -118q-20 -141 -67 -183q-24 -21 -62 -29q-18 -4 -41 -5q-21 -1 -49 -1h-98z" />
    <glyph glyph-name="Emacron" unicode="&#x112;" horiz-adv-x="566" 
d="M549 0l25 108h-348l24 171h263l15 107h-263l21 149h338l25 107h-480l-90 -642h470zM524 745l6 38h-275l-6 -38h275z" />
    <glyph glyph-name="emacron" unicode="&#x113;" horiz-adv-x="704" 
d="M700 278l7 51q13 96 2 161q-10 63 -43 100q-32 35 -87 51q-26 7 -58 10q-30 4 -66.5 4t-65.5 -3q-32 -4 -60 -10q-60 -16 -103 -50q-48 -39 -78 -105q-33 -70 -47 -174q-14 -102 -3 -168q12 -63 48 -99q33 -33 91 -46q27 -7 61 -10q31 -3 71 -3q33 0 72 5q36 4 73 10
q74 15 121 36l-19 103l-9 -3q-8 -3 -9 -3q-12 -4 -22 -7q-13 -5 -25 -8q-15 -4 -29 -8q-32 -8 -61 -13q-34 -5 -62 -5q-54 0 -86 6q-35 8 -54 27q-38 38 -27 151h468zM247 386q10 56 29 90q17 32 43 49q22 15 54 20q14 2 32 3q13 1 34 1q42 0 68 -6q29 -7 45 -24
q34 -34 27 -133h-332zM593 745l6 38h-275l-6 -38h275z" />
    <glyph glyph-name="Ebreve" unicode="&#x114;" horiz-adv-x="566" 
d="M549 0l25 108h-348l24 171h263l15 107h-263l21 149h338l25 107h-480l-90 -642h470zM494 819q-29 -69 -109 -69q-76 0 -82 69h-43q1 -112 122 -112q117 0 154 112h-42z" />
    <glyph glyph-name="ebreve" unicode="&#x115;" horiz-adv-x="704" 
d="M700 278l7 51q13 96 2 161q-10 63 -43 100q-32 35 -87 51q-26 7 -58 10q-30 4 -66.5 4t-65.5 -3q-32 -4 -60 -10q-60 -16 -103 -50q-48 -39 -78 -105q-33 -70 -47 -174q-14 -102 -3 -168q12 -63 48 -99q33 -33 91 -46q27 -7 61 -10q31 -3 71 -3q33 0 72 5q36 4 73 10
q74 15 121 36l-19 103l-9 -3q-8 -3 -9 -3q-12 -4 -22 -7q-13 -5 -25 -8q-15 -4 -29 -8q-32 -8 -61 -13q-34 -5 -62 -5q-54 0 -86 6q-35 8 -54 27q-38 38 -27 151h468zM247 386q10 56 29 90q17 32 43 49q22 15 54 20q14 2 32 3q13 1 34 1q42 0 68 -6q29 -7 45 -24
q34 -34 27 -133h-332zM563 819q-29 -69 -109 -69q-76 0 -82 69h-43q1 -112 122 -112q117 0 154 112h-42z" />
    <glyph glyph-name="Edotaccent" unicode="&#x116;" horiz-adv-x="566" 
d="M549 0l25 108h-348l24 171h263l15 107h-263l21 149h338l25 107h-480l-90 -642h470zM462 860h-118l-17 -123h118z" />
    <glyph glyph-name="edotaccent" unicode="&#x117;" horiz-adv-x="704" 
d="M700 278l7 51q13 96 2 161q-10 63 -43 100q-32 35 -87 51q-26 7 -58 10q-30 4 -66.5 4t-65.5 -3q-32 -4 -60 -10q-60 -16 -103 -50q-48 -39 -78 -105q-33 -70 -47 -174q-14 -102 -3 -168q12 -63 48 -99q33 -33 91 -46q27 -7 61 -10q31 -3 71 -3q33 0 72 5q36 4 73 10
q74 15 121 36l-19 103l-9 -3q-8 -3 -9 -3q-12 -4 -22 -7q-13 -5 -25 -8q-15 -4 -29 -8q-32 -8 -61 -13q-34 -5 -62 -5q-54 0 -86 6q-35 8 -54 27q-38 38 -27 151h468zM247 386q10 56 29 90q17 32 43 49q22 15 54 20q14 2 32 3q13 1 34 1q42 0 68 -6q29 -7 45 -24
q34 -34 27 -133h-332zM531 860h-118l-17 -123h118z" />
    <glyph glyph-name="Eogonek" unicode="&#x118;" horiz-adv-x="566" 
d="M549 0l25 108h-348l24 171h263l15 107h-263l21 149h338l25 107h-480l-90 -642h432q-16 -11 -30 -31q-8 -13 -15 -34q-7 -23 -11 -51l-9 -64h72l11 75h-44q13 84 64 105v0z" />
    <glyph glyph-name="eogonek" unicode="&#x119;" horiz-adv-x="704" 
d="M616 141l-9 -3q-8 -3 -9 -3q-12 -4 -22 -7q-13 -5 -25 -8q-15 -4 -29 -8q-32 -8 -61 -13q-34 -5 -62 -5q-54 0 -86 6q-35 8 -54 27q-38 38 -27 151h468l7 51q13 96 2 161q-10 63 -43 100q-32 35 -87 51q-26 7 -58 10q-30 4 -66.5 4t-65.5 -3q-32 -4 -60 -10
q-60 -16 -103 -50q-48 -39 -78 -105q-33 -70 -47 -174q-14 -102 -3 -168q12 -63 48 -99q33 -33 91 -46q27 -7 61 -10q31 -3 71 -3q49 0 107 9q55 8 102 22l-9 -11q-9 -13 -15 -34q-7 -23 -10 -51l-9 -64h72l10 75h-44q11 74 62 105zM247 386q10 56 29 90q17 32 43 49
q22 15 54 20q14 2 32 3q13 1 34 1q42 0 68 -6q29 -7 45 -24q34 -34 27 -133h-332z" />
    <glyph glyph-name="Ecaron" unicode="&#x11a;" horiz-adv-x="566" 
d="M549 0l25 108h-348l24 171h263l15 107h-263l21 149h338l25 107h-480l-90 -642h470zM581 795h-77l-73 -75l-53 75h-77l78 -102h96z" />
    <glyph glyph-name="ecaron" unicode="&#x11b;" horiz-adv-x="704" 
d="M700 278l7 51q13 96 2 161q-10 63 -43 100q-32 35 -87 51q-26 7 -58 10q-30 4 -66.5 4t-65.5 -3q-32 -4 -60 -10q-60 -16 -103 -50q-48 -39 -78 -105q-33 -70 -47 -174q-14 -102 -3 -168q12 -63 48 -99q33 -33 91 -46q27 -7 61 -10q31 -3 71 -3q33 0 72 5q36 4 73 10
q74 15 121 36l-19 103l-9 -3q-8 -3 -9 -3q-12 -4 -22 -7q-13 -5 -25 -8q-15 -4 -29 -8q-32 -8 -61 -13q-34 -5 -62 -5q-54 0 -86 6q-35 8 -54 27q-38 38 -27 151h468zM247 386q10 56 29 90q17 32 43 49q22 15 54 20q14 2 32 3q13 1 34 1q42 0 68 -6q29 -7 45 -24
q34 -34 27 -133h-332zM603 795h-77l-73 -75l-53 75h-77l78 -102h96z" />
    <glyph glyph-name="Gcircumflex" unicode="&#x11c;" horiz-adv-x="672" 
d="M516 115q-23 -8 -55 -13q-35 -5 -64 -5q-59 0 -91 8q-37 9 -55 33q-36 46 -16 188q10 75 32 122q19 44 49 67q27 20 65 27q16 3 37 5q16 1 40 1q28 0 58 -4q26 -4 53 -10q22 -6 44 -13q17 -5 34 -11l48 103q-84 42 -224 42q-40 0 -71 -3q-35 -3 -64 -9q-65 -14 -109 -47
q-49 -37 -79 -101q-33 -67 -47 -170q-15 -106 -4 -173q10 -66 46 -102q32 -34 91 -48q27 -6 61 -9q31 -3 72 -3q71 0 147 15.5t120 39.5l48 341h-263l-25 -107h145zM564 707l-76 107h-80q-7 -7 -14 -15q-3 -3 -7 -6q-1 -2 -3 -4q-3 -2 -3 -3l-13 -13q-7 -7 -12 -13
q-14 -13 -25 -25l-26 -28h72l71 84l47 -84h69z" />
    <glyph glyph-name="gcircumflex" unicode="&#x11d;" horiz-adv-x="672" 
d="M516 115q-23 -8 -55 -13q-35 -5 -64 -5q-59 0 -91 8q-37 9 -55 33q-36 46 -16 188q10 75 32 122q19 44 49 67q27 20 65 27q16 3 37 5q16 1 40 1q28 0 58 -4q26 -4 53 -10q22 -6 44 -13q17 -5 34 -11l48 103q-84 42 -224 42q-40 0 -71 -3q-35 -3 -64 -9q-65 -14 -109 -47
q-49 -37 -79 -101q-33 -67 -47 -170q-15 -106 -4 -173q10 -66 46 -102q32 -34 91 -48q27 -6 61 -9q31 -3 72 -3q71 0 147 15.5t120 39.5l48 341h-263l-25 -107h145zM564 707l-76 107h-80q-7 -7 -14 -15q-3 -3 -7 -6q-1 -2 -3 -4q-3 -2 -3 -3l-13 -13q-7 -7 -12 -13
q-14 -13 -25 -25l-26 -28h72l71 84l47 -84h69z" />
    <glyph glyph-name="Gbreve" unicode="&#x11e;" horiz-adv-x="672" 
d="M516 115q-23 -8 -55 -13q-35 -5 -64 -5q-59 0 -91 8q-37 9 -55 33q-36 46 -16 188q10 75 32 122q19 44 49 67q27 20 65 27q16 3 37 5q16 1 40 1q28 0 58 -4q26 -4 53 -10q22 -6 44 -13q17 -5 34 -11l48 103q-84 42 -224 42q-40 0 -71 -3q-35 -3 -64 -9q-65 -14 -109 -47
q-49 -37 -79 -101q-33 -67 -47 -170q-15 -106 -4 -173q10 -66 46 -102q32 -34 91 -48q27 -6 61 -9q31 -3 72 -3q71 0 147 15.5t120 39.5l48 341h-263l-25 -107h145zM547 819q-29 -69 -109 -69q-76 0 -82 69h-43q1 -112 122 -112q117 0 154 112h-42z" />
    <glyph glyph-name="gbreve" unicode="&#x11f;" horiz-adv-x="672" 
d="M516 115q-23 -8 -55 -13q-35 -5 -64 -5q-59 0 -91 8q-37 9 -55 33q-36 46 -16 188q10 75 32 122q19 44 49 67q27 20 65 27q16 3 37 5q16 1 40 1q28 0 58 -4q26 -4 53 -10q22 -6 44 -13q17 -5 34 -11l48 103q-84 42 -224 42q-40 0 -71 -3q-35 -3 -64 -9q-65 -14 -109 -47
q-49 -37 -79 -101q-33 -67 -47 -170q-15 -106 -4 -173q10 -66 46 -102q32 -34 91 -48q27 -6 61 -9q31 -3 72 -3q71 0 147 15.5t120 39.5l48 341h-263l-25 -107h145zM547 819q-29 -69 -109 -69q-76 0 -82 69h-43q1 -112 122 -112q117 0 154 112h-42z" />
    <glyph glyph-name="Gdotaccent" unicode="&#x120;" horiz-adv-x="672" 
d="M516 115q-23 -8 -55 -13q-35 -5 -64 -5q-59 0 -91 8q-37 9 -55 33q-36 46 -16 188q10 75 32 122q19 44 49 67q27 20 65 27q16 3 37 5q16 1 40 1q28 0 58 -4q26 -4 53 -10q22 -6 44 -13q17 -5 34 -11l48 103q-84 42 -224 42q-40 0 -71 -3q-35 -3 -64 -9q-65 -14 -109 -47
q-49 -37 -79 -101q-33 -67 -47 -170q-15 -106 -4 -173q10 -66 46 -102q32 -34 91 -48q27 -6 61 -9q31 -3 72 -3q71 0 147 15.5t120 39.5l48 341h-263l-25 -107h145zM515 860h-118l-17 -123h118z" />
    <glyph glyph-name="gdotaccent" unicode="&#x121;" horiz-adv-x="672" 
d="M516 115q-23 -8 -55 -13q-35 -5 -64 -5q-59 0 -91 8q-37 9 -55 33q-36 46 -16 188q10 75 32 122q19 44 49 67q27 20 65 27q16 3 37 5q16 1 40 1q28 0 58 -4q26 -4 53 -10q22 -6 44 -13q17 -5 34 -11l48 103q-84 42 -224 42q-40 0 -71 -3q-35 -3 -64 -9q-65 -14 -109 -47
q-49 -37 -79 -101q-33 -67 -47 -170q-15 -106 -4 -173q10 -66 46 -102q32 -34 91 -48q27 -6 61 -9q31 -3 72 -3q71 0 147 15.5t120 39.5l48 341h-263l-25 -107h145zM515 860h-118l-17 -123h118z" />
    <glyph glyph-name="uni0122" unicode="&#x122;" horiz-adv-x="672" 
d="M516 115q-23 -8 -55 -13q-35 -5 -64 -5q-59 0 -91 8q-37 9 -55 33q-36 46 -16 188q10 75 32 122q19 44 49 67q27 20 65 27q16 3 37 5q16 1 40 1q28 0 58 -4q26 -4 53 -10q22 -6 44 -13q17 -5 34 -11l48 103q-84 42 -224 42q-40 0 -71 -3q-35 -3 -64 -9q-65 -14 -109 -47
q-49 -37 -79 -101q-33 -67 -47 -170q-15 -106 -4 -173q10 -66 46 -102q32 -34 91 -48q27 -6 61 -9q31 -3 72 -3q71 0 147 15.5t120 39.5l48 341h-263l-25 -107h145zM310 -263q91 35 103 121l19 133h-117l-17 -123h50q-18 -75 -66 -94z" />
    <glyph glyph-name="uni0123" unicode="&#x123;" horiz-adv-x="672" 
d="M516 115q-23 -8 -55 -13q-35 -5 -64 -5q-59 0 -91 8q-37 9 -55 33q-36 46 -16 188q10 75 32 122q19 44 49 67q27 20 65 27q16 3 37 5q16 1 40 1q28 0 58 -4q26 -4 53 -10q22 -6 44 -13q17 -5 34 -11l48 103q-84 42 -224 42q-40 0 -71 -3q-35 -3 -64 -9q-65 -14 -109 -47
q-49 -37 -79 -101q-33 -67 -47 -170q-15 -106 -4 -173q10 -66 46 -102q32 -34 91 -48q27 -6 61 -9q31 -3 72 -3q71 0 147 15.5t120 39.5l48 341h-263l-25 -107h145zM310 -263q91 35 103 121l19 133h-117l-17 -123h50q-18 -75 -66 -94z" />
    <glyph glyph-name="Hcircumflex" unicode="&#x124;" horiz-adv-x="681" 
d="M601 0l90 642h-131l-35 -246h-260l35 246h-131l-90 -642h131l40 287h260l-40 -287h131zM569 707l-76 107h-80q-7 -7 -14 -15q-3 -3 -7 -6q-1 -2 -3 -4q-3 -2 -3 -3l-13 -13q-7 -7 -12 -13q-14 -13 -25 -25l-26 -28h72l71 84l47 -84h69z" />
    <glyph glyph-name="hcircumflex" unicode="&#x125;" horiz-adv-x="681" 
d="M601 0l90 642h-131l-35 -246h-260l35 246h-131l-90 -642h131l40 287h260l-40 -287h131zM569 707l-76 107h-80q-7 -7 -14 -15q-3 -3 -7 -6q-1 -2 -3 -4q-3 -2 -3 -3l-13 -13q-7 -7 -12 -13q-14 -13 -25 -25l-26 -28h72l71 84l47 -84h69z" />
    <glyph glyph-name="Hbar" unicode="&#x126;" horiz-adv-x="681" 
d="M601 0l69 493h81l5 38h-81l16 111h-131l-16 -111h-260l16 111h-131l-16 -111h-79l-5 -38h79l-69 -493h131l40 287h260l-40 -287h131zM265 396l14 97h260l-14 -97h-260z" />
    <glyph glyph-name="hbar" unicode="&#x127;" horiz-adv-x="681" 
d="M601 0l69 493h81l5 38h-81l16 111h-131l-16 -111h-260l16 111h-131l-16 -111h-79l-5 -38h79l-69 -493h131l40 287h260l-40 -287h131zM265 396l14 97h260l-14 -97h-260z" />
    <glyph glyph-name="Itilde" unicode="&#x128;" horiz-adv-x="241" 
d="M181 0l90 642h-132l-90 -642h132zM341 803q-8 -24 -19.5 -32t-30.5 -8q-20 0 -47 15q-48 24 -73 24q-38 0 -67 -26q-27 -24 -33 -59h43q2 9 6 17q4 6 10 13q18 15 38 15q18 0 48 -18q46 -25 72 -25q74 0 94 84h-41z" />
    <glyph glyph-name="itilde" unicode="&#x129;" horiz-adv-x="241" 
d="M181 0l90 642h-132l-90 -642h132zM341 803q-8 -24 -19.5 -32t-30.5 -8q-20 0 -47 15q-48 24 -73 24q-38 0 -67 -26q-27 -24 -33 -59h43q2 9 6 17q4 6 10 13q18 15 38 15q18 0 48 -18q46 -25 72 -25q74 0 94 84h-41z" />
    <glyph glyph-name="Imacron" unicode="&#x12a;" horiz-adv-x="241" 
d="M181 0l90 642h-132l-90 -642h132zM362 745l6 38h-275l-6 -38h275z" />
    <glyph glyph-name="imacron" unicode="&#x12b;" horiz-adv-x="241" 
d="M181 0l90 642h-132l-90 -642h132zM362 745l6 38h-275l-6 -38h275z" />
    <glyph glyph-name="Ibreve" unicode="&#x12c;" horiz-adv-x="241" 
d="M181 0l90 642h-132l-90 -642h132zM332 819q-29 -69 -109 -69q-76 0 -82 69h-43q1 -112 122 -112q117 0 154 112h-42z" />
    <glyph glyph-name="ibreve" unicode="&#x12d;" horiz-adv-x="241" 
d="M181 0l90 642h-132l-90 -642h132zM328 795q-27 -69 -108 -69q-76 0 -83 69h-43q2 -112 122 -112q117 0 154 112h-42z" />
    <glyph glyph-name="Iogonek" unicode="&#x12e;" horiz-adv-x="289" 
d="M254 -117h-4h-17q-6 -1 -14 -1q-46 0 -67 14q-15 15 -13 32q2 19 15 27q17 11 61 13l-5 34l90 640h-132l-90 -642h92l3 -19q-89 -10 -94 -59q-5 -31 25 -52q32 -24 91 -24q33 0 59 3v34z" />
    <glyph glyph-name="iogonek" unicode="&#x12f;" horiz-adv-x="289" 
d="M254 -117h-4h-17q-6 -1 -14 -1q-46 0 -67 14q-15 15 -13 32q2 19 15 27q17 11 61 13l-5 34l90 640h-132l-90 -642h92l3 -19q-89 -10 -94 -59q-5 -31 25 -52q32 -24 91 -24q33 0 59 3v34z" />
    <glyph glyph-name="Idotaccent" unicode="&#x130;" horiz-adv-x="241" 
d="M181 0l90 642h-132l-90 -642h132zM299 860h-118l-17 -123h118z" />
    <glyph glyph-name="dotlessi" unicode="&#x131;" horiz-adv-x="290" 
d="M211 0l90 642h-132l-90 -642h132z" />
    <glyph glyph-name="IJ" unicode="&#x132;" horiz-adv-x="563" 
d="M181 0l90 642h-132l-90 -642h132zM241 -5q37 0 65 2q30 2 54 5q50 8 81 30q59 40 78 169l62 441h-131l-63 -445q-10 -68 -38 -86q-13 -9 -36 -12q-11 -1 -25 -1h-28z" />
    <glyph glyph-name="ij" unicode="&#x133;" horiz-adv-x="573" 
d="M181 0l90 642h-132l-90 -642h132zM251 -5q37 0 65 2q30 2 54 5q50 8 81 30q59 40 78 169l62 441h-131l-63 -445q-10 -68 -38 -86q-13 -9 -36 -12q-11 -1 -25 -1h-28z" />
    <glyph glyph-name="Jcircumflex" unicode="&#x134;" horiz-adv-x="322" 
d="M0 -5q37 0 65 2q30 2 54 5q50 8 81 30q59 40 78 169l62 441h-131l-63 -445q-10 -68 -38 -86q-13 -9 -36 -12q-11 -1 -25 -1h-28zM442 707l-76 107h-80q-7 -7 -14 -15q-3 -3 -7 -6q-1 -2 -3 -4q-3 -2 -3 -3l-13 -13q-7 -7 -12 -13q-14 -13 -25 -25l-26 -28h72l71 84
l47 -84h69z" />
    <glyph glyph-name="jcircumflex" unicode="&#x135;" horiz-adv-x="322" 
d="M0 -5q37 0 65 2q30 2 54 5q50 8 81 30q59 40 78 169l62 441h-131l-63 -445q-10 -68 -38 -86q-13 -9 -36 -12q-11 -1 -25 -1h-28zM445 707l-76 107h-80q-7 -7 -14 -15q-3 -3 -7 -6q-1 -2 -3 -4q-3 -2 -3 -3l-13 -13q-7 -7 -12 -13q-14 -13 -25 -25l-26 -28h72l71 84
l47 -84h69z" />
    <glyph glyph-name="uni0136" unicode="&#x136;" horiz-adv-x="675" 
d="M466 0h154q-13 18 -26 39q-11 19 -25 40q-11 18 -25 40l-12 20q-6 9 -13 21q-3 4 -6 10q-2 2 -7 10q-8 13 -12 20q-15 23 -25 40q-14 22 -25 41q-14 21 -25 40q33 36 72 79q18 19 37 41q17 18 36 40q16 17 37 40q7 8 18 20q1 1 1 2q1 0 1 1q1 0 3 2q1 2 2 3.5t2 1.5
q5 6 9 11q11 11 18 20q10 10 18 20q20 21 37 40h-154l-235 -268h-59l38 268h-131l-90 -642h131l37 267h59zM270 -284q91 35 103 121l19 133h-117l-17 -123h50q-18 -75 -66 -94z" />
    <glyph glyph-name="uni0137" unicode="&#x137;" horiz-adv-x="680" 
d="M417 93q22 -38 47 -59q23 -21 49 -30q24 -7 54 -7q13 0 29 1q12 1 31 2l24 93q-3 -1 -6 -1h-6h-12q-14 -1 -24 0q-28 2 -39 13l-151 216q33 36 72 79q18 19 37 41q17 18 36 40q16 17 37 40q7 8 18 20q1 1 1 2q1 0 1 1q1 0 3 2q1 2 2 3.5t2 1.5q5 6 9 11q11 11 18 20
q10 10 18 20q20 21 37 40h-149l-242 -268h-57l38 268h-131l-90 -642h131l37 267h57zM270 -284q91 35 103 121l19 133h-117l-17 -123h50q-18 -75 -66 -94z" />
    <glyph glyph-name="kgreenlandic" unicode="&#x138;" horiz-adv-x="680" 
d="M417 93q22 -38 47 -59q23 -21 49 -30q24 -7 54 -7q13 0 29 1q12 1 31 2l24 93q-3 -1 -6 -1h-6h-12q-14 -1 -24 0q-28 2 -39 13l-151 216q33 36 72 79q18 19 37 41q17 18 36 40q16 17 37 40q7 8 18 20q1 1 1 2q1 0 1 1q1 0 3 2q1 2 2 3.5t2 1.5q5 6 9 11q11 11 18 20
q10 10 18 20q20 21 37 40h-149l-242 -268h-57l38 268h-131l-90 -642h131l37 267h57z" />
    <glyph glyph-name="Lacute" unicode="&#x139;" horiz-adv-x="532" 
d="M522 0l25 108h-322l75 534h-131l-90 -642h443zM225 689q11 12 26 27q5 5 12 13l3 3l3 3q4 4 6 7q15 15 25 26l28 28h-85l-68 -107h50z" />
    <glyph glyph-name="lacute" unicode="&#x13a;" horiz-adv-x="532" 
d="M522 0l25 108h-322l75 534h-131l-90 -642h443zM225 689q11 12 26 27q5 5 12 13l3 3l3 3q4 4 6 7q15 15 25 26l28 28h-85l-68 -107h50z" />
    <glyph glyph-name="uni013B" unicode="&#x13b;" horiz-adv-x="532" 
d="M522 0l25 108h-322l75 534h-131l-90 -642h443zM199 -284q91 35 103 121l19 133h-117l-17 -123h50q-18 -75 -66 -94z" />
    <glyph glyph-name="uni013C" unicode="&#x13c;" horiz-adv-x="532" 
d="M522 0l25 108h-322l75 534h-131l-90 -642h443zM270 -284q91 35 103 121l19 133h-117l-17 -123h50q-18 -75 -66 -94z" />
    <glyph glyph-name="Lcaron" unicode="&#x13d;" horiz-adv-x="532" 
d="M522 0l25 108h-322l75 534h-131l-90 -642h443zM455 403q91 34 103 121l19 133h-117l-17 -123h50q-18 -76 -66 -94z" />
    <glyph glyph-name="lcaron" unicode="&#x13e;" horiz-adv-x="532" 
d="M522 0l25 108h-322l75 534h-131l-90 -642h443zM455 403q91 34 103 121l19 133h-117l-17 -123h50q-18 -76 -66 -94z" />
    <glyph glyph-name="Ldot" unicode="&#x13f;" horiz-adv-x="532" 
d="M522 0l25 108h-322l75 534h-131l-90 -642h443zM445 292l10 73h-77l-10 -73h77z" />
    <glyph glyph-name="ldot" unicode="&#x140;" horiz-adv-x="532" 
d="M522 0l25 108h-322l75 534h-131l-90 -642h443zM445 292l10 73h-77l-10 -73h77z" />
    <glyph glyph-name="Lslash" unicode="&#x141;" horiz-adv-x="532" 
d="M522 0l25 108h-322l25 181l156 99l-4 75l-140 -89l38 268h-131l-51 -359l-106 -68l5 -73l89 56l-27 -198h443z" />
    <glyph glyph-name="lslash" unicode="&#x142;" horiz-adv-x="532" 
d="M522 0l25 108h-322l25 181l156 99l-4 75l-140 -89l38 268h-131l-51 -359l-106 -68l5 -73l89 56l-27 -198h443z" />
    <glyph glyph-name="Nacute" unicode="&#x143;" horiz-adv-x="685" 
d="M605 0l90 642h-127l-60 -422l-199 422h-140l-90 -642h128l59 424l200 -424h139zM418 689q11 12 26 27q5 5 12 13l3 3l3 3q4 4 6 7q15 15 25 26l28 28h-85l-68 -107h50z" />
    <glyph glyph-name="nacute" unicode="&#x144;" horiz-adv-x="685" 
d="M605 0l90 642h-127l-60 -422l-199 422h-140l-90 -642h128l59 424l200 -424h139zM418 689q11 12 26 27q5 5 12 13l3 3l3 3q4 4 6 7q15 15 25 26l28 28h-85l-68 -107h50z" />
    <glyph glyph-name="uni0145" unicode="&#x145;" horiz-adv-x="685" 
d="M605 0l90 642h-127l-60 -422l-199 422h-140l-90 -642h128l59 424l200 -424h139zM275 -284q91 35 103 121l19 133h-117l-17 -123h50q-18 -75 -66 -94z" />
    <glyph glyph-name="uni0146" unicode="&#x146;" horiz-adv-x="685" 
d="M605 0l90 642h-127l-60 -422l-199 422h-140l-90 -642h128l59 424l200 -424h139zM275 -284q91 35 103 121l19 133h-117l-17 -123h50q-18 -75 -66 -94z" />
    <glyph glyph-name="Ncaron" unicode="&#x147;" horiz-adv-x="685" 
d="M605 0l90 642h-127l-60 -422l-199 422h-140l-90 -642h128l59 424l200 -424h139zM593 795h-77l-73 -75l-53 75h-77l78 -102h96z" />
    <glyph glyph-name="ncaron" unicode="&#x148;" horiz-adv-x="685" 
d="M605 0l90 642h-127l-60 -422l-199 422h-140l-90 -642h128l59 424l200 -424h139zM593 795h-77l-73 -75l-53 75h-77l78 -102h96z" />
    <glyph glyph-name="napostrophe" unicode="&#x149;" horiz-adv-x="685" 
d="M605 0l90 642h-127l-60 -422l-199 422h-140l-90 -642h128l59 424l200 -424h139zM102 641q91 34 103 121l19 133h-117l-17 -123h50q-18 -76 -66 -94z" />
    <glyph glyph-name="Eng" unicode="&#x14a;" horiz-adv-x="685" 
d="M605 0l90 642h-127l-60 -422l-199 422h-140l-90 -642h128l59 424l200 -424q20 -33 -21 -48q-16 -7 -43 -10q-22 -3 -50 -3l-19 -93q33 0 59 2q29 1 52 4q49 7 81 22q66 33 80 126v0z" />
    <glyph glyph-name="eng" unicode="&#x14b;" horiz-adv-x="685" 
d="M605 0l90 642h-127l-60 -422l-199 422h-140l-90 -642h128l59 424l200 -424q20 -33 -21 -48q-16 -7 -43 -10q-22 -3 -50 -3l-19 -93q33 0 59 2q29 1 52 4q49 7 81 22q66 33 80 126v0z" />
    <glyph glyph-name="Omacron" unicode="&#x14c;" 
d="M456 549q11 0 18 -1h17q20 -1 34 -3q36 -6 57 -25q24 -23 32 -68q9 -50 -2 -130q-12 -82 -34 -131q-21 -45 -51 -68q-26 -19 -64 -25q-15 -2 -35 -3h-18h-18h-19h-19q-19 1 -34 3q-36 6 -56 25q-24 23 -32 68q-8 49 4 131q11 81 33 130q20 45 51 68q25 19 63 25
q15 2 35 3h19q6 1 19 1v0zM102 322q-15 -105 0 -174q14 -64 55 -101q36 -33 96 -47q26 -5 59 -8q29 -3 65 -3q35 0 65 3q33 3 61 8q64 14 109 47q51 37 84 101q35 69 50 174q14 104 -2 173q-14 64 -54 101q-36 33 -96 47q-26 6 -59 9q-29 3 -64 3q-36 0 -66 -3
q-33 -3 -62 -9q-31 -7 -57 -18q-28 -12 -52 -29q-51 -37 -83 -101q-35 -69 -49 -173v0zM620 745l6 38h-275l-6 -38h275z" />
    <glyph glyph-name="omacron" unicode="&#x14d;" 
d="M456 549q11 0 18 -1h17q20 -1 34 -3q36 -6 57 -25q24 -23 32 -68q9 -50 -2 -130q-12 -82 -34 -131q-21 -45 -51 -68q-26 -19 -64 -25q-15 -2 -35 -3h-18h-18h-19h-19q-19 1 -34 3q-36 6 -56 25q-24 23 -32 68q-8 49 4 131q11 81 33 130q20 45 51 68q25 19 63 25
q15 2 35 3h19q6 1 19 1v0zM102 322q-15 -105 0 -174q14 -64 55 -101q36 -33 96 -47q26 -5 59 -8q29 -3 65 -3q35 0 65 3q33 3 61 8q64 14 109 47q51 37 84 101q35 69 50 174q14 104 -2 173q-14 64 -54 101q-36 33 -96 47q-26 6 -59 9q-29 3 -64 3q-36 0 -66 -3
q-33 -3 -62 -9q-31 -7 -57 -18q-28 -12 -52 -29q-51 -37 -83 -101q-35 -69 -49 -173v0zM620 745l6 38h-275l-6 -38h275z" />
    <glyph glyph-name="Obreve" unicode="&#x14e;" 
d="M456 549q11 0 18 -1h17q20 -1 34 -3q36 -6 57 -25q24 -23 32 -68q9 -50 -2 -130q-12 -82 -34 -131q-21 -45 -51 -68q-26 -19 -64 -25q-15 -2 -35 -3h-18h-18h-19h-19q-19 1 -34 3q-36 6 -56 25q-24 23 -32 68q-8 49 4 131q11 81 33 130q20 45 51 68q25 19 63 25
q15 2 35 3h19q6 1 19 1v0zM102 322q-15 -105 0 -174q14 -64 55 -101q36 -33 96 -47q26 -5 59 -8q29 -3 65 -3q35 0 65 3q33 3 61 8q64 14 109 47q51 37 84 101q35 69 50 174q14 104 -2 173q-14 64 -54 101q-36 33 -96 47q-26 6 -59 9q-29 3 -64 3q-36 0 -66 -3
q-33 -3 -62 -9q-31 -7 -57 -18q-28 -12 -52 -29q-51 -37 -83 -101q-35 -69 -49 -173v0zM590 819q-29 -69 -109 -69q-76 0 -82 69h-43q1 -112 122 -112q117 0 154 112h-42z" />
    <glyph glyph-name="obreve" unicode="&#x14f;" 
d="M456 549q11 0 18 -1h17q20 -1 34 -3q36 -6 57 -25q24 -23 32 -68q9 -50 -2 -130q-12 -82 -34 -131q-21 -45 -51 -68q-26 -19 -64 -25q-15 -2 -35 -3h-18h-18h-19h-19q-19 1 -34 3q-36 6 -56 25q-24 23 -32 68q-8 49 4 131q11 81 33 130q20 45 51 68q25 19 63 25
q15 2 35 3h19q6 1 19 1v0zM102 322q-15 -105 0 -174q14 -64 55 -101q36 -33 96 -47q26 -5 59 -8q29 -3 65 -3q35 0 65 3q33 3 61 8q64 14 109 47q51 37 84 101q35 69 50 174q14 104 -2 173q-14 64 -54 101q-36 33 -96 47q-26 6 -59 9q-29 3 -64 3q-36 0 -66 -3
q-33 -3 -62 -9q-31 -7 -57 -18q-28 -12 -52 -29q-51 -37 -83 -101q-35 -69 -49 -173v0zM590 819q-29 -69 -109 -69q-76 0 -82 69h-43q1 -112 122 -112q117 0 154 112h-42z" />
    <glyph glyph-name="Ohungarumlaut" unicode="&#x150;" 
d="M456 549q11 0 18 -1h17q20 -1 34 -3q36 -6 57 -25q24 -23 32 -68q9 -50 -2 -130q-12 -82 -34 -131q-21 -45 -51 -68q-26 -19 -64 -25q-15 -2 -35 -3h-18h-18h-19h-19q-19 1 -34 3q-36 6 -56 25q-24 23 -32 68q-8 49 4 131q11 81 33 130q20 45 51 68q25 19 63 25
q15 2 35 3h19q6 1 19 1v0zM102 322q-15 -105 0 -174q14 -64 55 -101q36 -33 96 -47q26 -5 59 -8q29 -3 65 -3q35 0 65 3q33 3 61 8q64 14 109 47q51 37 84 101q35 69 50 174q14 104 -2 173q-14 64 -54 101q-36 33 -96 47q-26 6 -59 9q-29 3 -64 3q-36 0 -66 -3
q-33 -3 -62 -9q-31 -7 -57 -18q-28 -12 -52 -29q-51 -37 -83 -101q-35 -69 -49 -173v0zM372 707q5 6 13 13q4 5 12 14q8 8 12 13l13 13q13 14 25 26q13 14 28 28h-85l-68 -107h50zM546 707q5 6 13 13q4 5 12 14q8 8 12 13l13 13q13 14 25 26q13 14 28 28h-85l-68 -107h50z
" />
    <glyph glyph-name="ohungarumlaut" unicode="&#x151;" 
d="M456 549q11 0 18 -1h17q20 -1 34 -3q36 -6 57 -25q24 -23 32 -68q9 -50 -2 -130q-12 -82 -34 -131q-21 -45 -51 -68q-26 -19 -64 -25q-15 -2 -35 -3h-18h-18h-19h-19q-19 1 -34 3q-36 6 -56 25q-24 23 -32 68q-8 49 4 131q11 81 33 130q20 45 51 68q25 19 63 25
q15 2 35 3h19q6 1 19 1v0zM102 322q-15 -105 0 -174q14 -64 55 -101q36 -33 96 -47q26 -5 59 -8q29 -3 65 -3q35 0 65 3q33 3 61 8q64 14 109 47q51 37 84 101q35 69 50 174q14 104 -2 173q-14 64 -54 101q-36 33 -96 47q-26 6 -59 9q-29 3 -64 3q-36 0 -66 -3
q-33 -3 -62 -9q-31 -7 -57 -18q-28 -12 -52 -29q-51 -37 -83 -101q-35 -69 -49 -173v0zM372 707q5 6 13 13q4 5 12 14q8 8 12 13l13 13q13 14 25 26q13 14 28 28h-85l-68 -107h50zM546 707q5 6 13 13q4 5 12 14q8 8 12 13l13 13q13 14 25 26q13 14 28 28h-85l-68 -107h50z
" />
    <glyph glyph-name="OE" unicode="&#x152;" horiz-adv-x="1167" 
d="M1100 0l25 108h-378l24 176h293l14 97h-293l22 154h368l25 107h-510l-10 -68q-31 46 -88 65q-25 8 -57 12q-29 4 -64 4q-36 0 -66 -3q-33 -3 -62 -9q-31 -7 -57 -18q-28 -12 -52 -29q-51 -37 -83 -101q-35 -69 -49 -173q-15 -105 0 -174q14 -64 55 -101q36 -33 96 -47
q26 -5 59 -8q29 -3 65 -3q35 0 65 4q33 4 61 11q30 10 56 25q27 17 50 41l-9 -70h500zM392 95h-19h-19q-19 1 -34 3q-36 6 -56 25q-24 23 -32 68q-8 49 4 131q11 81 33 130q20 45 51 68q25 19 63 25q15 2 35 3h19q6 1 19 1t20 -1h21q22 -1 39 -3q42 -6 67 -25q29 -23 39 -68
q11 -50 0 -130q-12 -81 -37 -131q-23 -45 -58 -68q-16 -10 -35 -16q-17 -6 -38 -9q-17 -2 -40 -3h-21h-21v0z" />
    <glyph glyph-name="oe" unicode="&#x153;" horiz-adv-x="1286" 
d="M1184 141l-9 -3q-8 -3 -9 -3q-12 -4 -22 -7q-13 -5 -25 -8q-15 -4 -29 -8q-32 -8 -61 -13q-34 -5 -62 -5q-33 0 -58 1q-27 2 -48 5q-43 8 -67 26q-47 36 -36 147l1 10h509l7 46q13 96 2 161q-10 63 -43 100q-32 35 -87 51q-26 7 -58 10q-30 4 -67 4q-49 0 -87 -6
q-43 -6 -77 -20q-38 -15 -67 -40q-32 -26 -55 -64q-15 39 -41 65q-25 25 -60 40q-33 13 -77 19q-37 6 -87 6q-36 0 -66 -3q-33 -3 -62 -9q-31 -7 -57 -18q-28 -12 -52 -29q-51 -37 -83 -101q-35 -69 -49 -173q-15 -105 0 -174q14 -64 55 -101q36 -33 96 -47q26 -5 59 -8
q29 -3 65 -3q48 0 87 5q44 6 80 18q40 14 71 37q33 26 59 63q23 -72 93 -101q32 -12 76 -18q39 -6 94 -6q33 0 72 5q36 4 73 10q74 15 121 36zM636 287q-13 -69 -39 -111q-22 -38 -56 -57q-29 -16 -71 -21q-17 -2 -38 -3h-20h-20h-19h-19q-19 1 -34 3q-36 6 -56 25
q-24 23 -32 68q-8 49 4 131q11 81 33 130q20 45 51 68q25 19 63 25q15 2 35 3h19q6 1 19 1t20 -1h19q22 -1 39 -3q40 -5 64 -22q29 -20 41 -60q12 -44 5 -115zM774 381q11 57 34 93q21 33 52 51q27 14 67 20q17 2 38 3q17 1 42 1q42 0 68 -7q29 -7 45 -24q34 -35 26 -137
h-372z" />
    <glyph glyph-name="Racute" unicode="&#x154;" horiz-adv-x="669" 
d="M618 0l-145 235q84 10 123 53t54 148q18 128 -30 169q-25 21 -73 29q-23 4 -53 6q-28 2 -65 2h-260l-90 -642h132l32 231h86l138 -231h151zM258 338l28 197h130q18 0 28 -1q14 0 24 -1q22 -3 33 -12q23 -18 14 -85q-10 -66 -38 -84q-13 -9 -36 -12q-11 -2 -25 -2h-28
h-130zM410 689q11 12 26 27q5 5 12 13l3 3l3 3q4 4 6 7q15 15 25 26l28 28h-85l-68 -107h50z" />
    <glyph glyph-name="racute" unicode="&#x155;" horiz-adv-x="669" 
d="M618 0l-145 235q84 10 123 53t54 148q18 128 -30 169q-25 21 -73 29q-23 4 -53 6q-28 2 -65 2h-260l-90 -642h132l32 231h86l138 -231h151zM258 338l28 197h130q18 0 28 -1q14 0 24 -1q22 -3 33 -12q23 -18 14 -85q-10 -66 -38 -84q-13 -9 -36 -12q-11 -2 -25 -2h-28
h-130zM410 689q11 12 26 27q5 5 12 13l3 3l3 3q4 4 6 7q15 15 25 26l28 28h-85l-68 -107h50z" />
    <glyph glyph-name="uni0156" unicode="&#x156;" horiz-adv-x="669" 
d="M618 0l-145 235q84 10 123 53t54 148q18 128 -30 169q-25 21 -73 29q-23 4 -53 6q-28 2 -65 2h-260l-90 -642h132l32 231h86l138 -231h151zM258 338l28 197h130q18 0 28 -1q14 0 24 -1q22 -3 33 -12q23 -18 14 -85q-10 -66 -38 -84q-13 -9 -36 -12q-11 -2 -25 -2h-28
h-130zM273 -263q91 35 103 121l19 133h-117l-17 -123h50q-18 -75 -66 -94z" />
    <glyph glyph-name="uni0157" unicode="&#x157;" horiz-adv-x="681" 
d="M211 0l32 231h79l95 -138q24 -37 49 -58q23 -20 49 -29q23 -8 52 -9q13 0 29 1q13 1 31 2l24 93q-5 -1 -12 -1q-10 -1 -12 -1h-26q-29 1 -37 14l-91 131q84 9 122.5 52t53.5 148q18 128 -30 169q-25 21 -73 29q-23 4 -53 6q-28 2 -65 2h-259l-90 -642h132zM513 433
q-9 -64 -36 -82q-14 -8 -37 -11q-10 -2 -24 -2h-29h-129l28 197h129q17 0 28 -1q14 0 24 -2q22 -3 33 -11q23 -18 14 -82zM273 -263q91 35 103 121l19 133h-117l-17 -123h50q-18 -75 -66 -94z" />
    <glyph glyph-name="Rcaron" unicode="&#x158;" horiz-adv-x="669" 
d="M618 0l-145 235q84 10 123 53t54 148q18 128 -30 169q-25 21 -73 29q-23 4 -53 6q-28 2 -65 2h-260l-90 -642h132l32 231h86l138 -231h151zM258 338l28 197h130q18 0 28 -1q14 0 24 -1q22 -3 33 -12q23 -18 14 -85q-10 -66 -38 -84q-13 -9 -36 -12q-11 -2 -25 -2h-28
h-130zM560 795h-77l-73 -75l-53 75h-77l78 -102h96z" />
    <glyph glyph-name="rcaron" unicode="&#x159;" horiz-adv-x="681" 
d="M211 0l32 231h79l95 -138q24 -37 49 -58q23 -20 49 -29q23 -8 52 -9q13 0 29 1q13 1 31 2l24 93q-5 -1 -12 -1q-10 -1 -12 -1h-26q-29 1 -37 14l-91 131q84 9 122.5 52t53.5 148q18 128 -30 169q-25 21 -73 29q-23 4 -53 6q-28 2 -65 2h-259l-90 -642h132zM513 433
q-9 -64 -36 -82q-14 -8 -37 -11q-10 -2 -24 -2h-29h-129l28 197h129q17 0 28 -1q14 0 24 -2q22 -3 33 -11q23 -18 14 -82zM591 795h-77l-73 -75l-53 75h-77l78 -102h96z" />
    <glyph glyph-name="Sacute" unicode="&#x15a;" horiz-adv-x="624" 
d="M641 615q-19 9 -48 17q-27 7 -62 12q-67 10 -141 10q-102 0 -172 -44q-36 -23 -58 -55q-24 -34 -29 -76q-9 -63 2 -101q11 -36 44 -59q30 -21 90 -38q25 -7 63 -16q15 -3 36 -8q8 -2 19 -4q2 0 5.5 -1t4.5 -1q6 -2 11 -2q13 -4 20 -5q10 -3 16 -5q16 -5 24 -12
q15 -14 10 -54q-8 -52 -42 -67q-15 -6 -39 -8q-11 -1 -24 -1h-27q-42 0 -84 4q-36 4 -71 12q-29 7 -55 15q-22 7 -37 15q-12 -24 -24 -51q-5 -12 -11 -26q-5 -12 -11 -28q40 -21 120 -35q78 -14 149 -14q30 0 55 2q27 2 50 6q51 8 86 27q38 22 61 58q24 38 32 95
q8 63 -16 105q-20 36 -67 59q-20 10 -46 18q-22 7 -52 14q-11 3 -27 6q-5 1 -13 3q-10 3 -14 3q-16 4 -27 7q-15 3 -27 7q-47 14 -54 24q-8 11 -1 55q5 37 38 54q30 15 92 15q28 0 60 -4q29 -3 58 -9q26 -5 49 -11q21 -6 36 -11zM416 689q11 12 26 27q5 5 12 13l3 3l3 3
q4 4 6 7q15 15 25 26l28 28h-85l-68 -107h50z" />
    <glyph glyph-name="sacute" unicode="&#x15b;" horiz-adv-x="624" 
d="M641 615q-19 9 -48 17q-27 7 -62 12q-67 10 -141 10q-102 0 -172 -44q-36 -23 -58 -55q-24 -34 -29 -76q-9 -63 2 -101q11 -36 44 -59q30 -21 90 -38q25 -7 63 -16q15 -3 36 -8q8 -2 19 -4q2 0 5.5 -1t4.5 -1q6 -2 11 -2q13 -4 20 -5q10 -3 16 -5q16 -5 24 -12
q15 -14 10 -54q-8 -52 -42 -67q-15 -6 -39 -8q-11 -1 -24 -1h-27q-42 0 -84 4q-36 4 -71 12q-29 7 -55 15q-22 7 -37 15q-12 -24 -24 -51q-5 -12 -11 -26q-5 -12 -11 -28q40 -21 120 -35q78 -14 149 -14q30 0 55 2q27 2 50 6q51 8 86 27q38 22 61 58q24 38 32 95
q8 63 -16 105q-20 36 -67 59q-20 10 -46 18q-22 7 -52 14q-11 3 -27 6q-5 1 -13 3q-10 3 -14 3q-16 4 -27 7q-15 3 -27 7q-47 14 -54 24q-8 11 -1 55q5 37 38 54q30 15 92 15q28 0 60 -4q29 -3 58 -9q26 -5 49 -11q21 -6 36 -11zM416 689q11 12 26 27q5 5 12 13l3 3l3 3
q4 4 6 7q15 15 25 26l28 28h-85l-68 -107h50z" />
    <glyph glyph-name="Scircumflex" unicode="&#x15c;" horiz-adv-x="624" 
d="M641 615q-19 9 -48 17q-27 7 -62 12q-67 10 -141 10q-102 0 -172 -44q-36 -23 -58 -55q-24 -34 -29 -76q-9 -63 2 -101q11 -36 44 -59q30 -21 90 -38q25 -7 63 -16q15 -3 36 -8q8 -2 19 -4q2 0 5.5 -1t4.5 -1q6 -2 11 -2q13 -4 20 -5q10 -3 16 -5q16 -5 24 -12
q15 -14 10 -54q-8 -52 -42 -67q-15 -6 -39 -8q-11 -1 -24 -1h-27q-42 0 -84 4q-36 4 -71 12q-29 7 -55 15q-22 7 -37 15q-12 -24 -24 -51q-5 -12 -11 -26q-5 -12 -11 -28q40 -21 120 -35q78 -14 149 -14q30 0 55 2q27 2 50 6q51 8 86 27q38 22 61 58q24 38 32 95
q8 63 -16 105q-20 36 -67 59q-20 10 -46 18q-22 7 -52 14q-11 3 -27 6q-5 1 -13 3q-10 3 -14 3q-16 4 -27 7q-15 3 -27 7q-47 14 -54 24q-8 11 -1 55q5 37 38 54q30 15 92 15q28 0 60 -4q29 -3 58 -9q26 -5 49 -11q21 -6 36 -11zM540 707l-76 107h-80q-7 -7 -14 -15
q-3 -3 -7 -6q-1 -2 -3 -4q-3 -2 -3 -3l-13 -13q-7 -7 -12 -13q-14 -13 -25 -25l-26 -28h72l71 84l47 -84h69z" />
    <glyph glyph-name="scircumflex" unicode="&#x15d;" horiz-adv-x="624" 
d="M641 615q-19 9 -48 17q-27 7 -62 12q-67 10 -141 10q-102 0 -172 -44q-36 -23 -58 -55q-24 -34 -29 -76q-9 -63 2 -101q11 -36 44 -59q30 -21 90 -38q25 -7 63 -16q15 -3 36 -8q8 -2 19 -4q2 0 5.5 -1t4.5 -1q6 -2 11 -2q13 -4 20 -5q10 -3 16 -5q16 -5 24 -12
q15 -14 10 -54q-8 -52 -42 -67q-15 -6 -39 -8q-11 -1 -24 -1h-27q-42 0 -84 4q-36 4 -71 12q-29 7 -55 15q-22 7 -37 15q-12 -24 -24 -51q-5 -12 -11 -26q-5 -12 -11 -28q40 -21 120 -35q78 -14 149 -14q30 0 55 2q27 2 50 6q51 8 86 27q38 22 61 58q24 38 32 95
q8 63 -16 105q-20 36 -67 59q-20 10 -46 18q-22 7 -52 14q-11 3 -27 6q-5 1 -13 3q-10 3 -14 3q-16 4 -27 7q-15 3 -27 7q-47 14 -54 24q-8 11 -1 55q5 37 38 54q30 15 92 15q28 0 60 -4q29 -3 58 -9q26 -5 49 -11q21 -6 36 -11zM540 707l-76 107h-80q-7 -7 -14 -15
q-3 -3 -7 -6q-1 -2 -3 -4q-3 -2 -3 -3l-13 -13q-7 -7 -12 -13q-14 -13 -25 -25l-26 -28h72l71 84l47 -84h69z" />
    <glyph glyph-name="Scedilla" unicode="&#x15e;" horiz-adv-x="624" 
d="M51 38q36 -19 105 -33q68 -12 135 -15l-26 -61q43 -2 56 -13q10 -8 8 -27q-3 -17 -22 -32q-25 -14 -71 -14q-9 0 -14 1h-16h-4l-10 -34q25 -3 58 -3q59 0 98 24q36 21 40 52q6 49 -78 59l21 47q59 1 101 9q49 9 82 29q37 21 59.5 57.5t30.5 92.5q8 63 -16 105
q-20 36 -67 59q-20 10 -46 18q-22 7 -52 14q-11 3 -27 6q-5 1 -13 3q-10 3 -14 3q-16 4 -27 7q-15 3 -27 7q-47 14 -54 24q-8 11 -1 55q5 37 38 54q30 15 92 15q28 0 60 -4q29 -3 58 -9q26 -5 49 -11q21 -6 36 -11l48 103q-19 9 -48 17q-27 7 -62 12q-67 10 -141 10
q-102 0 -172 -44q-36 -23 -58 -55q-24 -34 -29 -76q-9 -63 2 -101q11 -36 44 -59q30 -21 90 -38q25 -7 63 -16q15 -3 36 -8q8 -2 19 -4q2 0 5.5 -1t4.5 -1q6 -2 11 -2q13 -4 20 -5q10 -3 16 -5q16 -5 24 -12q15 -14 10 -54q-8 -52 -42 -67q-15 -6 -39 -8q-11 -1 -24 -1h-27
q-42 0 -84 4q-36 4 -71 12q-29 7 -55 15q-22 7 -37 15q-12 -24 -24 -51q-5 -12 -11 -26q-5 -12 -11 -28v0z" />
    <glyph glyph-name="scedilla" unicode="&#x15f;" horiz-adv-x="624" 
d="M51 38q36 -19 105 -33q68 -12 135 -15l-26 -61q43 -2 56 -13q10 -8 8 -27q-3 -17 -22 -32q-25 -14 -71 -14q-9 0 -14 1h-16h-4l-10 -34q25 -3 58 -3q59 0 98 24q36 21 40 52q6 49 -78 59l21 47q59 1 101 9q49 9 82 29q37 21 59.5 57.5t30.5 92.5q8 63 -16 105
q-20 36 -67 59q-20 10 -46 18q-22 7 -52 14q-11 3 -27 6q-5 1 -13 3q-10 3 -14 3q-16 4 -27 7q-15 3 -27 7q-47 14 -54 24q-8 11 -1 55q5 37 38 54q30 15 92 15q28 0 60 -4q29 -3 58 -9q26 -5 49 -11q21 -6 36 -11l48 103q-19 9 -48 17q-27 7 -62 12q-67 10 -141 10
q-102 0 -172 -44q-36 -23 -58 -55q-24 -34 -29 -76q-9 -63 2 -101q11 -36 44 -59q30 -21 90 -38q25 -7 63 -16q15 -3 36 -8q8 -2 19 -4q2 0 5.5 -1t4.5 -1q6 -2 11 -2q13 -4 20 -5q10 -3 16 -5q16 -5 24 -12q15 -14 10 -54q-8 -52 -42 -67q-15 -6 -39 -8q-11 -1 -24 -1h-27
q-42 0 -84 4q-36 4 -71 12q-29 7 -55 15q-22 7 -37 15q-12 -24 -24 -51q-5 -12 -11 -26q-5 -12 -11 -28v0z" />
    <glyph glyph-name="Scaron" unicode="&#x160;" horiz-adv-x="624" 
d="M641 615q-19 9 -48 17q-27 7 -62 12q-67 10 -141 10q-102 0 -172 -44q-36 -23 -58 -55q-24 -34 -29 -76q-9 -63 2 -101q11 -36 44 -59q30 -21 90 -38q25 -7 63 -16q15 -3 36 -8q8 -2 19 -4q2 0 5.5 -1t4.5 -1q6 -2 11 -2q13 -4 20 -5q10 -3 16 -5q16 -5 24 -12
q15 -14 10 -54q-8 -52 -42 -67q-15 -6 -39 -8q-11 -1 -24 -1h-27q-42 0 -84 4q-36 4 -71 12q-29 7 -55 15q-22 7 -37 15q-12 -24 -24 -51q-5 -12 -11 -26q-5 -12 -11 -28q40 -21 120 -35q78 -14 149 -14q30 0 55 2q27 2 50 6q51 8 86 27q38 22 61 58q24 38 32 95
q8 63 -16 105q-20 36 -67 59q-20 10 -46 18q-22 7 -52 14q-11 3 -27 6q-5 1 -13 3q-10 3 -14 3q-16 4 -27 7q-15 3 -27 7q-47 14 -54 24q-8 11 -1 55q5 37 38 54q30 15 92 15q28 0 60 -4q29 -3 58 -9q26 -5 49 -11q21 -6 36 -11zM563 795h-77l-73 -75l-53 75h-77l78 -102h96
z" />
    <glyph glyph-name="scaron" unicode="&#x161;" horiz-adv-x="624" 
d="M641 615q-19 9 -48 17q-27 7 -62 12q-67 10 -141 10q-102 0 -172 -44q-36 -23 -58 -55q-24 -34 -29 -76q-9 -63 2 -101q11 -36 44 -59q30 -21 90 -38q25 -7 63 -16q15 -3 36 -8q8 -2 19 -4q2 0 5.5 -1t4.5 -1q6 -2 11 -2q13 -4 20 -5q10 -3 16 -5q16 -5 24 -12
q15 -14 10 -54q-8 -52 -42 -67q-15 -6 -39 -8q-11 -1 -24 -1h-27q-42 0 -84 4q-36 4 -71 12q-29 7 -55 15q-22 7 -37 15q-12 -24 -24 -51q-5 -12 -11 -26q-5 -12 -11 -28q40 -21 120 -35q78 -14 149 -14q30 0 55 2q27 2 50 6q51 8 86 27q38 22 61 58q24 38 32 95
q8 63 -16 105q-20 36 -67 59q-20 10 -46 18q-22 7 -52 14q-11 3 -27 6q-5 1 -13 3q-10 3 -14 3q-16 4 -27 7q-15 3 -27 7q-47 14 -54 24q-8 11 -1 55q5 37 38 54q30 15 92 15q28 0 60 -4q29 -3 58 -9q26 -5 49 -11q21 -6 36 -11zM563 795h-77l-73 -75l-53 75h-77l78 -102h96
z" />
    <glyph glyph-name="Tcommaaccent" unicode="&#x162;" horiz-adv-x="543" 
d="M336 0l75 535h200l25 107h-529l-25 -107h197l-75 -535h132zM197 -331q91 35 103 121l19 133h-117l-17 -123h50q-18 -75 -66 -94z" />
    <glyph glyph-name="tcommaaccent" unicode="&#x163;" horiz-adv-x="543" 
d="M336 0l75 535h200l25 107h-529l-25 -107h197l-75 -535h132zM197 -331q91 35 103 121l19 133h-117l-17 -123h50q-18 -75 -66 -94z" />
    <glyph glyph-name="Tcaron" unicode="&#x164;" horiz-adv-x="543" 
d="M336 0l75 535h200l25 107h-529l-25 -107h197l-75 -535h132zM522 795h-77l-73 -75l-53 75h-77l78 -102h96z" />
    <glyph glyph-name="tcaron" unicode="&#x165;" horiz-adv-x="543" 
d="M336 0l75 535h200l25 107h-529l-25 -107h197l-75 -535h132zM522 795h-77l-73 -75l-53 75h-77l78 -102h96z" />
    <glyph glyph-name="Tbar" unicode="&#x166;" horiz-adv-x="543" 
d="M336 0l56 404h103l10 68h-103l9 63h200l25 107h-529l-25 -107h197l-9 -63h-100l-10 -68h100l-56 -404h132z" />
    <glyph glyph-name="tbar" unicode="&#x167;" horiz-adv-x="543" 
d="M336 0l56 404h103l10 68h-103l9 63h200l25 107h-529l-25 -107h197l-9 -63h-100l-10 -68h100l-56 -404h132z" />
    <glyph glyph-name="Utilde" unicode="&#x168;" horiz-adv-x="686" 
d="M521 271q-4 -26 -8 -44q-4 -21 -8 -37q-10 -34 -27 -54q-33 -39 -121 -39q-89 0 -112 39q-12 20 -12 54q-1 16 1 37q2 18 6 44l52 371h-131l-53 -372q-6 -40 -8 -70q-2 -33 0 -59q4 -55 28 -87q48 -65 214 -65q165 0 230 65q32 32 51 87q9 26 16 59q6 30 12 70l53 372
h-131zM563 803q-8 -24 -19.5 -32t-30.5 -8q-20 0 -47 15q-48 24 -73 24q-38 0 -67 -26q-27 -24 -33 -59h43q2 9 6 17q4 6 10 13q18 15 38 15q18 0 48 -18q46 -25 72 -25q74 0 94 84h-41z" />
    <glyph glyph-name="utilde" unicode="&#x169;" horiz-adv-x="668" 
d="M521 271q-4 -26 -8 -44q-4 -21 -8 -37q-10 -34 -27 -54q-33 -39 -121 -39q-89 0 -112 39q-12 20 -12 54q-1 16 1 37q2 18 6 44l52 371h-131l-53 -372q-6 -40 -8 -70q-2 -33 0 -59q4 -55 28 -87q48 -65 214 -65q165 0 230 65q32 32 51 87q9 26 16 59q6 30 12 70l53 372
h-131zM554 803q-8 -24 -19.5 -32t-30.5 -8q-20 0 -47 15q-48 24 -73 24q-38 0 -67 -26q-27 -24 -33 -59h43q2 9 6 17q4 6 10 13q18 15 38 15q18 0 48 -18q46 -25 72 -25q74 0 94 84h-41z" />
    <glyph glyph-name="Umacron" unicode="&#x16a;" horiz-adv-x="686" 
d="M521 271q-4 -26 -8 -44q-4 -21 -8 -37q-10 -34 -27 -54q-33 -39 -121 -39q-89 0 -112 39q-12 20 -12 54q-1 16 1 37q2 18 6 44l52 371h-131l-53 -372q-6 -40 -8 -70q-2 -33 0 -59q4 -55 28 -87q48 -65 214 -65q165 0 230 65q32 32 51 87q9 26 16 59q6 30 12 70l53 372
h-131zM584 745l6 38h-275l-6 -38h275z" />
    <glyph glyph-name="umacron" unicode="&#x16b;" horiz-adv-x="668" 
d="M521 271q-4 -26 -8 -44q-4 -21 -8 -37q-10 -34 -27 -54q-33 -39 -121 -39q-89 0 -112 39q-12 20 -12 54q-1 16 1 37q2 18 6 44l52 371h-131l-53 -372q-6 -40 -8 -70q-2 -33 0 -59q4 -55 28 -87q48 -65 214 -65q165 0 230 65q32 32 51 87q9 26 16 59q6 30 12 70l53 372
h-131zM575 745l6 38h-275l-6 -38h275z" />
    <glyph glyph-name="Ubreve" unicode="&#x16c;" horiz-adv-x="686" 
d="M521 271q-4 -26 -8 -44q-4 -21 -8 -37q-10 -34 -27 -54q-33 -39 -121 -39q-89 0 -112 39q-12 20 -12 54q-1 16 1 37q2 18 6 44l52 371h-131l-53 -372q-6 -40 -8 -70q-2 -33 0 -59q4 -55 28 -87q48 -65 214 -65q165 0 230 65q32 32 51 87q9 26 16 59q6 30 12 70l53 372
h-131zM554 819q-29 -69 -109 -69q-76 0 -82 69h-43q1 -112 122 -112q117 0 154 112h-42z" />
    <glyph glyph-name="ubreve" unicode="&#x16d;" horiz-adv-x="668" 
d="M521 271q-4 -26 -8 -44q-4 -21 -8 -37q-10 -34 -27 -54q-33 -39 -121 -39q-89 0 -112 39q-12 20 -12 54q-1 16 1 37q2 18 6 44l52 371h-131l-53 -372q-6 -40 -8 -70q-2 -33 0 -59q4 -55 28 -87q48 -65 214 -65q165 0 230 65q32 32 51 87q9 26 16 59q6 30 12 70l53 372
h-131zM545 819q-29 -69 -109 -69q-76 0 -82 69h-43q1 -112 122 -112q117 0 154 112h-42z" />
    <glyph glyph-name="Uring" unicode="&#x16e;" horiz-adv-x="686" 
d="M521 271q-4 -26 -8 -44q-4 -21 -8 -37q-10 -34 -27 -54q-33 -39 -121 -39q-89 0 -112 39q-12 20 -12 54q-1 16 1 37q2 18 6 44l52 371h-131l-53 -372q-6 -40 -8 -70q-2 -33 0 -59q4 -55 28 -87q48 -65 214 -65q165 0 230 65q32 32 51 87q9 26 16 59q6 30 12 70l53 372
h-131zM441 707q-17 0 -22 5q-9 7 -5 32q3 23 14 30q6 5 23 5q16 0 21 -5q9 -7 6 -30q-4 -25 -14 -32q-7 -5 -23 -5v0zM437 677q31 0 47 11q20 16 26 56q5 39 -11 54q-13 12 -44 12q-32 0 -47 -12q-21 -15 -26 -54q-6 -40 11 -56q12 -11 44 -11v0z" />
    <glyph glyph-name="uring" unicode="&#x16f;" horiz-adv-x="668" 
d="M521 271q-4 -26 -8 -44q-4 -21 -8 -37q-10 -34 -27 -54q-33 -39 -121 -39q-89 0 -112 39q-12 20 -12 54q-1 16 1 37q2 18 6 44l52 371h-131l-53 -372q-6 -40 -8 -70q-2 -33 0 -59q4 -55 28 -87q48 -65 214 -65q165 0 230 65q32 32 51 87q9 26 16 59q6 30 12 70l53 372
h-131zM432 707q-17 0 -22 5q-9 7 -5 32q3 23 14 30q6 5 23 5q16 0 21 -5q9 -7 6 -30q-4 -25 -14 -32q-7 -5 -23 -5v0zM428 677q31 0 47 11q20 16 26 56q5 39 -11 54q-13 12 -44 12q-32 0 -47 -12q-21 -15 -26 -54q-6 -40 11 -56q12 -11 44 -11v0z" />
    <glyph glyph-name="Uhungarumlaut" unicode="&#x170;" horiz-adv-x="686" 
d="M521 271q-4 -26 -8 -44q-4 -21 -8 -37q-10 -34 -27 -54q-33 -39 -121 -39q-89 0 -112 39q-12 20 -12 54q-1 16 1 37q2 18 6 44l52 371h-131l-53 -372q-6 -40 -8 -70q-2 -33 0 -59q4 -55 28 -87q48 -65 214 -65q165 0 230 65q32 32 51 87q9 26 16 59q6 30 12 70l53 372
h-131zM332 689q11 12 26 27q5 5 12 13l3 3l3 3q4 4 6 7q15 15 25 26l28 28h-85l-68 -107h50zM506 689q11 12 26 27q5 5 12 13l3 3l3 3q4 4 6 7q15 15 25 26l28 28h-85l-68 -107h50z" />
    <glyph glyph-name="uhungarumlaut" unicode="&#x171;" horiz-adv-x="668" 
d="M521 271q-4 -26 -8 -44q-4 -21 -8 -37q-10 -34 -27 -54q-33 -39 -121 -39q-89 0 -112 39q-12 20 -12 54q-1 16 1 37q2 18 6 44l52 371h-131l-53 -372q-6 -40 -8 -70q-2 -33 0 -59q4 -55 28 -87q48 -65 214 -65q165 0 230 65q32 32 51 87q9 26 16 59q6 30 12 70l53 372
h-131zM323 689q11 12 26 27q5 5 12 13l3 3l3 3q4 4 6 7q15 15 25 26l28 28h-85l-68 -107h50zM497 689q11 12 26 27q5 5 12 13l3 3l3 3q4 4 6 7q15 15 25 26l28 28h-85l-68 -107h50z" />
    <glyph glyph-name="Uogonek" unicode="&#x172;" horiz-adv-x="686" 
d="M411 -116h-4h-17q-6 -1 -14 -1q-46 0 -67 14q-15 15 -12 32q1 19 14 27q17 11 61 13l-3 21q148 5 208 70q29 32 47 86q8 25 15 57q6 29 12 67l53 372h-131l-52 -371q-4 -26 -8 -44q-4 -21 -8 -37q-10 -34 -27 -54q-33 -39 -121 -39q-89 0 -112 39q-12 20 -12 54
q-1 16 1 37q2 18 6 44l52 371h-131l-53 -372q-6 -39 -8 -69q-2 -32 0 -58q3 -54 26 -86q45 -65 203 -68l1 -7q-88 -10 -94 -59q-5 -31 24 -52q32 -24 92 -24q33 0 59 3v34z" />
    <glyph glyph-name="uogonek" unicode="&#x173;" horiz-adv-x="668" 
d="M411 -116h-4h-17q-6 -1 -14 -1q-46 0 -67 14q-15 15 -12 32q1 19 14 27q17 11 61 13l-3 21q148 5 208 70q29 32 47 86q8 25 15 57q6 29 12 67l53 372h-131l-52 -371q-4 -26 -8 -44q-4 -21 -8 -37q-10 -34 -27 -54q-33 -39 -121 -39q-89 0 -112 39q-12 20 -12 54
q-1 16 1 37q2 18 6 44l52 371h-131l-53 -372q-6 -39 -8 -69q-2 -32 0 -58q3 -54 26 -86q45 -65 203 -68l1 -7q-88 -10 -94 -59q-5 -31 24 -52q32 -24 92 -24q33 0 59 3v34z" />
    <glyph glyph-name="Wcircumflex" unicode="&#x174;" horiz-adv-x="908" 
d="M725 0l229 642h-146l-147 -532h-6l-28 532h-169l-167 -532h-6l-8 532h-144l57 -642h165l165 482l40 -482h165zM682 707l-76 107h-80q-7 -7 -14 -15q-3 -3 -7 -6q-1 -2 -3 -4q-3 -2 -3 -3l-13 -13q-7 -7 -12 -13q-14 -13 -25 -25l-26 -28h72l71 84l47 -84h69z" />
    <glyph glyph-name="wcircumflex" unicode="&#x175;" horiz-adv-x="908" 
d="M725 0l229 642h-146l-147 -532h-6l-28 532h-169l-167 -532h-6l-8 532h-144l57 -642h165l165 482l40 -482h165zM682 707l-76 107h-80q-7 -7 -14 -15q-3 -3 -7 -6q-1 -2 -3 -4q-3 -2 -3 -3l-13 -13q-7 -7 -12 -13q-14 -13 -25 -25l-26 -28h72l71 84l47 -84h69z" />
    <glyph glyph-name="Ycircumflex" unicode="&#x176;" horiz-adv-x="618" 
d="M371 0l38 274l287 368h-139q-20 -23 -42 -49q-18 -21 -39 -49q-9 -11 -19 -24q-4 -6 -10 -13q-2 -3 -8.5 -11.5t-9.5 -12.5q-6 -7 -10 -12q-10 -14 -18 -24q-14 -35 -27 -67q-15 -36 -24 -60q-4 60 -12 127q-10 21 -23 48q-5 11 -11 25q-2 5 -5 12q-1 1 -3 6l-3 6
q-7 15 -11 25q-6 13 -11 24q-12 27 -22 49h-146q10 -22 22 -46q10 -22 21 -46q10 -21 22 -46q5 -11 11 -24q5 -9 11 -23q2 -3 5.5 -11t5.5 -12q6 -14 11 -23q12 -26 21 -46q12 -25 22 -46q11 -24 22 -45l-38 -274h132zM537 707l-76 107h-80q-7 -7 -14 -15q-3 -3 -7 -6
q-1 -2 -3 -4q-3 -2 -3 -3l-13 -13q-7 -7 -12 -13q-14 -13 -25 -25l-26 -28h72l71 84l47 -84h69z" />
    <glyph glyph-name="ycircumflex" unicode="&#x177;" horiz-adv-x="618" 
d="M371 0l38 274l287 368h-139q-20 -23 -42 -49q-18 -21 -39 -49q-9 -11 -19 -24q-4 -6 -10 -13q-2 -3 -8.5 -11.5t-9.5 -12.5q-6 -7 -10 -12q-10 -14 -18 -24q-14 -35 -27 -67q-15 -36 -24 -60q-4 60 -12 127q-10 21 -23 48q-5 11 -11 25q-2 5 -5 12q-1 1 -3 6l-3 6
q-7 15 -11 25q-6 13 -11 24q-12 27 -22 49h-146q10 -22 22 -46q10 -22 21 -46q10 -21 22 -46q5 -11 11 -24q5 -9 11 -23q2 -3 5.5 -11t5.5 -12q6 -14 11 -23q12 -26 21 -46q12 -25 22 -46q11 -24 22 -45l-38 -274h132zM537 707l-76 107h-80q-7 -7 -14 -15q-3 -3 -7 -6
q-1 -2 -3 -4q-3 -2 -3 -3l-13 -13q-7 -7 -12 -13q-14 -13 -25 -25l-26 -28h72l71 84l47 -84h69z" />
    <glyph glyph-name="Ydieresis" unicode="&#x178;" horiz-adv-x="618" 
d="M371 0l38 274l287 368h-139q-20 -23 -42 -49q-18 -21 -39 -49q-9 -11 -19 -24q-4 -6 -10 -13q-2 -3 -8.5 -11.5t-9.5 -12.5q-6 -7 -10 -12q-10 -14 -18 -24q-14 -35 -27 -67q-15 -36 -24 -60q-4 60 -12 127q-10 21 -23 48q-5 11 -11 25q-2 5 -5 12q-1 1 -3 6l-3 6
q-7 15 -11 25q-6 13 -11 24q-12 27 -22 49h-146q10 -22 22 -46q10 -22 21 -46q10 -21 22 -46q5 -11 11 -24q5 -9 11 -23q2 -3 5.5 -11t5.5 -12q6 -14 11 -23q12 -26 21 -46q12 -25 22 -46q11 -24 22 -45l-38 -274h132zM379 741l17 123h-110l-17 -123h110zM557 741l17 123
h-110l-17 -123h110z" />
    <glyph glyph-name="Zacute" unicode="&#x179;" horiz-adv-x="585" 
d="M545 0l25 108h-396l443 421l16 113h-485l-25 -107h359l-438 -418l-16 -117h517zM368 689q11 12 26 27q5 5 12 13l3 3l3 3q4 4 6 7q15 15 25 26l28 28h-85l-68 -107h50z" />
    <glyph glyph-name="zacute" unicode="&#x17a;" horiz-adv-x="585" 
d="M545 0l25 108h-396l443 421l16 113h-485l-25 -107h359l-438 -418l-16 -117h517zM368 689q11 12 26 27q5 5 12 13l3 3l3 3q4 4 6 7q15 15 25 26l28 28h-85l-68 -107h50z" />
    <glyph glyph-name="Zdotaccent" unicode="&#x17b;" horiz-adv-x="585" 
d="M545 0l25 108h-396l443 421l16 113h-485l-25 -107h359l-438 -418l-16 -117h517zM441 792h-78l-10 -73h78z" />
    <glyph glyph-name="zdotaccent" unicode="&#x17c;" horiz-adv-x="585" 
d="M545 0l25 108h-396l443 421l16 113h-485l-25 -107h359l-438 -418l-16 -117h517zM441 792h-78l-10 -73h78z" />
    <glyph glyph-name="Zcaron" unicode="&#x17d;" horiz-adv-x="585" 
d="M545 0l25 108h-396l443 421l16 113h-485l-25 -107h359l-438 -418l-16 -117h517zM543 795h-77l-73 -75l-53 75h-77l78 -102h96z" />
    <glyph glyph-name="zcaron" unicode="&#x17e;" horiz-adv-x="585" 
d="M545 0l25 108h-396l443 421l16 113h-485l-25 -107h359l-438 -418l-16 -117h517zM543 795h-77l-73 -75l-53 75h-77l78 -102h96z" />
    <glyph glyph-name="uni0186" unicode="&#x186;" horiz-adv-x="650" 
d="M27 31q39 -20 98 -31q62 -13 131 -13q38 0 70 3q35 3 64 10q64 13 109 47q49 38 79 102q33 68 48 172q14 103 0 171q-12 64 -50 102q-35 34 -95 48q-28 7 -62 10q-31 3 -69 3q-141 0 -231 -40l18 -103q1 0 7 2q6 1 9 2q11 4 20 6q24 7 46 12q28 6 54 10q31 4 60 4
q22 0 39 -2q20 -1 35 -5q36 -8 57 -29q23 -24 30 -68q8 -48 -2 -123q-11 -77 -33 -125q-19 -44 -49 -68q-27 -21 -65 -29q-16 -3 -37 -4q-16 -1 -39 -1q-29 0 -60 4q-26 4 -54 11q-23 5 -47 13q-9 3 -19 6q-6 2 -15 6z" />
    <glyph glyph-name="uni018E" unicode="&#x18e;" horiz-adv-x="566" 
d="M105 642l-25 -108h348l-24 -171h-263l-16 -107h263l-20 -149h-338l-25 -107h480l90 642h-470z" />
    <glyph glyph-name="uni018F" unicode="&#x18f;" horiz-adv-x="704" 
d="M109 364l-8 -51q-14 -97 -3 -162q11 -63 44 -100q32 -35 87 -51q26 -6 58 -9q30 -4 68 -4q35 0 64 3q32 4 60 10q60 15 103 50q47 38 77 104q33 70 48 175q14 101 2 167q-11 63 -47 99q-33 33 -91 47q-27 7 -61 10q-31 3 -70 3q-34 0 -73 -5q-37 -4 -74 -11
q-74 -15 -120 -35l19 -103q2 0 8 2l9 3q12 4 22 7q13 5 26.5 8.5t27.5 7.5q33 8 62 13q34 6 63 6q53 0 85 -7q35 -8 54 -27q38 -38 28 -150h-468zM561 256q-11 -57 -29 -91q-18 -32 -43 -49q-22 -15 -54 -20q-14 -2 -32 -3h-33q-43 0 -69 5q-29 7 -46 24q-34 34 -26 134h332
z" />
    <glyph glyph-name="uni0190" unicode="&#x190;" horiz-adv-x="603" 
d="M549 131q-36 -12 -100 -23q-34 -6 -66 -9q-36 -3 -64 -3h-30q-14 0 -24 1q-23 2 -34 8q-25 12 -18 56q11 76 37 97q12 10 34 13q9 1 22 2q8 0 26 1h161l14 97h-161q-32 0 -48 3q-19 3 -29 14q-19 20 -9 93q5 39 32 53q24 12 90 12q28 0 63 -4q31 -3 63 -9q61 -11 94 -22
l48 103q-38 18 -111 29q-67 10 -140 10q-75 0 -120 -8q-50 -8 -80 -26q-57 -35 -71 -135q-11 -70 9 -108q10 -18 26 -31q15 -12 38 -23q-27 -12 -44 -23q-21 -13 -36 -31q-32 -38 -41 -107q-15 -101 34 -137q26 -19 73 -27q45 -8 119 -8t143 10q36 4 65 11q31 8 53 18z" />
    <glyph glyph-name="florin" unicode="&#x192;" horiz-adv-x="475" 
d="M110 -68q-7 -17 -18 -23q-9 -5 -27 -5q-11 0 -28 3q-4 1 -15.5 2.5t-18.5 2.5l-27 -100q49 -9 93 -9q63 0 99 24q37 26 59 87l157 488h68q3 10 7 21q3 8 8 20q3 7 3 9q2 6 4 11q5 11 9 23h-69l13 39q8 18 19 25q9 6 28 6q8 0 12 -1h15q18 -2 37 -7l27 100q-55 14 -89 14
q-77 0 -115 -30q-19 -15 -33 -40q-13 -22 -25 -58l-14 -48h-67l-30 -84h66z" />
    <glyph glyph-name="uni019F" unicode="&#x19f;" 
d="M377 -11q35 0 65 3q33 3 61 8q64 14 109 47q51 37 84 101q35 69 50 174q14 104 -2 173q-14 64 -54 101q-36 33 -96 47q-26 6 -59 9q-29 3 -64 3q-36 0 -66 -3q-33 -3 -62 -9q-31 -7 -57 -18q-28 -12 -52 -29q-51 -37 -83 -101q-35 -69 -49 -173q-15 -105 0 -174
q14 -64 55 -101q36 -33 96 -47q26 -5 59 -8q29 -3 65 -3v0zM392 95h-19h-17q-20 1 -34 3q-35 5 -56 23q-24 20 -33 61q-9 45 0 119h376q-13 -74 -36 -119q-20 -41 -50 -61q-25 -18 -62 -23q-15 -2 -34 -3h-18h-17v0zM456 549q11 0 17 -1h17q19 -1 33 -3q34 -5 55 -22
q25 -21 34 -61q10 -44 3 -116h-376q12 72 34 116q21 41 50 61q26 17 62 22q15 2 34 3h18q7 1 19 1v0z" />
    <glyph glyph-name="Ohorn" unicode="&#x1a0;" 
d="M738 518q-14 41 -40 69q-25 26 -61 42q-33 14 -77 20q-38 6 -89 6q-36 0 -66 -3q-33 -3 -62 -9q-31 -7 -57 -18q-28 -12 -52 -29q-51 -37 -83 -101q-35 -69 -49 -173q-15 -105 0 -174q14 -64 55 -101q36 -33 96 -47q26 -5 59 -8q29 -3 65 -3q35 0 65 3q33 3 61 8
q64 14 109 47q51 37 84 101q35 69 50 174q10 84 4 137q28 6 50 37q25 35 33 89q5 35 5 59l-35 -5v-4q-2 -18 -4 -31q-6 -46 -23 -69q-19 -17 -35 -17h-3zM456 549q11 0 18 -1h17q20 -1 34 -3q36 -6 57 -25q24 -23 32 -68q9 -50 -2 -130q-12 -82 -34 -131q-21 -45 -51 -68
q-26 -19 -64 -25q-15 -2 -35 -3h-18h-18h-19h-19q-19 1 -34 3q-36 6 -56 25q-24 23 -32 68q-8 49 4 131q11 81 33 130q20 45 51 68q25 19 63 25q15 2 35 3h19q6 1 19 1v0z" />
    <glyph glyph-name="ohorn" unicode="&#x1a1;" 
d="M738 518q-14 41 -40 69q-25 26 -61 42q-33 14 -77 20q-38 6 -89 6q-36 0 -66 -3q-33 -3 -62 -9q-31 -7 -57 -18q-28 -12 -52 -29q-51 -37 -83 -101q-35 -69 -49 -173q-15 -105 0 -174q14 -64 55 -101q36 -33 96 -47q26 -5 59 -8q29 -3 65 -3q35 0 65 3q33 3 61 8
q64 14 109 47q51 37 84 101q35 69 50 174q10 84 4 137q28 6 50 37q25 35 33 89q5 35 5 59l-35 -5v-4q-2 -18 -4 -31q-6 -46 -23 -69q-19 -17 -35 -17h-3zM456 549q11 0 18 -1h17q20 -1 34 -3q36 -6 57 -25q24 -23 32 -68q9 -50 -2 -130q-12 -82 -34 -131q-21 -45 -51 -68
q-26 -19 -64 -25q-15 -2 -35 -3h-18h-18h-19h-19q-19 1 -34 3q-36 6 -56 25q-24 23 -32 68q-8 49 4 131q11 81 33 130q20 45 51 68q25 19 63 25q15 2 35 3h19q6 1 19 1v0z" />
    <glyph glyph-name="uni01A7" unicode="&#x1a7;" horiz-adv-x="624" 
d="M175 512q15 5 38 11q25 6 53 11q30 6 60 9q33 4 62 4q61 0 88 -15q29 -17 24 -54q-7 -44 -18 -55q-7 -7 -22 -13q-6 -2 -16 -5q-4 -1 -10 -3q-2 -1 -6 -2q-6 -2 -5 -1q-14 -4 -30 -7q-12 -3 -29 -7q-4 0 -15 -3q-9 -2 -14 -3q-17 -3 -29 -6q-32 -7 -56 -14
q-29 -8 -51 -18q-26 -11 -46 -25q-22 -15 -38 -34q-35 -42 -45 -105q-8 -57 5 -95q13 -36 45 -58q30 -19 78 -27q22 -4 49 -6q24 -2 55 -2q70 0 152 14q84 14 131 35q-2 11 -5 28v7l-1 6q-1 8 -2 13q-2 15 -4 25q-2 14 -4 26q-18 -8 -42 -15q-29 -8 -60 -15q-37 -8 -75 -12
q-43 -4 -84 -4h-27q-14 0 -24 1q-24 2 -37 8q-30 15 -22 67q5 39 25 54q9 7 26 12q7 2 17 5q7 1 22 5q4 0 10 2q1 0 6 1q3 1 5 1q12 2 20 4q23 5 39 8q40 9 67 16q32 8 56 17q26 9 45 21q76 43 93 160q5 42 -9 76q-13 32 -43 55q-58 44 -159 44q-74 0 -144 -10
q-36 -5 -65 -12q-31 -8 -52 -17z" />
    <glyph glyph-name="uni01A8" unicode="&#x1a8;" horiz-adv-x="624" 
d="M175 512q15 5 38 11q25 6 53 11q30 6 60 9q33 4 62 4q61 0 88 -15q29 -17 24 -54q-7 -44 -18 -55q-7 -7 -22 -13q-6 -2 -16 -5q-4 -1 -10 -3q-2 -1 -6 -2q-6 -2 -5 -1q-14 -4 -30 -7q-12 -3 -29 -7q-4 0 -15 -3q-9 -2 -14 -3q-17 -3 -29 -6q-32 -7 -56 -14
q-29 -8 -51 -18q-26 -11 -46 -25q-22 -15 -38 -34q-35 -42 -45 -105q-8 -57 5 -95q13 -36 45 -58q30 -19 78 -27q22 -4 49 -6q24 -2 55 -2q70 0 152 14q84 14 131 35q-2 11 -5 28v7l-1 6q-1 8 -2 13q-2 15 -4 25q-2 14 -4 26q-18 -8 -42 -15q-29 -8 -60 -15q-37 -8 -75 -12
q-43 -4 -84 -4h-27q-14 0 -24 1q-24 2 -37 8q-30 15 -22 67q5 39 25 54q9 7 26 12q7 2 17 5q7 1 22 5q4 0 10 2q1 0 6 1q3 1 5 1q12 2 20 4q23 5 39 8q40 9 67 16q32 8 56 17q26 9 45 21q76 43 93 160q5 42 -9 76q-13 32 -43 55q-58 44 -159 44q-74 0 -144 -10
q-36 -5 -65 -12q-31 -8 -52 -17z" />
    <glyph glyph-name="Uhorn" unicode="&#x1af;" horiz-adv-x="686" 
d="M521 271q-4 -26 -8 -44q-4 -21 -8 -37q-10 -34 -27 -54q-33 -39 -121 -39q-89 0 -112 39q-12 20 -12 54q-1 16 1 37q2 18 6 44l52 371h-131l-53 -372q-6 -40 -8 -70q-2 -33 0 -59q4 -55 28 -87q48 -65 214 -65q165 0 230 65q32 32 51 87q9 26 16 59q6 30 12 70l27 188h4
q31 0 57 32q28 35 37 95q5 35 5 59l-35 -5v-4q-2 -18 -4 -31q-6 -46 -23 -69q-18 -16 -33 -17l18 124h-131z" />
    <glyph glyph-name="uhorn" unicode="&#x1b0;" horiz-adv-x="668" 
d="M521 271q-4 -26 -8 -44q-4 -21 -8 -37q-10 -34 -27 -54q-33 -39 -121 -39q-89 0 -112 39q-12 20 -12 54q-1 16 1 37q2 18 6 44l52 371h-131l-53 -372q-6 -40 -8 -70q-2 -33 0 -59q4 -55 28 -87q48 -65 214 -65q165 0 230 65q32 32 51 87q9 26 16 59q6 30 12 70l27 188h4
q31 0 57 32q28 35 37 95q5 35 5 59l-35 -5v-4q-2 -18 -4 -31q-6 -46 -23 -69q-18 -16 -33 -17l18 124h-131z" />
    <glyph glyph-name="uni01C7" unicode="&#x1c7;" horiz-adv-x="854" 
d="M522 0l25 108h-322l75 534h-131l-90 -642h443zM532 -5q37 0 65 2q30 2 54 5q50 8 81 30q59 40 78 169l62 441h-131l-63 -445q-10 -68 -38 -86q-13 -9 -36 -12q-11 -1 -25 -1h-28z" />
    <glyph glyph-name="uni01C8" unicode="&#x1c8;" horiz-adv-x="854" 
d="M522 0l25 108h-322l75 534h-131l-90 -642h443zM532 -5q37 0 65 2q30 2 54 5q50 8 81 30q59 40 78 169l62 441h-131l-63 -445q-10 -68 -38 -86q-13 -9 -36 -12q-11 -1 -25 -1h-28z" />
    <glyph glyph-name="uni01C9" unicode="&#x1c9;" horiz-adv-x="854" 
d="M522 0l25 108h-322l75 534h-131l-90 -642h443zM532 -5q37 0 65 2q30 2 54 5q50 8 81 30q59 40 78 169l62 441h-131l-63 -445q-10 -68 -38 -86q-13 -9 -36 -12q-11 -1 -25 -1h-28z" />
    <glyph glyph-name="uni01CA" unicode="&#x1ca;" horiz-adv-x="1007" 
d="M605 0l90 642h-127l-60 -422l-199 422h-140l-90 -642h128l59 424l200 -424h139zM685 -5q37 0 65 2q30 2 54 5q50 8 81 30q59 40 78 169l62 441h-131l-63 -445q-10 -68 -38 -86q-13 -9 -36 -12q-11 -1 -25 -1h-28z" />
    <glyph glyph-name="uni01CB" unicode="&#x1cb;" horiz-adv-x="1007" 
d="M605 0l90 642h-127l-60 -422l-199 422h-140l-90 -642h128l59 424l200 -424h139zM685 -5q37 0 65 2q30 2 54 5q50 8 81 30q59 40 78 169l62 441h-131l-63 -445q-10 -68 -38 -86q-13 -9 -36 -12q-11 -1 -25 -1h-28z" />
    <glyph glyph-name="uni01CC" unicode="&#x1cc;" horiz-adv-x="1007" 
d="M605 0l90 642h-127l-60 -422l-199 422h-140l-90 -642h128l59 424l200 -424h139zM685 -5q37 0 65 2q30 2 54 5q50 8 81 30q59 40 78 169l62 441h-131l-63 -445q-10 -68 -38 -86q-13 -9 -36 -12q-11 -1 -25 -1h-28z" />
    <glyph glyph-name="uni01CD" unicode="&#x1cd;" horiz-adv-x="657" 
d="M345 642l-317 -642h144l80 181h201l31 -181h144l-137 642h-146zM368 441l33 101h6l3 -101l28 -167h-144zM466 707l106 107h-69l-71 -84l-47 84h-72q9 -15 18 -29q8 -12 18 -25q6 -10 17 -26l3 -3l2 -4q3 -3 5 -6q5 -8 10 -14h80z" />
    <glyph glyph-name="uni01CE" unicode="&#x1ce;" horiz-adv-x="703" 
d="M673 103q-33 4 -43 24q-11 22 -4 70l16 112l2 16q29 206 -22 271q-27 33 -81 47q-25 6 -60 9q-31 3 -73 3q-143 0 -236 -42l18 -103q9 3 16 5q11 3 20 6q25 7 49 12q29 7 56 10q31 5 60 5q23 0 37 -1q18 -1 30 -3q28 -4 42 -17q28 -24 21 -116h-158q-61 0 -107 -11
q-50 -11 -86 -35q-39 -27 -62 -69q-25 -45 -34 -108q-9 -57 5 -97q12 -37 44 -61q29 -21 77 -30q43 -10 104 -10q143 0 221 109q3 -49 31 -71q28 -23 91 -29zM507 301q-4 -27 -8 -47q-5 -23 -11 -41q-12 -39 -31 -63q-42 -52 -137 -52q-33 0 -53 2q-24 4 -39 13
q-34 19 -26 75q5 37 18 61q12 22 31 35q18 11 44 15q20 4 53 4h159v-2zM489 707l106 107h-69l-71 -84l-47 84h-72q9 -15 18 -29q8 -12 18 -25q6 -10 17 -26l3 -3l2 -4q3 -3 5 -6q5 -8 10 -14h80z" />
    <glyph glyph-name="uni01CF" unicode="&#x1cf;" horiz-adv-x="241" 
d="M181 0l90 642h-132l-90 -642h132zM258 707l106 107h-69l-71 -84l-47 84h-72q9 -15 18 -29q8 -12 18 -25q6 -10 17 -26l3 -3l2 -4q3 -3 5 -6q5 -8 10 -14h80z" />
    <glyph glyph-name="uni01D0" unicode="&#x1d0;" horiz-adv-x="241" 
d="M181 0l90 642h-132l-90 -642h132zM258 707l106 107h-69l-71 -84l-47 84h-72q9 -15 18 -29q8 -12 18 -25q6 -10 17 -26l3 -3l2 -4q3 -3 5 -6q5 -8 10 -14h80z" />
    <glyph glyph-name="uni01D1" unicode="&#x1d1;" 
d="M456 549q11 0 18 -1h17q20 -1 34 -3q36 -6 57 -25q24 -23 32 -68q9 -50 -2 -130q-12 -82 -34 -131q-21 -45 -51 -68q-26 -19 -64 -25q-15 -2 -35 -3h-18h-18h-19h-19q-19 1 -34 3q-36 6 -56 25q-24 23 -32 68q-8 49 4 131q11 81 33 130q20 45 51 68q25 19 63 25
q15 2 35 3h19q6 1 19 1v0zM102 322q-15 -105 0 -174q14 -64 55 -101q36 -33 96 -47q26 -5 59 -8q29 -3 65 -3q35 0 65 3q33 3 61 8q64 14 109 47q51 37 84 101q35 69 50 174q14 104 -2 173q-14 64 -54 101q-36 33 -96 47q-26 6 -59 9q-29 3 -64 3q-36 0 -66 -3
q-33 -3 -62 -9q-31 -7 -57 -18q-28 -12 -52 -29q-51 -37 -83 -101q-35 -69 -49 -173v0zM516 707l106 107h-69l-71 -84l-47 84h-72q9 -15 18 -29q8 -12 18 -25q6 -10 17 -26l3 -3l2 -4q3 -3 5 -6q5 -8 10 -14h80z" />
    <glyph glyph-name="uni01D2" unicode="&#x1d2;" 
d="M456 549q11 0 18 -1h17q20 -1 34 -3q36 -6 57 -25q24 -23 32 -68q9 -50 -2 -130q-12 -82 -34 -131q-21 -45 -51 -68q-26 -19 -64 -25q-15 -2 -35 -3h-18h-18h-19h-19q-19 1 -34 3q-36 6 -56 25q-24 23 -32 68q-8 49 4 131q11 81 33 130q20 45 51 68q25 19 63 25
q15 2 35 3h19q6 1 19 1v0zM102 322q-15 -105 0 -174q14 -64 55 -101q36 -33 96 -47q26 -5 59 -8q29 -3 65 -3q35 0 65 3q33 3 61 8q64 14 109 47q51 37 84 101q35 69 50 174q14 104 -2 173q-14 64 -54 101q-36 33 -96 47q-26 6 -59 9q-29 3 -64 3q-36 0 -66 -3
q-33 -3 -62 -9q-31 -7 -57 -18q-28 -12 -52 -29q-51 -37 -83 -101q-35 -69 -49 -173v0zM516 707l106 107h-69l-71 -84l-47 84h-72q9 -15 18 -29q8 -12 18 -25q6 -10 17 -26l3 -3l2 -4q3 -3 5 -6q5 -8 10 -14h80z" />
    <glyph glyph-name="uni01D3" unicode="&#x1d3;" horiz-adv-x="686" 
d="M521 271q-4 -26 -8 -44q-4 -21 -8 -37q-10 -34 -27 -54q-33 -39 -121 -39q-89 0 -112 39q-12 20 -12 54q-1 16 1 37q2 18 6 44l52 371h-131l-53 -372q-6 -40 -8 -70q-2 -33 0 -59q4 -55 28 -87q48 -65 214 -65q165 0 230 65q32 32 51 87q9 26 16 59q6 30 12 70l53 372
h-131zM480 707l106 107h-69l-71 -84l-47 84h-72q9 -15 18 -29q8 -12 18 -25q6 -10 17 -26l3 -3l2 -4q3 -3 5 -6q5 -8 10 -14h80z" />
    <glyph glyph-name="uni01D4" unicode="&#x1d4;" horiz-adv-x="668" 
d="M521 271q-4 -26 -8 -44q-4 -21 -8 -37q-10 -34 -27 -54q-33 -39 -121 -39q-89 0 -112 39q-12 20 -12 54q-1 16 1 37q2 18 6 44l52 371h-131l-53 -372q-6 -40 -8 -70q-2 -33 0 -59q4 -55 28 -87q48 -65 214 -65q165 0 230 65q32 32 51 87q9 26 16 59q6 30 12 70l53 372
h-131zM471 707l106 107h-69l-71 -84l-47 84h-72q9 -15 18 -29q8 -12 18 -25q6 -10 17 -26l3 -3l2 -4q3 -3 5 -6q5 -8 10 -14h80z" />
    <glyph glyph-name="uni01D5" unicode="&#x1d5;" horiz-adv-x="686" 
d="M521 271q-4 -26 -8 -44q-4 -21 -8 -37q-10 -34 -27 -54q-33 -39 -121 -39q-89 0 -112 39q-12 20 -12 54q-1 16 1 37q2 18 6 44l52 371h-131l-53 -372q-6 -40 -8 -70q-2 -33 0 -59q4 -55 28 -87q48 -65 214 -65q165 0 230 65q32 32 51 87q9 26 16 59q6 30 12 70l53 372
h-131zM409 723l17 123h-110l-17 -123h110zM587 723l17 123h-110l-17 -123h110zM598 845l6 38h-275l-6 -38h275z" />
    <glyph glyph-name="uni01D6" unicode="&#x1d6;" horiz-adv-x="668" 
d="M521 271q-4 -26 -8 -44q-4 -21 -8 -37q-10 -34 -27 -54q-33 -39 -121 -39q-89 0 -112 39q-12 20 -12 54q-1 16 1 37q2 18 6 44l52 371h-131l-53 -372q-6 -40 -8 -70q-2 -33 0 -59q4 -55 28 -87q48 -65 214 -65q165 0 230 65q32 32 51 87q9 26 16 59q6 30 12 70l53 372
h-131zM400 723l17 123h-110l-17 -123h110zM578 723l17 123h-110l-17 -123h110zM589 845l6 38h-275l-6 -38h275z" />
    <glyph glyph-name="uni01D7" unicode="&#x1d7;" horiz-adv-x="686" 
d="M521 271q-4 -26 -8 -44q-4 -21 -8 -37q-10 -34 -27 -54q-33 -39 -121 -39q-89 0 -112 39q-12 20 -12 54q-1 16 1 37q2 18 6 44l52 371h-131l-53 -372q-6 -40 -8 -70q-2 -33 0 -59q4 -55 28 -87q48 -65 214 -65q165 0 230 65q32 32 51 87q9 26 16 59q6 30 12 70l53 372
h-131zM409 723l17 123h-110l-17 -123h110zM587 723l17 123h-110l-17 -123h110zM444 857q5 6 13 13q4 5 12 14q8 8 12 13l13 13q13 14 25 26q13 14 28 28h-85l-68 -107h50z" />
    <glyph glyph-name="uni01D8" unicode="&#x1d8;" horiz-adv-x="668" 
d="M521 271q-4 -26 -8 -44q-4 -21 -8 -37q-10 -34 -27 -54q-33 -39 -121 -39q-89 0 -112 39q-12 20 -12 54q-1 16 1 37q2 18 6 44l52 371h-131l-53 -372q-6 -40 -8 -70q-2 -33 0 -59q4 -55 28 -87q48 -65 214 -65q165 0 230 65q32 32 51 87q9 26 16 59q6 30 12 70l53 372
h-131zM400 723l17 123h-110l-17 -123h110zM578 723l17 123h-110l-17 -123h110zM435 857q5 6 13 13q4 5 12 14q8 8 12 13l13 13q13 14 25 26q13 14 28 28h-85l-68 -107h50z" />
    <glyph glyph-name="uni01D9" unicode="&#x1d9;" horiz-adv-x="686" 
d="M521 271q-4 -26 -8 -44q-4 -21 -8 -37q-10 -34 -27 -54q-33 -39 -121 -39q-89 0 -112 39q-12 20 -12 54q-1 16 1 37q2 18 6 44l52 371h-131l-53 -372q-6 -40 -8 -70q-2 -33 0 -59q4 -55 28 -87q48 -65 214 -65q165 0 230 65q32 32 51 87q9 26 16 59q6 30 12 70l53 372
h-131zM409 723l17 123h-110l-17 -123h110zM587 723l17 123h-110l-17 -123h110zM501 857l106 107h-69l-71 -84l-47 84h-72q9 -15 18 -29q8 -12 18 -25q6 -10 17 -26l3 -3l2 -4q3 -3 5 -6q5 -8 10 -14h80z" />
    <glyph glyph-name="uni01DA" unicode="&#x1da;" horiz-adv-x="668" 
d="M521 271q-4 -26 -8 -44q-4 -21 -8 -37q-10 -34 -27 -54q-33 -39 -121 -39q-89 0 -112 39q-12 20 -12 54q-1 16 1 37q2 18 6 44l52 371h-131l-53 -372q-6 -40 -8 -70q-2 -33 0 -59q4 -55 28 -87q48 -65 214 -65q165 0 230 65q32 32 51 87q9 26 16 59q6 30 12 70l53 372
h-131zM400 723l17 123h-110l-17 -123h110zM578 723l17 123h-110l-17 -123h110zM492 857l106 107h-69l-71 -84l-47 84h-72q9 -15 18 -29q8 -12 18 -25q6 -10 17 -26l3 -3l2 -4q3 -3 5 -6q5 -8 10 -14h80z" />
    <glyph glyph-name="uni01DB" unicode="&#x1db;" horiz-adv-x="686" 
d="M521 271q-4 -26 -8 -44q-4 -21 -8 -37q-10 -34 -27 -54q-33 -39 -121 -39q-89 0 -112 39q-12 20 -12 54q-1 16 1 37q2 18 6 44l52 371h-131l-53 -372q-6 -40 -8 -70q-2 -33 0 -59q4 -55 28 -87q48 -65 214 -65q165 0 230 65q32 32 51 87q9 26 16 59q6 30 12 70l53 372
h-131zM409 723l17 123h-110l-17 -123h110zM587 723l17 123h-110l-17 -123h110zM532 857l-38 107h-86l79 -107h45z" />
    <glyph glyph-name="uni01DC" unicode="&#x1dc;" horiz-adv-x="668" 
d="M521 271q-4 -26 -8 -44q-4 -21 -8 -37q-10 -34 -27 -54q-33 -39 -121 -39q-89 0 -112 39q-12 20 -12 54q-1 16 1 37q2 18 6 44l52 371h-131l-53 -372q-6 -40 -8 -70q-2 -33 0 -59q4 -55 28 -87q48 -65 214 -65q165 0 230 65q32 32 51 87q9 26 16 59q6 30 12 70l53 372
h-131zM400 723l17 123h-110l-17 -123h110zM578 723l17 123h-110l-17 -123h110zM523 857l-38 107h-86l79 -107h45z" />
    <glyph glyph-name="uni01DD" unicode="&#x1dd;" horiz-adv-x="704" 
d="M109 364l-8 -51q-14 -97 -3 -162q11 -63 44 -100q32 -35 87 -51q26 -6 58 -9q30 -4 68 -4q35 0 64 3q32 4 60 10q60 15 103 50q47 38 77 104q33 70 48 175q14 101 2 167q-11 63 -47 99q-33 33 -91 47q-27 7 -61 10q-31 3 -70 3q-34 0 -73 -5q-37 -4 -74 -11
q-74 -15 -120 -35l19 -103q2 0 8 2l9 3q12 4 22 7q13 5 26.5 8.5t27.5 7.5q33 8 62 13q34 6 63 6q53 0 85 -7q35 -8 54 -27q38 -38 28 -150h-468zM561 256q-11 -57 -29 -91q-18 -32 -43 -49q-22 -15 -54 -20q-14 -2 -32 -3h-33q-43 0 -69 5q-29 7 -46 24q-34 34 -26 134h332
z" />
    <glyph glyph-name="uni01DE" unicode="&#x1de;" horiz-adv-x="657" 
d="M345 642l-317 -642h144l80 181h201l31 -181h144l-137 642h-146zM368 441l33 101h6l3 -101l28 -167h-144zM394 723l17 123h-110l-17 -123h110zM572 723l17 123h-110l-17 -123h110zM584 845l6 38h-275l-6 -38h275z" />
    <glyph glyph-name="uni01DF" unicode="&#x1df;" horiz-adv-x="657" 
d="M345 642l-317 -642h144l80 181h201l31 -181h144l-137 642h-146zM368 441l33 101h6l3 -101l28 -167h-144zM394 723l17 123h-110l-17 -123h110zM572 723l17 123h-110l-17 -123h110zM584 845l6 38h-275l-6 -38h275z" />
    <glyph glyph-name="uni01E0" unicode="&#x1e0;" horiz-adv-x="657" 
d="M345 642l-317 -642h144l80 181h201l31 -181h144l-137 642h-146zM368 441l33 101h6l3 -101l28 -167h-144zM507 860h-118l-17 -123h118zM584 845l6 38h-275l-6 -38h275z" />
    <glyph glyph-name="uni01E1" unicode="&#x1e1;" horiz-adv-x="703" 
d="M673 103q-33 4 -43 24q-11 22 -4 70l16 112l2 16q29 206 -22 271q-27 33 -81 47q-25 6 -60 9q-31 3 -73 3q-143 0 -236 -42l18 -103q9 3 16 5q11 3 20 6q25 7 49 12q29 7 56 10q31 5 60 5q23 0 37 -1q18 -1 30 -3q28 -4 42 -17q28 -24 21 -116h-158q-61 0 -107 -11
q-50 -11 -86 -35q-39 -27 -62 -69q-25 -45 -34 -108q-9 -57 5 -97q12 -37 44 -61q29 -21 77 -30q43 -10 104 -10q143 0 221 109q3 -49 31 -71q28 -23 91 -29zM507 301q-4 -27 -8 -47q-5 -23 -11 -41q-12 -39 -31 -63q-42 -52 -137 -52q-33 0 -53 2q-24 4 -39 13
q-34 19 -26 75q5 37 18 61q12 22 31 35q18 11 44 15q20 4 53 4h159v-2zM530 860h-118l-17 -123h118zM607 845l6 38h-275l-6 -38h275z" />
    <glyph glyph-name="uni01E2" unicode="&#x1e2;" horiz-adv-x="819" 
d="M802 0l25 108h-288l24 176h203l14 97h-203l22 154h278l25 107h-527l-347 -642h134l95 181h160l-25 -181h410zM430 272h-119l97 169l51 91h6l1 -3zM651 745l6 38h-275l-6 -38h275z" />
    <glyph glyph-name="uni01E3" unicode="&#x1e3;" horiz-adv-x="1193" 
d="M1083 141l-9 -3q-8 -3 -9 -3q-12 -4 -22 -7q-13 -5 -25 -8q-15 -4 -29 -8q-32 -8 -61 -13q-34 -5 -62 -5q-33 0 -57 1q-26 2 -46 6q-42 8 -64 29q-44 40 -29 163h499l5 36q13 96 2 161q-10 63 -43 100q-32 35 -87 51q-26 7 -58 10q-30 4 -67 4q-46 0 -82 -5
q-41 -6 -74 -18q-36 -13 -65 -34q-30 -23 -53 -56q-18 66 -76 91q-28 12 -70 17q-37 5 -93 5q-143 0 -236 -42l18 -103q9 3 16 5q11 3 20 6q25 7 49 12q29 7 56 10q31 5 60 5q27 0 44 -1q22 -1 37 -3q34 -4 51 -17q35 -26 28 -121h-188q-61 0 -107 -11q-50 -11 -86 -34
q-39 -26 -63 -67q-25 -44 -33 -106q-9 -57 5 -97q12 -37 44 -61q29 -21 77 -30q43 -10 104 -10q163 0 251 109q1 1 4 6q2 4 4 6q4 7 8 11q21 -78 91 -109q32 -14 77 -20q40 -6 97 -6q33 0 72 5q36 4 73 10q74 15 121 36zM537 299q-5 -26 -10 -47q-5 -22 -12 -40
q-14 -39 -37 -63q-48 -51 -158 -51q-33 0 -53 2q-24 4 -39 13q-34 19 -26 75q9 67 49 91q17 11 43 15q20 4 53 4h189zM684 391q11 54 33 87q19 31 49 48q26 14 64 19q16 2 36 3q16 1 40 1q42 0 68 -6q29 -7 45 -23q34 -34 27 -129h-362zM838 745l6 38h-275l-6 -38h275z" />
    <glyph glyph-name="uni01E4" unicode="&#x1e4;" horiz-adv-x="711" 
d="M516 115q-23 -8 -55 -13q-35 -5 -64 -5q-59 0 -91 8q-37 9 -55 33q-36 46 -16 188q10 75 32 122q19 44 49 67q27 20 65 27q16 3 37 5q16 1 40 1q28 0 58 -4q26 -4 53 -10q22 -6 44 -13q17 -5 34 -11l48 103q-84 42 -224 42q-40 0 -71 -3q-35 -3 -64 -9q-65 -14 -109 -47
q-49 -37 -79 -101q-33 -67 -47 -170q-15 -106 -4 -173q10 -66 46 -102q32 -34 91 -48q27 -6 61 -9q31 -3 72 -3q71 0 147 15.5t120 39.5l20 141h102l5 38h-102l23 162h-263l-25 -107h145l-8 -55h-105l-5 -38h105z" />
    <glyph glyph-name="uni01E5" unicode="&#x1e5;" horiz-adv-x="718" 
d="M516 115q-23 -8 -55 -13q-35 -5 -64 -5q-59 0 -91 8q-37 9 -55 33q-36 46 -16 188q10 75 32 122q19 44 49 67q27 20 65 27q16 3 37 5q16 1 40 1q28 0 58 -4q26 -4 53 -10q22 -6 44 -13q17 -5 34 -11l48 103q-84 42 -224 42q-40 0 -71 -3q-35 -3 -64 -9q-65 -14 -109 -47
q-49 -37 -79 -101q-33 -67 -47 -170q-15 -106 -4 -173q10 -66 46 -102q32 -34 91 -48q27 -6 61 -9q31 -3 72 -3q71 0 147 15.5t120 39.5l20 141h102l5 38h-102l23 162h-263l-25 -107h145l-8 -55h-105l-5 -38h105z" />
    <glyph glyph-name="Gcaron" unicode="&#x1e6;" horiz-adv-x="672" 
d="M516 115q-23 -8 -55 -13q-35 -5 -64 -5q-59 0 -91 8q-37 9 -55 33q-36 46 -16 188q10 75 32 122q19 44 49 67q27 20 65 27q16 3 37 5q16 1 40 1q28 0 58 -4q26 -4 53 -10q22 -6 44 -13q17 -5 34 -11l48 103q-84 42 -224 42q-40 0 -71 -3q-35 -3 -64 -9q-65 -14 -109 -47
q-49 -37 -79 -101q-33 -67 -47 -170q-15 -106 -4 -173q10 -66 46 -102q32 -34 91 -48q27 -6 61 -9q31 -3 72 -3q71 0 147 15.5t120 39.5l48 341h-263l-25 -107h145zM473 707l106 107h-69l-71 -84l-47 84h-72q9 -15 18 -29q8 -12 18 -25q6 -10 17 -26l3 -3l2 -4q3 -3 5 -6
q5 -8 10 -14h80z" />
    <glyph glyph-name="gcaron" unicode="&#x1e7;" horiz-adv-x="672" 
d="M516 115q-23 -8 -55 -13q-35 -5 -64 -5q-59 0 -91 8q-37 9 -55 33q-36 46 -16 188q10 75 32 122q19 44 49 67q27 20 65 27q16 3 37 5q16 1 40 1q28 0 58 -4q26 -4 53 -10q22 -6 44 -13q17 -5 34 -11l48 103q-84 42 -224 42q-40 0 -71 -3q-35 -3 -64 -9q-65 -14 -109 -47
q-49 -37 -79 -101q-33 -67 -47 -170q-15 -106 -4 -173q10 -66 46 -102q32 -34 91 -48q27 -6 61 -9q31 -3 72 -3q71 0 147 15.5t120 39.5l48 341h-263l-25 -107h145zM473 707l106 107h-69l-71 -84l-47 84h-72q9 -15 18 -29q8 -12 18 -25q6 -10 17 -26l3 -3l2 -4q3 -3 5 -6
q5 -8 10 -14h80z" />
    <glyph glyph-name="uni01E8" unicode="&#x1e8;" horiz-adv-x="675" 
d="M466 0h154q-13 18 -26 39q-11 19 -25 40q-11 18 -25 40l-12 20q-6 9 -13 21q-3 4 -6 10q-2 2 -7 10q-8 13 -12 20q-15 23 -25 40q-14 22 -25 41q-14 21 -25 40q33 36 72 79q18 19 37 41q17 18 36 40q16 17 37 40q7 8 18 20q1 1 1 2q1 0 1 1q1 0 3 2q1 2 2 3.5t2 1.5
q5 6 9 11q11 11 18 20q10 10 18 20q20 21 37 40h-154l-235 -268h-59l38 268h-131l-90 -642h131l37 267h59zM475 707l106 107h-69l-71 -84l-47 84h-72q9 -15 18 -29q8 -12 18 -25q6 -10 17 -26l3 -3l2 -4q3 -3 5 -6q5 -8 10 -14h80z" />
    <glyph glyph-name="uni01E9" unicode="&#x1e9;" horiz-adv-x="680" 
d="M417 93q22 -38 47 -59q23 -21 49 -30q24 -7 54 -7q13 0 29 1q12 1 31 2l24 93q-3 -1 -6 -1h-6h-12q-14 -1 -24 0q-28 2 -39 13l-151 216q33 36 72 79q18 19 37 41q17 18 36 40q16 17 37 40q7 8 18 20q1 1 1 2q1 0 1 1q1 0 3 2q1 2 2 3.5t2 1.5q5 6 9 11q11 11 18 20
q10 10 18 20q20 21 37 40h-149l-242 -268h-57l38 268h-131l-90 -642h131l37 267h57zM477 707l106 107h-69l-71 -84l-47 84h-72q9 -15 18 -29q8 -12 18 -25q6 -10 17 -26l3 -3l2 -4q3 -3 5 -6q5 -8 10 -14h80z" />
    <glyph glyph-name="uni01EA" unicode="&#x1ea;" 
d="M438 -114h-4h-17q-6 -1 -14 -1q-46 0 -67 14q-15 17 -12 32q2 19 14 27q17 11 61 13l-3 18q33 1 62 5q31 3 58 9q61 16 104 49q48 38 78 101q33 68 48 169q14 104 -2 173q-14 64 -54 101q-36 33 -96 47q-26 6 -59 9q-29 3 -64 3q-36 0 -66 -3q-33 -3 -62 -9
q-31 -7 -57 -18q-28 -12 -52 -29q-51 -37 -83 -101q-35 -69 -49 -173q-15 -101 -1 -169q13 -63 50 -100q34 -34 89 -49q25 -6 55 -10q27 -3 61 -4l1 -6q-88 -10 -94 -59q-5 -31 24 -52q32 -24 92 -24q33 0 60 3zM456 549q11 0 18 -1h17q20 -1 34 -3q36 -6 57 -25
q24 -23 32 -68q9 -50 -2 -130q-12 -82 -34 -131q-21 -45 -51 -68q-26 -19 -64 -25q-15 -2 -35 -3h-18h-18h-19h-19q-19 1 -34 3q-36 6 -56 25q-24 23 -32 68q-8 49 4 131q11 81 33 130q20 45 51 68q25 19 63 25q15 2 35 3h19q6 1 19 1v0z" />
    <glyph glyph-name="uni01EB" unicode="&#x1eb;" 
d="M438 -114h-4h-17q-6 -1 -14 -1q-46 0 -67 14q-15 17 -12 32q2 19 14 27q17 11 61 13l-3 18q33 1 62 5q31 3 58 9q61 16 104 49q48 38 78 101q33 68 48 169q14 104 -2 173q-14 64 -54 101q-36 33 -96 47q-26 6 -59 9q-29 3 -64 3q-36 0 -66 -3q-33 -3 -62 -9
q-31 -7 -57 -18q-28 -12 -52 -29q-51 -37 -83 -101q-35 -69 -49 -173q-15 -101 -1 -169q13 -63 50 -100q34 -34 89 -49q25 -6 55 -10q27 -3 61 -4l1 -6q-88 -10 -94 -59q-5 -31 24 -52q32 -24 92 -24q33 0 60 3zM456 549q11 0 18 -1h17q20 -1 34 -3q36 -6 57 -25
q24 -23 32 -68q9 -50 -2 -130q-12 -82 -34 -131q-21 -45 -51 -68q-26 -19 -64 -25q-15 -2 -35 -3h-18h-18h-19h-19q-19 1 -34 3q-36 6 -56 25q-24 23 -32 68q-8 49 4 131q11 81 33 130q20 45 51 68q25 19 63 25q15 2 35 3h19q6 1 19 1v0z" />
    <glyph glyph-name="uni01EC" unicode="&#x1ec;" 
d="M438 -114h-4h-17q-6 -1 -14 -1q-46 0 -67 14q-15 17 -12 32q2 19 14 27q17 11 61 13l-3 18q33 1 62 5q31 3 58 9q61 16 104 49q48 38 78 101q33 68 48 169q14 104 -2 173q-14 64 -54 101q-36 33 -96 47q-26 6 -59 9q-29 3 -64 3q-36 0 -66 -3q-33 -3 -62 -9
q-31 -7 -57 -18q-28 -12 -52 -29q-51 -37 -83 -101q-35 -69 -49 -173q-15 -101 -1 -169q13 -63 50 -100q34 -34 89 -49q25 -6 55 -10q27 -3 61 -4l1 -6q-88 -10 -94 -59q-5 -31 24 -52q32 -24 92 -24q33 0 60 3zM456 549q11 0 18 -1h17q20 -1 34 -3q36 -6 57 -25
q24 -23 32 -68q9 -50 -2 -130q-12 -82 -34 -131q-21 -45 -51 -68q-26 -19 -64 -25q-15 -2 -35 -3h-18h-18h-19h-19q-19 1 -34 3q-36 6 -56 25q-24 23 -32 68q-8 49 4 131q11 81 33 130q20 45 51 68q25 19 63 25q15 2 35 3h19q6 1 19 1v0zM620 745l6 38h-275l-6 -38h275z" />
    <glyph glyph-name="uni01ED" unicode="&#x1ed;" 
d="M438 -114h-4h-17q-6 -1 -14 -1q-46 0 -67 14q-15 17 -12 32q2 19 14 27q17 11 61 13l-3 18q33 1 62 5q31 3 58 9q61 16 104 49q48 38 78 101q33 68 48 169q14 104 -2 173q-14 64 -54 101q-36 33 -96 47q-26 6 -59 9q-29 3 -64 3q-36 0 -66 -3q-33 -3 -62 -9
q-31 -7 -57 -18q-28 -12 -52 -29q-51 -37 -83 -101q-35 -69 -49 -173q-15 -101 -1 -169q13 -63 50 -100q34 -34 89 -49q25 -6 55 -10q27 -3 61 -4l1 -6q-88 -10 -94 -59q-5 -31 24 -52q32 -24 92 -24q33 0 60 3zM456 549q11 0 18 -1h17q20 -1 34 -3q36 -6 57 -25
q24 -23 32 -68q9 -50 -2 -130q-12 -82 -34 -131q-21 -45 -51 -68q-26 -19 -64 -25q-15 -2 -35 -3h-18h-18h-19h-19q-19 1 -34 3q-36 6 -56 25q-24 23 -32 68q-8 49 4 131q11 81 33 130q20 45 51 68q25 19 63 25q15 2 35 3h19q6 1 19 1v0zM620 745l6 38h-275l-6 -38h275z" />
    <glyph glyph-name="uni01F0" unicode="&#x1f0;" horiz-adv-x="322" 
d="M0 -5q37 0 65 2q30 2 54 5q50 8 81 30q59 40 78 169l62 441h-131l-63 -445q-10 -68 -38 -86q-13 -9 -36 -12q-11 -1 -25 -1h-28zM352 707l106 107h-69l-71 -84l-47 84h-72q9 -15 18 -29q8 -12 18 -25q6 -10 17 -26l3 -3l2 -4q3 -3 5 -6q5 -8 10 -14h80z" />
    <glyph glyph-name="uni01F4" unicode="&#x1f4;" horiz-adv-x="672" 
d="M516 115q-23 -8 -55 -13q-35 -5 -64 -5q-59 0 -91 8q-37 9 -55 33q-36 46 -16 188q10 75 32 122q19 44 49 67q27 20 65 27q16 3 37 5q16 1 40 1q28 0 58 -4q26 -4 53 -10q22 -6 44 -13q17 -5 34 -11l48 103q-84 42 -224 42q-40 0 -71 -3q-35 -3 -64 -9q-65 -14 -109 -47
q-49 -37 -79 -101q-33 -67 -47 -170q-15 -106 -4 -173q10 -66 46 -102q32 -34 91 -48q27 -6 61 -9q31 -3 72 -3q71 0 147 15.5t120 39.5l48 341h-263l-25 -107h145zM416 707q5 6 13 13q4 5 12 14q8 8 12 13l13 13q13 14 25 26q13 14 28 28h-85l-68 -107h50z" />
    <glyph glyph-name="uni01F5" unicode="&#x1f5;" horiz-adv-x="672" 
d="M516 115q-23 -8 -55 -13q-35 -5 -64 -5q-59 0 -91 8q-37 9 -55 33q-36 46 -16 188q10 75 32 122q19 44 49 67q27 20 65 27q16 3 37 5q16 1 40 1q28 0 58 -4q26 -4 53 -10q22 -6 44 -13q17 -5 34 -11l48 103q-84 42 -224 42q-40 0 -71 -3q-35 -3 -64 -9q-65 -14 -109 -47
q-49 -37 -79 -101q-33 -67 -47 -170q-15 -106 -4 -173q10 -66 46 -102q32 -34 91 -48q27 -6 61 -9q31 -3 72 -3q71 0 147 15.5t120 39.5l48 341h-263l-25 -107h145zM416 707q5 6 13 13q4 5 12 14q8 8 12 13l13 13q13 14 25 26q13 14 28 28h-85l-68 -107h50z" />
    <glyph glyph-name="uni01F8" unicode="&#x1f8;" horiz-adv-x="685" 
d="M605 0l90 642h-127l-60 -422l-199 422h-140l-90 -642h128l59 424l200 -424h139zM511 707l-38 107h-86l79 -107h45z" />
    <glyph glyph-name="uni01F9" unicode="&#x1f9;" horiz-adv-x="685" 
d="M605 0l90 642h-127l-60 -422l-199 422h-140l-90 -642h128l59 424l200 -424h139zM511 707l-38 107h-86l79 -107h45z" />
    <glyph glyph-name="Aringacute" unicode="&#x1fa;" horiz-adv-x="657" 
d="M345 642l-317 -642h144l80 181h201l31 -181h144l-137 642h-146zM368 441l33 101h6l3 -101l28 -167h-144zM429 725q-16 0 -22 5q-8 7 -4 32q3 23 14 30q6 5 23 5q16 0 21 -5q9 -7 6 -30q-4 -25 -15 -32q-7 -5 -23 -5v0zM425 695q31 0 47 11q20 16 27 56q5 39 -11 54
q-13 12 -44 12q-32 0 -47 -12q-21 -15 -26 -54q-7 -40 10 -56q12 -11 44 -11v0zM429 857q5 6 13 13q4 5 12 14q8 8 12 13l13 13q13 14 25 26q13 14 28 28h-85l-68 -107h50z" />
    <glyph glyph-name="aringacute" unicode="&#x1fb;" horiz-adv-x="703" 
d="M673 103q-33 4 -43 24q-11 22 -4 70l16 112l2 16q29 206 -22 271q-27 33 -81 47q-25 6 -60 9q-31 3 -73 3q-143 0 -236 -42l18 -103q9 3 16 5q11 3 20 6q25 7 49 12q29 7 56 10q31 5 60 5q23 0 37 -1q18 -1 30 -3q28 -4 42 -17q28 -24 21 -116h-158q-61 0 -107 -11
q-50 -11 -86 -35q-39 -27 -62 -69q-25 -45 -34 -108q-9 -57 5 -97q12 -37 44 -61q29 -21 77 -30q43 -10 104 -10q143 0 221 109q3 -49 31 -71q28 -23 91 -29zM507 301q-4 -27 -8 -47q-5 -23 -11 -41q-12 -39 -31 -63q-42 -52 -137 -52q-33 0 -53 2q-24 4 -39 13
q-34 19 -26 75q5 37 18 61q12 22 31 35q18 11 44 15q20 4 53 4h159v-2zM452 725q-16 0 -22 5q-8 7 -4 32q3 23 14 30q6 5 23 5q16 0 21 -5q9 -7 6 -30q-4 -25 -15 -32q-7 -5 -23 -5v0zM448 695q31 0 47 11q20 16 27 56q5 39 -11 54q-13 12 -44 12q-32 0 -47 -12
q-21 -15 -26 -54q-7 -40 10 -56q12 -11 44 -11v0zM452 857q5 6 13 13q4 5 12 14q8 8 12 13l13 13q13 14 25 26q13 14 28 28h-85l-68 -107h50z" />
    <glyph glyph-name="AEacute" unicode="&#x1fc;" horiz-adv-x="819" 
d="M802 0l25 108h-288l24 176h203l14 97h-203l22 154h278l25 107h-527l-347 -642h134l95 181h160l-25 -181h410zM430 272h-119l97 169l51 91h6l1 -3zM489 707q5 6 13 13q4 5 12 14q8 8 12 13l13 13q13 14 25 26q13 14 28 28h-85l-68 -107h50z" />
    <glyph glyph-name="aeacute" unicode="&#x1fd;" horiz-adv-x="1193" 
d="M1083 141l-9 -3q-8 -3 -9 -3q-12 -4 -22 -7q-13 -5 -25 -8q-15 -4 -29 -8q-32 -8 -61 -13q-34 -5 -62 -5q-33 0 -57 1q-26 2 -46 6q-42 8 -64 29q-44 40 -29 163h499l5 36q13 96 2 161q-10 63 -43 100q-32 35 -87 51q-26 7 -58 10q-30 4 -67 4q-46 0 -82 -5
q-41 -6 -74 -18q-36 -13 -65 -34q-30 -23 -53 -56q-18 66 -76 91q-28 12 -70 17q-37 5 -93 5q-143 0 -236 -42l18 -103q9 3 16 5q11 3 20 6q25 7 49 12q29 7 56 10q31 5 60 5q27 0 44 -1q22 -1 37 -3q34 -4 51 -17q35 -26 28 -121h-188q-61 0 -107 -11q-50 -11 -86 -34
q-39 -26 -63 -67q-25 -44 -33 -106q-9 -57 5 -97q12 -37 44 -61q29 -21 77 -30q43 -10 104 -10q163 0 251 109q1 1 4 6q2 4 4 6q4 7 8 11q21 -78 91 -109q32 -14 77 -20q40 -6 97 -6q33 0 72 5q36 4 73 10q74 15 121 36zM537 299q-5 -26 -10 -47q-5 -22 -12 -40
q-14 -39 -37 -63q-48 -51 -158 -51q-33 0 -53 2q-24 4 -39 13q-34 19 -26 75q9 67 49 91q17 11 43 15q20 4 53 4h189zM684 391q11 54 33 87q19 31 49 48q26 14 64 19q16 2 36 3q16 1 40 1q42 0 68 -6q29 -7 45 -23q34 -34 27 -129h-362zM676 707q5 6 13 13q4 5 12 14
q8 8 12 13l13 13q13 14 25 26q13 14 28 28h-85l-68 -107h50z" />
    <glyph glyph-name="Oslashacute" unicode="&#x1fe;" 
d="M809 606l-57 36l-58 -49q-37 34 -97 49q-27 7 -61 10q-29 3 -65 3t-66 -3q-33 -3 -62 -9q-31 -7 -57 -18q-28 -12 -52 -29q-51 -37 -83 -101q-35 -69 -49 -173q-11 -70 -7 -125q4 -51 21 -89l-85 -71l59 -37l62 53q35 -37 97 -52q27 -6 61 -9q29 -3 67 -3q35 0 65 3
q33 3 61 8q64 14 109 47q51 37 84 101q35 69 50 174q10 71 5 127q-4 51 -21 91zM612 322q-12 -82 -34 -131q-21 -45 -51 -68q-26 -19 -64 -25q-15 -2 -35 -3h-18h-18h-22h-21q-22 1 -38 5q-40 8 -59 37l364 306q6 -47 -4 -121v0zM456 549q12 0 20 -1h19q22 -1 38 -5
q39 -9 60 -35l-363 -304q-5 44 6 118q11 81 33 130q20 45 51 68q25 19 63 25q15 2 35 3h19q6 1 19 1v0zM459 707q5 6 13 13q4 5 12 14q8 8 12 13l13 13q13 14 25 26q13 14 28 28h-85l-68 -107h50z" />
    <glyph glyph-name="oslashacute" unicode="&#x1ff;" 
d="M809 606l-57 36l-58 -49q-37 34 -97 49q-27 7 -61 10q-29 3 -65 3t-66 -3q-33 -3 -62 -9q-31 -7 -57 -18q-28 -12 -52 -29q-51 -37 -83 -101q-35 -69 -49 -173q-11 -70 -7 -125q4 -51 21 -89l-85 -71l59 -37l62 53q35 -37 97 -52q27 -6 61 -9q29 -3 67 -3q35 0 65 3
q33 3 61 8q64 14 109 47q51 37 84 101q35 69 50 174q10 71 5 127q-4 51 -21 91zM612 322q-12 -82 -34 -131q-21 -45 -51 -68q-26 -19 -64 -25q-15 -2 -35 -3h-18h-18h-22h-21q-22 1 -38 5q-40 8 -59 37l364 306q6 -47 -4 -121v0zM456 549q12 0 20 -1h19q22 -1 38 -5
q39 -9 60 -35l-363 -304q-5 44 6 118q11 81 33 130q20 45 51 68q25 19 63 25q15 2 35 3h19q6 1 19 1v0zM459 707q5 6 13 13q4 5 12 14q8 8 12 13l13 13q13 14 25 26q13 14 28 28h-85l-68 -107h50z" />
    <glyph glyph-name="uni0200" unicode="&#x200;" horiz-adv-x="657" 
d="M345 642l-317 -642h144l80 181h201l31 -181h144l-137 642h-146zM368 441l33 101h6l3 -101l28 -167h-144zM583 707l-38 107h-85q9 -14 19 -28q8 -12 18 -26q3 -5 8 -13q7 -10 9 -13q11 -16 19 -27h50zM409 707l-38 107h-85q9 -14 19 -28q8 -12 18 -26q3 -5 8 -13
q7 -10 9 -13q11 -16 19 -27h50z" />
    <glyph glyph-name="uni0201" unicode="&#x201;" horiz-adv-x="703" 
d="M673 103q-33 4 -43 24q-11 22 -4 70l16 112l2 16q29 206 -22 271q-27 33 -81 47q-25 6 -60 9q-31 3 -73 3q-143 0 -236 -42l18 -103q9 3 16 5q11 3 20 6q25 7 49 12q29 7 56 10q31 5 60 5q23 0 37 -1q18 -1 30 -3q28 -4 42 -17q28 -24 21 -116h-158q-61 0 -107 -11
q-50 -11 -86 -35q-39 -27 -62 -69q-25 -45 -34 -108q-9 -57 5 -97q12 -37 44 -61q29 -21 77 -30q43 -10 104 -10q143 0 221 109q3 -49 31 -71q28 -23 91 -29zM507 301q-4 -27 -8 -47q-5 -23 -11 -41q-12 -39 -31 -63q-42 -52 -137 -52q-33 0 -53 2q-24 4 -39 13
q-34 19 -26 75q5 37 18 61q12 22 31 35q18 11 44 15q20 4 53 4h159v-2zM606 707l-38 107h-85q9 -14 19 -28q8 -12 18 -26q3 -5 8 -13q7 -10 9 -13q11 -16 19 -27h50zM432 707l-38 107h-85q9 -14 19 -28q8 -12 18 -26q3 -5 8 -13q7 -10 9 -13q11 -16 19 -27h50z" />
    <glyph glyph-name="uni0202" unicode="&#x202;" horiz-adv-x="657" 
d="M345 642l-317 -642h144l80 181h201l31 -181h144l-137 642h-146zM368 441l33 101h6l3 -101l28 -167h-144zM565 707q-3 52 -34 82q-33 30 -88 30q-122 0 -154 -112h43q26 69 102 69q80 0 89 -69h42z" />
    <glyph glyph-name="uni0203" unicode="&#x203;" horiz-adv-x="703" 
d="M673 103q-33 4 -43 24q-11 22 -4 70l16 112l2 16q29 206 -22 271q-27 33 -81 47q-25 6 -60 9q-31 3 -73 3q-143 0 -236 -42l18 -103q9 3 16 5q11 3 20 6q25 7 49 12q29 7 56 10q31 5 60 5q23 0 37 -1q18 -1 30 -3q28 -4 42 -17q28 -24 21 -116h-158q-61 0 -107 -11
q-50 -11 -86 -35q-39 -27 -62 -69q-25 -45 -34 -108q-9 -57 5 -97q12 -37 44 -61q29 -21 77 -30q43 -10 104 -10q143 0 221 109q3 -49 31 -71q28 -23 91 -29zM507 301q-4 -27 -8 -47q-5 -23 -11 -41q-12 -39 -31 -63q-42 -52 -137 -52q-33 0 -53 2q-24 4 -39 13
q-34 19 -26 75q5 37 18 61q12 22 31 35q18 11 44 15q20 4 53 4h159v-2zM588 707q-3 52 -34 82q-33 30 -88 30q-122 0 -154 -112h43q26 69 102 69q80 0 89 -69h42z" />
    <glyph glyph-name="uni0204" unicode="&#x204;" horiz-adv-x="566" 
d="M549 0l25 108h-348l24 171h263l15 107h-263l21 149h338l25 107h-480l-90 -642h470zM538 707l-38 107h-85q9 -14 19 -28q8 -12 18 -26q3 -5 8 -13q7 -10 9 -13q11 -16 19 -27h50zM364 707l-38 107h-85q9 -14 19 -28q8 -12 18 -26q3 -5 8 -13q7 -10 9 -13q11 -16 19 -27h50
z" />
    <glyph glyph-name="uni0205" unicode="&#x205;" horiz-adv-x="704" 
d="M700 278l7 51q13 96 2 161q-10 63 -43 100q-32 35 -87 51q-26 7 -58 10q-30 4 -66.5 4t-65.5 -3q-32 -4 -60 -10q-60 -16 -103 -50q-48 -39 -78 -105q-33 -70 -47 -174q-14 -102 -3 -168q12 -63 48 -99q33 -33 91 -46q27 -7 61 -10q31 -3 71 -3q33 0 72 5q36 4 73 10
q74 15 121 36l-19 103l-9 -3q-8 -3 -9 -3q-12 -4 -22 -7q-13 -5 -25 -8q-15 -4 -29 -8q-32 -8 -61 -13q-34 -5 -62 -5q-54 0 -86 6q-35 8 -54 27q-38 38 -27 151h468zM247 386q10 56 29 90q17 32 43 49q22 15 54 20q14 2 32 3q13 1 34 1q42 0 68 -6q29 -7 45 -24
q34 -34 27 -133h-332zM607 707l-38 107h-85q9 -14 19 -28q8 -12 18 -26q3 -5 8 -13q7 -10 9 -13q11 -16 19 -27h50zM433 707l-38 107h-85q9 -14 19 -28q8 -12 18 -26q3 -5 8 -13q7 -10 9 -13q11 -16 19 -27h50z" />
    <glyph glyph-name="uni0206" unicode="&#x206;" horiz-adv-x="566" 
d="M549 0l25 108h-348l24 171h263l15 107h-263l21 149h338l25 107h-480l-90 -642h470zM520 707q-3 52 -34 82q-33 30 -88 30q-122 0 -154 -112h43q26 69 102 69q80 0 89 -69h42z" />
    <glyph glyph-name="uni0207" unicode="&#x207;" horiz-adv-x="704" 
d="M700 278l7 51q13 96 2 161q-10 63 -43 100q-32 35 -87 51q-26 7 -58 10q-30 4 -66.5 4t-65.5 -3q-32 -4 -60 -10q-60 -16 -103 -50q-48 -39 -78 -105q-33 -70 -47 -174q-14 -102 -3 -168q12 -63 48 -99q33 -33 91 -46q27 -7 61 -10q31 -3 71 -3q33 0 72 5q36 4 73 10
q74 15 121 36l-19 103l-9 -3q-8 -3 -9 -3q-12 -4 -22 -7q-13 -5 -25 -8q-15 -4 -29 -8q-32 -8 -61 -13q-34 -5 -62 -5q-54 0 -86 6q-35 8 -54 27q-38 38 -27 151h468zM247 386q10 56 29 90q17 32 43 49q22 15 54 20q14 2 32 3q13 1 34 1q42 0 68 -6q29 -7 45 -24
q34 -34 27 -133h-332zM589 707q-3 52 -34 82q-33 30 -88 30q-122 0 -154 -112h43q26 69 102 69q80 0 89 -69h42z" />
    <glyph glyph-name="uni0208" unicode="&#x208;" horiz-adv-x="241" 
d="M181 0l90 642h-132l-90 -642h132zM376 707l-38 107h-85q9 -14 19 -28q8 -12 18 -26q3 -5 8 -13q7 -10 9 -13q11 -16 19 -27h50zM202 707l-38 107h-85q9 -14 19 -28q8 -12 18 -26q3 -5 8 -13q7 -10 9 -13q11 -16 19 -27h50z" />
    <glyph glyph-name="uni0209" unicode="&#x209;" horiz-adv-x="241" 
d="M181 0l90 642h-132l-90 -642h132zM376 707l-38 107h-85q9 -14 19 -28q8 -12 18 -26q3 -5 8 -13q7 -10 9 -13q11 -16 19 -27h50zM202 707l-38 107h-85q9 -14 19 -28q8 -12 18 -26q3 -5 8 -13q7 -10 9 -13q11 -16 19 -27h50z" />
    <glyph glyph-name="uni020A" unicode="&#x20a;" horiz-adv-x="241" 
d="M181 0l90 642h-132l-90 -642h132zM358 707q-3 52 -34 82q-33 30 -88 30q-122 0 -154 -112h43q26 69 102 69q80 0 89 -69h42z" />
    <glyph glyph-name="uni020B" unicode="&#x20b;" horiz-adv-x="241" 
d="M181 0l90 642h-132l-90 -642h132zM358 707q-3 52 -34 82q-33 30 -88 30q-122 0 -154 -112h43q26 69 102 69q80 0 89 -69h42z" />
    <glyph glyph-name="uni020C" unicode="&#x20c;" 
d="M456 549q11 0 18 -1h17q20 -1 34 -3q36 -6 57 -25q24 -23 32 -68q9 -50 -2 -130q-12 -82 -34 -131q-21 -45 -51 -68q-26 -19 -64 -25q-15 -2 -35 -3h-18h-18h-19h-19q-19 1 -34 3q-36 6 -56 25q-24 23 -32 68q-8 49 4 131q11 81 33 130q20 45 51 68q25 19 63 25
q15 2 35 3h19q6 1 19 1v0zM102 322q-15 -105 0 -174q14 -64 55 -101q36 -33 96 -47q26 -5 59 -8q29 -3 65 -3q35 0 65 3q33 3 61 8q64 14 109 47q51 37 84 101q35 69 50 174q14 104 -2 173q-14 64 -54 101q-36 33 -96 47q-26 6 -59 9q-29 3 -64 3q-36 0 -66 -3
q-33 -3 -62 -9q-31 -7 -57 -18q-28 -12 -52 -29q-51 -37 -83 -101q-35 -69 -49 -173v0zM634 707l-38 107h-85q9 -14 19 -28q8 -12 18 -26q3 -5 8 -13q7 -10 9 -13q11 -16 19 -27h50zM460 707l-38 107h-85q9 -14 19 -28q8 -12 18 -26q3 -5 8 -13q7 -10 9 -13q11 -16 19 -27
h50z" />
    <glyph glyph-name="uni020D" unicode="&#x20d;" 
d="M456 549q11 0 18 -1h17q20 -1 34 -3q36 -6 57 -25q24 -23 32 -68q9 -50 -2 -130q-12 -82 -34 -131q-21 -45 -51 -68q-26 -19 -64 -25q-15 -2 -35 -3h-18h-18h-19h-19q-19 1 -34 3q-36 6 -56 25q-24 23 -32 68q-8 49 4 131q11 81 33 130q20 45 51 68q25 19 63 25
q15 2 35 3h19q6 1 19 1v0zM102 322q-15 -105 0 -174q14 -64 55 -101q36 -33 96 -47q26 -5 59 -8q29 -3 65 -3q35 0 65 3q33 3 61 8q64 14 109 47q51 37 84 101q35 69 50 174q14 104 -2 173q-14 64 -54 101q-36 33 -96 47q-26 6 -59 9q-29 3 -64 3q-36 0 -66 -3
q-33 -3 -62 -9q-31 -7 -57 -18q-28 -12 -52 -29q-51 -37 -83 -101q-35 -69 -49 -173v0zM634 707l-38 107h-85q9 -14 19 -28q8 -12 18 -26q3 -5 8 -13q7 -10 9 -13q11 -16 19 -27h50zM460 707l-38 107h-85q9 -14 19 -28q8 -12 18 -26q3 -5 8 -13q7 -10 9 -13q11 -16 19 -27
h50z" />
    <glyph glyph-name="uni020E" unicode="&#x20e;" 
d="M456 549q11 0 18 -1h17q20 -1 34 -3q36 -6 57 -25q24 -23 32 -68q9 -50 -2 -130q-12 -82 -34 -131q-21 -45 -51 -68q-26 -19 -64 -25q-15 -2 -35 -3h-18h-18h-19h-19q-19 1 -34 3q-36 6 -56 25q-24 23 -32 68q-8 49 4 131q11 81 33 130q20 45 51 68q25 19 63 25
q15 2 35 3h19q6 1 19 1v0zM102 322q-15 -105 0 -174q14 -64 55 -101q36 -33 96 -47q26 -5 59 -8q29 -3 65 -3q35 0 65 3q33 3 61 8q64 14 109 47q51 37 84 101q35 69 50 174q14 104 -2 173q-14 64 -54 101q-36 33 -96 47q-26 6 -59 9q-29 3 -64 3q-36 0 -66 -3
q-33 -3 -62 -9q-31 -7 -57 -18q-28 -12 -52 -29q-51 -37 -83 -101q-35 -69 -49 -173v0zM616 707q-3 52 -34 82q-33 30 -88 30q-122 0 -154 -112h43q26 69 102 69q80 0 89 -69h42z" />
    <glyph glyph-name="uni020F" unicode="&#x20f;" 
d="M456 549q11 0 18 -1h17q20 -1 34 -3q36 -6 57 -25q24 -23 32 -68q9 -50 -2 -130q-12 -82 -34 -131q-21 -45 -51 -68q-26 -19 -64 -25q-15 -2 -35 -3h-18h-18h-19h-19q-19 1 -34 3q-36 6 -56 25q-24 23 -32 68q-8 49 4 131q11 81 33 130q20 45 51 68q25 19 63 25
q15 2 35 3h19q6 1 19 1v0zM102 322q-15 -105 0 -174q14 -64 55 -101q36 -33 96 -47q26 -5 59 -8q29 -3 65 -3q35 0 65 3q33 3 61 8q64 14 109 47q51 37 84 101q35 69 50 174q14 104 -2 173q-14 64 -54 101q-36 33 -96 47q-26 6 -59 9q-29 3 -64 3q-36 0 -66 -3
q-33 -3 -62 -9q-31 -7 -57 -18q-28 -12 -52 -29q-51 -37 -83 -101q-35 -69 -49 -173v0zM616 707q-3 52 -34 82q-33 30 -88 30q-122 0 -154 -112h43q26 69 102 69q80 0 89 -69h42z" />
    <glyph glyph-name="uni0210" unicode="&#x210;" horiz-adv-x="669" 
d="M618 0l-145 235q84 10 123 53t54 148q18 128 -30 169q-25 21 -73 29q-23 4 -53 6q-28 2 -65 2h-260l-90 -642h132l32 231h86l138 -231h151zM258 338l28 197h130q18 0 28 -1q14 0 24 -1q22 -3 33 -12q23 -18 14 -85q-10 -66 -38 -84q-13 -9 -36 -12q-11 -2 -25 -2h-28
h-130zM589 707l-38 107h-85q9 -14 19 -28q8 -12 18 -26q3 -5 8 -13q7 -10 9 -13q11 -16 19 -27h50zM415 707l-38 107h-85q9 -14 19 -28q8 -12 18 -26q3 -5 8 -13q7 -10 9 -13q11 -16 19 -27h50z" />
    <glyph glyph-name="uni0211" unicode="&#x211;" horiz-adv-x="681" 
d="M211 0l32 231h79l95 -138q24 -37 49 -58q23 -20 49 -29q23 -8 52 -9q13 0 29 1q13 1 31 2l24 93q-5 -1 -12 -1q-10 -1 -12 -1h-26q-29 1 -37 14l-91 131q84 9 122.5 52t53.5 148q18 128 -30 169q-25 21 -73 29q-23 4 -53 6q-28 2 -65 2h-259l-90 -642h132zM513 433
q-9 -64 -36 -82q-14 -8 -37 -11q-10 -2 -24 -2h-29h-129l28 197h129q17 0 28 -1q14 0 24 -2q22 -3 33 -11q23 -18 14 -82zM595 707l-38 107h-85q9 -14 19 -28q8 -12 18 -26q3 -5 8 -13q7 -10 9 -13q11 -16 19 -27h50zM421 707l-38 107h-85q9 -14 19 -28q8 -12 18 -26
q3 -5 8 -13q7 -10 9 -13q11 -16 19 -27h50z" />
    <glyph glyph-name="uni0212" unicode="&#x212;" horiz-adv-x="669" 
d="M618 0l-145 235q84 10 123 53t54 148q18 128 -30 169q-25 21 -73 29q-23 4 -53 6q-28 2 -65 2h-260l-90 -642h132l32 231h86l138 -231h151zM258 338l28 197h130q18 0 28 -1q14 0 24 -1q22 -3 33 -12q23 -18 14 -85q-10 -66 -38 -84q-13 -9 -36 -12q-11 -2 -25 -2h-28
h-130zM571 707q-3 52 -34 82q-33 30 -88 30q-122 0 -154 -112h43q26 69 102 69q80 0 89 -69h42z" />
    <glyph glyph-name="uni0213" unicode="&#x213;" horiz-adv-x="681" 
d="M211 0l32 231h79l95 -138q24 -37 49 -58q23 -20 49 -29q23 -8 52 -9q13 0 29 1q13 1 31 2l24 93q-5 -1 -12 -1q-10 -1 -12 -1h-26q-29 1 -37 14l-91 131q84 9 122.5 52t53.5 148q18 128 -30 169q-25 21 -73 29q-23 4 -53 6q-28 2 -65 2h-259l-90 -642h132zM513 433
q-9 -64 -36 -82q-14 -8 -37 -11q-10 -2 -24 -2h-29h-129l28 197h129q17 0 28 -1q14 0 24 -2q22 -3 33 -11q23 -18 14 -82zM577 707q-3 52 -34 82q-33 30 -88 30q-122 0 -154 -112h43q26 69 102 69q80 0 89 -69h42z" />
    <glyph glyph-name="uni0214" unicode="&#x214;" horiz-adv-x="686" 
d="M521 271q-4 -26 -8 -44q-4 -21 -8 -37q-10 -34 -27 -54q-33 -39 -121 -39q-89 0 -112 39q-12 20 -12 54q-1 16 1 37q2 18 6 44l52 371h-131l-53 -372q-6 -40 -8 -70q-2 -33 0 -59q4 -55 28 -87q48 -65 214 -65q165 0 230 65q32 32 51 87q9 26 16 59q6 30 12 70l53 372
h-131zM598 707l-38 107h-85q9 -14 19 -28q8 -12 18 -26q3 -5 8 -13q7 -10 9 -13q11 -16 19 -27h50zM424 707l-38 107h-85q9 -14 19 -28q8 -12 18 -26q3 -5 8 -13q7 -10 9 -13q11 -16 19 -27h50z" />
    <glyph glyph-name="uni0215" unicode="&#x215;" horiz-adv-x="668" 
d="M521 271q-4 -26 -8 -44q-4 -21 -8 -37q-10 -34 -27 -54q-33 -39 -121 -39q-89 0 -112 39q-12 20 -12 54q-1 16 1 37q2 18 6 44l52 371h-131l-53 -372q-6 -40 -8 -70q-2 -33 0 -59q4 -55 28 -87q48 -65 214 -65q165 0 230 65q32 32 51 87q9 26 16 59q6 30 12 70l53 372
h-131zM589 707l-38 107h-85q9 -14 19 -28q8 -12 18 -26q3 -5 8 -13q7 -10 9 -13q11 -16 19 -27h50zM415 707l-38 107h-85q9 -14 19 -28q8 -12 18 -26q3 -5 8 -13q7 -10 9 -13q11 -16 19 -27h50z" />
    <glyph glyph-name="uni0216" unicode="&#x216;" horiz-adv-x="686" 
d="M521 271q-4 -26 -8 -44q-4 -21 -8 -37q-10 -34 -27 -54q-33 -39 -121 -39q-89 0 -112 39q-12 20 -12 54q-1 16 1 37q2 18 6 44l52 371h-131l-53 -372q-6 -40 -8 -70q-2 -33 0 -59q4 -55 28 -87q48 -65 214 -65q165 0 230 65q32 32 51 87q9 26 16 59q6 30 12 70l53 372
h-131zM580 707q-3 52 -34 82q-33 30 -88 30q-122 0 -154 -112h43q26 69 102 69q80 0 89 -69h42z" />
    <glyph glyph-name="uni0217" unicode="&#x217;" horiz-adv-x="668" 
d="M521 271q-4 -26 -8 -44q-4 -21 -8 -37q-10 -34 -27 -54q-33 -39 -121 -39q-89 0 -112 39q-12 20 -12 54q-1 16 1 37q2 18 6 44l52 371h-131l-53 -372q-6 -40 -8 -70q-2 -33 0 -59q4 -55 28 -87q48 -65 214 -65q165 0 230 65q32 32 51 87q9 26 16 59q6 30 12 70l53 372
h-131zM571 707q-3 52 -34 82q-33 30 -88 30q-122 0 -154 -112h43q26 69 102 69q80 0 89 -69h42z" />
    <glyph glyph-name="Scommaaccent" unicode="&#x218;" horiz-adv-x="624" 
d="M641 615q-19 9 -48 17q-27 7 -62 12q-67 10 -141 10q-102 0 -172 -44q-36 -23 -58 -55q-24 -34 -29 -76q-9 -63 2 -101q11 -36 44 -59q30 -21 90 -38q25 -7 63 -16q15 -3 36 -8q8 -2 19 -4q2 0 5.5 -1t4.5 -1q6 -2 11 -2q13 -4 20 -5q10 -3 16 -5q16 -5 24 -12
q15 -14 10 -54q-8 -52 -42 -67q-15 -6 -39 -8q-11 -1 -24 -1h-27q-42 0 -84 4q-36 4 -71 12q-29 7 -55 15q-22 7 -37 15q-12 -24 -24 -51q-5 -12 -11 -26q-5 -12 -11 -28q40 -21 120 -35q78 -14 149 -14q30 0 55 2q27 2 50 6q51 8 86 27q38 22 61 58q24 38 32 95
q8 63 -16 105q-20 36 -67 59q-20 10 -46 18q-22 7 -52 14q-11 3 -27 6q-5 1 -13 3q-10 3 -14 3q-16 4 -27 7q-15 3 -27 7q-47 14 -54 24q-8 11 -1 55q5 37 38 54q30 15 92 15q28 0 60 -4q29 -3 58 -9q26 -5 49 -11q21 -6 36 -11zM255 -331q91 35 103 121l19 133h-117
l-17 -123h50q-18 -75 -66 -94z" />
    <glyph glyph-name="scommaaccent" unicode="&#x219;" horiz-adv-x="624" 
d="M641 615q-19 9 -48 17q-27 7 -62 12q-67 10 -141 10q-102 0 -172 -44q-36 -23 -58 -55q-24 -34 -29 -76q-9 -63 2 -101q11 -36 44 -59q30 -21 90 -38q25 -7 63 -16q15 -3 36 -8q8 -2 19 -4q2 0 5.5 -1t4.5 -1q6 -2 11 -2q13 -4 20 -5q10 -3 16 -5q16 -5 24 -12
q15 -14 10 -54q-8 -52 -42 -67q-15 -6 -39 -8q-11 -1 -24 -1h-27q-42 0 -84 4q-36 4 -71 12q-29 7 -55 15q-22 7 -37 15q-12 -24 -24 -51q-5 -12 -11 -26q-5 -12 -11 -28q40 -21 120 -35q78 -14 149 -14q30 0 55 2q27 2 50 6q51 8 86 27q38 22 61 58q24 38 32 95
q8 63 -16 105q-20 36 -67 59q-20 10 -46 18q-22 7 -52 14q-11 3 -27 6q-5 1 -13 3q-10 3 -14 3q-16 4 -27 7q-15 3 -27 7q-47 14 -54 24q-8 11 -1 55q5 37 38 54q30 15 92 15q28 0 60 -4q29 -3 58 -9q26 -5 49 -11q21 -6 36 -11zM255 -331q91 35 103 121l19 133h-117
l-17 -123h50q-18 -75 -66 -94z" />
    <glyph glyph-name="uni021A" unicode="&#x21a;" horiz-adv-x="543" 
d="M336 0l75 535h200l25 107h-529l-25 -107h197l-75 -535h44l-14 -31q43 -2 57 -13q9 -8 8 -27q-3 -16 -22 -32q-25 -14 -71 -14q-9 0 -14 1h-17h-4l-10 -34q25 -3 59 -3q59 0 97 24q36 21 41 52q6 49 -78 59l8 18h48z" />
    <glyph glyph-name="uni021B" unicode="&#x21b;" horiz-adv-x="543" 
d="M336 0l75 535h200l25 107h-529l-25 -107h197l-75 -535h44l-14 -31q43 -2 57 -13q9 -8 8 -27q-3 -16 -22 -32q-25 -14 -71 -14q-9 0 -14 1h-17h-4l-10 -34q25 -3 59 -3q59 0 97 24q36 21 41 52q6 49 -78 59l8 18h48z" />
    <glyph glyph-name="uni021E" unicode="&#x21e;" horiz-adv-x="681" 
d="M601 0l90 642h-131l-35 -246h-260l35 246h-131l-90 -642h131l40 287h260l-40 -287h131zM478 707l106 107h-69l-71 -84l-47 84h-72q9 -15 18 -29q8 -12 18 -25q6 -10 17 -26l3 -3l2 -4q3 -3 5 -6q5 -8 10 -14h80z" />
    <glyph glyph-name="uni021F" unicode="&#x21f;" horiz-adv-x="681" 
d="M601 0l90 642h-131l-35 -246h-260l35 246h-131l-90 -642h131l40 287h260l-40 -287h131zM478 707l106 107h-69l-71 -84l-47 84h-72q9 -15 18 -29q8 -12 18 -25q6 -10 17 -26l3 -3l2 -4q3 -3 5 -6q5 -8 10 -14h80z" />
    <glyph glyph-name="uni0226" unicode="&#x226;" horiz-adv-x="657" 
d="M345 642l-317 -642h144l80 181h201l31 -181h144l-137 642h-146zM368 441l33 101h6l3 -101l28 -167h-144zM507 860h-118l-17 -123h118z" />
    <glyph glyph-name="uni0227" unicode="&#x227;" horiz-adv-x="703" 
d="M673 103q-33 4 -43 24q-11 22 -4 70l16 112l2 16q29 206 -22 271q-27 33 -81 47q-25 6 -60 9q-31 3 -73 3q-143 0 -236 -42l18 -103q9 3 16 5q11 3 20 6q25 7 49 12q29 7 56 10q31 5 60 5q23 0 37 -1q18 -1 30 -3q28 -4 42 -17q28 -24 21 -116h-158q-61 0 -107 -11
q-50 -11 -86 -35q-39 -27 -62 -69q-25 -45 -34 -108q-9 -57 5 -97q12 -37 44 -61q29 -21 77 -30q43 -10 104 -10q143 0 221 109q3 -49 31 -71q28 -23 91 -29zM507 301q-4 -27 -8 -47q-5 -23 -11 -41q-12 -39 -31 -63q-42 -52 -137 -52q-33 0 -53 2q-24 4 -39 13
q-34 19 -26 75q5 37 18 61q12 22 31 35q18 11 44 15q20 4 53 4h159v-2zM530 860h-118l-17 -123h118z" />
    <glyph glyph-name="uni0228" unicode="&#x228;" horiz-adv-x="566" 
d="M549 0l25 108h-348l24 171h263l15 107h-263l21 149h338l25 107h-480l-90 -642h209l-14 -33q43 -2 56 -13q10 -8 8 -27q-2 -15 -21 -32q-27 -14 -71 -14q-9 0 -14 1h-17h-4l-10 -34q25 -3 59 -3q59 0 97 24q35 21 40 52q6 49 -77 59l9 20h220z" />
    <glyph glyph-name="uni0229" unicode="&#x229;" horiz-adv-x="704" 
d="M101 313q-14 -96 -4 -160q9 -61 41 -98q29 -35 80 -51q24 -6 54 -10q28 -4 63 -6l-8 -19q43 -2 57 -13q9 -8 8 -27q-3 -16 -22 -32q-25 -14 -71 -14q-9 0 -14 1h-17h-4l-10 -34q25 -3 59 -3q59 0 97 24q36 21 41 52q6 49 -78 59l2 5q33 1 71 5q35 4 71 11q72 14 118 35
l-19 103l-9 -3q-8 -3 -9 -3q-12 -4 -22 -7q-13 -5 -25 -8q-15 -4 -29 -8q-32 -8 -61 -13q-34 -5 -62 -5q-54 0 -86 6q-35 8 -54 27q-38 38 -27 151h468l7 51q13 96 2 161q-10 63 -43 100q-32 35 -87 51q-26 7 -58 10q-30 4 -66.5 4t-65.5 -3q-32 -4 -60 -10
q-60 -16 -103 -50q-48 -39 -78 -105q-33 -70 -47 -174v0zM247 386q10 56 29 90q17 32 43 49q22 15 54 20q14 2 32 3q13 1 34 1q42 0 68 -6q29 -7 45 -24q34 -34 27 -133h-332z" />
    <glyph glyph-name="uni022A" unicode="&#x22a;" 
d="M456 549q11 0 18 -1h17q20 -1 34 -3q36 -6 57 -25q24 -23 32 -68q9 -50 -2 -130q-12 -82 -34 -131q-21 -45 -51 -68q-26 -19 -64 -25q-15 -2 -35 -3h-18h-18h-19h-19q-19 1 -34 3q-36 6 -56 25q-24 23 -32 68q-8 49 4 131q11 81 33 130q20 45 51 68q25 19 63 25
q15 2 35 3h19q6 1 19 1v0zM102 322q-15 -105 0 -174q14 -64 55 -101q36 -33 96 -47q26 -5 59 -8q29 -3 65 -3q35 0 65 3q33 3 61 8q64 14 109 47q51 37 84 101q35 69 50 174q14 104 -2 173q-14 64 -54 101q-36 33 -96 47q-26 6 -59 9q-29 3 -64 3q-36 0 -66 -3
q-33 -3 -62 -9q-31 -7 -57 -18q-28 -12 -52 -29q-51 -37 -83 -101q-35 -69 -49 -173v0zM445 723l17 123h-110l-17 -123h110zM623 723l17 123h-110l-17 -123h110zM634 845l6 38h-275l-6 -38h275z" />
    <glyph glyph-name="uni022B" unicode="&#x22b;" 
d="M456 549q11 0 18 -1h17q20 -1 34 -3q36 -6 57 -25q24 -23 32 -68q9 -50 -2 -130q-12 -82 -34 -131q-21 -45 -51 -68q-26 -19 -64 -25q-15 -2 -35 -3h-18h-18h-19h-19q-19 1 -34 3q-36 6 -56 25q-24 23 -32 68q-8 49 4 131q11 81 33 130q20 45 51 68q25 19 63 25
q15 2 35 3h19q6 1 19 1v0zM102 322q-15 -105 0 -174q14 -64 55 -101q36 -33 96 -47q26 -5 59 -8q29 -3 65 -3q35 0 65 3q33 3 61 8q64 14 109 47q51 37 84 101q35 69 50 174q14 104 -2 173q-14 64 -54 101q-36 33 -96 47q-26 6 -59 9q-29 3 -64 3q-36 0 -66 -3
q-33 -3 -62 -9q-31 -7 -57 -18q-28 -12 -52 -29q-51 -37 -83 -101q-35 -69 -49 -173v0zM445 723l17 123h-110l-17 -123h110zM623 723l17 123h-110l-17 -123h110zM634 845l6 38h-275l-6 -38h275z" />
    <glyph glyph-name="uni022C" unicode="&#x22c;" 
d="M456 549q11 0 18 -1h17q20 -1 34 -3q36 -6 57 -25q24 -23 32 -68q9 -50 -2 -130q-12 -82 -34 -131q-21 -45 -51 -68q-26 -19 -64 -25q-15 -2 -35 -3h-18h-18h-19h-19q-19 1 -34 3q-36 6 -56 25q-24 23 -32 68q-8 49 4 131q11 81 33 130q20 45 51 68q25 19 63 25
q15 2 35 3h19q6 1 19 1v0zM102 322q-15 -105 0 -174q14 -64 55 -101q36 -33 96 -47q26 -5 59 -8q29 -3 65 -3q35 0 65 3q33 3 61 8q64 14 109 47q51 37 84 101q35 69 50 174q14 104 -2 173q-14 64 -54 101q-36 33 -96 47q-26 6 -59 9q-29 3 -64 3q-36 0 -66 -3
q-33 -3 -62 -9q-31 -7 -57 -18q-28 -12 -52 -29q-51 -37 -83 -101q-35 -69 -49 -173v0zM599 803q-8 -24 -19.5 -32t-30.5 -8q-20 0 -47 15q-48 24 -73 24q-38 0 -67 -26q-27 -24 -33 -59h43q2 9 6 17q4 6 10 13q18 15 38 15q18 0 48 -18q46 -25 72 -25q74 0 94 84h-41z
M634 845l6 38h-275l-6 -38h275z" />
    <glyph glyph-name="uni022D" unicode="&#x22d;" 
d="M456 549q11 0 18 -1h17q20 -1 34 -3q36 -6 57 -25q24 -23 32 -68q9 -50 -2 -130q-12 -82 -34 -131q-21 -45 -51 -68q-26 -19 -64 -25q-15 -2 -35 -3h-18h-18h-19h-19q-19 1 -34 3q-36 6 -56 25q-24 23 -32 68q-8 49 4 131q11 81 33 130q20 45 51 68q25 19 63 25
q15 2 35 3h19q6 1 19 1v0zM102 322q-15 -105 0 -174q14 -64 55 -101q36 -33 96 -47q26 -5 59 -8q29 -3 65 -3q35 0 65 3q33 3 61 8q64 14 109 47q51 37 84 101q35 69 50 174q14 104 -2 173q-14 64 -54 101q-36 33 -96 47q-26 6 -59 9q-29 3 -64 3q-36 0 -66 -3
q-33 -3 -62 -9q-31 -7 -57 -18q-28 -12 -52 -29q-51 -37 -83 -101q-35 -69 -49 -173v0zM599 803q-8 -24 -19.5 -32t-30.5 -8q-20 0 -47 15q-48 24 -73 24q-38 0 -67 -26q-27 -24 -33 -59h43q2 9 6 17q4 6 10 13q18 15 38 15q18 0 48 -18q46 -25 72 -25q74 0 94 84h-41z
M634 845l6 38h-275l-6 -38h275z" />
    <glyph glyph-name="uni022E" unicode="&#x22e;" 
d="M456 549q11 0 18 -1h17q20 -1 34 -3q36 -6 57 -25q24 -23 32 -68q9 -50 -2 -130q-12 -82 -34 -131q-21 -45 -51 -68q-26 -19 -64 -25q-15 -2 -35 -3h-18h-18h-19h-19q-19 1 -34 3q-36 6 -56 25q-24 23 -32 68q-8 49 4 131q11 81 33 130q20 45 51 68q25 19 63 25
q15 2 35 3h19q6 1 19 1v0zM102 322q-15 -105 0 -174q14 -64 55 -101q36 -33 96 -47q26 -5 59 -8q29 -3 65 -3q35 0 65 3q33 3 61 8q64 14 109 47q51 37 84 101q35 69 50 174q14 104 -2 173q-14 64 -54 101q-36 33 -96 47q-26 6 -59 9q-29 3 -64 3q-36 0 -66 -3
q-33 -3 -62 -9q-31 -7 -57 -18q-28 -12 -52 -29q-51 -37 -83 -101q-35 -69 -49 -173v0zM558 860h-118l-17 -123h118z" />
    <glyph glyph-name="uni022F" unicode="&#x22f;" 
d="M456 549q11 0 18 -1h17q20 -1 34 -3q36 -6 57 -25q24 -23 32 -68q9 -50 -2 -130q-12 -82 -34 -131q-21 -45 -51 -68q-26 -19 -64 -25q-15 -2 -35 -3h-18h-18h-19h-19q-19 1 -34 3q-36 6 -56 25q-24 23 -32 68q-8 49 4 131q11 81 33 130q20 45 51 68q25 19 63 25
q15 2 35 3h19q6 1 19 1v0zM102 322q-15 -105 0 -174q14 -64 55 -101q36 -33 96 -47q26 -5 59 -8q29 -3 65 -3q35 0 65 3q33 3 61 8q64 14 109 47q51 37 84 101q35 69 50 174q14 104 -2 173q-14 64 -54 101q-36 33 -96 47q-26 6 -59 9q-29 3 -64 3q-36 0 -66 -3
q-33 -3 -62 -9q-31 -7 -57 -18q-28 -12 -52 -29q-51 -37 -83 -101q-35 -69 -49 -173v0zM558 860h-118l-17 -123h118z" />
    <glyph glyph-name="uni0230" unicode="&#x230;" 
d="M456 549q11 0 18 -1h17q20 -1 34 -3q36 -6 57 -25q24 -23 32 -68q9 -50 -2 -130q-12 -82 -34 -131q-21 -45 -51 -68q-26 -19 -64 -25q-15 -2 -35 -3h-18h-18h-19h-19q-19 1 -34 3q-36 6 -56 25q-24 23 -32 68q-8 49 4 131q11 81 33 130q20 45 51 68q25 19 63 25
q15 2 35 3h19q6 1 19 1v0zM102 322q-15 -105 0 -174q14 -64 55 -101q36 -33 96 -47q26 -5 59 -8q29 -3 65 -3q35 0 65 3q33 3 61 8q64 14 109 47q51 37 84 101q35 69 50 174q14 104 -2 173q-14 64 -54 101q-36 33 -96 47q-26 6 -59 9q-29 3 -64 3q-36 0 -66 -3
q-33 -3 -62 -9q-31 -7 -57 -18q-28 -12 -52 -29q-51 -37 -83 -101q-35 -69 -49 -173v0zM558 860h-118l-17 -123h118zM634 845l6 38h-275l-6 -38h275z" />
    <glyph glyph-name="uni0231" unicode="&#x231;" 
d="M456 549q11 0 18 -1h17q20 -1 34 -3q36 -6 57 -25q24 -23 32 -68q9 -50 -2 -130q-12 -82 -34 -131q-21 -45 -51 -68q-26 -19 -64 -25q-15 -2 -35 -3h-18h-18h-19h-19q-19 1 -34 3q-36 6 -56 25q-24 23 -32 68q-8 49 4 131q11 81 33 130q20 45 51 68q25 19 63 25
q15 2 35 3h19q6 1 19 1v0zM102 322q-15 -105 0 -174q14 -64 55 -101q36 -33 96 -47q26 -5 59 -8q29 -3 65 -3q35 0 65 3q33 3 61 8q64 14 109 47q51 37 84 101q35 69 50 174q14 104 -2 173q-14 64 -54 101q-36 33 -96 47q-26 6 -59 9q-29 3 -64 3q-36 0 -66 -3
q-33 -3 -62 -9q-31 -7 -57 -18q-28 -12 -52 -29q-51 -37 -83 -101q-35 -69 -49 -173v0zM558 860h-118l-17 -123h118zM634 845l6 38h-275l-6 -38h275z" />
    <glyph glyph-name="uni0232" unicode="&#x232;" horiz-adv-x="618" 
d="M371 0l38 274l287 368h-139q-20 -23 -42 -49q-18 -21 -39 -49q-9 -11 -19 -24q-4 -6 -10 -13q-2 -3 -8.5 -11.5t-9.5 -12.5q-6 -7 -10 -12q-10 -14 -18 -24q-14 -35 -27 -67q-15 -36 -24 -60q-4 60 -12 127q-10 21 -23 48q-5 11 -11 25q-2 5 -5 12q-1 1 -3 6l-3 6
q-7 15 -11 25q-6 13 -11 24q-12 27 -22 49h-146q10 -22 22 -46q10 -22 21 -46q10 -21 22 -46q5 -11 11 -24q5 -9 11 -23q2 -3 5.5 -11t5.5 -12q6 -14 11 -23q12 -26 21 -46q12 -25 22 -46q11 -24 22 -45l-38 -274h132zM550 745l6 38h-275l-6 -38h275z" />
    <glyph glyph-name="uni0233" unicode="&#x233;" horiz-adv-x="618" 
d="M371 0l38 274l287 368h-139q-20 -23 -42 -49q-18 -21 -39 -49q-9 -11 -19 -24q-4 -6 -10 -13q-2 -3 -8.5 -11.5t-9.5 -12.5q-6 -7 -10 -12q-10 -14 -18 -24q-14 -35 -27 -67q-15 -36 -24 -60q-4 60 -12 127q-10 21 -23 48q-5 11 -11 25q-2 5 -5 12q-1 1 -3 6l-3 6
q-7 15 -11 25q-6 13 -11 24q-12 27 -22 49h-146q10 -22 22 -46q10 -22 21 -46q10 -21 22 -46q5 -11 11 -24q5 -9 11 -23q2 -3 5.5 -11t5.5 -12q6 -14 11 -23q12 -26 21 -46q12 -25 22 -46q11 -24 22 -45l-38 -274h132zM550 745l6 38h-275l-6 -38h275z" />
    <glyph glyph-name="circumflex" unicode="&#x2c6;" horiz-adv-x="326" 
d="M369 547l-76 107h-80q-13 -14 -27 -28q-5 -6 -12 -13q-5 -4 -13 -12.5t-12 -12.5q-7 -8 -13 -13q-14 -15 -26 -28h72l71 84l47 -84h69z" />
    <glyph glyph-name="caron" unicode="&#x2c7;" horiz-adv-x="380" 
d="M441 795h-77l-73 -75l-53 75h-77l78 -102h96z" />
    <glyph glyph-name="breve" unicode="&#x2d8;" horiz-adv-x="376" 
d="M395 795q-27 -69 -108 -69q-76 0 -83 69h-43q2 -112 122 -112q117 0 154 112h-42z" />
    <glyph glyph-name="dotaccent" unicode="&#x2d9;" horiz-adv-x="170" 
d="M213 650h-78l-10 -73h78z" />
    <glyph glyph-name="ring" unicode="&#x2da;" horiz-adv-x="174" 
d="M169 565q-17 0 -22 5q-9 7 -5 32q3 23 14 30q6 5 23 5q16 0 21 -5q9 -7 6 -30q-4 -25 -14 -32q-7 -5 -23 -5v0zM165 535q31 0 47 11q20 16 26 56q5 39 -11 54q-13 12 -44 12q-32 0 -47 -12q-21 -15 -26 -54q-6 -40 11 -56q12 -11 44 -11v0z" />
    <glyph glyph-name="tilde" unicode="&#x2dc;" horiz-adv-x="416" 
d="M409 643q-9 -24 -20.5 -32t-30.5 -8t-47 15q-48 24 -72 24q-39 0 -68 -26q-26 -25 -32 -59h43q3 17 16 30q16 15 37 15q17 0 49 -18q45 -25 71 -25q74 0 95 84h-41z" />
    <glyph glyph-name="hungarumlaut" unicode="&#x2dd;" horiz-adv-x="348" 
d="M157 547q11 12 26 27q5 5 12 13l3 3l3 3q4 4 6 7q15 15 25 26l28 28h-85l-68 -107h50zM331 547q11 12 26 27q5 5 12 13l3 3l3 3q4 4 6 7q15 15 25 26l28 28h-85l-68 -107h50z" />
    <glyph glyph-name="gravecomb" unicode="&#x300;" horiz-adv-x="297" 
d="M317 707l-38 107h-86l79 -107h45z" />
    <glyph glyph-name="acutecomb" unicode="&#x301;" horiz-adv-x="296" 
d="M228 707q5 6 13 13q4 5 12 14q8 8 12 13l13 13q13 14 25 26q13 14 28 28h-85l-68 -107h50z" />
    <glyph glyph-name="uni0302" unicode="&#x302;" horiz-adv-x="417" 
d="M437 707l-76 107h-80q-7 -7 -14 -15q-3 -3 -7 -6q-1 -2 -3 -4q-3 -2 -3 -3l-13 -13q-7 -7 -12 -13q-14 -13 -25 -25l-26 -28h72l71 84l47 -84h69z" />
    </font>
</defs>
</svg>
