<?xml version="1.0" encoding="utf-8"?>
<!-- Generator: Adobe Illustrator 19.2.0, SVG Export Plug-In . SVG Version: 6.00 Build 0)  -->
<svg version="1.1" id="Layer_1" xmlns="http://www.w3.org/2000/svg" xmlns:xlink="http://www.w3.org/1999/xlink" x="0px" y="0px"
	 viewBox="0 0 167.3 18" style="enable-background:new 0 0 167.3 18;" xml:space="preserve">
<style type="text/css">
	.st0{fill:#FFFFFF;}
</style>
<title>logo-grynevich</title>
<path class="st0" d="M7.6,0.1c1.5,0,2.8,0.3,3.8,0.9C13,1.8,14,3.3,14.3,5.4h-2.1c-0.3-1.2-0.8-2-1.6-2.6C9.8,2.3,8.8,2,7.6,2
	C6.1,2,4.9,2.6,3.9,3.7c-1,1.1-1.5,2.8-1.5,5c0,1.9,0.4,3.5,1.2,4.6c0.8,1.2,2.2,1.8,4,1.8c1.4,0,2.6-0.4,3.5-1.3
	c0.9-0.8,1.4-2.2,1.4-4.1h-5V8h7v8.6h-1.4l-0.5-2.1c-0.7,0.8-1.4,1.4-1.9,1.7c-0.9,0.5-2.1,0.8-3.6,0.8c-1.9,0-3.5-0.6-4.8-1.8
	c-1.5-1.5-2.2-3.7-2.2-6.3c0-2.7,0.7-4.8,2.1-6.4C3.7,0.9,5.4,0.1,7.6,0.1L7.6,0.1z M22.9,16.5v-16h7.3c1.2,0,2.2,0.2,3,0.5
	c1.5,0.7,2.2,1.9,2.2,3.8c0,1-0.2,1.7-0.6,2.4s-0.9,1.1-1.7,1.5c0.6,0.3,1.1,0.6,1.4,1c0.3,0.4,0.5,1.1,0.5,2l0.1,2.1
	c0,0.6,0.1,1.1,0.2,1.4c0.1,0.5,0.4,0.8,0.7,1v0.4h-2.7c-0.1-0.2-0.1-0.3-0.2-0.5c0-0.2-0.1-0.6-0.1-1.3L32.9,12
	c0-1-0.4-1.7-1.1-2.1c-0.4-0.2-1-0.3-1.9-0.3H25v6.9C25,16.5,22.9,16.5,22.9,16.5z M25,7.8h4.9c1,0,1.8-0.2,2.3-0.6
	c0.6-0.4,0.9-1.1,0.9-2.2c0-1.1-0.4-1.9-1.2-2.3c-0.4-0.2-1-0.3-1.7-0.3H25L25,7.8L25,7.8z M47.6,10.1l-6-9.6h2.5l4.6,7.7l4.6-7.7
	h2.5l-6.1,9.6v6.4h-2.2L47.6,10.1L47.6,10.1z M62.1,16.5v-16h2.6l8,12.9V0.5h2.1v16h-2.4L64.2,3.6v12.9L62.1,16.5L62.1,16.5z
	 M82.9,16.5v-16h11.6v2H85v4.9h8.8v1.9H85v5.4h9.7v1.9L82.9,16.5L82.9,16.5z M100.9,0.5h2.4l4.6,13.6l4.5-13.6h2.4l-5.8,16h-2.3
	L100.9,0.5z M121.8,16.5v-16h2.2v16H121.8z M138.7,0.1c2,0,3.6,0.5,4.7,1.6c1.1,1.1,1.7,2.3,1.8,3.6h-2.1c-0.2-1-0.7-1.8-1.4-2.5
	c-0.7-0.6-1.7-0.9-3-0.9c-1.5,0-2.8,0.6-3.7,1.7c-1,1.1-1.4,2.8-1.4,5.1c0,1.9,0.4,3.4,1.3,4.6c0.9,1.2,2.1,1.8,3.8,1.8
	c1.6,0,2.8-0.6,3.6-1.8c0.4-0.6,0.8-1.5,1-2.5h2.1c-0.2,1.7-0.8,3.1-1.9,4.2c-1.3,1.4-2.9,2.1-5.1,2.1c-1.8,0-3.4-0.6-4.6-1.7
	c-1.6-1.5-2.5-3.8-2.5-6.9c0-2.4,0.6-4.3,1.9-5.8C134.5,0.9,136.3,0.1,138.7,0.1L138.7,0.1z M152.6,16.5v-16h2.2v6.6h8.2V0.5h2.2v16
	H163V9h-8.2v7.5L152.6,16.5L152.6,16.5z"/>
</svg>
