<svg xmlns="http://www.w3.org/2000/svg" viewBox="0 0 117.76 41.72"><defs><style>.cls-1{fill:#303030}</style><clipPath id="clip-path"><path class="cls-1" d="M49.39 25.06c9 0 11.12-7.57 9.77-9.83s-4.4-1.33-7.7-.19c-7.68 2.47-9.15 11-9.21 14.37s.71 7.06 4.7 7 7.29-1.88 8.64-3.78.34-2.65-.94-2.08c-5.35 1.85-5.76-.39-5.45-4.92a3 3 0 0 1 .19-.57zm44.35-4.16a33.51 33.51 0 0 1 5.64-.19l-10 11.72c-1.18 1.26-1.59 3.92 1.88 4h11.09c3.41-.05 5.94-1.88 8.64-6.43 2.4-3.94 2.58-7.74-1.32-8.7-1.92-.35-2.39.25-3 1.13s-1.26 1.95-.19 2.84c.8.53 2.8.47 2.44 2.46s-2 2-5.26 2.08l-7.47.19 10.71-13.26c1-1.54.19-2.78-1.5-2.84l-8.46.19a4.72 4.72 0 0 0-4.13 2.84L91.68 19c-.68 1.57.14 2.58 2.06 1.9zm-22-3a3.62 3.62 0 0 1 0 2.65l-3.18 12.26c-.58 2.42.36 3.54 2.44 3.4 2.26 0 3.61-.81 4.13-2.84l2.07-8.13c.64-2.49 2.28-6.32 3.95-6.43 1.51-.25 2.21-.2 1.13 3.59l-2.63 9.07c-.65 2.75-.65 4.8 2.44 4.93A8.71 8.71 0 0 0 87 34.7a1.58 1.58 0 0 0 .19-2.46c-.57-.56-.92-1-.38-2.84l3.38-10.59c.77-2.5.59-5-2.63-5.1s-6 2.08-7.52 3c0-1.24-.13-3.55-2.44-2.84a36.84 36.84 0 0 0-5.64 2.27c-.96.36-.96 1.18-.2 1.73zm-9.57-2.3a16.16 16.16 0 0 1 4.32-1.7c1.31-.54 3.19-.18 2.44 2.27s-3.13 10.55-3.76 14c-.26 1-.31 1.34.19 2.08A1.53 1.53 0 0 1 65 34.7a21.39 21.39 0 0 1-5.83 1.51c-2.05.2-2.05-1.93-1.5-3.78S61 20 61 20c.3-1.27.18-1.86 0-2.08-.37-.43-.48-1.42 1.17-2.32zM66.31 6c-2 1.61-2.62 4.57-1.5 5.67s3.76.49 5.64-1.32a4.54 4.54 0 0 0 .94-4.54c-.53-.95-2.76-1.19-5.08.19zm-26.5 21.32s3-13.49 7-21.55a16.4 16.4 0 0 0-5.83-.38c-1.79.76-2.62 1.83-3.95 6.43l-1.73 6.81h-4.89l2.82-11.72C33.51 5.8 32.92 5 31.54 5c-2.15 0-9.31-.16-13.91 1.7-8 3-5 10.31-3.76 13.23 1.31 2.75 6.71-.09 5.83-1.89-3.58-8.24.65-9.3 2.26-10 1.45-.7 4.5-.94 3.76 2.46L23.46 20c-.53 2.39-3 12.44-7.14 13.42s-5.25-9-5.26-11.72c-.22-1.55-6-.13-6 4-.67 9.37 6.38 13.15 13.34 10 8.1-3.81 9.72-7 11.28-13.23v-.57h4.7l-2.84 11.28c-1 3.27 4.5 4.68 7.89 1.13a1.61 1.61 0 0 0 0-2.46c-.34-.98-.19-2.38.38-4.53z"/></clipPath><clipPath id="clip-path-2"><path class="cls-1" d="M50.31 22c.79-3.57 2.37-5.64 3.13-5.44s.56 1.14.17 2.54c-.81 3.01-2.01 3.07-3.3 2.9z"/></clipPath></defs><g id="Layer_2" data-name="Layer 2"><g id="Layer_1-2" data-name="Layer 1" fill="#303030"><g clip-path="url(#clip-path)"><path d="M0 0h117.76v41.72H0z"/></g><g clip-path="url(#clip-path-2)"><path fill="#fff" d="M45.31 11.59h13.67v15.49H45.31z"/></g></g></g></svg>