<svg xmlns="http://www.w3.org/2000/svg" viewBox="0 0 507.27 123.59"><g data-name="Layer 2"><g data-name="Layer 1" fill-rule="evenodd"><path d="M0 61.64a55.24 55.24 0 0 1 4.78-23.52A60.74 60.74 0 0 1 18.1 18.18 63.82 63.82 0 0 1 38 4.86 60.78 60.78 0 0 1 61.63 0a56.82 56.82 0 0 1 23.53 4.86 61.42 61.42 0 0 1 33.25 33.25 58.13 58.13 0 0 1 4.86 23.52 56.39 56.39 0 0 1-4.86 23.6 65 65 0 0 1-13.32 19.93 46.72 46.72 0 0 1-9.33 7.84 67.57 67.57 0 0 1-10.6 5.51 82.42 82.42 0 0 1-11.48 3.91 57.1 57.1 0 0 1-12.36 1.2 59.76 59.76 0 0 1-15.71-2.39 64.91 64.91 0 0 1-14.83-6.06 65.6 65.6 0 0 1-12.68-10c-5.74-5.42-10-12.12-13.31-19.62A66.29 66.29 0 0 1 0 61.64zm111.47 10.68A51.09 51.09 0 0 1 97.91 98a55.47 55.47 0 0 1-14.51 10.28 51.89 51.89 0 0 1-12.2 3.91c-6.86 1.11-5.5 1.83-5.58-5.5V73.84c0-9.09-1.52-7.82 7.57-7.82H106c7.22-.02 6.83-1.27 5.47 6.3zm.24-21.53a51 51 0 0 0-13.56-25.67 55.51 55.51 0 0 0-14.51-10.29 52.11 52.11 0 0 0-12.2-3.91c-6.86-1.11-5.5-1.83-5.58 5.5v32.86c0 9.09-1.51 7.82 7.58 7.82h32.77c7.25 0 6.85 1.27 5.5-6.31z" fill="#004e8e"/><path d="M473.33 42h8.29v19l15.54-19h10l-15.88 19.31 16 20.18h-10.61l-15.05-19.6v19.6h-8.29zm-20.92 6.87q-4.49 0-6.83 2.25a8.32 8.32 0 0 0-1.86 2.91 10.94 10.94 0 0 0-.67 4h23V65h-23c0 3.43.72 5.91 2.17 7.41s3.85 2.25 7.23 2.25h13.63v6.87H452a40.38 40.38 0 0 1-4.13-.19 17.28 17.28 0 0 1-3.17-.58 14.53 14.53 0 0 1-5-2.68 15.18 15.18 0 0 1-4.56-6.28 20.48 20.48 0 0 1-1.13-4.22 31.77 31.77 0 0 1-.37-5.05Q433.7 52 438.22 47t14.07-5h13.79v6.87zm-51.17 26H411q5.21 0 7.12-2.2t1.9-9.08V42h8.64v23.5a24.92 24.92 0 0 1-.84 7 12.66 12.66 0 0 1-2.67 4.83 11.36 11.36 0 0 1-4.8 3.22 18.51 18.51 0 0 1-3.43.68 44 44 0 0 1-4.81.24h-10.87zm-3.92 6.55h-8.66V42h8.66zm-23.62 0a26.85 26.85 0 0 1-8.2-.91 11.92 11.92 0 0 1-4.81-3.22 11.67 11.67 0 0 1-2.69-4.52 24.87 24.87 0 0 1-.83-7.27V42h8.29v23.23a25.75 25.75 0 0 0 .31 4.92 5 5 0 0 0 1.05 2.22 6.57 6.57 0 0 0 2.9 2 14.83 14.83 0 0 0 4.74.62h9.77v6.55zM329.7 42h8.8l16.82 39.44h-9.23l-3.63-9.39h-17.14l-3.51 9.39H313zm4.08 7.83L328 65.07h11.75zM275.64 42h10.5l16.15 28.34-.42-28.34h8.48v39.49h-9.64l-17-29.83.38 29.83h-8.51zm-8.13 7H247a7.8 7.8 0 0 0-4.84 1.21 4.72 4.72 0 0 0-1.54 3.93 3.91 3.91 0 0 0 1.32 3.22 4.56 4.56 0 0 0 1.6.8 8.78 8.78 0 0 0 2.31.27h11q6.78 0 9.69 2.58t2.89 8.59q0 6.06-3.32 8.93t-10.47 2.87h-22.1v-7h20.77q3.57 0 5-1a3.9 3.9 0 0 0 1.44-3.4 4.22 4.22 0 0 0-1.32-3.5c-.87-.7-2.39-1.06-4.56-1.06h-9.79q-6.84 0-10-2.72T232 54.13q0-6.29 3.3-9.18T245.8 42h21.7zm-58.68-1q-5.31 0-8 3.32t-2.63 10.1q0 7.34 2.56 10.71t8.07 3.38q5.39 0 8-3.38c1.75-2.25 2.63-5.71 2.63-10.37s-.87-8.14-2.6-10.38-4.4-3.38-8.03-3.38zm-19.69 13.37q0-10.18 4.87-15.13t14.82-5q10 0 14.85 5t4.83 15.5q0 10.43-4.82 15.49t-14.85 5.06q-10.11 0-14.9-5.08t-4.8-15.84zM171.9 81.49h-21.7V42h20.26a38 38 0 0 1 6.25.41 10.72 10.72 0 0 1 3.87 1.38 9.21 9.21 0 0 1 3.31 3.57 10.52 10.52 0 0 1 1.11 4.96 10.32 10.32 0 0 1-1.41 5.59 11.23 11.23 0 0 1-4.47 3.86 8.88 8.88 0 0 1 6 9q0 5.51-3.23 8.13t-9.99 2.59zm-1.16-7a6.23 6.23 0 0 0 4.13-1.11 4.37 4.37 0 0 0 1.29-3.5 4.43 4.43 0 0 0-1.3-3.54 6.23 6.23 0 0 0-4.12-1.12h-12.25v9.27zm-12.25-25.36v9.13h12.12a6.26 6.26 0 0 0 4.15-1.13 4.29 4.29 0 0 0 1.3-3.44 4.25 4.25 0 0 0-1.32-3.44 6.29 6.29 0 0 0-4.13-1.12z" fill="#757171"/></g></g></svg>