<svg xmlns="http://www.w3.org/2000/svg" viewBox="0 0 1277.78 269.26"><g data-name="Layer 2"><path d="M704.68 224l-5.76-5.1a74.31 74.31 0 0 1-57 29.19c-43 1-64.66-27.37-66.77-74.47a54.34 54.34 0 0 1 .14-8.71h126.2c1.4-43.27-19.74-72.7-67.69-73.12-46.56-.37-85.81 34-86.46 91.28-.52 52.64 33.35 85.9 77.24 85.9 34 0 62-15.63 80.1-45zm-77.11-120.42c27.8-.09 45.1 19.93 41.83 49.78h-93.58c4.26-26.94 23.11-49.78 51.75-49.78zM309.2 245.48c-18.39 8.84-28.4 2.47-28.4-15.86v-86.74c.88-30.36-20-50.34-63.73-51.13-23.81-.42-49 9.69-66.76 23.11v27h23c2.81-20 15.86-40 40.94-39.77 27.65.14 36.87 19.6 36.87 46v17.21c-58.91 6.6-112.06 16.7-112.89 61.1.37 28.25 20.53 43.27 50.76 42.67 26-.56 46-14.51 63.39-28.3 2.76 14.55 11.56 28.12 26.2 28.44 5.48.27 12.26-3.6 19-7.62 4.48-3.09 11.18-7.11 14.73-9.63l-3.17-6.51zm-58.06-15.86c-12.36 10.29-31.68 19-47.58 19-21.33.7-32.94-9.87-32.85-27.65.09-28.49 33.45-39.58 80.43-44.44zM98.38 256.47c-6-.33-13.8-.28-16.65-.65-14.6-1.78-22.55-8.05-22.55-19.18v-128.1h42.95v-12H59.18V43.89c0-20.91 10.67-32.14 27.41-32.14 16.57 0 25 15.31 26.53 30.93H136V12.73C125.8 6.55 113.26.2 97 .28 53.9.38 29.42 23.59 29.42 71.4v25.17H.14v12h29.28v130c0 11.6-13.1 18-29.42 18v9.13h98.38zm952.26-191.62a19.25 19.25 0 1 0-19.23-19.28 19.32 19.32 0 0 0 19.23 19.28zm-607.5 26.52c-22.08.14-43.51 14.55-61.94 30.74V0l-59.8 8.19v8.05c19.37-.71 29.52.6 29.52 23.62v207.26c20.87 12.72 48.66 22 73.78 21.8 51.84-.09 91.6-35.18 91.37-94.83.09-45.89-24.69-83.13-72.94-82.72zM427.52 257.6c-15.44.09-32.33-5.8-46.32-18.06V136.8c12.73-14 29.8-23.67 49.92-23.86 38.5-.47 54.46 28.76 54.13 69.61-.28 42.06-21.38 74.76-57.73 75zm850.26-34.06l-5.66-4.59c-14.31 16.71-32.61 28.69-57.82 29.1-46.09.85-65.74-33.59-65-78.13.56-36.5 26.1-65.83 55.77-66.2 19.79-.23 35 12.26 39.2 35.13h22.89v-27c-16.94-10.86-32.71-20-57.69-20.08-48.7-.14-89.32 33.49-89.32 90.81 0 55.57 36.4 86.18 78.09 86.18 37.05 0 64.28-18.9 79.57-45.2zm-405-91.79v-30.4c-5-5.34-12.55-9.6-23.45-9.6-23.72 0-42.53 16.24-59.75 38.12-.23-12.72-2.1-25.58-5.33-35.22l-54.74 8.28V111c18.9-1.25 29.15.84 29.76 21.29v106.2c0 15.06-8.7 18-28 18.95v8.14h86.43v-8.14c-18.43-.66-28.21-3.27-28.21-18.95v-90.32c13.9-22.13 27-35 44.49-35.23 9.31-.19 17.27 8.28 18.39 18.81h20.36zM1067 236.5V95.16l-60 8.33.14 8.14c21.66-1.22 29.76 1.92 29.76 24.52V236.5c0 18.81-10.71 19.32-28.44 21v8.09h86.83v-8.09c-19.55-.84-28.36-4.21-28.36-21zm-122.67.79V0l-59.91 8.33.05 8.1c21.61-1.26 29.8 1.92 29.8 24.56v196.3c0 18.81-10.67 18.53-28.4 20.21v8.09h86.79v-8.09c-19.56-.84-28.36-3.37-28.36-20.21z" fill="#303030" data-name="Layer 1"/></g></svg>