<?xml version="1.0" encoding="utf-8"?>
<!-- Generator: Adobe Illustrator 21.1.0, SVG Export Plug-In . SVG Version: 6.00 Build 0)  -->
<svg version="1.1"
	 id="Layer_1" inkscape:version="0.91 r13725" sodipodi:docname="Visa_2006.svg" xmlns:cc="http://creativecommons.org/ns#" xmlns:dc="http://purl.org/dc/elements/1.1/" xmlns:inkscape="http://www.inkscape.org/namespaces/inkscape" xmlns:rdf="http://www.w3.org/1999/02/22-rdf-syntax-ns#" xmlns:sodipodi="http://sodipodi.sourceforge.net/DTD/sodipodi-0.dtd" xmlns:svg="http://www.w3.org/2000/svg"
	 xmlns="http://www.w3.org/2000/svg" xmlns:xlink="http://www.w3.org/1999/xlink" x="0px" y="0px" viewBox="0 0 311 99.6"
	 style="enable-background:new 0 0 311 99.6;" xml:space="preserve">
<style type="text/css">
	.st0{fill:#00579F;}
	.st1{fill:#FAA61A;}
</style>
<sodipodi:namedview  bordercolor="#666666" borderopacity="1" gridtolerance="10" guidetolerance="10" id="namedview19" inkscape:current-layer="Layer_1" inkscape:cx="34.690897" inkscape:cy="131.15483" inkscape:pageopacity="0" inkscape:pageshadow="2" inkscape:window-height="705" inkscape:window-maximized="1" inkscape:window-width="1366" inkscape:window-x="-8" inkscape:window-y="-8" inkscape:zoom="0.35355339" objecttolerance="10" pagecolor="#ffffff" showgrid="false">
	</sodipodi:namedview>
<g id="g4158" transform="matrix(4.4299631,0,0,4.4299631,-81.165783,-105.04783)">
	<polygon id="polygon9" class="st0" points="48.4,45.9 42.8,45.9 46.3,24.1 51.9,24.1 	"/>
	<path id="path11" inkscape:connector-curvature="0" class="st0" d="M68.8,24.6c-1.1-0.4-2.9-0.9-5-0.9c-5.6,0-9.5,3-9.5,7.2
		c0,3.1,2.8,4.9,4.9,5.9c2.2,1.1,2.9,1.8,2.9,2.7c0,1.5-1.8,2.1-3.4,2.1c-2.2,0-3.5-0.3-5.3-1.2l-0.7-0.3L51.9,45
		c1.3,0.6,3.8,1.1,6.3,1.2c5.9,0,9.7-2.9,9.8-7.4c0-2.5-1.5-4.4-4.7-5.9c-2-1-3.2-1.7-3.2-2.7c0-0.9,1-1.9,3.2-1.9
		c1.8,0,3.2,0.4,4.2,0.8l0.5,0.2L68.8,24.6C68.8,24.6,68.8,24.6,68.8,24.6z"/>
	<path id="path13" inkscape:connector-curvature="0" class="st0" d="M76.3,38.2c0.5-1.3,2.2-6.1,2.2-6.1c0,0,0.5-1.3,0.7-2.1
		l0.4,1.9c0,0,1.1,5.2,1.3,6.3C80.1,38.2,77.4,38.2,76.3,38.2L76.3,38.2z M83.3,24.1h-4.4c-1.3,0-2.4,0.4-2.9,1.8l-8.4,20h5.9
		c0,0,1-2.7,1.2-3.3c0.6,0,6.4,0,7.2,0c0.2,0.8,0.7,3.3,0.7,3.3h5.2L83.3,24.1L83.3,24.1L83.3,24.1z"/>
	<path id="path15" inkscape:connector-curvature="0" class="st0" d="M38.1,24.1l-5.5,14.8l-0.6-3c-1-3.5-4.2-7.2-7.8-9.1l5,19h6
		L44,24.1L38.1,24.1L38.1,24.1L38.1,24.1z"/>
	<path id="path17" inkscape:connector-curvature="0" class="st1" d="M27.5,24.1h-9.1l-0.1,0.4c7.1,1.8,11.7,6.2,13.7,11.4l-2-10
		C29.7,24.5,28.7,24.2,27.5,24.1L27.5,24.1z"/>
</g>
</svg>
