<?xml version="1.0" encoding="utf-8"?>
<!-- Generator: Adobe Illustrator 19.2.0, SVG Export Plug-In . SVG Version: 6.00 Build 0)  -->
<svg version="1.1" id="Layer_1" xmlns="http://www.w3.org/2000/svg" xmlns:xlink="http://www.w3.org/1999/xlink" x="0px" y="0px"
	 viewBox="0 0 118.5 16.3" style="enable-background:new 0 0 118.5 16.3;" xml:space="preserve">
<style type="text/css">
	.st0{fill:#FFFFFF;}
</style>
<title>Combined shape 45</title>
<path class="st0" d="M0.8,16.2V0h6.5c2.2,0,3.9,0.8,5.1,2.4C13.5,3.8,14,5.6,14,7.8c0,1.7-0.3,3.3-1,4.7c-1.1,2.5-3.1,3.7-5.8,3.7
	C7.3,16.2,0.8,16.2,0.8,16.2z M3,14.3h3.8c0.7,0,1.3-0.1,1.8-0.2c0.8-0.3,1.5-0.8,2-1.7c0.4-0.7,0.7-1.5,0.9-2.5
	c0.1-0.6,0.2-1.2,0.2-1.7c0-2-0.4-3.6-1.2-4.7c-0.8-1.1-2-1.7-3.8-1.7H3L3,14.3L3,14.3z M21.4,16.2V0h3.1l4.6,13.7L33.8,0H37v16.2
	h-2.1V6.6c0-0.3,0-0.9,0-1.6c0-0.8,0-1.6,0-2.5l-4.6,13.6h-2.2L23.5,2.5V3c0,0.4,0,1,0,1.8c0,0.8,0,1.4,0,1.8v9.5
	C23.5,16.2,21.4,16.2,21.4,16.2z M45.3,16.2V0h2.2v16.2C47.5,16.2,45.3,16.2,45.3,16.2z M54.2,0h13.1v1.9h-5.4v14.2h-2.2V1.9h-5.4V0
	L54.2,0z M74.1,16.2V0h7.3c1.2,0,2.2,0.2,3,0.5c1.5,0.7,2.2,2,2.2,3.8c0,1-0.2,1.8-0.6,2.4c-0.4,0.6-1,1.1-1.7,1.5
	c0.6,0.3,1.1,0.6,1.4,1c0.3,0.4,0.5,1.1,0.5,2l0.1,2.2c0,0.6,0.1,1.1,0.2,1.4c0.1,0.5,0.4,0.8,0.7,1v0.4h-2.7
	c-0.1-0.2-0.1-0.4-0.2-0.5c0-0.2-0.1-0.6-0.1-1.3l-0.1-2.7c-0.1-1.1-0.4-1.8-1.1-2.1c-0.4-0.2-1-0.3-1.9-0.3h-4.8v6.9L74.1,16.2
	L74.1,16.2z M76.3,7.4h4.9c1,0,1.8-0.2,2.4-0.6c0.6-0.4,0.9-1.2,0.9-2.2c0-1.2-0.4-1.9-1.2-2.4c-0.4-0.2-1-0.3-1.7-0.3h-5.2
	L76.3,7.4L76.3,7.4z M95.1,16.2V0h2.2v16.2H95.1z M110.2,9.7L104.1,0h2.6l4.6,7.8L116,0h2.6l-6.1,9.6v6.5h-2.2
	C110.2,16.2,110.2,9.7,110.2,9.7z"/>
</svg>
