<svg width="91" height="17" viewBox="0 0 91 17" xmlns="http://www.w3.org/2000/svg"><title>logo-int-arc</title><path d="M35.994 7.317V.86h.883v6.456h-.883zm4.103 0V.86h1.03l3.22 5.216V.861h.834v6.456H44.2l-3.267-5.21v5.21h-.835zM47.856.86h5.234v.769h-2.176v5.687h-.883V1.63h-2.175V.86zm7.921 6.456V.86h4.685v.79H56.63v1.96h3.542v.748H56.63v2.189h3.898v.769h-4.75zm7.825 0V.86h2.935c.483 0 .881.071 1.195.215.595.275.893.784.893 1.525 0 .387-.08.703-.24.95a1.73 1.73 0 0 1-.67.593c.252.102.442.237.57.404.127.167.198.438.213.813l.03.866c.01.246.03.429.062.55.053.204.147.336.281.395v.145H67.8a.804.804 0 0 1-.07-.216 4.113 4.113 0 0 1-.044-.51l-.053-1.076c-.02-.422-.172-.705-.457-.848-.162-.08-.417-.12-.764-.12h-1.934v2.77h-.875zm.875-3.499h1.966c.398 0 .714-.082.946-.246.232-.164.349-.46.349-.887 0-.46-.163-.774-.488-.941-.173-.088-.406-.132-.696-.132h-2.077v2.206zm7.517 3.499V.86h.883v6.456h-.883zM78.883.685c1.14 0 1.983.366 2.531 1.099.428.57.642 1.302.642 2.193 0 .964-.245 1.765-.734 2.404-.574.75-1.393 1.125-2.457 1.125-.993 0-1.774-.329-2.342-.985-.507-.633-.76-1.432-.76-2.4 0-.872.217-1.62.65-2.24.557-.798 1.38-1.196 2.47-1.196zm.088 6.043c.77 0 1.328-.277 1.672-.83.344-.552.516-1.188.516-1.906 0-.76-.198-1.371-.595-1.834-.397-.464-.94-.695-1.628-.695-.668 0-1.213.229-1.635.688-.422.46-.633 1.136-.633 2.03 0 .716.181 1.319.543 1.81.362.491.948.737 1.76.737zm6.032.589V.86h2.934c.483 0 .882.071 1.195.215.596.275.894.784.894 1.525 0 .387-.08.703-.24.95a1.73 1.73 0 0 1-.67.593c.252.102.442.237.57.404.127.167.198.438.212.813l.031.866c.009.246.03.429.062.55.052.204.146.336.28.395v.145H89.2a.802.802 0 0 1-.07-.216 4.136 4.136 0 0 1-.045-.51l-.052-1.076c-.02-.422-.173-.705-.457-.848-.163-.08-.417-.12-.765-.12h-1.934v2.77h-.874zm.874-3.499h1.966c.399 0 .714-.082.947-.246.232-.164.348-.46.348-.887 0-.46-.162-.774-.487-.941-.174-.088-.406-.132-.697-.132h-2.077v2.206zm-85.329 13L2.98 10.36h.987l2.343 6.457h-.958l-.674-1.934H2.145l-.7 1.934H.548zm1.854-2.646H4.43l-.994-2.853-1.033 2.853zm6.602 2.646V10.36h2.934c.483 0 .882.072 1.195.216.596.275.893.784.893 1.525 0 .386-.08.703-.239.95-.16.245-.383.443-.67.592.252.103.442.238.569.405.127.167.198.438.213.813l.03.866c.01.246.03.43.062.55.053.204.147.336.282.395v.145H13.2a.806.806 0 0 1-.07-.216 4.115 4.115 0 0 1-.044-.51l-.053-1.076c-.02-.422-.172-.705-.456-.848-.163-.08-.418-.12-.765-.12H9.878v2.77h-.874zm.874-3.499h1.966c.399 0 .714-.082.947-.246.232-.164.348-.46.348-.888 0-.46-.163-.773-.487-.94-.174-.088-.406-.132-.697-.132H9.878v2.206zm10.005-3.133c.808 0 1.435.215 1.88.646.446.43.694.92.743 1.468h-.852c-.095-.416-.284-.746-.568-.99-.283-.242-.681-.364-1.193-.364-.625 0-1.129.224-1.513.67-.384.448-.576 1.133-.576 2.057 0 .757.173 1.37.52 1.841.347.47.864.706 1.552.706.633 0 1.115-.248 1.446-.743.176-.26.307-.603.393-1.028h.853c-.076.68-.325 1.25-.747 1.71-.507.553-1.19.83-2.05.83-.742 0-1.365-.227-1.869-.682-.663-.6-.994-1.529-.994-2.784 0-.952.249-1.733.747-2.343.538-.663 1.28-.994 2.228-.994zm5.636 6.632V10.36h.883v2.668h3.318V10.36h.884v6.457h-.884v-3.02h-3.318v3.02h-.883zm8.475 0V10.36h.884v6.457h-.884zm3.563-6.457h5.234v.77h-2.176v5.687h-.883V11.13h-2.175v-.77zm7.921 6.457V10.36h4.685v.792H46.33v1.96h3.542v.747H46.33v2.189h3.898v.769h-4.75zm10.405-6.632c.808 0 1.435.215 1.88.646.446.43.694.92.743 1.468h-.852c-.095-.416-.285-.746-.568-.99-.283-.242-.681-.364-1.193-.364-.624 0-1.129.224-1.513.67-.384.448-.576 1.133-.576 2.057 0 .757.173 1.37.52 1.841.347.47.864.706 1.552.706.633 0 1.115-.248 1.446-.743.176-.26.307-.603.393-1.028h.853c-.076.68-.325 1.25-.747 1.71-.507.553-1.19.83-2.05.83-.742 0-1.365-.227-1.869-.682-.663-.6-.994-1.529-.994-2.784 0-.952.249-1.733.747-2.343.538-.663 1.28-.994 2.228-.994zm5.074.175h5.234v.77h-2.176v5.687h-.883V11.13h-2.175v-.77zm7.9 0h.883v3.991c0 .469.088.859.265 1.17.263.468.706.702 1.33.702.746 0 1.254-.253 1.523-.76.145-.275.217-.646.217-1.112v-3.99h.883v3.625c0 .794-.107 1.405-.322 1.833-.394.78-1.137 1.17-2.231 1.17-1.094 0-1.836-.39-2.227-1.17-.215-.428-.322-1.039-.322-1.833v-3.626zm8.343 6.457V10.36h2.934c.483 0 .882.072 1.195.216.596.275.894.784.894 1.525 0 .386-.08.703-.24.95-.16.245-.383.443-.67.592.252.103.442.238.569.405.127.167.198.438.213.813l.03.866c.01.246.03.43.062.55.053.204.147.336.282.395v.145h-1.072a.8.8 0 0 1-.07-.216 4.11 4.11 0 0 1-.045-.51l-.053-1.076c-.02-.422-.172-.705-.456-.848-.163-.08-.417-.12-.765-.12h-1.934v2.77H77.2zm.874-3.499h1.966c.399 0 .714-.082.947-.246.232-.164.348-.46.348-.888 0-.46-.162-.773-.487-.94-.174-.088-.406-.132-.697-.132h-2.077v2.206zm7.403 3.499V10.36h4.685v.792H86.33v1.96h3.542v.747H86.33v2.189h3.898v.769h-4.75z" fill="#FFF" fill-rule="evenodd"/></svg>