<svg width="74" height="9" viewBox="0 0 74 9" xmlns="http://www.w3.org/2000/svg"><title>logo-workshop</title><path d="M.622.641h1.054L3.028 6.47 4.65.641H5.7l1.625 5.84L8.677.64h1.066L7.858 7.815h-1.02L5.181 1.867 3.517 7.815h-1.02L.622.64zM15.734.446c1.267 0 2.204.407 2.813 1.22.475.635.713 1.448.713 2.438 0 1.07-.272 1.96-.816 2.67-.638.834-1.548 1.25-2.73 1.25-1.103 0-1.97-.364-2.602-1.093-.563-.703-.844-1.592-.844-2.666 0-.97.24-1.8.722-2.49.619-.886 1.533-1.33 2.744-1.33zm.098 6.714c.856 0 1.475-.307 1.858-.921.382-.614.574-1.32.574-2.119 0-.844-.22-1.523-.662-2.038-.441-.514-1.044-.772-1.809-.772-.742 0-1.348.255-1.817.765-.468.51-.703 1.262-.703 2.256 0 .795.201 1.465.603 2.01.402.546 1.054.82 1.956.82zm6.702.655V.64h3.26c.537 0 .98.08 1.329.24.661.306.992.87.992 1.694 0 .43-.089.781-.266 1.055a1.924 1.924 0 0 1-.745.66c.28.113.491.263.633.448.141.186.22.487.237.904l.034.962c.01.273.032.477.068.61.059.228.163.375.313.44v.16h-1.192a.894.894 0 0 1-.078-.238 4.6 4.6 0 0 1-.049-.567l-.058-1.196c-.022-.47-.192-.783-.508-.943-.18-.088-.463-.132-.85-.132h-2.148v3.077h-.972zm.972-3.887h2.184c.443 0 .794-.092 1.052-.274.258-.182.387-.51.387-.986 0-.511-.18-.86-.541-1.045-.194-.098-.452-.147-.774-.147h-2.308v2.452zm8.133 3.887V.64h.947v3.511l3.588-3.51h1.359l-3.065 2.894 3.128 4.279h-1.271l-2.57-3.605-1.17 1.104v2.5h-.946zM40.03 5.5h.913c.022.407.115.737.278.992.31.475.857.712 1.641.712.352 0 .671-.052.96-.156.558-.202.837-.563.837-1.084 0-.39-.118-.67-.355-.835-.24-.163-.615-.304-1.125-.425l-.942-.22c-.615-.143-1.05-.3-1.305-.473-.442-.3-.663-.748-.663-1.343 0-.645.217-1.174.651-1.587.434-.414 1.049-.62 1.844-.62.732 0 1.353.18 1.865.544.512.363.767.943.767 1.741h-.913c-.046-.384-.146-.679-.3-.884-.283-.374-.765-.561-1.446-.561-.55 0-.944.12-1.184.361-.24.24-.36.52-.36.84 0 .351.141.609.425.771.186.105.607.235 1.263.391l.975.23c.47.11.833.262 1.088.454.442.335.662.822.662 1.46 0 .794-.281 1.362-.845 1.704-.563.342-1.218.513-1.964.513-.87 0-1.551-.228-2.043-.684-.492-.452-.734-1.066-.724-1.841zm8.973 2.315V.64h.981v2.964h3.687V.641h.981v7.174h-.981V4.46h-3.687v3.355h-.981zM61.296.445c1.266 0 2.204.408 2.812 1.222.476.634.713 1.447.713 2.437 0 1.07-.272 1.96-.815 2.67-.638.834-1.548 1.25-2.73 1.25-1.103 0-1.97-.364-2.602-1.093-.563-.703-.845-1.592-.845-2.666 0-.97.24-1.8.723-2.49.618-.886 1.533-1.33 2.744-1.33zm.097 6.715c.857 0 1.476-.307 1.858-.921.383-.614.574-1.32.574-2.119 0-.844-.22-1.523-.661-2.038-.442-.514-1.045-.772-1.81-.772-.742 0-1.347.255-1.816.765-.469.51-.703 1.262-.703 2.256 0 .795.2 1.465.603 2.01.402.546 1.054.82 1.955.82zm6.678.655V.64h3.21c.634 0 1.147.18 1.537.54.39.36.585.865.585 1.516 0 .56-.174 1.048-.522 1.463-.348.415-.88.622-1.598.622h-2.24v3.033h-.972zm4.35-5.113c0-.527-.193-.886-.58-1.074-.214-.101-.507-.152-.878-.152h-1.92v2.486h1.92c.433 0 .784-.093 1.054-.278.27-.186.405-.513.405-.982z" fill="#FFF" fill-rule="evenodd"/></svg>