<svg width="24" height="30" viewBox="0 0 24 30" fill="none" xmlns="http://www.w3.org/2000/svg">
<path fill-rule="evenodd" clip-rule="evenodd" d="M24 12C24 18.6274 18.6274 24 12 24C5.37258 24 0 18.6274 0 12C0 5.37258 5.37258 0 12 0C18.6274 0 24 5.37258 24 12ZM16.3636 12C16.3636 14.41 14.41 16.3636 12 16.3636C9.59003 16.3636 7.63636 14.41 7.63636 12C7.63636 9.59003 9.59003 7.63636 12 7.63636C14.41 7.63636 16.3636 9.59003 16.3636 12Z" fill="#FF9729"/>
<path fill-rule="evenodd" clip-rule="evenodd" d="M8 23H12.3899H16.7797L12.3899 29.6778L8 23Z" fill="#FF9729"/>
</svg>
