<svg width="1236" height="113" viewBox="0 0 1236 113" fill="none" xmlns="http://www.w3.org/2000/svg">
<g opacity="0.399786">
<path d="M0.364708 0H33L0 32.8938V0.363535L0.364708 0Z" fill="#FF8B11"/>
<path d="M0 68.1448L68.3647 0H101L0 100.675V68.1448Z" fill="#FF8B11"/>
<path d="M138.365 0H171L57.6353 113H25L138.365 0Z" fill="#FF8B11"/>
<path d="M205.365 0H238L124.635 113H92L205.365 0Z" fill="#FF8B11"/>
<path d="M275.365 0H308L194.635 113H162L275.365 0Z" fill="#FF8B11"/>
<path d="M343.365 0H376L262.635 113H230L343.365 0Z" fill="#FF8B11"/>
<path d="M413.365 0H446L332.635 113H300L413.365 0Z" fill="#FF8B11"/>
<path d="M480.365 0H513L399.635 113H367L480.365 0Z" fill="#FF8B11"/>
<path d="M550.365 0H583L469.635 113H437L550.365 0Z" fill="#FF8B11"/>
<path d="M618.365 0H651L537.635 113H505L618.365 0Z" fill="#FF8B11"/>
<path d="M686.365 0H719L605.635 113H573L686.365 0Z" fill="#FF8B11"/>
<path d="M754.365 0H787L673.635 113H641L754.365 0Z" fill="#FF8B11"/>
<path d="M824.365 0H857L743.635 113H711L824.365 0Z" fill="#FF8B11"/>
<path d="M891.365 0H924L810.635 113H778L891.365 0Z" fill="#FF8B11"/>
<path d="M961.365 0H994L880.635 113H848L961.365 0Z" fill="#FF8B11"/>
<path d="M1029.36 0H1062L948.635 113H916L1029.36 0Z" fill="#FF8B11"/>
<path d="M1099.36 0H1132L1018.64 113H986L1099.36 0Z" fill="#FF8B11"/>
<path d="M1166.36 0H1199L1085.64 113H1053L1166.36 0Z" fill="#FF8B11"/>
<path d="M1236 0.363573L1123 113H1155.64L1236 32.8938V0.363573Z" fill="#FF8B11"/>
<path d="M1236 68.1448V100.675L1223.64 113H1191L1236 68.1448Z" fill="#FF8B11"/>
</g>
</svg>
