<svg width="137" height="24" viewBox="0 0 137 24" fill="none" xmlns="http://www.w3.org/2000/svg">
<path fill-rule="evenodd" clip-rule="evenodd" d="M22.9966 5.9423L16.9965 5.9603L16.6288 7.22255L14.3904 15.6331L14.0057 17.1091L22.5198 17.1271L21.9323 19.4558L20.8495 23.5103H2.35296L1.69195 23.3858L1.32507 23.1901L0.939614 22.7633L0.719794 22.3186L0.591309 21.5183L0.737597 20.6116L1.45356 17.8381L2.02246 15.7576L2.44429 14.1218L3.34369 10.7791L4.353 6.9383L5.14172 3.9683L5.38089 3.09755L5.65566 2.49305L6.0775 1.9238L6.35305 1.60355L7.12396 0.999054L7.56438 0.786054L8.33529 0.608304L8.75713 0.555054H24.4463L22.9966 5.9423ZM40.6131 5.4443L40.0264 7.6673L39.0349 11.3656L38.87 12.0233L37.5666 17.0731L43.439 17.0911L41.7145 23.5276L26.0981 23.5103L25.2722 23.3858L24.8132 23.1901L24.355 22.7813L24.0794 22.2121L24.0245 21.4651L24.2629 20.1496L24.5384 19.1003L25.2722 16.3441L26.5199 11.6326L26.8318 10.5653L27.0153 9.8363L27.0524 9.7118L27.1987 9.05405L28.1167 5.7113L28.3001 5.05355L29.328 1.26605L29.5115 0.555054H41.898L40.6131 5.4443ZM58.7064 11.7923L58.8349 11.3656L61.7893 0.555054H52.7063L52.3394 0.608304L51.6784 0.750054L50.981 1.0703L50.3208 1.51505L49.9167 1.9418L49.6598 2.33255L49.3293 3.0443L47.7882 8.6093L46.9074 11.8283L44.0451 22.4258L43.7881 23.5276H55.5508V23.4923L55.752 22.7986L57.2753 17.1803H62.5231V23.5276H74.3592V0.555054H62.5416L62.5231 11.8103H58.725L58.7064 11.7923ZM94.3063 1.1948L91.8472 10.2451L91.6638 10.8323L91.3697 11.8456L95.242 11.8636L95.2784 0.555054H107.152V23.5276H95.242V17.1803H90.0306L88.2876 23.5103H76.7447L78.3779 17.4998L79.5892 12.9481L80.727 8.78705L82.4887 2.4038L82.837 1.7813L83.3509 1.3193L84.1582 0.857304L84.9655 0.608304L85.4794 0.555054H94.4526L94.3063 1.1948ZM135.264 5.7293L135.337 5.5868L136.622 0.555054H117.409L116.675 0.661554L116.07 0.892554L115.373 1.40855L115.042 1.7993L114.766 2.2613L114.492 2.9903L113.042 8.5208L112.602 10.1918L112.509 10.9741L112.657 11.6146L112.987 12.0766L113.28 12.3616L113.519 12.5033L114.033 12.6811L121.52 12.6991L121.538 12.7171L121.52 12.8236L120.987 15.0638L120.437 17.0731H110.858V17.1091L110.84 17.1271L109.17 23.5276L128.823 23.5103L130.181 23.3678L130.787 23.1188L131.337 22.7453L131.759 22.3366L132.328 21.6436L132.677 20.8606L134.347 14.4061L134.806 12.4501L134.842 11.8816L134.768 11.1166L134.567 10.7251L134.237 10.3523L133.668 10.0321L133.062 9.92555L125.319 9.90755L125.3 9.8723L125.869 7.5608L126.364 5.8178H133.374L135.154 5.78255L135.264 5.7293Z" fill="#FD0000"/>
</svg>
