<svg width="75" height="80" viewBox="0 0 75 80" fill="none" xmlns="http://www.w3.org/2000/svg">
<g filter="url(#filter0_d)">
<rect x="10" width="55" height="55" fill="white"/>
</g>
<path fill-rule="evenodd" clip-rule="evenodd" d="M27.7968 25.1993L24.3389 18.4474L37.4996 10.4485L27.7968 25.1993Z" fill="#FF9729"/>
<path fill-rule="evenodd" clip-rule="evenodd" d="M47.2032 29.6299L50.6611 36.3817L37.5004 44.3807L47.2032 29.6299Z" fill="#928777"/>
<path fill-rule="evenodd" clip-rule="evenodd" d="M34.4202 17.5256L38.2498 10.9995L51.4153 18.9896L34.4202 17.5256Z" fill="#928777"/>
<path fill-rule="evenodd" clip-rule="evenodd" d="M40.575 37.4043L36.7454 43.9305L23.5798 35.9403L40.575 37.4043Z" fill="#FF9729"/>
<path fill-rule="evenodd" clip-rule="evenodd" d="M44.1234 19.4684L51.4109 19.6941L51.4157 35.6832L44.1234 19.4684Z" fill="#FF9729"/>
<path fill-rule="evenodd" clip-rule="evenodd" d="M30.8727 35.1953L23.5852 34.9696L23.5804 18.9805L30.8727 35.1953Z" fill="#928777"/>
<path fill-rule="evenodd" clip-rule="evenodd" d="M33 55H37.3899H41.7797L37.3899 61.6778L33 55Z" fill="#FF9729"/>
<rect x="10" y="52" width="55" height="3" fill="#FF9729"/>
<defs>
<filter id="filter0_d" x="0" y="0" width="75" height="80" filterUnits="userSpaceOnUse" color-interpolation-filters="sRGB">
<feFlood flood-opacity="0" result="BackgroundImageFix"/>
<feColorMatrix in="SourceAlpha" type="matrix" values="0 0 0 0 0 0 0 0 0 0 0 0 0 0 0 0 0 0 127 0"/>
<feOffset dy="15"/>
<feGaussianBlur stdDeviation="5"/>
<feColorMatrix type="matrix" values="0 0 0 0 0.572549 0 0 0 0 0.529412 0 0 0 0 0.466667 0 0 0 0.146003 0"/>
<feBlend mode="normal" in2="BackgroundImageFix" result="effect1_dropShadow"/>
<feBlend mode="normal" in="SourceGraphic" in2="effect1_dropShadow" result="shape"/>
</filter>
</defs>
</svg>
