<svg width="170" height="52" viewBox="0 0 170 52" fill="none" xmlns="http://www.w3.org/2000/svg">
<path fill-rule="evenodd" clip-rule="evenodd" d="M154.249 39.1249C152.745 38.8706 151.451 38.5021 150.367 38.0202V32.5163C151.587 33.0524 152.914 33.4741 154.351 33.7816C155.786 34.0901 157.155 34.2436 158.456 34.2436C160.217 34.2436 161.464 34.0901 162.196 33.7816C162.927 33.4741 163.293 32.8377 163.293 31.8737C163.293 31.2044 163.103 30.6753 162.724 30.2867C162.344 29.8988 161.769 29.5634 160.997 29.2823C160.224 29.0012 158.957 28.6063 157.196 28.0973C155.38 27.5617 153.95 26.9661 152.908 26.3095C151.864 25.6537 151.112 24.8633 150.652 23.9393C150.191 23.0153 149.961 21.8572 149.961 20.4642C149.961 17.9734 150.861 16.0791 152.664 14.7799C154.465 13.481 157.101 12.8312 160.57 12.8312C162.006 12.8312 163.449 12.9386 164.899 13.1526C166.348 13.3676 167.547 13.6348 168.496 13.9562V19.5002C166.246 18.6162 163.93 18.1744 161.545 18.1744C159.892 18.1744 158.659 18.3289 157.846 18.6364C157.034 18.9446 156.627 19.5402 156.627 20.4242C156.627 20.9867 156.79 21.4353 157.115 21.7699C157.44 22.1053 157.961 22.3993 158.68 22.6538C159.397 22.9086 160.529 23.2362 162.074 23.638C164.16 24.2005 165.779 24.87 166.931 25.6465C168.083 26.4237 168.882 27.3136 169.329 28.318C169.777 29.3226 170 30.5076 170 31.8737C170 34.2304 169.078 36.0919 167.236 37.4577C165.393 38.8236 162.684 39.5065 159.106 39.5065C157.372 39.5065 155.753 39.3789 154.249 39.1249ZM0 13.1688H12.8686C15.8726 13.1688 18.1526 14.0237 19.709 15.7326C21.2649 17.442 22.0432 19.6825 22.0432 22.4545C22.0432 24.2309 21.6639 25.8055 20.9066 27.1782C20.1484 28.5508 19.0594 29.6207 17.6387 30.3877C16.2178 31.1548 14.5736 31.5384 12.7062 31.5384H6.53589V39.1688H0V13.1688ZM11.2449 26.5321C12.5979 26.5321 13.6261 26.1623 14.33 25.422C15.0334 24.6819 15.3857 23.6796 15.3857 22.414C15.3857 21.0413 15.0608 19.9917 14.4115 19.2652C13.7619 18.5381 12.7736 18.1748 11.448 18.1748H6.53589V26.5321H11.2449ZM42.7332 24.9575C42.0303 25.6035 41.0316 25.9266 39.7347 25.9266H34.9127V18.1748H40.0185C42.5309 18.1748 43.7866 19.4807 43.7866 22.0909C43.7866 23.3566 43.4353 24.3117 42.7332 24.9575ZM28.389 13.1688H41.4366C44.435 13.1688 46.6839 13.9559 48.1833 15.5306C49.6827 17.1052 50.4322 19.2922 50.4322 22.0909C50.4322 23.8409 49.9928 25.3753 49.1153 26.6934C48.2373 28.0128 47.0147 28.9946 45.4483 29.6407C45.7989 29.9372 46.0895 30.2602 46.3193 30.6098C46.5484 30.9598 46.8119 31.4716 47.1095 32.1439L50.1891 39.1688H43.3816L40.4642 32.5474C40.2208 31.9559 39.9101 31.5384 39.5322 31.2961C39.1538 31.0538 38.6135 30.9325 37.9111 30.9325H34.9127V39.1688H28.389V13.1688ZM107.323 13.1688H100.864V39.1688H107.404V24.2309L112.604 34.7279H116.219L121.378 24.2309V39.1688H127.917V13.1688H121.499L114.432 27.5817L107.323 13.1688ZM136.267 13.1688V39.1688H142.613V13.1688H136.267Z" fill="#928777"/>
<path fill-rule="evenodd" clip-rule="evenodd" d="M62.677 23.0821L58.1138 14.5187L75.4814 4.37371L62.677 23.0821Z" fill="#FF9729"/>
<path fill-rule="evenodd" clip-rule="evenodd" d="M88.2859 28.7013L92.8491 37.2647L75.4815 47.4097L88.2859 28.7013Z" fill="#928777"/>
<path fill-rule="evenodd" clip-rule="evenodd" d="M71.4171 13.3495L76.4709 5.0725L93.845 15.2063L71.4171 13.3495Z" fill="#928777"/>
<path fill-rule="evenodd" clip-rule="evenodd" d="M79.5399 38.5616L74.4861 46.8386L57.1121 36.7048L79.5399 38.5616Z" fill="#FF9729"/>
<path fill-rule="evenodd" clip-rule="evenodd" d="M84.2216 15.8135L93.8386 16.0999L93.845 36.3787L84.2216 15.8135Z" fill="#FF9729"/>
<path fill-rule="evenodd" clip-rule="evenodd" d="M66.7355 35.7599L57.1184 35.4736L57.1121 15.1948L66.7355 35.7599Z" fill="#928777"/>
</svg>
