<svg width="123" height="43" viewBox="0 0 123 43" fill="none" xmlns="http://www.w3.org/2000/svg">
<path fill-rule="evenodd" clip-rule="evenodd" d="M13.3852 7.68227C16.1139 3.33402 20.9997 0.436753 26.5719 0.436753L107.449 0.330933C116.003 0.330932 122.94 7.15668 122.94 15.5791C122.94 21.2872 119.752 26.2625 115.035 28.8758C115.554 28.6094 116.055 28.3145 116.537 27.9931L108.326 36.8037C105.546 40.4324 101.129 42.7779 96.1572 42.7779L15.2785 42.7646C6.86794 42.7646 0.0493164 36.0547 0.0493164 27.777C0.0493164 23.5935 1.79051 19.8106 4.59959 17.0922L13.3852 7.68227ZM11.6025 15.6849C11.6025 23.8181 18.3036 30.4128 26.5717 30.4129L107.449 30.3071C115.718 30.3071 122.42 23.7114 122.42 15.5791C122.42 7.44525 115.718 0.850139 107.45 0.850139L26.5722 0.95596C18.3039 0.95596 11.6025 7.55154 11.6025 15.6849Z" fill="#ED1C24"/>
<path fill-rule="evenodd" clip-rule="evenodd" d="M116.305 13.3217L116.309 13.3217C116.602 14.1765 116.747 15.0878 116.747 16.0042C116.747 20.8587 113.421 23.5915 109.126 23.5915C104.572 23.5915 101.528 20.8186 101.528 15.9652C101.528 15.0118 101.667 14.1303 101.931 13.332L102.7 13.3317H101.93C102.905 10.381 105.574 8.57693 109.126 8.57693C113.04 8.57693 115.39 10.6676 116.305 13.3217ZM111.356 13.3348L111.354 13.3348C110.894 12.556 110.158 12.0331 109.087 12.0629C108.021 12.0629 107.325 12.5848 106.892 13.3317H106.891C106.449 14.0958 106.285 15.0936 106.285 16.0042C106.285 17.8268 106.848 20.1056 109.126 20.1056C111.182 20.1056 111.989 18.3631 111.989 16.0042C111.989 15.0582 111.797 14.0803 111.356 13.3348V13.3348ZM75.146 13.3327C75.2919 13.6326 75.3858 13.9816 75.4233 14.3748H79.935C79.8974 14.0121 79.8389 13.6639 79.7596 13.33L75.1457 13.332L75.146 13.3327H75.145C74.7421 12.4985 73.9393 12.0382 72.8433 12.0382C71.9163 12.0382 71.1919 12.4718 70.7315 13.3317L70.7296 13.3317C70.3627 14.0177 70.1632 14.9746 70.1632 16.1964C70.1632 18.1946 70.6069 20.0768 73.0255 20.0768C74.5559 20.0768 75.2814 19.0268 75.463 17.6614H80.0362C79.6135 21.3436 76.9338 23.5597 73.1049 23.5597C68.3103 23.5597 65.4094 20.6696 65.4094 16.0371C65.4094 15.0549 65.5535 14.1519 65.8196 13.332L65.8223 13.332C66.8085 10.33 69.4573 8.55536 72.6418 8.55536C76.6346 8.55536 79.0418 10.305 79.76 13.3317L75.146 13.3327V13.3327ZM51.7651 13.3399L51.7642 13.3399L51.7611 13.157C51.7611 10.0841 54.4605 8.53687 58.1392 8.53687C62.2291 8.53687 64.0882 10.5855 64.4358 13.118H59.8574C59.7749 12.6156 59.5098 12.3135 59.1622 12.1327C58.8146 11.9519 58.3855 11.8718 57.9147 11.8718C56.8521 11.8718 56.3813 12.1728 56.3813 12.6957C56.3813 12.9505 56.4982 13.157 56.7049 13.3317L56.5134 13.332H56.7055C58.2546 14.6399 64.8457 14.1375 64.8457 18.7813C64.8457 22.1367 62.0042 23.7641 57.9561 23.7641C54.0718 23.7641 51.5373 21.5347 51.435 18.922H56.0541C56.1564 19.445 56.4435 19.8272 56.8517 20.0676C57.241 20.308 57.7515 20.4302 58.2212 20.4302C59.4279 20.4302 60.2255 20.0481 60.2255 19.3648C60.2255 17.2002 51.9568 18.6473 51.7651 13.3399ZM45.5182 18.5378L43.9607 13.3433L42.4649 18.5378H45.5182ZM95.5681 23.4703V13.332H100.403V23.4703H95.5681ZM80.8901 13.332H85.4613V13.821H89.7819V13.332H94.3531V23.4004H89.7819V17.797H85.4613V23.4004H80.8901V13.332ZM39.9544 13.332H48.0496L51.7471 23.4703H46.9327L46.3586 21.5583H41.5431L40.9899 23.4703H36.2569L39.9544 13.332ZM18.6206 13.332H25.7242L27.0635 17.9809L28.4018 13.332H35.5054V23.4364H31.1618V19.0073L31.2223 16.7532L31.4687 14.1354H31.428L28.7431 23.4364H25.3829L22.698 14.1354H22.6573L22.8629 16.2693L22.9652 18.5244V23.4364H18.6206V13.332ZM100.404 8.97351V13.3317H95.5685V8.97351H100.404ZM94.3523 8.94063V13.3317H89.7812V8.94063H94.3523ZM85.4617 8.94063V13.3317H80.8906V8.94063H85.4617ZM48.05 13.3317H39.9537L41.5435 8.97351H46.4602L48.05 13.3317ZM35.5047 13.3317H28.4011L29.6652 8.94063H35.5047V13.3317ZM25.7246 13.3317H18.621V8.94063H24.4605L25.7246 13.3317Z" fill="#ED1C24"/>
</svg>
