<svg width="146" height="51" viewBox="0 0 146 51" fill="none" xmlns="http://www.w3.org/2000/svg">
<rect width="146" height="51" fill="#F7F4EF"/>
<path fill-rule="evenodd" clip-rule="evenodd" d="M110.032 32.5624C109.271 32.4352 108.616 32.251 108.068 32.0101V29.2581C108.685 29.5262 109.356 29.737 110.083 29.8908C110.81 30.045 111.502 30.1218 112.16 30.1218C113.051 30.1218 113.682 30.045 114.052 29.8908C114.422 29.737 114.607 29.4188 114.607 28.9368C114.607 28.6022 114.511 28.3376 114.319 28.1433C114.127 27.9493 113.836 27.7817 113.445 27.6411C113.055 27.5005 112.414 27.3031 111.523 27.0486C110.604 26.7808 109.881 26.483 109.353 26.1547C108.825 25.8268 108.445 25.4316 108.212 24.9696C107.979 24.5076 107.862 23.9285 107.862 23.2321C107.862 21.9866 108.318 21.0395 109.23 20.3899C110.141 19.7404 111.474 19.4155 113.229 19.4155C113.956 19.4155 114.686 19.4693 115.419 19.5762C116.152 19.6837 116.759 19.8173 117.239 19.978V22.75C116.101 22.3081 114.929 22.0871 113.723 22.0871C112.887 22.0871 112.263 22.1644 111.852 22.3181C111.44 22.4723 111.235 22.7701 111.235 23.212C111.235 23.4933 111.317 23.7176 111.482 23.8849C111.646 24.0526 111.91 24.1996 112.273 24.3269C112.636 24.4542 113.209 24.6181 113.99 24.819C115.046 25.1002 115.865 25.435 116.448 25.8232C117.03 26.2118 117.435 26.6568 117.661 27.1589C117.887 27.6612 118 28.2537 118 28.9368C118 30.1152 117.534 31.0459 116.602 31.7288C115.669 32.4117 114.299 32.7532 112.489 32.7532C111.612 32.7532 110.793 32.6894 110.032 32.5624ZM32 19.5844H38.51C40.0297 19.5844 41.1831 20.0118 41.9704 20.8662C42.7575 21.7209 43.1513 22.8412 43.1513 24.2272C43.1513 25.1154 42.9594 25.9027 42.5763 26.589C42.1927 27.2754 41.6418 27.8103 40.9231 28.1938C40.2043 28.5774 39.3725 28.7691 38.4279 28.7691H35.3064V32.5844H32V19.5844ZM37.6886 26.266C38.373 26.266 38.8932 26.0811 39.2493 25.7109C39.6052 25.3409 39.7833 24.8397 39.7833 24.2069C39.7833 23.5206 39.619 22.9958 39.2905 22.6325C38.9619 22.269 38.4619 22.0873 37.7913 22.0873H35.3064V26.266H37.6886ZM53.618 25.4787C53.2624 25.8017 52.7571 25.9632 52.1011 25.9632H49.6617V22.0873H52.2447C53.5156 22.0873 54.1509 22.7403 54.1509 24.0454C54.1509 24.6782 53.9732 25.1558 53.618 25.4787ZM46.3615 19.5844H52.962C54.4789 19.5844 55.6166 19.9779 56.3751 20.7652C57.1336 21.5525 57.5128 22.646 57.5128 24.0454C57.5128 24.9204 57.2905 25.6876 56.8466 26.3466C56.4024 27.0063 55.7839 27.4972 54.9915 27.8203C55.1688 27.9685 55.3159 28.1301 55.4321 28.3048C55.548 28.4798 55.6813 28.7357 55.8319 29.0719L57.3898 32.5844H53.946L52.4701 29.2737C52.347 28.9779 52.1898 28.7691 51.9986 28.648C51.8072 28.5268 51.5339 28.4662 51.1786 28.4662H49.6617V32.5844H46.3615V19.5844ZM86.2929 19.5844H83.0255V32.5844H86.3339V25.1154L88.9641 30.3639H90.7931L93.4028 25.1154V32.5844H96.7112V19.5844H93.4643L89.8889 26.7908L86.2929 19.5844ZM100.935 19.5844V32.5844H104.145V19.5844H100.935Z" fill="#928777"/>
<path fill-rule="evenodd" clip-rule="evenodd" d="M63.7074 24.5411L61.3989 20.2594L70.1849 15.1869L63.7074 24.5411Z" fill="#FF9729"/>
<path fill-rule="evenodd" clip-rule="evenodd" d="M76.6622 27.3506L78.9707 31.6323L70.1847 36.7048L76.6622 27.3506Z" fill="#928777"/>
<path fill-rule="evenodd" clip-rule="evenodd" d="M68.1287 19.6748L70.6853 15.5362L79.4745 20.6032L68.1287 19.6748Z" fill="#928777"/>
<path fill-rule="evenodd" clip-rule="evenodd" d="M72.238 32.2808L69.6814 36.4193L60.8922 31.3524L72.238 32.2808Z" fill="#FF9729"/>
<path fill-rule="evenodd" clip-rule="evenodd" d="M74.6064 20.9068L79.4714 21.0499L79.4747 31.1893L74.6064 20.9068Z" fill="#FF9729"/>
<path fill-rule="evenodd" clip-rule="evenodd" d="M65.7603 30.88L60.8953 30.7368L60.892 20.5974L65.7603 30.88Z" fill="#928777"/>
</svg>
