<svg width="18" height="18" viewBox="0 0 18 18" fill="none" xmlns="http://www.w3.org/2000/svg">
<path fill-rule="evenodd" clip-rule="evenodd" d="M15.0354 12.8535L17.5481 15.3662C18.1506 15.9687 18.1506 16.9456 17.5481 17.5481C16.9456 18.1506 15.9687 18.1506 15.3662 17.5481L12.8535 15.0354C11.5354 15.9327 9.94326 16.4571 8.22857 16.4571C3.68406 16.4571 0 12.7731 0 8.22857C0 3.68406 3.68406 0 8.22857 0C12.7731 0 16.4571 3.68406 16.4571 8.22857C16.4571 9.94326 15.9327 11.5354 15.0354 12.8535ZM12.6638 10.8336C13.1135 10.0696 13.3714 9.1792 13.3714 8.22857C13.3714 5.38825 11.0689 3.08571 8.22857 3.08571C5.38825 3.08571 3.08571 5.38825 3.08571 8.22857C3.08571 11.0689 5.38825 13.3714 8.22857 13.3714C9.1792 13.3714 10.0696 13.1135 10.8336 12.6638C11.5883 12.2196 12.2196 11.5883 12.6638 10.8336Z" fill="#928777"/>
</svg>
