<svg width="16" height="12" viewBox="0 0 16 12" fill="none" xmlns="http://www.w3.org/2000/svg" version="1.1">
<rect x="0.5" y="0.5" width="15" height="11" fill="#D8D8D8" stroke="#979797"/>
<mask id="mask0" mask-type="alpha" maskUnits="userSpaceOnUse" x="0" y="0" width="16" height="12">
<rect x="0.5" y="0.5" width="15" height="11" fill="white" stroke="white"/>
</mask>
<g mask="url(#mask0)">
<rect x="-1" width="18" height="12" fill="#F0F0F0"/>
<path fill-rule="evenodd" clip-rule="evenodd" d="M9.125 0H6.875V4.875H-1V7.125H6.875V12H9.125V7.125H17V4.875H9.125V0Z" fill="#D80027"/>
<path fill-rule="evenodd" clip-rule="evenodd" d="M12.8574 8.01282L16.9635 10.3584V8.01282H12.8574Z" fill="#0052B4"/>
<path fill-rule="evenodd" clip-rule="evenodd" d="M10.0044 8.01282L16.9633 11.988V10.8639L11.9722 8.01282H10.0044Z" fill="#0052B4"/>
<path fill-rule="evenodd" clip-rule="evenodd" d="M15.1097 11.988L10.0044 9.07141V11.988H15.1097Z" fill="#0052B4"/>
<path fill-rule="evenodd" clip-rule="evenodd" d="M10 8L17 12V10.8689L11.9795 8H10Z" fill="#F0F0F0"/>
<path fill-rule="evenodd" clip-rule="evenodd" d="M10 8L17 12V10.8689L11.9795 8H10Z" fill="#D80027"/>
<path fill-rule="evenodd" clip-rule="evenodd" d="M2.15451 8.0127L-1 9.8052V8.0127H2.15451Z" fill="#0052B4"/>
<path fill-rule="evenodd" clip-rule="evenodd" d="M5.99575 8.51819V11.9879H-0.109863L5.99575 8.51819Z" fill="#0052B4"/>
<path fill-rule="evenodd" clip-rule="evenodd" d="M4.02052 8L-1 10.8689V12L6 8H4.02052Z" fill="#D80027"/>
<path fill-rule="evenodd" clip-rule="evenodd" d="M3.1278 3.98693L-1 1.64136V3.98693H3.1278Z" fill="#0052B4"/>
<path fill-rule="evenodd" clip-rule="evenodd" d="M5.9957 3.98698L-1 0.0118408V1.13591L4.01744 3.98698H5.9957Z" fill="#0052B4"/>
<path fill-rule="evenodd" clip-rule="evenodd" d="M0.863281 0.0118408L5.99556 2.92841V0.0118408H0.863281Z" fill="#0052B4"/>
<path fill-rule="evenodd" clip-rule="evenodd" d="M6 4L-1 0V1.1311L4.02052 4H6Z" fill="#F0F0F0"/>
<path fill-rule="evenodd" clip-rule="evenodd" d="M6 4L-1 0V1.1311L4.02052 4H6Z" fill="#D80027"/>
<path fill-rule="evenodd" clip-rule="evenodd" d="M13.8252 3.98708L16.9631 2.19458V3.98708H13.8252Z" fill="#0052B4"/>
<path fill-rule="evenodd" clip-rule="evenodd" d="M10.0044 3.48152V0.0118408H16.0779L10.0044 3.48152Z" fill="#0052B4"/>
<path fill-rule="evenodd" clip-rule="evenodd" d="M11.9795 4L17 1.1311V0L10 4H11.9795Z" fill="#D80027"/>
</g>
</svg>
