<svg xmlns="http://www.w3.org/2000/svg" viewBox="0 0 30 30"><defs><style>.cls-1{fill:none}</style><clipPath id="clip-path"><path class="cls-1" d="M5 5h20v20H5z"/></clipPath><clipPath id="clip-path-2"><path class="cls-1" d="M22.3 5H7.7A2.7 2.7 0 0 0 5 7.7v14.6A2.7 2.7 0 0 0 7.7 25h7.2v-7.15h-1.84a.44.44 0 0 1-.44-.44v-2.3a.44.44 0 0 1 .44-.44h1.84v-2.22a3.64 3.64 0 0 1 3.88-4h1.89a.44.44 0 0 1 .44.44v1.94a.44.44 0 0 1-.44.44h-1.16c-1.25 0-1.5.6-1.5 1.47v1.93h2.75a.44.44 0 0 1 .44.49l-.27 2.3a.44.44 0 0 1-.44.39H18V25h4.3a2.7 2.7 0 0 0 2.7-2.69V7.7A2.7 2.7 0 0 0 22.3 5z"/></clipPath></defs><g id="Layer_2" data-name="Layer 2"><g clip-path="url(#clip-path-2)" opacity=".9" id="Layer_1-2" data-name="Layer 1"><path d="M0 0h30v30H0z"/></g></g></svg>