<svg xmlns="http://www.w3.org/2000/svg" viewBox="0 0 30 30"><defs><style>.cls-1{fill:none}</style><clipPath id="clip-path"><path class="cls-1" d="M5 5h20v20H5z"/></clipPath><clipPath id="clip-path-2"><path class="cls-1" d="M20.15 11.06a1.21 1.21 0 1 0-1.21-1.21 1.21 1.21 0 0 0 1.21 1.21zM15 9.85A5.15 5.15 0 1 0 20.15 15 5.16 5.16 0 0 0 15 9.85zM19 5a6 6 0 0 1 6 6v8a6 6 0 0 1-6 6h-8a6 6 0 0 1-6-6v-8a6 6 0 0 1 6-6z"/></clipPath></defs><g id="Layer_2" data-name="Layer 2"><g clip-path="url(#clip-path-2)" opacity=".9" id="Layer_1-2" data-name="Layer 1"><path d="M0 0h30v30H0z"/></g></g></svg>