<svg xmlns="http://www.w3.org/2000/svg" viewBox="0 0 34 30"><defs><style>.cls-1{fill:none}</style><clipPath id="clip-path"><path class="cls-1" d="M4 5h26v20H4z"/></clipPath><clipPath id="clip-path-2"><path class="cls-1" d="M28.62 7.33a9.49 9.49 0 0 1-1.62.56 5.17 5.17 0 0 0 1.36-2.17.27.27 0 0 0-.4-.32 9.54 9.54 0 0 1-2.53 1h-.16a.67.67 0 0 1-.44-.17A5.17 5.17 0 0 0 21.38 5a5.52 5.52 0 0 0-1.64.25 5 5 0 0 0-3.38 3.62 5.54 5.54 0 0 0-.12 1.91.19.19 0 0 1 0 .15.19.19 0 0 1-.24.07 13.56 13.56 0 0 1-9.3-5 .27.27 0 0 0-.44 0 5.2 5.2 0 0 0 .84 6.3 4.63 4.63 0 0 1-1.18-.46.27.27 0 0 0-.4.23 5.19 5.19 0 0 0 3 4.78h-.09a4.65 4.65 0 0 1-.87-.08.27.27 0 0 0-.31.35 5.19 5.19 0 0 0 4.1 3.53A9.54 9.54 0 0 1 6 22.32h-.6a.4.4 0 0 0-.39.3.41.41 0 0 0 .2.45A14.18 14.18 0 0 0 12.34 25a14.37 14.37 0 0 0 6.1-1.3 13.47 13.47 0 0 0 4.46-3.35 14.69 14.69 0 0 0 2.73-4.58 14.5 14.5 0 0 0 .93-5v-.08a.88.88 0 0 1 .34-.69A10.24 10.24 0 0 0 29 7.72a.27.27 0 0 0-.38-.39z"/></clipPath><clipPath id="clip-path-3"><path class="cls-1" d="M5 5h24v20H5z"/></clipPath></defs><g clip-path="url(#clip-path)"><g clip-path="url(#clip-path-2)" id="Layer_2" data-name="Layer 2"><g clip-path="url(#clip-path-3)" opacity=".9" id="Layer_1-2" data-name="Layer 1"><path d="M0 0h34v30H0z"/></g></g></g></svg>