<svg data-name="Layer 1" xmlns="http://www.w3.org/2000/svg" viewBox="0 0 99.21 39.66"><path d="M6.14 39.59a.37.37 0 0 0 .23-.05v-1.87c0-.25-.12-.4-.37-.4H4.73c-.23 0-.35.08-.35.28 0 .19.12.26.35.26h1v.28a1.22 1.22 0 0 1-1.31 1 1.51 1.51 0 0 1-1.49-1.69 1.55 1.55 0 0 1 1.54-1.7 1.5 1.5 0 0 1 1.27.67.37.37 0 0 0 .38-.36c0-.33-.6-.9-1.66-.9a2.17 2.17 0 0 0-2.25 2.29 2.06 2.06 0 0 0 2.07 2.25 1.63 1.63 0 0 0 1.46-.7v.08c0 .46.17.55.38.55zm1.45 0h2.23a.28.28 0 0 0 .32-.3c0-.21-.11-.3-.32-.3h-1.9v-3.46a.28.28 0 0 0-.31-.32h-.1c-.19 0-.29.11-.29.32v3.69a.35.35 0 0 0 .37.39zm4.93.08a2.28 2.28 0 1 0-2.21-2.26 2.14 2.14 0 0 0 2.21 2.26zm0-.62a1.67 1.67 0 0 1 0-3.32 1.54 1.54 0 0 1 1.52 1.68 1.51 1.51 0 0 1-1.51 1.64zm3.34.54h1.43c1.15 0 1.67-.42 1.67-1.23a1.06 1.06 0 0 0-.95-1.07 1 1 0 0 0 .77-.94c0-.74-.52-1.14-1.48-1.14h-1.44a.36.36 0 0 0-.37.4v3.61a.37.37 0 0 0 .37.4zm.32-.57v-1.4h1.08c.65 0 1 .22 1 .68s-.3.72-1 .72zm0-1.9v-1.35h1c.57 0 .85.22.85.65s-.33.69-.84.69zm6.4 2.18a.43.43 0 0 0 .42.32c.21 0 .4-.15.38-.21l-1.57-4c-.05-.14-.15-.22-.48-.22s-.42.08-.48.22l-1.56 4c0 .05.17.21.38.21s.3-.07.38-.32l.39-1h1.75l.38 1zm-1.26-3.42l.71 1.86h-1.41l.7-1.86zm3 3.71h2.23a.28.28 0 0 0 .32-.3c0-.21-.11-.3-.32-.3h-1.9v-3.46a.28.28 0 0 0-.31-.32h-.1c-.19 0-.29.11-.29.32v3.69a.36.36 0 0 0 .38.39zm4.64 0h.1a.28.28 0 0 0 .3-.31v-1.29h.78c1.13 0 1.73-.48 1.73-1.4s-.61-1.4-1.7-1.4h-1.13a.36.36 0 0 0-.37.4v3.7c0 .21.1.31.29.31zm.4-3.82h.81c.66 0 1 .28 1 .83s-.34.83-1 .83h-.8v-1.67zm6 3.82c.29 0 .44-.24.41-.28l-1.31-1.52a1.23 1.23 0 0 0 1.31-1.28c0-.86-.57-1.32-1.64-1.32h-1.25a.36.36 0 0 0-.37.4v3.63c0 .22.1.35.29.35h.09a.28.28 0 0 0 .31-.31v-1.43h.48l1.2 1.47a.52.52 0 0 0 .45.26zm-2.14-3.82h.9c.64 0 1 .26 1 .76s-.3.78-.95.78h-.92v-1.54zm5.33 3.89a2.28 2.28 0 1 0-2.21-2.26 2.14 2.14 0 0 0 2.21 2.26zm0-.62a1.67 1.67 0 0 1 0-3.32 1.54 1.54 0 0 1 1.52 1.68 1.51 1.51 0 0 1-1.51 1.64zm3.36.54h1a2.14 2.14 0 0 0 2.41-2.21 2.1 2.1 0 0 0-2.37-2.18h-1.07a.37.37 0 0 0-.37.4v3.63a.39.39 0 0 0 .39.39zm.3-.61V35.8h.74a1.59 1.59 0 1 1 0 3.17zm5.62.68a1.65 1.65 0 0 0 1.79-1.88v-2.29c0-.21-.09-.32-.29-.32h-.11c-.19 0-.29.11-.29.32v2.28c0 .86-.35 1.28-1.09 1.28s-1.09-.43-1.09-1.26v-2.29a.28.28 0 0 0-.31-.32h-.09a.28.28 0 0 0-.3.32v2.31a1.63 1.63 0 0 0 1.78 1.86zm4.71 0c1.16 0 1.74-.69 1.74-1s-.42-.4-.43-.38a1.28 1.28 0 0 1-1.26.76 1.65 1.65 0 0 1 0-3.29 1.4 1.4 0 0 1 1.24.68.41.41 0 0 0 .4-.38c0-.31-.55-.93-1.65-.93a2.16 2.16 0 0 0-2.23 2.29 2.14 2.14 0 0 0 2.2 2.26zm2.4-3.85h1.2v3.47a.27.27 0 0 0 .3.31h.09a.27.27 0 0 0 .31-.31v-3.45h1.2a.28.28 0 0 0 .32-.29c0-.19-.11-.29-.32-.29h-3.1c-.21 0-.32.1-.32.29 0 .18.12.29.32.29zm4.38 3.78h.14a.27.27 0 0 0 .31-.31v-3.8a.28.28 0 0 0-.31-.32h-.09c-.2 0-.3.11-.3.32v3.8c0 .21.1.31.3.31zm3.43.07a2.28 2.28 0 1 0-2.22-2.26 2.16 2.16 0 0 0 2.22 2.26zm0-.62a1.67 1.67 0 0 1 0-3.32 1.54 1.54 0 0 1 1.52 1.68 1.51 1.51 0 0 1-1.51 1.64zm3.26.55h.08c.2 0 .3-.1.3-.31v-3.12l2.28 3.22a.36.36 0 0 0 .37.21h.05c.21 0 .33-.14.33-.39v-3.72c0-.21-.1-.32-.28-.32h-.08c-.2 0-.29.11-.29.32v3l-2.17-3.08c-.13-.17-.21-.26-.42-.26h-.12c-.21 0-.33.17-.33.4v3.72c0 .21.09.31.28.31zm6.88.07c1 0 1.65-.5 1.65-1.3s-.72-1.14-1.46-1.31-1-.22-1-.69.36-.68.91-.68a1.43 1.43 0 0 1 1.17.6.48.48 0 0 0 .33-.39c0-.32-.53-.78-1.5-.78s-1.58.53-1.58 1.26c0 .89.71 1.13 1.38 1.29s1.1.25 1.1.74-.34.68-1 .68a1.6 1.6 0 0 1-1.32-.67.44.44 0 0 0-.32.38c0 .36.59.87 1.65.87zm2.73-.08h2.58c.22 0 .32-.11.32-.3 0-.18-.1-.28-.32-.28h-2.25v-1.32h1.72c.22 0 .32-.11.32-.29s-.1-.28-.32-.28h-1.72v-1.28h2.22c.22 0 .32-.1.32-.29 0-.18-.1-.29-.32-.29h-2.54a.36.36 0 0 0-.37.4v3.58a.36.36 0 0 0 .37.39zm6.42 0c.29 0 .44-.24.41-.28l-1.28-1.53a1.23 1.23 0 0 0 1.3-1.28c0-.86-.57-1.32-1.63-1.32h-1.25a.36.36 0 0 0-.37.4v3.66c0 .22.1.35.29.35h.09a.28.28 0 0 0 .31-.31v-1.43h.48l1.2 1.47a.53.53 0 0 0 .46.26zm-2.14-3.82h.9c.64 0 1 .26 1 .76s-.31.78-.95.78h-.92v-1.54zm3.45-.61c-.23 0-.44.17-.41.22l1.57 4a.38.38 0 0 0 .43.26c.26 0 .36-.07.43-.26l1.56-4c0-.06-.19-.22-.41-.22a.4.4 0 0 0-.39.32l-1.19 3.33-1.19-3.33a.42.42 0 0 0-.4-.32zm4.51 4.43h.09a.27.27 0 0 0 .31-.31v-3.8a.28.28 0 0 0-.31-.32h-.09c-.2 0-.3.11-.3.32v3.8a.27.27 0 0 0 .3.31zm3.43.07c1.16 0 1.74-.69 1.74-1s-.42-.4-.43-.38a1.28 1.28 0 0 1-1.27.76 1.65 1.65 0 0 1 0-3.29 1.4 1.4 0 0 1 1.24.68.41.41 0 0 0 .41-.38c0-.31-.56-.93-1.65-.93a2.28 2.28 0 0 0 0 4.56zm2.78-.08h2.58c.22 0 .32-.11.32-.3 0-.18-.1-.28-.32-.28H94.4v-1.32h1.72c.22 0 .32-.11.32-.29s-.1-.28-.32-.28H94.4v-1.27h2.22c.22 0 .32-.1.32-.29 0-.18-.11-.29-.32-.29h-2.54a.36.36 0 0 0-.37.4v3.58a.35.35 0 0 0 .37.39z" fill="#fff"/><path d="M10.46 15.52a4.06 4.06 0 0 1 4.25-4h10.75a24.54 24.54 0 0 1 2.49 0 4 4 0 0 1 3.06 2c.85 1.56.51 3.67.51 5.39v6.16a16.58 16.58 0 0 1 0 2.5 4 4 0 0 1-2.2 3c-1.21.58-2.7.39-4 .39h-21a4.26 4.26 0 0 1-2.9-1 4 4 0 0 1-1.38-3.14V4.15a4 4 0 0 1 4-4.12h23.33a4 4 0 1 1 .1 7.94H8.16c-.22 0-.22 0-.22.18v14.72c0 .24 0 .21.24.21h15c.41 0 .35 0 .35-.42v-2.84c0-.49-.16-.34-.63-.34h-8.12a4.7 4.7 0 0 1-2.29-.46 4 4 0 0 1-2.12-3.5zm27.4 15.49a4 4 0 0 0 3.43-2 4.66 4.66 0 0 0 .54-2.45v-7.1h19.61a4.06 4.06 0 0 0 4-4.28V4.64a6.72 6.72 0 0 0-.1-1.53A4 4 0 0 0 62.52.17a10.17 10.17 0 0 0-2.66-.14H38.53a4.8 4.8 0 0 0-3.1.79 4 4 0 0 0-1.6 3.19v22.68a4.08 4.08 0 0 0 4 4.33zm4-19.47V9.22c0-.22-.16-1.21.11-1.21h15c.23 0 .54-.12.54.15v2.8c0 .43.16.64-.27.64H41.79zm33.85 0h18.85a4.49 4.49 0 0 1 3.58 1.27 4.57 4.57 0 0 1 1.07 3.35v10.56a4 4 0 0 1-1.87 3.68 6.44 6.44 0 0 1-3.2.6H51.72c-1.61 0-3.81.32-5.28-.46a4 4 0 0 1 0-7 5.27 5.27 0 0 1 2.62-.46h42.2V19.5H72.19a4.19 4.19 0 0 1-4.25-2.58 12.37 12.37 0 0 1-.25-4.14V6.55A10.82 10.82 0 0 1 68 2.47 4.18 4.18 0 0 1 72.1.04h21.16c.77 0 1.56-.05 2.33 0a4 4 0 0 1 2.78 6.38c-1 1.33-2.49 1.55-4 1.55H77.76c-.23 0-2.12-.12-2.12.1v3.48z" fill-rule="evenodd" fill="#fff"/></svg>