<svg xmlns="http://www.w3.org/2000/svg" viewBox="0 0 59.61 29.35"><defs><style>.cls-1,.cls-2{fill:none}.cls-2{clip-rule:evenodd}</style><clipPath id="clip-path"><path class="cls-1" d="M4.73 4.62h51v20h-51z"/></clipPath><clipPath id="clip-path-2"><path class="cls-2" d="M52 24.31h1.29c.11 0 .16-.05.16-.15 0-.09-.05-.14-.16-.14H52.2v-.64h.86c.11 0 .16-.05.16-.14 0-.09-.05-.14-.16-.14h-.86v-.6h1.11c.11 0 .16 0 .16-.14 0-.09-.05-.14-.16-.14H52a.18.18 0 0 0-.18.2v1.76a.17.17 0 0 0 .18.13zm-1.39 0c.58 0 .87-.34.87-.5s-.21-.2-.22-.18a.64.64 0 0 1-.63.37.8.8 0 0 1 0-1.61.71.71 0 0 1 .62.33s.2 0 .2-.18-.28-.45-.83-.45a1.11 1.11 0 0 0 0 2.22zm-1.72 0c.1 0 .15 0 .15-.15v-1.85a.14.14 0 0 0-.15-.16.14.14 0 0 0-.15.16v1.86a.13.13 0 0 0 .2.14zm-2.25-2.16c-.11 0-.22.08-.21.11l.79 1.93c0 .09.09.13.21.13s.18 0 .22-.13l.78-1.93s-.1-.11-.2-.11a.2.2 0 0 0-.19.16l-.6 1.63-.6-1.63a.21.21 0 0 0-.16-.16zm-1.73.3h.45c.32 0 .48.13.48.37s-.15.38-.47.38H45zM46 24.31c.15 0 .22-.11.2-.13l-.64-.75a.61.61 0 0 0 .65-.62c0-.42-.28-.64-.82-.64h-.59a.18.18 0 0 0-.19.2v1.78c0 .11.05.17.15.17a.14.14 0 0 0 .15-.15v-.7h.24l.6.72a.26.26 0 0 0 .25.12zm-3.21 0h1.31c.11 0 .16-.05.16-.15 0-.09-.05-.14-.16-.14H43v-.64h.86c.11 0 .16-.05.16-.14 0-.09-.05-.14-.16-.14H43v-.6h1.11c.11 0 .16 0 .16-.14 0-.09-.05-.14-.16-.14h-1.3a.18.18 0 0 0-.19.2v1.76a.18.18 0 0 0 .19.13zm-1.36 0c.51 0 .82-.24.82-.64s-.36-.56-.73-.64S41 23 41 22.74s.18-.33.45-.33a.72.72 0 0 1 .59.29s.16-.07.16-.19-.27-.38-.75-.38-.79.26-.79.62.35.55.69.63.55.12.55.36-.17.33-.48.33a.8.8 0 0 1-.66-.33.22.22 0 0 0-.16.18c.03.18.32.43.85.43zm-3.44 0a.13.13 0 0 0 .15-.15v-1.52l1.14 1.57a.18.18 0 0 0 .19.1c.1 0 .16-.07.16-.19v-1.81c0-.1 0-.16-.14-.16-.1 0-.15.06-.15.16v1.48l-1.08-1.5c-.06-.08-.1-.13-.21-.13H38c-.11 0-.17.08-.17.2v1.81c.04.1.08.14.17.14zM36.38 24a.81.81 0 0 1 0-1.62.76.76 0 0 1 .76.82.74.74 0 0 1-.76.8zm0 .3a1.11 1.11 0 1 0-1.11-1.1 1.07 1.07 0 0 0 1.11 1.15zm-1.72 0a.13.13 0 0 0 .15-.15v-1.84a.14.14 0 0 0-.15-.16.14.14 0 0 0-.15.16v1.86a.13.13 0 0 0 .15.14zm-2.19-1.84h.6v1.69a.13.13 0 0 0 .15.15c.1 0 .16 0 .16-.15v-1.68H34c.1 0 .16-.05.16-.14 0-.1-.06-.14-.16-.14h-1.53c-.1 0-.16 0-.16.14 0 .09.06.14.16.14zm-1.2 1.88c.58 0 .87-.34.87-.5s-.21-.2-.22-.18a.64.64 0 0 1-.63.37.8.8 0 0 1 0-1.61.71.71 0 0 1 .62.33s.2 0 .2-.18-.28-.45-.82-.45a1.07 1.07 0 0 0-1.11 1.12 1.05 1.05 0 0 0 1.09 1.11zm-2.35 0a.81.81 0 0 0 .9-.92v-1.11c0-.1 0-.16-.14-.16h-.06c-.1 0-.15.06-.15.16v1.11c0 .42-.18.62-.55.62s-.54-.21-.54-.62v-1.11a.14.14 0 0 0-.16-.16.14.14 0 0 0-.15.16v1.12a.8.8 0 0 0 .85.91zM26.11 24v-1.54h.37a.78.78 0 1 1 0 1.54zm-.15.3h.51a1.06 1.06 0 0 0 1.2-1.08 1 1 0 0 0-1.19-1.06H26a.18.18 0 0 0-.19.2v1.76a.19.19 0 0 0 .19.19zm-1.68-.3a.81.81 0 1 1 .76-.8.74.74 0 0 1-.76.8zm0 .3a1.11 1.11 0 1 0-1.11-1.1 1.06 1.06 0 0 0 1.1 1.15zm-2.67-1.9h.45c.32 0 .48.13.48.37s-.15.38-.47.38h-.46zm1.07 1.86c.14 0 .22-.11.2-.13l-.64-.75a.61.61 0 0 0 .65-.62c0-.42-.28-.64-.82-.64h-.62a.18.18 0 0 0-.19.2v1.78c0 .11.05.17.15.17a.14.14 0 0 0 .15-.15v-.7h.24l.6.72a.26.26 0 0 0 .28.17zm-3-1.86h.4c.33 0 .5.14.5.41s-.17.41-.51.41h-.4zm-.2 1.86h.05a.14.14 0 0 0 .15-.15v-.63h.39c.57 0 .86-.24.86-.68s-.31-.68-.85-.68h-.57a.18.18 0 0 0-.19.2v1.8a.13.13 0 0 0 .17.19zm-2.32 0h1.11c.1 0 .16-.05.16-.15 0-.1-.06-.15-.16-.15h-1v-1.65a.14.14 0 0 0-.15-.16h-.05c-.09 0-.15.06-.15.16v1.81a.18.18 0 0 0 .24.19zm-1.5-1.81l.35.91h-.7zm.63 1.67a.21.21 0 0 0 .21.16c.1 0 .2-.08.19-.1l-.78-2c0-.07-.08-.11-.24-.11s-.21 0-.24.11l-.78 2s.09.1.19.1a.2.2 0 0 0 .19-.16l.19-.49h.88zM13.1 23.1v-.66h.51c.28 0 .43.11.43.32s-.16.34-.42.34zm0 .93v-.68h.54c.32 0 .49.11.49.33s-.15.35-.5.35zm-.16.28h.71c.57 0 .83-.2.83-.6a.52.52 0 0 0-.47-.52.47.47 0 0 0 .39-.46c0-.36-.26-.55-.74-.55h-.72a.18.18 0 0 0-.19.2v1.75a.18.18 0 0 0 .19.18zM11.27 24a.81.81 0 0 1 0-1.62.76.76 0 0 1 .76.82.74.74 0 0 1-.76.8zm0 .3a1.11 1.11 0 1 0-1.11-1.1 1.06 1.06 0 0 0 1.1 1.15zm-2.47 0h1.11c.11 0 .16-.05.16-.15 0-.1-.06-.15-.16-.15H9v-1.69a.14.14 0 0 0-.15-.16h-.09c-.09 0-.14.06-.14.16v1.81a.17.17 0 0 0 .18.19zm-.73 0a.19.19 0 0 0 .11 0v-.91a.17.17 0 0 0-.19-.2h-.63c-.12 0-.18 0-.18.14 0 .09.06.13.18.13h.51v.14a.61.61 0 0 1-.66.48.74.74 0 0 1-.74-.83.78.78 0 0 1 1.4-.5.18.18 0 0 0 .19-.18c0-.16-.3-.44-.83-.44a1.07 1.07 0 0 0-1.12 1.12 1 1 0 0 0 1 1.1.82.82 0 0 0 .77-.35c0 .27.12.31.19.31z"/></clipPath><clipPath id="clip-path-3"><path class="cls-1" d="M4.73 4.62h50v20h-50z"/></clipPath><clipPath id="clip-path-4"><path class="cls-2" d="M42.82 10.63h9.46a2.28 2.28 0 0 1 1.79.62 2.19 2.19 0 0 1 .53 1.63V18a2 2 0 0 1-.94 1.8 3.29 3.29 0 0 1-1.6.29h-21.2a6.13 6.13 0 0 1-2.64-.23 1.93 1.93 0 0 1 0-3.42 2.69 2.69 0 0 1 1.31-.22h21.1v-1.75H41.1a2.1 2.1 0 0 1-2.1-1.23 5.89 5.89 0 0 1-.12-2v-3a5.15 5.15 0 0 1 .16-2A2.1 2.1 0 0 1 41.06 5h11.75a2 2 0 0 1 1.39 3.11 2.34 2.34 0 0 1-2 .75h-8.3c-.12 0-1.06-.06-1.06 0zm-16.92 0V9.47c0-.11-.08-.59.06-.59h7.49c.11 0 .27-.06.27.07v1.37c0 .21.08.31-.14.31h-7.69zm-2 9.5a2 2 0 0 0 1.72-1 2.22 2.22 0 0 0 .27-1.2V14.5h9.8a2 2 0 0 0 2-2.09V7.26a3.2 3.2 0 0 0 0-.75 2 2 0 0 0-1.41-1.44A5.21 5.21 0 0 0 34.89 5H24.27a2.45 2.45 0 0 0-1.55.39 1.94 1.94 0 0 0-.8 1.61v11a2 2 0 0 0 1.99 2.13zm-13.7-7.56a2 2 0 0 1 2.12-1.94h6.64a2 2 0 0 1 1.53 1 5.48 5.48 0 0 1 .25 2.63v3a7.89 7.89 0 0 1 0 1.22 2 2 0 0 1-1.1 1.46 4.75 4.75 0 0 1-2 .19H7.14a2.16 2.16 0 0 1-1.45-.47A2 2 0 0 1 5 18.12V7a2 2 0 0 1 2-2h11.65a2 2 0 0 1 2.1 1.76 2 2 0 0 1-2 2.11H9.08C9 8.88 9 8.86 9 9v7.18c0 .12 0 .1.12.1h7.52c.21 0 .18 0 .18-.21v-1.4c0-.24-.08-.17-.32-.17h-4.09a2.4 2.4 0 0 1-1.14-.22 2 2 0 0 1-1.06-1.71z"/></clipPath></defs><g id="Layer_2" data-name="Layer 2"><g clip-path="url(#clip-path)" opacity=".9" id="Layer_1-2" data-name="Layer 1"><g clip-path="url(#clip-path-2)"><path d="M1.12 17.13h57.37v12.22H1.12z"/></g><g clip-path="url(#clip-path-4)"><path d="M0 0h59.61v25.16H0z"/></g></g></g></svg>