<svg width="16" height="12" fill="none" xmlns="http://www.w3.org/2000/svg"><path fill="#00AFCA" d="M0 0h16v12H0z"/><path fill-rule="evenodd" clip-rule="evenodd" d="M7.985 3.944c.949 0 1.718.753 1.718 1.682 0 .93-.77 1.682-1.718 1.682s-1.717-.753-1.717-1.682c0-.929.769-1.682 1.717-1.682zm.001-.229c.102-.001.14-.064.14-.139 0-.1-.14-.576-.14-.576s-.14.476-.14.576c0 .075.038.139.14.139zm1.952 1.911c0 .1.065.138.141.138.102 0 .589-.138.589-.138s-.487-.137-.589-.137c-.076 0-.142.037-.142.137zM7.986 7.537c-.102.002-.14.064-.14.14 0 .1.14.575.14.575s.14-.476.14-.576c0-.075-.038-.139-.14-.139zM6.033 5.626c0-.1-.065-.137-.141-.137-.102 0-.589.137-.589.137s.487.138.589.138c.076 0 .141-.038.141-.138zm2.7-1.766c.094.038.154-.006.184-.075.039-.092.095-.585.095-.585s-.316.387-.355.48c-.03.069-.019.142.076.18zm1.056 2.498c-.038.093.006.151.077.18.094.038.597.093.597.093s-.395-.309-.49-.347c-.07-.029-.145-.019-.184.074zM7.238 7.392c-.094-.037-.154.006-.184.076-.039.092-.095.585-.095.585s.316-.388.355-.48c.03-.07.019-.143-.076-.181zM6.182 4.895c.038-.093-.006-.152-.077-.18-.094-.039-.597-.094-.597-.094s.395.31.49.348c.07.028.145.018.184-.074zm3.184-.62c.073.07.145.052.2-.001.071-.07.316-.505.316-.505s-.443.24-.516.31c-.054.053-.073.125 0 .196zm0 2.703c-.072.071-.054.142 0 .195.073.07.516.31.516.31s-.245-.434-.317-.504c-.054-.054-.127-.072-.2-.001zm-2.761 0c-.073-.07-.145-.052-.2 0-.072.071-.316.505-.316.505s.443-.24.515-.31c.054-.053.073-.125.001-.195zm0-2.703c.072-.072.053-.143 0-.196-.073-.07-.516-.31-.516-.31s.244.434.317.505c.054.053.127.071.2 0zm3.185.62c.04.092.113.102.184.074.094-.038.49-.348.49-.348s-.503.055-.598.094c-.07.028-.116.087-.077.18zM8.733 7.392c-.094.04-.105.111-.076.18.04.093.355.48.355.48s-.056-.492-.095-.584c-.03-.07-.09-.114-.184-.076zM6.182 6.358c-.04-.092-.113-.103-.184-.074-.095.038-.49.347-.49.347s.503-.055.597-.093c.071-.029.117-.088.077-.18zM7.238 3.86c.094-.039.105-.111.076-.18-.04-.093-.355-.48-.355-.48s.056.493.095.585c.03.07.09.114.184.076zm1.129-.108c.1.018.15-.036.165-.11.02-.098-.023-.592-.023-.592s-.233.44-.253.539c-.014.073.01.143.11.163zM9.9 6c-.019.097.036.146.111.161.1.02.605-.022.605-.022s-.45-.228-.55-.248c-.075-.014-.146.01-.166.108zM7.605 7.5c-.1-.018-.15.036-.166.11-.02.098.023.592.023.592s.233-.44.253-.538c.015-.074-.01-.144-.11-.163zM6.071 5.253c.019-.098-.036-.147-.111-.162-.1-.019-.605.023-.605.023s.45.228.55.247c.075.015.146-.01.166-.108zM9.07 4.037c.086.055.153.024.196-.039.056-.083.21-.555.21-.555s-.387.32-.444.402c-.042.063-.047.137.038.192zm.539 2.651c-.056.084-.024.15.04.192.085.055.567.205.567.205s-.326-.379-.411-.434c-.064-.042-.14-.046-.196.037zm-2.708.527c-.085-.054-.153-.023-.195.04-.057.082-.21.555-.21.555s.387-.32.443-.403c.043-.062.047-.136-.038-.192zm-.538-2.651c.055-.083.023-.15-.04-.191-.085-.056-.568-.206-.568-.206s.327.379.412.435c.063.041.139.046.196-.038zm3.245 0c.058.083.132.08.196.038.085-.056.411-.435.411-.435s-.482.15-.567.206c-.064.042-.096.108-.04.191zM9.07 7.215c-.084.057-.08.13-.038.192.057.083.444.403.444.403s-.154-.473-.21-.556c-.043-.062-.111-.094-.196-.039zm-2.707-.527c-.058-.082-.133-.079-.196-.037-.085.055-.412.434-.412.434s.483-.15.568-.205c.063-.042.096-.109.04-.192zm.538-2.651c.085-.056.08-.13.038-.192-.056-.083-.443-.402-.443-.402s.153.472.21.555c.042.063.11.095.195.04zM9.9 5.253c.021.098.091.123.166.108.1-.02.55-.247.55-.247s-.504-.042-.604-.023c-.075.015-.132.064-.112.162zM8.367 7.5c-.1.022-.126.09-.11.164.02.098.252.538.252.538s.043-.494.023-.592c-.015-.074-.065-.129-.165-.11zM6.071 6c-.021-.099-.091-.123-.166-.109-.1.02-.55.248-.55.248s.504.042.605.022c.075-.015.131-.064.111-.162zm1.534-2.248c.1-.021.125-.09.11-.163-.02-.098-.253-.539-.253-.539s-.043.494-.023.592c.015.074.066.13.166.11zM7.68 9.27a.543.543 0 0 0-.135.022c-.06.008-.118.028-.177.038l-.024.003-.04.004c.002.01.004.022.004.033a.103.103 0 0 1-.004.03.076.076 0 0 1-.017.027.094.094 0 0 1-.028.022.09.09 0 0 1-.034.008c-.011 0-.023 0-.034-.004a.097.097 0 0 1-.032-.02.281.281 0 0 1-.036.007.151.151 0 0 1-.033 0 .208.208 0 0 1-.069-.029c-.044.025-.092.049-.119.093a.141.141 0 0 0-.02.066c-.003.03.005.06.018.087.004.008.008-.028.022-.033a.228.228 0 0 1 .086-.042c.026-.013.022 0 .012.02-.003.011-.018.05.002.03a.846.846 0 0 1 .275-.051c.136-.014.271-.017.407-.019.128.002.256.004.383.008.061.002.122.015.182.005.015-.003.037-.004.046-.013-.027-.015-.06-.015-.09-.02h-.243c-.068-.006-.138-.007-.202-.032-.017-.006-.033-.022-.049-.005a.298.298 0 0 1-.206-.006c.03-.04.065-.076.098-.114a1.038 1.038 0 0 1-.078-.015c.046-.032.089-.067.134-.1z" fill="#FFC600"/><mask id="a" maskUnits="userSpaceOnUse" x="7" y="5" width="5" height="5"><path fill-rule="evenodd" clip-rule="evenodd" d="M7.02 5.876h4.943v4.123H7.02V5.876z" fill="#fff"/></mask><g mask="url(#a)"><path fill-rule="evenodd" clip-rule="evenodd" d="M7.02 9.398c.072.065.122-.012.19-.04.225-.076.422-.209.617-.342.117-.095.22-.219.377-.25.309-.091.637-.08.946-.164.236-.316.636-.429.972-.61.075-.023.104-.084.128-.151.128-.198.303-.373.509-.493a.484.484 0 0 1 .324-.059.526.526 0 0 1-.174.333c.074-.002.138-.048.214-.046.026.133-.12.202-.198.284.043.01.209.022.119.065-.115.078-.247.131-.353.222.098.017.11.038.01.072-.054.036-.158.049-.168.118.074.045-.034.09-.075.104-.08.018-.164.052-.058.11-.04.06-.126.073-.196.067.021.067.052.142-.037.172-.2.147-.433.255-.684.28.313.023.636-.034.903-.2.036-.042.22-.086.117-.12-.049-.02-.153-.042-.16-.078.145-.088.327-.057.483-.109.004-.05-.118-.036-.164-.047-.11-.009-.103-.036.002-.046.133-.034.284-.041.396-.126-.091-.041-.206-.005-.303-.039.165-.07.36-.078.507-.184.068-.073-.086-.05-.13-.048-.092.015-.134-.028-.03-.065.177-.128.4-.21.525-.396.03-.041.07-.166-.024-.121-.124.04-.233.176-.374.134.278-.21.542-.45.732-.742.01-.084-.125-.093-.16-.027-.179.168-.34.367-.568.472.218-.206.399-.451.557-.705.033-.075.124-.166.075-.25-.08-.064-.179-.005-.22.072-.139.177-.244.384-.422.528.156-.291.317-.601.321-.938 0-.069-.014-.17-.11-.158-.076.013-.059.125-.09.181-.069.23-.101.479-.243.68.032-.187.088-.381.045-.57-.02-.084-.16-.048-.141.036-.166.823-.73 1.543-1.468 1.96a3.21 3.21 0 0 1-1.1.362c-.103.022-.214.01-.313.044-.24.18-.384.48-.687.574-.136.066-.313.08-.41.203a.105.105 0 0 0-.01.051zm2.647.303c-.092.055-.163-.042-.24-.07-.055.029-.06.127-.112.174-.062.068-.137-.02-.132-.088-.074.061-.111.2-.23.181-.057-.045-.099-.14-.142-.032-.035.053-.13.128-.178.048-.015-.07-.05-.153-.09-.041-.027.079-.113.137-.196.102-.046-.036.036-.171-.022-.162-.087.057-.137.196-.258.185-.047-.052.028-.14-.023-.197-.061.077-.129.189-.234.197-.05-.04.002-.156-.03-.173-.109.063-.223.176-.359.14.053-.198.275-.267.46-.283.321-.038.658.033.966-.08.05-.03.17-.072.128-.141-.038-.054.099-.033.112-.097-.008-.08.063-.069.132-.076.311-.013.619.051.929.062.024.148-.144.252-.28.206-.064.01-.16-.145-.141-.032-.013.06-.004.138-.06.177z" fill="#FFC600"/></g><mask id="b" maskUnits="userSpaceOnUse" x="4" y="5" width="4" height="5"><path fill-rule="evenodd" clip-rule="evenodd" d="M4 5.88h3.926v3.176H4V5.88z" fill="#fff"/></mask><g mask="url(#b)"><path fill-rule="evenodd" clip-rule="evenodd" d="M7.926 8.563c-.045.08-.071.17-.128.242-.173-.154-.424-.149-.643-.16-.181-.009-.378-.025-.518-.151-.147-.119-.268-.272-.432-.368-.15-.04-.302-.09-.423-.19-.258-.207-.406-.512-.658-.725-.048-.046-.105-.082-.158-.122-.052.013-.029.12-.091.066-.034-.024-.12-.026-.127.007.077.1.154.213.165.34-.053.005-.146-.01-.172.009.07.102.159.193.26.265-.048.008-.144.004-.163.023.101.08.21.163.342.184.027.035-.04.102.016.132.033.013.14.035.066.07-.05.034-.032.112.033.11.04.02.133.026.14.061-.036.037-.15.08-.053.113.09.05.192.08.295.084-.052.043-.115.067-.168.107.237.136.5.225.759.311.103.034.207.066.314.085a2.624 2.624 0 0 1-.895-.23 8.085 8.085 0 0 0-.445-.18c.066-.033.142-.04.21-.07-.141-.028-.296-.037-.421-.113.019-.034.091-.036.132-.053.075-.017.122-.039.015-.045-.107-.029-.23-.016-.324-.08.006-.037.105-.024.145-.04.05-.009.107-.016.148-.05-.166-.067-.383-.02-.513-.163-.03-.054.093-.01.128-.02.089 0 .185.028.27-.007-.242-.104-.501-.2-.686-.393-.02-.031-.081-.115-.032-.126.144.019.247.172.4.148.021-.027-.088-.07-.116-.11-.223-.187-.44-.391-.597-.638-.011-.082.12-.094.156-.03.17.16.325.349.538.46.076.035-.043-.043-.059-.072a3.736 3.736 0 0 1-.522-.724c-.025-.047-.065-.133.008-.159.074-.036.147.013.185.075.144.18.25.392.431.54-.153-.291-.317-.599-.321-.935.003-.065.007-.163.098-.16.075-.012.063.083.088.128.075.247.107.514.257.732-.033-.183-.082-.371-.05-.558.008-.06.078-.08.124-.042.037.089.045.198.079.293.192.644.624 1.21 1.186 1.59a3.168 3.168 0 0 0 1.575.53c.05.004.101.006.152.009" fill="#FFC600"/></g><path fill-rule="evenodd" clip-rule="evenodd" d="M7.214 9.358a.03.03 0 0 1 .03.03.03.03 0 0 1-.03.029.03.03 0 0 1-.03-.03.03.03 0 0 1 .03-.03z" fill="#FFC600"/><path fill-rule="evenodd" clip-rule="evenodd" d="M7.21 9.37c.008 0 .013.006.013.013a.012.012 0 0 1-.012.012.012.012 0 0 1-.013-.012c0-.007.006-.013.013-.013z" fill="#FFC600"/></svg>