<svg width="1020" height="113" viewBox="0 0 1020 113" fill="none" xmlns="http://www.w3.org/2000/svg">
<path fill-rule="evenodd" clip-rule="evenodd" d="M27.3647 0H60L-53.3647 113H-86L27.3647 0ZM95.3647 0H128L14.6353 113H-18L95.3647 0ZM165.365 0H198L84.6353 113H52L165.365 0ZM232.365 0H265L151.635 113H119L232.365 0ZM302.365 0H335L221.635 113H189L302.365 0ZM370.365 0H403L289.635 113H257L370.365 0ZM440.365 0H473L359.635 113H327L440.365 0ZM507.365 0H540L426.635 113H394L507.365 0ZM577.365 0H610L496.635 113H464L577.365 0ZM645.365 0H678L564.635 113H532L645.365 0ZM713.365 0H746L632.635 113H600L713.365 0ZM781.365 0H814L700.635 113H668L781.365 0ZM851.365 0H884L770.635 113H738L851.365 0ZM918.365 0H951L837.635 113H805L918.365 0ZM988.365 0H1021L907.635 113H875L988.365 0ZM1056.36 0H1089L975.635 113H943L1056.36 0ZM1126.36 0H1159L1045.64 113H1013L1126.36 0ZM1193.36 0H1226L1112.64 113H1080L1193.36 0ZM1263.36 0H1296L1182.64 113H1150L1263.36 0ZM1331.36 0H1364L1250.64 113H1218L1331.36 0Z" fill="#F8F8F8"/>
</svg>
