<?xml version="1.0" encoding="UTF-8"?>
<svg width="175px" height="243px" viewBox="0 0 175 243" version="1.1" xmlns="http://www.w3.org/2000/svg" xmlns:xlink="http://www.w3.org/1999/xlink">
    <!-- Generator: Sketch 52.5 (67469) - http://www.bohemiancoding.com/sketch -->
    <title>Group 12</title>
    <desc>Created with Sketch.</desc>
    <defs>
        <rect id="path-1" x="0" y="0" width="175" height="243"></rect>       
        <linearGradient x1="-1.11022302e-14%" y1="50%" x2="100%" y2="50%" id="linearGradient-4">
            <stop stop-color="#FF9729" stop-opacity="0.211248868" offset="0%"></stop>
            <stop stop-color="#67412E" stop-opacity="0.581634964" offset="100%"></stop>
        </linearGradient>
    </defs>
    <g id="Symbols" stroke="none" stroke-width="1" fill="none" fill-rule="evenodd">
        <g id="Catalogue">
            <g id="Group-12">
                <g id="Shape">
                    <mask id="mask-2" fill="white">
                        <use xlink:href="#path-1"></use>
                    </mask>
                    <g id="Mask">
                        <use fill="black" fill-opacity="1" filter="url(#filter-3)" xlink:href="#path-1"></use>
                        <use fill="#FF9729" fill-rule="evenodd" xlink:href="#path-1"></use>
                    </g>
                    <path d="M-7.01176471,0 L14,0 L-58.9882353,73 L-80,73 L-7.01176471,0 Z M36.9882353,0 L58,0 L-14.9882353,73 L-36,73 L36.9882353,0 Z M80.9882353,0 L102,0 L29.0117647,73 L8,73 L80.9882353,0 Z M124.988235,0 L146,0 L73.0117647,73 L52,73 L124.988235,0 Z M168.988235,0 L190,0 L117.011765,73 L96,73 L168.988235,0 Z M212.988235,0 L234,0 L161.011765,73 L140,73 L212.988235,0 Z M256.988235,0 L278,0 L205.011765,73 L184,73 L256.988235,0 Z M300.988235,0 L322,0 L249.011765,73 L228,73 L300.988235,0 Z M344.988235,0 L366,0 L293.011765,73 L272,73 L344.988235,0 Z M388.988235,0 L410,0 L337.011765,73 L316,73 L388.988235,0 Z" fill="#FF8B11" mask="url(#mask-2)"></path>
                </g>
                <rect id="Rectangle" fill="#FFFFFF" x="0" y="186" width="154" height="17"></rect>
                <rect id="Rectangle" fill="url(#linearGradient-4)" opacity="0.510277158" x="0" y="0" width="5" height="243"></rect>
                <path d="M33.444,54.176 L31.824,54.176 L31.824,59 L28.278,59 L28.278,46.4 L31.824,46.4 L31.824,51.296 L33.534,51.296 L36.54,46.4 L40.284,46.4 L36.342,52.484 L40.32,59 L36.306,59 L33.444,54.176 Z M50.544,56.552 L45.216,56.552 L44.226,59 L40.59,59 L46.152,46.4 L49.662,46.4 L55.242,59 L51.534,59 L50.544,56.552 Z M49.5,53.924 L47.88,49.892 L46.26,53.924 L49.5,53.924 Z M66.834,49.226 L62.982,49.226 L62.982,59 L59.472,59 L59.472,49.226 L55.602,49.226 L55.602,46.4 L66.834,46.4 L66.834,49.226 Z M77.166,56.552 L71.838,56.552 L70.848,59 L67.212,59 L72.774,46.4 L76.284,46.4 L81.864,59 L78.156,59 L77.166,56.552 Z M76.122,53.924 L74.502,49.892 L72.882,53.924 L76.122,53.924 Z M95.058,46.4 L95.058,59 L91.548,59 L91.548,49.226 L87.93,49.226 L87.858,51.278 C87.7979997,53.078009 87.6510012,54.5419944 87.417,55.67 C87.1829988,56.7980056 86.7840028,57.6709969 86.22,58.289 C85.6559972,58.9070031 84.8580052,59.216 83.826,59.216 C83.3459976,59.216 82.806003,59.1440007 82.206,59 L82.404,56.084 C82.5600008,56.1200002 82.7219992,56.138 82.89,56.138 C83.3580023,56.138 83.7179987,55.9520019 83.97,55.58 C84.2220013,55.2079981 84.4019995,54.6890033 84.51,54.023 C84.6180005,53.3569967 84.6899998,52.4900053 84.726,51.422 L84.906,46.4 L95.058,46.4 Z M103.95,59.252 C102.617993,59.252 101.421005,58.9700028 100.359,58.406 C99.2969947,57.8419972 98.463003,57.062005 97.857,56.066 C97.250997,55.069995 96.948,53.9480062 96.948,52.7 C96.948,51.4519938 97.250997,50.330005 97.857,49.334 C98.463003,48.337995 99.2969947,47.5580028 100.359,46.994 C101.421005,46.4299972 102.617993,46.148 103.95,46.148 C105.282007,46.148 106.478995,46.4299972 107.541,46.994 C108.603005,47.5580028 109.436997,48.337995 110.043,49.334 C110.649003,50.330005 110.952,51.4519938 110.952,52.7 C110.952,53.9480062 110.649003,55.069995 110.043,56.066 C109.436997,57.062005 108.603005,57.8419972 107.541,58.406 C106.478995,58.9700028 105.282007,59.252 103.95,59.252 Z M103.95,56.3 C104.586003,56.3 105.161997,56.1500015 105.678,55.85 C106.194003,55.5499985 106.601999,55.1270027 106.902,54.581 C107.202002,54.0349973 107.352,53.4080035 107.352,52.7 C107.352,51.9919965 107.202002,51.3650027 106.902,50.819 C106.601999,50.2729973 106.194003,49.8500015 105.678,49.55 C105.161997,49.2499985 104.586003,49.1 103.95,49.1 C103.313997,49.1 102.738003,49.2499985 102.222,49.55 C101.705997,49.8500015 101.298002,50.2729973 100.998,50.819 C100.697999,51.3650027 100.548,51.9919965 100.548,52.7 C100.548,53.4080035 100.697999,54.0349973 100.998,54.581 C101.298002,55.1270027 101.705997,55.5499985 102.222,55.85 C102.738003,56.1500015 103.313997,56.3 103.95,56.3 Z M122.076,49.226 L116.37,49.226 L116.37,59 L112.86,59 L112.86,46.4 L122.094,46.4 L122.076,49.226 Z M36.144,72.448 C36.8400035,72.7120013 37.385998,73.1079974 37.782,73.636 C38.178002,74.1640026 38.376,74.7699966 38.376,75.454 C38.376,76.2340039 38.1120026,76.9119971 37.584,77.488 C37.0559974,78.0640029 36.3420045,78.5049985 35.442,78.811 C34.5419955,79.1170015 33.5520054,79.27 32.472,79.27 C31.6199957,79.27 30.7530044,79.168001 29.871,78.964 C28.9889956,78.759999 28.146004,78.454002 27.342,78.046 L28.404,75.562 C28.9680028,75.8500014 29.5709968,76.0689993 30.213,76.219 C30.8550032,76.3690007 31.475997,76.444 32.076,76.444 C32.868004,76.444 33.5159975,76.3150013 34.02,76.057 C34.5240025,75.7989987 34.776,75.4360023 34.776,74.968 C34.776,74.5959981 34.6200016,74.3200009 34.308,74.14 C33.9959984,73.9599991 33.5760026,73.87 33.048,73.87 L29.826,73.87 L29.826,71.26 L32.76,71.26 C33.2400024,71.26 33.6119987,71.164001 33.876,70.972 C34.1400013,70.779999 34.272,70.5220016 34.272,70.198 C34.272,69.789998 34.068002,69.4750011 33.66,69.253 C33.251998,69.0309989 32.7240032,68.92 32.076,68.92 C31.5479974,68.92 30.9900029,68.9949993 30.402,69.145 C29.8139971,69.2950008 29.2560026,69.5079986 28.728,69.784 L27.684,67.084 C29.0280067,66.4359968 30.503992,66.112 32.112,66.112 C33.1440052,66.112 34.1009956,66.2589985 34.983,66.553 C35.8650044,66.8470015 36.5669974,67.2699972 37.089,67.822 C37.6110026,68.3740028 37.872,69.0279962 37.872,69.784 C37.872,70.3720029 37.7190015,70.8969977 37.413,71.359 C37.1069985,71.8210023 36.6840027,72.1839987 36.144,72.448 Z M48.996,76.552 L43.668,76.552 L42.678,79 L39.042,79 L44.604,66.4 L48.114,66.4 L53.694,79 L49.986,79 L48.996,76.552 Z M47.952,73.924 L46.332,69.892 L44.712,73.924 L47.952,73.924 Z M66.96,66.4 L66.96,79 L63.432,79 L63.432,69.226 L58.644,69.226 L58.644,79 L55.134,79 L55.134,66.4 L66.96,66.4 Z M80.586,66.4 L80.586,79 L77.076,79 L77.076,74.716 C76.1039951,75.0400016 75.2100041,75.202 74.394,75.202 C72.6299912,75.202 71.2830047,74.7790042 70.353,73.933 C69.4229954,73.0869958 68.958,71.866008 68.958,70.27 L68.958,66.4 L72.468,66.4 L72.468,69.874 C72.468,71.4940081 73.2599921,72.304 74.844,72.304 C75.7080043,72.304 76.4519969,72.1600014 77.076,71.872 L77.076,66.4 L80.586,66.4 Z M91.98,76.552 L86.652,76.552 L85.662,79 L82.026,79 L87.588,66.4 L91.098,66.4 L96.678,79 L92.97,79 L91.98,76.552 Z M90.936,73.924 L89.316,69.892 L87.696,73.924 L90.936,73.924 Z M104.31,79.252 C102.989993,79.252 101.805005,78.9730028 100.755,78.415 C99.7049948,77.8569972 98.880003,77.080005 98.28,76.084 C97.679997,75.087995 97.38,73.9600063 97.38,72.7 C97.38,71.4399937 97.679997,70.312005 98.28,69.316 C98.880003,68.319995 99.7049948,67.5430028 100.755,66.985 C101.805005,66.4269972 102.989993,66.148 104.31,66.148 C105.462006,66.148 106.499995,66.351998 107.424,66.76 C108.348005,67.168002 109.115997,67.7559962 109.728,68.524 L107.46,70.576 C106.643996,69.5919951 105.654006,69.1 104.49,69.1 C103.805997,69.1 103.197003,69.2499985 102.663,69.55 C102.128997,69.8500015 101.715001,70.2729973 101.421,70.819 C101.126999,71.3650027 100.98,71.9919965 100.98,72.7 C100.98,73.4080035 101.126999,74.0349973 101.421,74.581 C101.715001,75.1270027 102.128997,75.5499985 102.663,75.85 C103.197003,76.1500015 103.805997,76.3 104.49,76.3 C105.654006,76.3 106.643996,75.8080049 107.46,74.824 L109.728,76.876 C109.115997,77.6440038 108.348005,78.231998 107.424,78.64 C106.499995,79.048002 105.462006,79.252 104.31,79.252 Z M121.554,69.226 L117.702,69.226 L117.702,79 L114.192,79 L114.192,69.226 L110.322,69.226 L110.322,66.4 L121.554,66.4 L121.554,69.226 Z M133.308,76.246 L133.308,79 L123.192,79 L123.192,66.4 L133.074,66.4 L133.074,69.154 L126.72,69.154 L126.72,71.278 L132.318,71.278 L132.318,73.942 L126.72,73.942 L126.72,76.246 L133.308,76.246 Z M135.342,66.4 L138.852,66.4 L138.852,73.798 L144.054,66.4 L147.402,66.4 L147.402,79 L143.892,79 L143.892,71.62 L138.708,79 L135.342,79 L135.342,66.4 Z M141.354,65.644 C140.081994,65.644 139.149003,65.3980025 138.555,64.906 C137.960997,64.4139975 137.664,63.6820049 137.664,62.71 L140.058,62.71 C140.07,63.1300021 140.177999,63.441999 140.382,63.646 C140.586001,63.850001 140.909998,63.952 141.354,63.952 C141.798002,63.952 142.127999,63.850001 142.344,63.646 C142.560001,63.441999 142.674,63.1300021 142.686,62.71 L145.08,62.71 C145.08,63.6820049 144.780003,64.4139975 144.18,64.906 C143.579997,65.3980025 142.638006,65.644 141.354,65.644 Z M34.02,86.4 C35.1600057,86.4 36.1499958,86.5889981 36.99,86.967 C37.8300042,87.3450019 38.4779977,87.8849965 38.934,88.587 C39.3900023,89.2890035 39.618,90.1139953 39.618,91.062 C39.618,92.0100047 39.3900023,92.8319965 38.934,93.528 C38.4779977,94.2240035 37.8300042,94.7609981 36.99,95.139 C36.1499958,95.5170019 35.1600057,95.706 34.02,95.706 L31.824,95.706 L31.824,99 L28.26,99 L28.26,86.4 L34.02,86.4 Z M33.804,92.898 C34.5360037,92.898 35.0879981,92.7390016 35.46,92.421 C35.8320019,92.1029984 36.018,91.6500029 36.018,91.062 C36.018,90.4739971 35.8320019,90.0180016 35.46,89.694 C35.0879981,89.3699984 34.5360037,89.208 33.804,89.208 L31.824,89.208 L31.824,92.898 L33.804,92.898 Z M47.034,95.652 L45.09,95.652 L45.09,99 L41.526,99 L41.526,86.4 L47.286,86.4 C48.4260057,86.4 49.4159958,86.5889981 50.256,86.967 C51.0960042,87.3450019 51.7439977,87.8849965 52.2,88.587 C52.6560023,89.2890035 52.884,90.1139953 52.884,91.062 C52.884,91.9740046 52.6710021,92.7689966 52.245,93.447 C51.8189979,94.1250034 51.210004,94.6559981 50.418,95.04 L53.136,99 L49.32,99 L47.034,95.652 Z M49.284,91.062 C49.284,90.4739971 49.0980019,90.0180016 48.726,89.694 C48.3539981,89.3699984 47.8020037,89.208 47.07,89.208 L45.09,89.208 L45.09,92.898 L47.07,92.898 C47.8020037,92.898 48.3539981,92.7390016 48.726,92.421 C49.0980019,92.1029984 49.284,91.6500029 49.284,91.062 Z M61.2,99.252 C59.8679933,99.252 58.6710053,98.9700028 57.609,98.406 C56.5469947,97.8419972 55.713003,97.062005 55.107,96.066 C54.500997,95.069995 54.198,93.9480062 54.198,92.7 C54.198,91.4519938 54.500997,90.330005 55.107,89.334 C55.713003,88.337995 56.5469947,87.5580028 57.609,86.994 C58.6710053,86.4299972 59.8679933,86.148 61.2,86.148 C62.5320067,86.148 63.7289947,86.4299972 64.791,86.994 C65.8530053,87.5580028 66.686997,88.337995 67.293,89.334 C67.899003,90.330005 68.202,91.4519938 68.202,92.7 C68.202,93.9480062 67.899003,95.069995 67.293,96.066 C66.686997,97.062005 65.8530053,97.8419972 64.791,98.406 C63.7289947,98.9700028 62.5320067,99.252 61.2,99.252 Z M61.2,96.3 C61.8360032,96.3 62.4119974,96.1500015 62.928,95.85 C63.4440026,95.5499985 63.8519985,95.1270027 64.152,94.581 C64.4520015,94.0349973 64.602,93.4080035 64.602,92.7 C64.602,91.9919965 64.4520015,91.3650027 64.152,90.819 C63.8519985,90.2729973 63.4440026,89.8500015 62.928,89.55 C62.4119974,89.2499985 61.8360032,89.1 61.2,89.1 C60.5639968,89.1 59.9880026,89.2499985 59.472,89.55 C58.9559974,89.8500015 58.5480015,90.2729973 58.248,90.819 C57.9479985,91.3650027 57.798,91.9919965 57.798,92.7 C57.798,93.4080035 57.9479985,94.0349973 58.248,94.581 C58.5480015,95.1270027 58.9559974,95.5499985 59.472,95.85 C59.9880026,96.1500015 60.5639968,96.3 61.2,96.3 Z M81.45,99 L81.414,92.322 L78.174,97.758 L76.59,97.758 L73.368,92.502 L73.368,99 L70.074,99 L70.074,86.4 L73.008,86.4 L77.436,93.672 L81.756,86.4 L84.69,86.4 L84.726,99 L81.45,99 Z M87.246,86.4 L90.81,86.4 L90.81,99 L87.246,99 L87.246,86.4 Z M97.776,99.252 C96.7559949,99.252 95.7660048,99.1260013 94.806,98.874 C93.8459952,98.6219987 93.066003,98.2860021 92.466,97.866 L93.636,95.238 C94.2000028,95.6100019 94.8539963,95.9099989 95.598,96.138 C96.3420037,96.3660011 97.0739964,96.48 97.794,96.48 C99.1620068,96.48 99.846,96.1380034 99.846,95.454 C99.846,95.0939982 99.651002,94.8270009 99.261,94.653 C98.8709981,94.4789991 98.2440043,94.296001 97.38,94.104 C96.4319953,93.899999 95.6400032,93.6810012 95.004,93.447 C94.3679968,93.2129988 93.8220023,92.8380026 93.366,92.322 C92.9099977,91.8059974 92.682,91.1100044 92.682,90.234 C92.682,89.4659962 92.8919979,88.7730031 93.312,88.155 C93.7320021,87.5369969 94.3589958,87.0480018 95.193,86.688 C96.0270042,86.3279982 97.0499939,86.148 98.262,86.148 C99.0900041,86.148 99.905996,86.2409991 100.71,86.427 C101.514004,86.6130009 102.221997,86.8859982 102.834,87.246 L101.736,89.892 C100.535994,89.2439968 99.3720056,88.92 98.244,88.92 C97.5359965,88.92 97.0200016,89.0249989 96.696,89.235 C96.3719984,89.4450011 96.21,89.7179983 96.21,90.054 C96.21,90.3900017 96.4019981,90.6419992 96.786,90.81 C97.1700019,90.9780008 97.7879957,91.1519991 98.64,91.332 C99.6000048,91.536001 100.394997,91.7549988 101.025,91.989 C101.655003,92.2230012 102.200998,92.5949974 102.663,93.105 C103.125002,93.6150026 103.356,94.3079956 103.356,95.184 C103.356,95.9400038 103.146002,96.6239969 102.726,97.236 C102.305998,97.8480031 101.676004,98.3369982 100.836,98.703 C99.9959958,99.0690018 98.976006,99.252 97.776,99.252 Z" id="Каталог-запчаcтей-PR" fill="#FFFFFF"></path>
                <path d="M35.05,196.802 L35.05,199 L27.42,199 L27.42,197.264 L31.088,193.834 C31.4426684,193.497998 31.6806661,193.211001 31.802,192.973 C31.9233339,192.734999 31.984,192.494668 31.984,192.252 C31.984,191.934665 31.8766677,191.687334 31.662,191.51 C31.4473323,191.332666 31.1346687,191.244 30.724,191.244 C30.3599982,191.244 30.0263349,191.325666 29.723,191.489 C29.4196652,191.652334 29.170001,191.887998 28.974,192.196 L26.916,191.048 C27.2986686,190.41333 27.8353299,189.914002 28.526,189.55 C29.2166701,189.185998 30.0333286,189.004 30.976,189.004 C31.7226704,189.004 32.3829971,189.125332 32.957,189.368 C33.5310029,189.610668 33.9789984,189.958331 34.301,190.411 C34.6230016,190.863669 34.784,191.388664 34.784,191.986 C34.784,192.518003 34.6696678,193.019664 34.441,193.491 C34.2123322,193.962336 33.7713366,194.496664 33.118,195.094 L31.27,196.802 L35.05,196.802 Z M40.188,199.196 C39.3479958,199.196 38.6013366,198.995335 37.948,198.594 C37.2946634,198.192665 36.7836685,197.607004 36.415,196.837 C36.0463315,196.066996 35.862,195.154672 35.862,194.1 C35.862,193.045328 36.0463315,192.133004 36.415,191.363 C36.7836685,190.592996 37.2946634,190.007335 37.948,189.606 C38.6013366,189.204665 39.3479958,189.004 40.188,189.004 C41.0186708,189.004 41.7606634,189.204665 42.414,189.606 C43.0673366,190.007335 43.5783315,190.592996 43.947,191.363 C44.3156685,192.133004 44.5,193.045328 44.5,194.1 C44.5,195.154672 44.3156685,196.066996 43.947,196.837 C43.5783315,197.607004 43.0673366,198.192665 42.414,198.594 C41.7606634,198.995335 41.0186708,199.196 40.188,199.196 Z M40.188,196.928 C40.654669,196.928 41.0256653,196.701669 41.301,196.249 C41.5763347,195.796331 41.714,195.080005 41.714,194.1 C41.714,193.119995 41.5763347,192.403669 41.301,191.951 C41.0256653,191.498331 40.654669,191.272 40.188,191.272 C39.7119976,191.272 39.3363347,191.498331 39.061,191.951 C38.7856653,192.403669 38.648,193.119995 38.648,194.1 C38.648,195.080005 38.7856653,195.796331 39.061,196.249 C39.3363347,196.701669 39.7119976,196.928 40.188,196.928 Z M49.652,189.2 L49.652,199 L46.88,199 L46.88,191.342 L45.06,191.342 L45.06,189.2 L49.652,189.2 Z M54.706,189.004 C56.1153404,189.004 57.2259959,189.419329 58.038,190.25 C58.8500041,191.080671 59.256,192.275326 59.256,193.834 C59.256,194.954006 59.0390022,195.917663 58.605,196.725 C58.1709978,197.532337 57.5596706,198.145998 56.771,198.566 C55.9823294,198.986002 55.0700052,199.196 54.034,199.196 C53.4833306,199.196 52.9560025,199.133001 52.452,199.007 C51.9479975,198.880999 51.5186684,198.706001 51.164,198.482 L52.172,196.494 C52.6480024,196.830002 53.2499964,196.998 53.978,196.998 C54.6780035,196.998 55.2449978,196.804335 55.679,196.417 C56.1130022,196.029665 56.367333,195.467337 56.442,194.73 C55.8819972,195.206002 55.1493379,195.444 54.244,195.444 C53.6279969,195.444 53.0633359,195.315668 52.55,195.059 C52.0366641,194.802332 51.6283349,194.438336 51.325,193.967 C51.0216652,193.495664 50.87,192.95667 50.87,192.35 C50.87,191.68733 51.0403316,191.101669 51.381,190.593 C51.7216684,190.084331 52.1836638,189.692335 52.767,189.417 C53.3503362,189.141665 53.9966631,189.004 54.706,189.004 Z M54.902,193.456 C55.3033353,193.456 55.6299987,193.341668 55.882,193.113 C56.1340013,192.884332 56.26,192.583335 56.26,192.21 C56.26,191.845998 56.1363346,191.549668 55.889,191.321 C55.6416654,191.092332 55.3080021,190.978 54.888,190.978 C54.495998,190.978 54.1763346,191.089999 53.929,191.314 C53.6816654,191.538001 53.558,191.841331 53.558,192.224 C53.558,192.597335 53.6816654,192.895999 53.929,193.12 C54.1763346,193.344001 54.5006647,193.456 54.902,193.456 Z" id="2019" fill="#FF9729"></path>
            </g>
        </g>
    </g>
</svg>