<svg width="31" height="20" viewBox="0 0 31 20" fill="none" xmlns="http://www.w3.org/2000/svg">
<rect x="0.961426" y="0.0333862" width="29.9769" height="19.9666" fill="#F0F0F0"/>
<path fill-rule="evenodd" clip-rule="evenodd" d="M17.8234 0H14.0763V8.11143H0.961426V11.8552H14.0763V19.9666H17.8234V11.8552H30.9383V8.11143H17.8234V0Z" fill="#D80027"/>
<path fill-rule="evenodd" clip-rule="evenodd" d="M24.021 13.5099L30.938 17.3279V13.5099H24.021Z" fill="#0052B4"/>
<path fill-rule="evenodd" clip-rule="evenodd" d="M19.2153 13.5099L30.9383 19.9804V18.1507L22.5304 13.5099H19.2153Z" fill="#0052B4"/>
<path fill-rule="evenodd" clip-rule="evenodd" d="M27.8156 19.9803L19.2153 15.233V19.9803H27.8156Z" fill="#0052B4"/>
<path fill-rule="evenodd" clip-rule="evenodd" d="M19.208 13.4892L30.9381 19.9666V18.1349L22.5251 13.4892H19.208Z" fill="#F0F0F0"/>
<path fill-rule="evenodd" clip-rule="evenodd" d="M19.208 13.4892L30.9381 19.9666V18.1349L22.5251 13.4892H19.208Z" fill="#D80027"/>
<path fill-rule="evenodd" clip-rule="evenodd" d="M6.24751 13.5099L0.961426 16.4275V13.5099H6.24751Z" fill="#0052B4"/>
<path fill-rule="evenodd" clip-rule="evenodd" d="M12.6845 14.3327V19.9803H2.45312L12.6845 14.3327Z" fill="#0052B4"/>
<path fill-rule="evenodd" clip-rule="evenodd" d="M9.37444 13.4892L0.961426 18.1349V19.9666L12.6915 13.4892H9.37444Z" fill="#D80027"/>
<path fill-rule="evenodd" clip-rule="evenodd" d="M7.87849 6.48957L0.961426 2.67165V6.48957H7.87849Z" fill="#0052B4"/>
<path fill-rule="evenodd" clip-rule="evenodd" d="M12.6843 6.48957L0.961426 0.0191803V1.84885L9.36927 6.48957H12.6843Z" fill="#0052B4"/>
<path fill-rule="evenodd" clip-rule="evenodd" d="M4.08398 0.0191803L12.6843 4.76652V0.0191803H4.08398Z" fill="#0052B4"/>
<path fill-rule="evenodd" clip-rule="evenodd" d="M12.6915 6.51085L0.961426 0.0333862V1.86505L9.37444 6.51085H12.6915Z" fill="#F0F0F0"/>
<path fill-rule="evenodd" clip-rule="evenodd" d="M12.6915 6.51085L0.961426 0.0333862V1.86505L9.37444 6.51085H12.6915Z" fill="#D80027"/>
<path fill-rule="evenodd" clip-rule="evenodd" d="M25.6519 6.48968L30.9379 3.57201V6.48968H25.6519Z" fill="#0052B4"/>
<path fill-rule="evenodd" clip-rule="evenodd" d="M19.2153 5.66688V0.0192413H29.4466L19.2153 5.66688Z" fill="#0052B4"/>
<path fill-rule="evenodd" clip-rule="evenodd" d="M22.5251 6.51085L30.9381 1.86505V0.0333862L19.208 6.51085H22.5251Z" fill="#D80027"/>
</svg>
