<svg width="26px" height="26px" viewBox="0 0 26 26" version="1.1" xmlns="http://www.w3.org/2000/svg" xmlns:xlink="http://www.w3.org/1999/xlink">
    <g id="Page-1" stroke="none" stroke-width="1" fill="none" fill-rule="evenodd">
        <g id="Contacts" transform="translate(-1073.000000, -974.000000)" fill="#FF9729">
            <g id="Group-6" transform="translate(0.000000, 704.000000)">
                <g id="Group-3" transform="translate(1073.000000, 157.000000)">
                    <path d="M5.9794972,136.943211 L1.59420846,138.697326 L3.23869662,134.586106 C1.22274739,132.296022 0,129.290805 0,126 C0,118.820298 5.82029825,113 13,113 C20.1797017,113 26,118.820298 26,126 C26,133.179702 20.1797017,139 13,139 C10.4139927,139 8.00434333,138.244922 5.9794972,136.943211 Z M19.8585343,131.569649 C20.0642051,131.076344 20.1669179,130.605053 20.1672611,130.157539 C20.1672611,130.054877 20.158191,129.980014 20.1396095,129.93339 C20.1115657,129.858869 19.9318796,129.721301 19.6005021,129.520636 C19.2691246,129.31997 18.8562142,129.089104 18.3615748,128.827695 L17.6200325,128.422197 C17.5733582,128.393811 17.4847654,128.33341 17.3539107,128.239769 C17.2233503,128.146521 17.1069588,128.076364 17.0042459,128.02974 C16.90119,127.983116 16.8033799,127.959926 16.7101294,127.959926 C16.5418177,127.959926 16.3227134,128.111565 16.0522772,128.414598 C15.7816449,128.717925 15.5155231,129.023458 15.2543041,129.331638 C14.9927419,129.639525 14.7873653,129.79337 14.6385175,129.79337 C14.5729186,129.79337 14.4959453,129.776946 14.4071563,129.744393 C14.3183674,129.711986 14.2462478,129.68159 14.1902092,129.653595 C14.1343178,129.625601 14.054795,129.581281 13.9522783,129.520881 C13.8492223,129.460137 13.7837705,129.420572 13.7559718,129.401746 C12.8319978,128.888488 12.0365742,128.298454 11.3692106,127.631056 C10.7021412,126.963757 10.1117999,126.168204 9.59862811,125.244397 C9.58009568,125.216354 9.5403343,125.1511 9.47968717,125.04834 C9.41913809,124.945581 9.3747191,124.866207 9.34672434,124.810268 C9.31872958,124.754377 9.28838151,124.682063 9.25572913,124.593227 C9.22302772,124.504587 9.20670154,124.427665 9.20670154,124.362313 C9.20670154,124.240972 9.30245242,124.084676 9.49361101,123.893521 C9.68491667,123.70222 9.8948038,123.522538 10.1234685,123.354524 C10.3521332,123.18651 10.5621184,123.002121 10.7534731,122.801456 C10.9447297,122.600987 11.0404806,122.430767 11.0404806,122.2906 C11.0404806,122.197302 11.0170944,122.099298 10.9705182,121.996637 C10.923942,121.893877 10.8537835,121.77739 10.760533,121.646833 C10.6672825,121.516079 10.6065864,121.427586 10.5785916,121.380668 C10.5506459,121.324876 10.4806835,121.19172 10.3687045,120.981936 C10.2566765,120.771808 10.1399908,120.559621 10.0186965,120.345032 C9.89740226,120.130492 9.77375467,119.908844 9.64775376,119.680135 C9.52180187,119.451475 9.40521426,119.262576 9.29784383,119.113242 C9.1904734,118.963907 9.11345106,118.880121 9.06672776,118.861245 C9.02020057,118.842615 8.9454335,118.833202 8.8429168,118.833202 C8.39495169,118.833202 7.92369847,118.935864 7.42910812,119.141236 C6.99977349,119.337244 6.62657546,119.778139 6.30926888,120.463922 C5.99191327,121.149802 5.83321095,121.758662 5.83321095,122.2906 C5.83321095,122.439788 5.84483049,122.598633 5.86816763,122.766647 C5.89155379,122.934661 5.91469481,123.076887 5.93813,123.193374 C5.96151616,123.310155 6.00338573,123.464 6.06403286,123.65535 C6.12472902,123.846505 6.17145232,123.984171 6.20390858,124.068154 C6.23656096,124.152038 6.29505088,124.306128 6.37898611,124.529934 C6.46306843,124.753789 6.51440032,124.893809 6.53293275,124.949846 C7.09287689,126.479963 8.10309043,127.975222 9.5634263,129.435869 C11.0237622,130.896172 12.5193979,131.906167 14.0497942,132.466393 C14.1054405,132.48468 14.2455614,132.53601 14.4695684,132.620238 C14.6933794,132.704171 14.847228,132.762513 14.9314574,132.795066 C15.0151475,132.827669 15.152915,132.874489 15.3443678,132.934988 C15.5354773,132.995732 15.6896691,133.037649 15.8062567,133.060986 C15.9228934,133.084323 16.0649753,133.107512 16.2329439,133.130996 C16.4008634,133.154333 16.5595657,133.165854 16.7089037,133.165854 C17.2409512,133.165854 17.8500209,133.007155 18.535917,132.689708 C19.2216659,132.372262 19.662571,131.998827 19.8585343,131.569649 Z"
                        id="Shape"></path>
                </g>
            </g>
        </g>
    </g>
</svg>