<svg width="70" height="76" viewBox="0 0 70 76" fill="none" xmlns="http://www.w3.org/2000/svg">
<g filter="url(#filter0_d)">
<path fill-rule="evenodd" clip-rule="evenodd" d="M10 0H60V39L48 51H10V0Z" fill="white"/>
</g>
<mask id="mask0" mask-type="alpha" maskUnits="userSpaceOnUse" x="10" y="0" width="50" height="51">
<path fill-rule="evenodd" clip-rule="evenodd" d="M10 0H60V39L48 51H10V0Z" fill="white"/>
</mask>
<g mask="url(#mask0)">
<path d="M38.372 23.57C40.948 23.99 42.922 24.956 44.294 26.468C45.666 27.952 46.352 29.8 46.352 32.012C46.352 33.72 45.904 35.302 45.008 36.758C44.112 38.186 42.74 39.334 40.892 40.202C39.072 41.07 36.832 41.504 34.172 41.504C32.1 41.504 30.056 41.238 28.04 40.706C26.052 40.146 24.358 39.362 22.958 38.354L25.604 33.146C26.724 33.986 28.012 34.644 29.468 35.12C30.952 35.568 32.464 35.792 34.004 35.792C35.712 35.792 37.056 35.47 38.036 34.826C39.016 34.154 39.506 33.216 39.506 32.012C39.506 29.604 37.672 28.4 34.004 28.4H30.896V23.906L36.944 17.06H24.428V11.6H45.008V16.01L38.372 23.57Z" fill="#E9E5DE"/>
</g>
<defs>
<filter id="filter0_d" x="0" y="0" width="70" height="76" filterUnits="userSpaceOnUse" color-interpolation-filters="sRGB">
<feFlood flood-opacity="0" result="BackgroundImageFix"/>
<feColorMatrix in="SourceAlpha" type="matrix" values="0 0 0 0 0 0 0 0 0 0 0 0 0 0 0 0 0 0 127 0"/>
<feOffset dy="15"/>
<feGaussianBlur stdDeviation="5"/>
<feColorMatrix type="matrix" values="0 0 0 0 0.572549 0 0 0 0 0.529412 0 0 0 0 0.466667 0 0 0 0.146003 0"/>
<feBlend mode="normal" in2="BackgroundImageFix" result="effect1_dropShadow"/>
<feBlend mode="normal" in="SourceGraphic" in2="effect1_dropShadow" result="shape"/>
</filter>
</defs>
</svg>
