<svg width="26" height="27" viewBox="0 0 26 27" fill="none" xmlns="http://www.w3.org/2000/svg">
<path fill-rule="evenodd" clip-rule="evenodd" d="M19.3535 24.3443C17.4748 25.3987 15.3076 26 13 26C10.9186 26 8.95139 25.5108 7.20716 24.6412L6.23205 26.3301C5.95591 26.8084 5.34432 26.9723 4.86603 26.6962C4.38773 26.42 4.22386 25.8084 4.5 25.3301L5.49115 23.6134C2.16855 21.2584 0 17.3825 0 13C0 5.8203 5.8203 0 13 0C20.1797 0 26 5.8203 26 13C26 17.1533 24.0523 20.8517 21.0205 23.2316L22.232 25.3301C22.5082 25.8084 22.3443 26.42 21.866 26.6962C21.3877 26.9723 20.7761 26.8084 20.5 26.3301L19.3535 24.3443ZM10.1707 12H5C4.44772 12 4 12.4477 4 13C4 13.5523 4.44772 14 5 14H10.1707C10.5825 15.1652 11.6938 16 13 16C14.6569 16 16 14.6569 16 13C16 11.6938 15.1652 10.5825 14 10.1707V5C14 4.44772 13.5523 4 13 4C12.4477 4 12 4.44772 12 5V10.1707C11.1476 10.472 10.472 11.1476 10.1707 12Z" fill="#FF9729"/>
</svg>
