<svg width="16" height="12" viewBox="0 0 16 12" fill="none" xmlns="http://www.w3.org/2000/svg" version="1.1">
<rect width="16" height="12" fill="#00AFCA"/>
<path fill-rule="evenodd" clip-rule="evenodd" d="M7.98523 3.94434C8.93387 3.94434 9.70289 4.69734 9.70289 5.62621C9.70289 6.55509 8.93387 7.30809 7.98523 7.30809C7.0366 7.30809 6.26758 6.55509 6.26758 5.62621C6.26758 4.69734 7.0366 3.94434 7.98523 3.94434Z" fill="#FFC600"/>
<path fill-rule="evenodd" clip-rule="evenodd" d="M7.98564 3.715C8.08776 3.71375 8.12606 3.65125 8.12606 3.57625C8.12606 3.47625 7.98564 3 7.98564 3C7.98564 3 7.84521 3.47625 7.84521 3.57625C7.84521 3.65125 7.88351 3.715 7.98564 3.715Z" fill="#FFC600"/>
<path fill-rule="evenodd" clip-rule="evenodd" d="M9.9375 5.62627C9.93878 5.72627 10.0026 5.76377 10.0792 5.76377C10.1813 5.76377 10.6677 5.62627 10.6677 5.62627C10.6677 5.62627 10.1813 5.48877 10.0792 5.48877C10.0026 5.48877 9.9375 5.52627 9.9375 5.62627Z" fill="#FFC600"/>
<path fill-rule="evenodd" clip-rule="evenodd" d="M7.98564 7.53748C7.88351 7.53873 7.84521 7.60123 7.84521 7.67623C7.84521 7.77623 7.98564 8.25248 7.98564 8.25248C7.98564 8.25248 8.12606 7.77623 8.12606 7.67623C8.12606 7.60123 8.08776 7.53748 7.98564 7.53748Z" fill="#FFC600"/>
<path fill-rule="evenodd" clip-rule="evenodd" d="M6.03344 5.62627C6.03216 5.52627 5.96833 5.48877 5.89173 5.48877C5.78961 5.48877 5.30322 5.62627 5.30322 5.62627C5.30322 5.62627 5.78961 5.76377 5.89173 5.76377C5.96833 5.76377 6.03344 5.72627 6.03344 5.62627Z" fill="#FFC600"/>
<path fill-rule="evenodd" clip-rule="evenodd" d="M8.73255 3.86053C8.8274 3.89766 8.88719 3.85424 8.91651 3.78495C8.95562 3.69258 9.012 3.19995 9.012 3.19995C9.012 3.19995 8.69613 3.58733 8.65706 3.67974C8.62774 3.74903 8.63821 3.82228 8.73255 3.86053Z" fill="#FFC600"/>
<path fill-rule="evenodd" clip-rule="evenodd" d="M9.78879 6.35763C9.75087 6.45051 9.79521 6.50905 9.86598 6.53775C9.96032 6.57605 10.4634 6.63125 10.4634 6.63125C10.4634 6.63125 10.0678 6.32196 9.97343 6.28371C9.90266 6.25501 9.82785 6.26526 9.78879 6.35763Z" fill="#FFC600"/>
<path fill-rule="evenodd" clip-rule="evenodd" d="M7.23843 7.39202C7.14358 7.35489 7.08379 7.39831 7.05447 7.4676C7.01537 7.55997 6.95898 8.05259 6.95898 8.05259C6.95898 8.05259 7.27485 7.66522 7.31392 7.57281C7.34324 7.50351 7.33277 7.43026 7.23843 7.39202Z" fill="#FFC600"/>
<path fill-rule="evenodd" clip-rule="evenodd" d="M6.18245 4.89484C6.22037 4.80197 6.17603 4.74342 6.10526 4.71472C6.01092 4.67642 5.50781 4.62122 5.50781 4.62122C5.50781 4.62122 5.90343 4.93051 5.99781 4.96876C6.06858 4.99747 6.14339 4.98722 6.18245 4.89484Z" fill="#FFC600"/>
<path fill-rule="evenodd" clip-rule="evenodd" d="M9.36559 4.27475C9.4387 4.34458 9.51091 4.32692 9.56508 4.27387C9.63729 4.20317 9.88193 3.76917 9.88193 3.76917C9.88193 3.76917 9.4387 4.00871 9.36649 4.07942C9.31232 4.13246 9.29338 4.20404 9.36559 4.27475Z" fill="#FFC600"/>
<path fill-rule="evenodd" clip-rule="evenodd" d="M9.36572 6.97765C9.29441 7.04923 9.31245 7.11994 9.36662 7.17298C9.43883 7.24369 9.88206 7.48322 9.88206 7.48322C9.88206 7.48322 9.63742 7.04923 9.56521 6.97852C9.51104 6.92548 9.43794 6.90694 9.36572 6.97765Z" fill="#FFC600"/>
<path fill-rule="evenodd" clip-rule="evenodd" d="M6.60521 6.97766C6.5321 6.90783 6.45989 6.9255 6.40572 6.97854C6.3335 7.04924 6.08887 7.48324 6.08887 7.48324C6.08887 7.48324 6.5321 7.2437 6.60431 7.17299C6.65848 7.11995 6.67742 7.04837 6.60521 6.97766Z" fill="#FFC600"/>
<path fill-rule="evenodd" clip-rule="evenodd" d="M6.6052 4.27475C6.67652 4.20317 6.65848 4.13246 6.60431 4.07942C6.5321 4.00871 6.08887 3.76917 6.08887 3.76917C6.08887 3.76917 6.3335 4.20317 6.40571 4.27387C6.45988 4.32692 6.53299 4.34546 6.6052 4.27475Z" fill="#FFC600"/>
<path fill-rule="evenodd" clip-rule="evenodd" d="M9.78928 4.89484C9.82953 4.98675 9.90315 4.99746 9.97391 4.96875C10.0683 4.9305 10.4639 4.62122 10.4639 4.62122C10.4639 4.62122 9.96081 4.67642 9.86647 4.71471C9.7957 4.74342 9.75021 4.80246 9.78928 4.89484Z" fill="#FFC600"/>
<path fill-rule="evenodd" clip-rule="evenodd" d="M8.73294 7.392C8.63907 7.43142 8.62814 7.5035 8.65746 7.57279C8.69652 7.66521 9.01238 8.05259 9.01238 8.05259C9.01238 8.05259 8.956 7.55996 8.9169 7.46759C8.88758 7.39829 8.82728 7.35375 8.73294 7.392Z" fill="#FFC600"/>
<path fill-rule="evenodd" clip-rule="evenodd" d="M6.18245 6.35766C6.14219 6.26574 6.06858 6.25504 5.99781 6.28374C5.90343 6.32199 5.50781 6.63128 5.50781 6.63128C5.50781 6.63128 6.01092 6.57607 6.10526 6.53778C6.17602 6.50908 6.22151 6.45003 6.18245 6.35766Z" fill="#FFC600"/>
<path fill-rule="evenodd" clip-rule="evenodd" d="M7.23843 3.86053C7.3323 3.82112 7.34324 3.74903 7.31392 3.67974C7.27485 3.58733 6.95898 3.19995 6.95898 3.19995C6.95898 3.19995 7.01537 3.69258 7.05447 3.78495C7.08379 3.85424 7.14409 3.89878 7.23843 3.86053Z" fill="#FFC600"/>
<path fill-rule="evenodd" clip-rule="evenodd" d="M8.36652 3.75166C8.46695 3.76996 8.51695 3.71596 8.53188 3.64241C8.5518 3.54433 8.50899 3.05042 8.50899 3.05042C8.50899 3.05042 8.27635 3.49067 8.25644 3.58875C8.2415 3.66233 8.26635 3.73216 8.36652 3.75166Z" fill="#FFC600"/>
<path fill-rule="evenodd" clip-rule="evenodd" d="M9.89966 5.99916C9.88098 6.09749 9.93613 6.14645 10.0112 6.16107C10.1114 6.18057 10.6158 6.13866 10.6158 6.13866C10.6158 6.13866 10.1662 5.91086 10.066 5.89136C9.99089 5.87674 9.91957 5.90107 9.89966 5.99916Z" fill="#FFC600"/>
<path fill-rule="evenodd" clip-rule="evenodd" d="M7.60473 7.50078C7.5043 7.48249 7.4543 7.53649 7.43936 7.61003C7.41945 7.70811 7.46226 8.20204 7.46226 8.20204C7.46226 8.20204 7.6949 7.76178 7.71481 7.6637C7.72975 7.59011 7.7049 7.52028 7.60473 7.50078Z" fill="#FFC600"/>
<path fill-rule="evenodd" clip-rule="evenodd" d="M6.07115 5.25339C6.08983 5.15506 6.03468 5.1061 5.95958 5.09148C5.85941 5.07198 5.35498 5.11389 5.35498 5.11389C5.35498 5.11389 5.8046 5.34168 5.90477 5.36118C5.97992 5.37581 6.05124 5.35148 6.07115 5.25339Z" fill="#FFC600"/>
<path fill-rule="evenodd" clip-rule="evenodd" d="M9.07012 4.03713C9.15573 4.09163 9.22305 4.0605 9.2656 3.99817C9.32232 3.915 9.47581 3.44263 9.47581 3.44263C9.47581 3.44263 9.08884 3.76221 9.03208 3.84538C8.98953 3.90771 8.98519 3.98159 9.07012 4.03713Z" fill="#FFC600"/>
<path fill-rule="evenodd" clip-rule="evenodd" d="M9.60878 6.6881C9.55312 6.77193 9.58491 6.83785 9.64857 6.87952C9.73351 6.93506 10.2159 7.08535 10.2159 7.08535C10.2159 7.08535 9.88955 6.70643 9.80461 6.65085C9.74095 6.60918 9.66551 6.60493 9.60878 6.6881Z" fill="#FFC600"/>
<path fill-rule="evenodd" clip-rule="evenodd" d="M6.90131 7.21536C6.81569 7.16086 6.74837 7.19199 6.70582 7.25432C6.64909 7.33749 6.49561 7.80986 6.49561 7.80986C6.49561 7.80986 6.88258 7.49028 6.93935 7.40711C6.9819 7.34478 6.98624 7.2709 6.90131 7.21536Z" fill="#FFC600"/>
<path fill-rule="evenodd" clip-rule="evenodd" d="M6.36252 4.56437C6.41818 4.48053 6.38639 4.41462 6.32273 4.37295C6.2378 4.31741 5.75537 4.16711 5.75537 4.16711C5.75537 4.16711 6.08175 4.54603 6.16669 4.60162C6.23035 4.64328 6.3058 4.64753 6.36252 4.56437Z" fill="#FFC600"/>
<path fill-rule="evenodd" clip-rule="evenodd" d="M9.60828 4.56437C9.66607 4.64683 9.74045 4.64328 9.80411 4.60162C9.88905 4.54603 10.2154 4.16711 10.2154 4.16711C10.2154 4.16711 9.733 4.31741 9.64807 4.37295C9.58441 4.41462 9.55155 4.4812 9.60828 4.56437Z" fill="#FFC600"/>
<path fill-rule="evenodd" clip-rule="evenodd" d="M9.06989 7.21534C8.98568 7.27192 8.9893 7.34475 9.03185 7.40708C9.08862 7.49025 9.4756 7.80983 9.4756 7.80983C9.4756 7.80983 9.32211 7.33746 9.26538 7.25429C9.22283 7.19196 9.15483 7.1598 9.06989 7.21534Z" fill="#FFC600"/>
<path fill-rule="evenodd" clip-rule="evenodd" d="M6.36252 6.68812C6.30473 6.60566 6.23035 6.6092 6.16669 6.65087C6.08175 6.70645 5.75537 7.08536 5.75537 7.08536C5.75537 7.08536 6.2378 6.93507 6.32273 6.87953C6.38639 6.83786 6.41924 6.77128 6.36252 6.68812Z" fill="#FFC600"/>
<path fill-rule="evenodd" clip-rule="evenodd" d="M6.90131 4.03713C6.98552 3.98054 6.9819 3.90771 6.93935 3.84538C6.88258 3.76221 6.49561 3.44263 6.49561 3.44263C6.49561 3.44263 6.6491 3.915 6.70582 3.99817C6.74837 4.0605 6.81637 4.09267 6.90131 4.03713Z" fill="#FFC600"/>
<path fill-rule="evenodd" clip-rule="evenodd" d="M9.90003 5.25339C9.92122 5.35123 9.99127 5.37581 10.0664 5.36119C10.1666 5.34169 10.6162 5.11389 10.6162 5.11389C10.6162 5.11389 10.1118 5.07198 10.0116 5.09148C9.9365 5.1061 9.88012 5.15531 9.90003 5.25339Z" fill="#FFC600"/>
<path fill-rule="evenodd" clip-rule="evenodd" d="M8.3665 7.50078C8.26659 7.52153 8.24148 7.59011 8.25642 7.66369C8.27633 7.76178 8.50897 8.20202 8.50897 8.20202C8.50897 8.20202 8.55177 7.70811 8.53186 7.61003C8.51692 7.53649 8.46667 7.48128 8.3665 7.50078Z" fill="#FFC600"/>
<path fill-rule="evenodd" clip-rule="evenodd" d="M6.07115 5.99914C6.04996 5.9013 5.97992 5.87672 5.90477 5.89134C5.8046 5.91085 5.35498 6.13864 5.35498 6.13864C5.35498 6.13864 5.85941 6.18055 5.95958 6.16105C6.03468 6.14643 6.09107 6.09722 6.07115 5.99914Z" fill="#FFC600"/>
<path fill-rule="evenodd" clip-rule="evenodd" d="M7.60473 3.75166C7.70464 3.73092 7.72975 3.66233 7.71481 3.58875C7.6949 3.49067 7.46226 3.05042 7.46226 3.05042C7.46226 3.05042 7.41945 3.54433 7.43936 3.64241C7.4543 3.71596 7.50456 3.77117 7.60473 3.75166Z" fill="#FFC600"/>
<path fill-rule="evenodd" clip-rule="evenodd" d="M7.67909 9.26953C7.63313 9.27203 7.58845 9.27786 7.54462 9.29161C7.48462 9.29953 7.42717 9.31995 7.3676 9.32953L7.34377 9.33328L7.30377 9.33703C7.30632 9.34786 7.30802 9.3587 7.30802 9.36953C7.30802 9.38078 7.30675 9.39161 7.30377 9.40078C7.30121 9.40953 7.29313 9.42036 7.28675 9.42703C7.27823 9.4362 7.2693 9.44411 7.25866 9.44911C7.24845 9.45411 7.23696 9.4562 7.22547 9.45703C7.21398 9.45745 7.20206 9.45703 7.191 9.45286C7.17951 9.44911 7.16887 9.44203 7.15909 9.4337C7.14717 9.43661 7.13483 9.4387 7.12334 9.43995C7.11143 9.4412 7.10036 9.4412 7.08972 9.43995C7.07781 9.43661 7.06547 9.43286 7.05398 9.42828C7.04249 9.4237 7.03143 9.41786 7.02079 9.4112C6.97738 9.4362 6.92887 9.45995 6.90249 9.5037C6.8876 9.5237 6.88462 9.54661 6.88121 9.57036C6.87908 9.59953 6.88674 9.63036 6.89951 9.65744C6.90419 9.66536 6.90802 9.62869 6.92249 9.62369C6.94674 9.60411 6.97696 9.58994 7.0076 9.58203C7.03355 9.56911 7.03015 9.58286 7.01951 9.60286C7.01696 9.61328 7.00249 9.65286 7.02206 9.63286C7.10845 9.59536 7.20419 9.58786 7.29738 9.58078C7.4327 9.56703 7.56845 9.56411 7.70419 9.56244C7.83185 9.56411 7.95951 9.56578 8.08717 9.57036C8.14802 9.57203 8.2093 9.58536 8.2693 9.57536C8.28377 9.57161 8.30632 9.57078 8.31483 9.56244C8.2876 9.54703 8.25568 9.54661 8.22547 9.54286H7.98207C7.91441 9.5362 7.84377 9.53536 7.77994 9.51036C7.76292 9.5037 7.74717 9.48786 7.731 9.50495C7.70675 9.51328 7.68079 9.51911 7.65526 9.52078C7.61058 9.52411 7.5659 9.51495 7.52462 9.4987C7.55441 9.45828 7.59015 9.42286 7.62292 9.38536C7.59653 9.3812 7.571 9.37578 7.54462 9.36953C7.591 9.33828 7.63398 9.30286 7.67909 9.26953Z" fill="#FFC600"/>
<mask id="mask0" mask-type="alpha" maskUnits="userSpaceOnUse" x="7" y="5" width="5" height="5">
<path fill-rule="evenodd" clip-rule="evenodd" d="M7.01953 5.87598H11.963V9.99863H7.01953V5.87598Z" fill="white"/>
</mask>
<g mask="url(#mask0)">
<path fill-rule="evenodd" clip-rule="evenodd" d="M7.01957 9.39826C7.09161 9.46284 7.14212 9.38609 7.20944 9.35805C7.43532 9.28201 7.63238 9.14909 7.82664 9.01626C7.94438 8.92088 8.04638 8.79722 8.20447 8.76626C8.51285 8.67497 8.84064 8.68605 9.15021 8.6018C9.38591 8.2858 9.78626 8.17305 10.1216 7.99143C10.1969 7.96851 10.226 7.90784 10.2501 7.84084C10.3781 7.64297 10.5525 7.46764 10.7588 7.34784C10.8563 7.29564 10.9728 7.26555 11.0832 7.28943C11.0753 7.41826 10.9998 7.53247 10.9087 7.62155C10.9833 7.61997 11.0474 7.57384 11.1227 7.57643C11.1486 7.70864 11.0027 7.77784 10.9252 7.86018C10.9684 7.87001 11.1339 7.8823 11.0437 7.92468C10.9287 8.0028 10.7974 8.05643 10.6913 8.14714C10.7892 8.16439 10.8004 8.18476 10.7009 8.21943C10.6469 8.25522 10.5433 8.26772 10.5333 8.33739C10.6072 8.38189 10.4992 8.42609 10.4575 8.44059C10.3779 8.45876 10.2942 8.49264 10.4 8.55193C10.36 8.61114 10.274 8.62376 10.204 8.61793C10.2252 8.68505 10.256 8.76014 10.1671 8.78976C9.96757 8.93739 9.73353 9.0448 9.48277 9.06934C9.796 9.09293 10.1186 9.03601 10.3863 8.86922C10.4216 8.8283 10.6069 8.78434 10.5032 8.74993C10.4545 8.73005 10.3499 8.70797 10.3428 8.67155C10.4877 8.58397 10.6704 8.61513 10.8263 8.56309C10.8304 8.51368 10.7077 8.52743 10.662 8.51618C10.5529 8.50743 10.5594 8.48018 10.6645 8.47005C10.7975 8.43559 10.9483 8.42876 11.0602 8.34384C10.969 8.30251 10.8544 8.33889 10.7572 8.30514C10.922 8.23451 11.1165 8.22743 11.2643 8.12134C11.3317 8.04797 11.178 8.07089 11.1333 8.07268C11.042 8.08822 10.9998 8.04547 11.1035 8.0083C11.2806 7.88047 11.5048 7.79743 11.6292 7.61209C11.6586 7.57064 11.6985 7.44564 11.6046 7.49059C11.4809 7.5308 11.3722 7.66684 11.2314 7.62476C11.5089 7.41422 11.7729 7.17451 11.9625 6.88314C11.9723 6.79909 11.8376 6.79001 11.8025 6.85601C11.6243 7.02418 11.4629 7.22268 11.2347 7.32814C11.4533 7.12155 11.634 6.87697 11.7916 6.62347C11.8254 6.54805 11.9163 6.45739 11.867 6.37368C11.7875 6.30926 11.6881 6.36822 11.6468 6.4453C11.5082 6.62243 11.403 6.82918 11.2248 6.97343C11.3808 6.68193 11.5423 6.37159 11.5463 6.03534C11.5458 5.96614 11.5316 5.86418 11.4356 5.87709C11.3595 5.89047 11.3775 6.00201 11.3462 6.05843C11.2771 6.28814 11.2447 6.53689 11.103 6.73805C11.1349 6.55139 11.1906 6.3568 11.1478 6.1683C11.1278 6.08405 10.9889 6.1203 11.0068 6.20368C10.8408 7.02693 10.2766 7.74693 9.53881 8.16343C9.20098 8.35059 8.82362 8.47122 8.4397 8.52593C8.33642 8.54809 8.22476 8.53509 8.12604 8.56955C7.88685 8.74914 7.74204 9.04964 7.43919 9.14376C7.30349 9.2098 7.12646 9.22322 7.02944 9.34668C7.02102 9.36247 7.01923 9.38076 7.01957 9.39826ZM9.66727 9.70134C9.57476 9.75572 9.50416 9.6593 9.42689 9.63038C9.37165 9.65976 9.3665 9.75801 9.31489 9.80451C9.25318 9.8733 9.17752 9.7853 9.18318 9.71747C9.10935 9.77838 9.07204 9.91651 8.95267 9.89805C8.89612 9.85284 8.85408 9.75801 8.81089 9.86601C8.77565 9.91876 8.68182 9.99384 8.63323 9.91417C8.61821 9.8438 8.58216 9.76105 8.54306 9.8728C8.51625 9.95188 8.43008 10.01 8.34676 9.97542C8.30114 9.93888 8.38331 9.80384 8.32523 9.81347C8.23842 9.86963 8.18799 10.0092 8.06684 9.99801C8.01978 9.9463 8.0954 9.85872 8.04378 9.8013C7.98289 9.87784 7.91531 9.98992 7.80999 9.99801C7.75906 9.95759 7.81199 9.84172 7.77948 9.82459C7.6714 9.88805 7.55731 10.0012 7.4214 9.96576C7.47438 9.76734 7.69574 9.69772 7.88186 9.68226C8.20216 9.64372 8.53914 9.71459 8.84731 9.60138C8.8971 9.57172 9.01774 9.52968 8.97476 9.46084C8.93672 9.40651 9.07374 9.42776 9.08693 9.3643C9.07876 9.28393 9.14982 9.29497 9.21923 9.28797C9.53042 9.2748 9.83778 9.33897 10.148 9.34988C10.1715 9.49793 10.0038 9.60184 9.8688 9.55613C9.80429 9.56634 9.70757 9.41093 9.72655 9.52401C9.71352 9.58334 9.72263 9.66172 9.66727 9.70134Z" fill="#FFC600"/>
</g>
<mask id="mask1" mask-type="alpha" maskUnits="userSpaceOnUse" x="4" y="5" width="4" height="5">
<path fill-rule="evenodd" clip-rule="evenodd" d="M4 5.87939H7.92603V9.05644H4V5.87939Z" fill="white"/>
</mask>
<g mask="url(#mask1)">
<path fill-rule="evenodd" clip-rule="evenodd" d="M7.92599 8.56306C7.88131 8.64248 7.85501 8.73377 7.79756 8.8049C7.62471 8.6509 7.37412 8.65598 7.15484 8.64573C6.97386 8.63627 6.77705 8.61994 6.63701 8.49352C6.48969 8.37535 6.36948 8.22198 6.20484 8.1261C6.05463 8.0861 5.90318 8.03606 5.78237 7.93523C5.52424 7.72919 5.37641 7.42352 5.1242 7.21106C5.07607 7.16473 5.01939 7.12881 4.96552 7.08948C4.91433 7.10169 4.93748 7.20985 4.87484 7.15473C4.84075 7.13098 4.75552 7.12865 4.74782 7.16185C4.82497 7.26135 4.90212 7.37494 4.91284 7.50223C4.86024 7.50748 4.76671 7.49131 4.74063 7.51052C4.8105 7.61302 4.90003 7.70394 5.00173 7.77631C4.95297 7.78398 4.8568 7.77981 4.83812 7.79906C4.93905 7.8796 5.04735 7.96198 5.17956 7.98269C5.20663 8.0176 5.13999 8.08506 5.19603 8.11485C5.2285 8.12785 5.33573 8.1496 5.26186 8.18581C5.21118 8.21927 5.22999 8.29719 5.2948 8.29544C5.33578 8.31594 5.42782 8.32094 5.43501 8.35644C5.39867 8.3926 5.28569 8.43552 5.38186 8.46944C5.47173 8.51823 5.5742 8.54994 5.6768 8.5534C5.62531 8.59581 5.56186 8.6199 5.50888 8.65981C5.74569 8.79577 6.00816 8.88519 6.26756 8.97131C6.37088 9.0051 6.47535 9.0366 6.58241 9.05644C6.27131 9.03885 5.97063 8.94865 5.68731 8.82523C5.54046 8.76219 5.39263 8.70123 5.24212 8.64694C5.30812 8.61331 5.38441 8.6051 5.45288 8.57598C5.3108 8.5481 5.15561 8.53898 5.03075 8.46252C5.0499 8.42906 5.12246 8.42748 5.16254 8.41048C5.23803 8.39277 5.28484 8.37131 5.17846 8.3649C5.07114 8.33635 4.94807 8.34915 4.85352 8.28577C4.85961 8.24777 4.95854 8.26102 4.99888 8.2446C5.04961 8.23606 5.10607 8.22894 5.14663 8.19548C4.98071 8.12815 4.76378 8.17585 4.63382 8.03244C4.60386 7.97777 4.72688 8.02181 4.7619 8.01269C4.85092 8.01269 4.94658 8.0404 5.03135 8.00523C4.78965 7.90135 4.53075 7.80406 4.34641 7.61185C4.32595 7.58098 4.26463 7.49656 4.31407 7.4861C4.45756 7.50469 4.56139 7.65802 4.71488 7.63415C4.73527 7.60727 4.62573 7.56315 4.59837 7.52469C4.37463 7.33669 4.15744 7.13265 4.00063 6.88635C3.98982 6.8041 4.12186 6.79181 4.15663 6.85531C4.32773 7.01669 4.48233 7.20502 4.69548 7.31519C4.7711 7.3511 4.65203 7.27269 4.6362 7.24427C4.43927 7.02035 4.25178 6.78385 4.11412 6.5201C4.08948 6.47256 4.04867 6.38656 4.12237 6.36123C4.19607 6.3251 4.26918 6.37435 4.30654 6.43631C4.45135 6.61515 4.5579 6.82765 4.73829 6.97665C4.58458 6.68465 4.42054 6.37727 4.41658 6.04127C4.42016 5.97615 4.42446 5.87765 4.51467 5.88031C4.59037 5.86906 4.57841 5.96402 4.60327 6.00927C4.67786 6.2561 4.71041 6.52331 4.86012 6.74123C4.82705 6.55815 4.77837 6.36956 4.81071 6.1834C4.8182 6.12227 4.88846 6.10377 4.93433 6.14073C4.97139 6.2296 4.97914 6.33935 5.01293 6.43435C5.20518 7.07835 5.63688 7.64477 6.19939 8.02485C6.66271 8.33602 7.21254 8.52173 7.77369 8.55415C7.82437 8.55844 7.87527 8.55994 7.92603 8.56298" fill="#FFC600"/>
</g>
<path fill-rule="evenodd" clip-rule="evenodd" d="M7.21381 9.35779C7.23049 9.35779 7.24402 9.37104 7.24402 9.38737C7.24402 9.40371 7.23049 9.41696 7.21381 9.41696C7.19713 9.41696 7.18359 9.40371 7.18359 9.38737C7.18359 9.37104 7.19713 9.35779 7.21381 9.35779Z" fill="#FFC600"/>
<path fill-rule="evenodd" clip-rule="evenodd" d="M7.21073 9.37047C7.21754 9.37047 7.22307 9.37588 7.22307 9.38255C7.22307 9.38917 7.21754 9.39459 7.21073 9.39459C7.20392 9.39459 7.19839 9.38917 7.19839 9.38255C7.19839 9.37588 7.20392 9.37047 7.21073 9.37047Z" fill="#FFC600"/>
</svg>
