<svg width="16" height="12" viewBox="0 0 16 12" fill="none" xmlns="http://www.w3.org/2000/svg" version="1.1">
<rect width="16" height="12" fill="#E30A17"/>
<path fill-rule="evenodd" clip-rule="evenodd" d="M7.92131 4.90868C7.53075 4.47362 6.964 4.19996 6.33333 4.19996C5.15513 4.19996 4.2 5.15509 4.2 6.33329C4.2 7.5115 5.15513 8.46663 6.33333 8.46663C6.964 8.46663 7.53075 8.19296 7.92131 7.7579C7.44867 8.50437 6.61554 8.99996 5.66667 8.99996C4.19391 8.99996 3 7.80605 3 6.33329C3 4.86053 4.19391 3.66663 5.66667 3.66663C6.61554 3.66663 7.44867 4.16222 7.92131 4.90868Z" fill="white"/>
<path fill-rule="evenodd" clip-rule="evenodd" d="M7.77783 6.33339L10.1898 7.11711L8.69913 5.06531V7.60147L10.1898 5.54967L7.77783 6.33339Z" fill="white"/>
</svg>
